<svg viewBox="0 0 330 200" xmlns="http://www.w3.org/2000/svg"><g><g><g><g><g><line x1="41.171875" y1="144.67221055298307" x2="36.171875" y2="144.67221055298307" style="visibility: inherit;" fill="rgb(0, 0, 0)" stroke="rgb(204, 204, 204)" stroke-width="1px"></line><line x1="41.171875" y1="53.08836261596281" x2="36.171875" y2="53.08836261596281" style="visibility: inherit;" fill="rgb(0, 0, 0)" stroke="rgb(204, 204, 204)" stroke-width="1px"></line></g><g transform="translate(31.171875, 0)"><text x="0" y="144.67221055298307" dx="0em" dy="0.3em" style="text-anchor: end; visibility: inherit; font-family: Roboto, sans-serif; font-size: 12px; font-weight: 200;" fill="rgb(50, 49, 63)" stroke="none" stroke-width="1px">0.8</text><text x="0" y="53.08836261596281" dx="0em" dy="0.3em" style="text-anchor: end; visibility: inherit; font-family: Roboto, sans-serif; font-size: 12px; font-weight: 200;" fill="rgb(50, 49, 63)" stroke="none" stroke-width="1px">0.9</text></g><line x1="41.171875" y1="0" x2="41.171875" y2="178" fill="rgb(0, 0, 0)" stroke="rgb(204, 204, 204)" stroke-width="1px"></line></g></g><g transform="translate(41, 0)" clip-path="url(#clip_0)"><clipPath id="clip_0"><rect width="288" height="178"></rect></clipPath><g><g><g><line x1="0" y1="0" x2="0" y2="178" fill="rgb(0, 0, 0)" stroke="rgb(60, 60, 60)" stroke-width="1px" opacity="0.25"></line><line x1="24.069010416666664" y1="0" x2="24.069010416666664" y2="178" fill="rgb(0, 0, 0)" stroke="rgb(60, 60, 60)" stroke-width="1px" opacity="0.25"></line><line x1="48.13802083333333" y1="0" x2="48.13802083333333" y2="178" fill="rgb(0, 0, 0)" stroke="rgb(60, 60, 60)" stroke-width="1px" opacity="0.25"></line><line x1="72.20703125" y1="0" x2="72.20703125" y2="178" fill="rgb(0, 0, 0)" stroke="rgb(60, 60, 60)" stroke-width="1px" opacity="0.25"></line><line x1="96.27604166666666" y1="0" x2="96.27604166666666" y2="178" fill="rgb(0, 0, 0)" stroke="rgb(60, 60, 60)" stroke-width="1px" opacity="0.25"></line><line x1="120.34505208333334" y1="0" x2="120.34505208333334" y2="178" fill="rgb(0, 0, 0)" stroke="rgb(60, 60, 60)" stroke-width="1px" opacity="0.25"></line><line x1="144.4140625" y1="0" x2="144.4140625" y2="178" fill="rgb(0, 0, 0)" stroke="rgb(60, 60, 60)" stroke-width="1px" opacity="0.25"></line><line x1="168.48307291666669" y1="0" x2="168.48307291666669" y2="178" fill="rgb(0, 0, 0)" stroke="rgb(60, 60, 60)" stroke-width="1px" opacity="0.25"></line><line x1="192.55208333333331" y1="0" x2="192.55208333333331" y2="178" fill="rgb(0, 0, 0)" stroke="rgb(60, 60, 60)" stroke-width="1px" opacity="0.25"></line><line x1="216.62109375" y1="0" x2="216.62109375" y2="178" fill="rgb(0, 0, 0)" stroke="rgb(60, 60, 60)" stroke-width="1px" opacity="0.25"></line><line x1="240.69010416666669" y1="0" x2="240.69010416666669" y2="178" fill="rgb(0, 0, 0)" stroke="rgb(60, 60, 60)" stroke-width="1px" opacity="0.25"></line><line x1="264.7591145833333" y1="0" x2="264.7591145833333" y2="178" fill="rgb(0, 0, 0)" stroke="rgb(60, 60, 60)" stroke-width="1px" opacity="0.25"></line><line x1="288.828125" y1="0" x2="288.828125" y2="178" fill="rgb(0, 0, 0)" stroke="rgb(60, 60, 60)" stroke-width="1px" opacity="0.25"></line></g><g><line x1="0" y1="144.67221055298307" x2="288.828125" y2="144.67221055298307" fill="rgb(0, 0, 0)" stroke="rgb(60, 60, 60)" stroke-width="1px" opacity="0.25"></line><line x1="0" y1="53.08836261596281" x2="288.828125" y2="53.08836261596281" fill="rgb(0, 0, 0)" stroke="rgb(60, 60, 60)" stroke-width="1px" opacity="0.25"></line></g></g></g><g><g><line x1="24.069010416666664" y1="0" x2="24.069010416666664" y2="178" fill="rgb(0, 0, 0)" stroke="rgb(153, 153, 153)" stroke-width="1.5px"></line></g></g><g><g><g><g><g><path stroke="rgb(255, 112, 67)" stroke-width="2px" d="M33.696614583333336,202.21902555374436L38.510416666666664,176.28900893605208L43.32421875,161.08509720486458L48.13802083333333,155.7444948214552L52.951822916666664,149.18277142643004L57.765625,143.9229645575942L62.579427083333336,138.94654851621937L67.39322916666667,136.47023317408977L72.20703125,129.33320228132345L77.02083333333333,124.93599709545592L81.83463541666667,127.13151968139897L86.6484375,125.17963813729921L91.46223958333333,120.07925205812316L96.27604166666666,118.62814678247871L101.08984375,114.77162737731001L105.90364583333333,114.77162737731001L110.71744791666667,112.37100070923786L115.53125,113.33038442323688L120.34505208333334,112.13133962276355L125.15885416666667,109.73883816551377L129.97265625,109.97776285442343L134.78645833333334,108.78392820560978L139.60026041666666,108.54537001257508L144.4140625,108.06847308469058L149.22786458333334,107.35367566591805L154.04166666666666,101.89539337612544L158.85546875,104.9758072373739L163.66927083333334,102.36851806146016L168.48307291666669,103.55259079497645L173.296875,99.76994230950565L178.11067708333334,97.41511805363709L182.92447916666666,96.94499687773907L187.73828125,97.88552364038145L192.55208333333331,96.71004283642488L197.36588541666666,94.83301630561341L202.1796875,97.65028527414746L206.99348958333334,92.02591802339825L211.80729166666666,96.24034763254183L216.62109375,92.9605099760686L221.43489583333334,92.25946072033749L226.24869791666666,94.83301630561341L231.0625,90.39313428582764L235.87630208333334,90.16015138721413L240.69010416666669,92.49307358330641L245.50390625,89.92723827677524L250.31770833333334,89.2289172567296L255.13151041666666,86.44194162162232L259.9453125,88.06649462527784" style="fill: none;" fill="none"></path></g><g><path stroke="rgb(187, 187, 187)" stroke-width="2px" d="M38.510416666666664,192.0630835544712L43.32421875,175.97338869387798L48.13802083333333,157.20620913469008L52.951822916666664,149.912363558573L57.765625,141.37960425960443L62.579427083333336,138.0142128561602L67.39322916666667,133.80094584756128L72.20703125,130.46812660888642L77.02083333333333,125.0160348973209L81.83463541666667,123.52604007641243L86.6484375,117.06707295542532L91.46223958333333,115.5922182517678L96.27604166666666,108.98974552507829L101.08984375,110.55668265425703L105.90364583333333,105.96926200588071L110.71744791666667,104.41153294569592L115.53125,102.44291905851463L120.34505208333334,99.96326832802954L125.15885416666667,98.21169166791965L129.97265625,93.90100245743446L134.78645833333334,93.38939399556149L139.60026041666666,90.6326181635245L144.4140625,91.04042919910114L149.22786458333334,86.16091792461148L154.04166666666666,87.78402174788167L158.85546875,84.84464633313647L163.66927083333334,83.42960643218309L168.48307291666669,83.42960643218309L173.296875,81.21118498398889L178.11067708333334,78.09588784327137L182.92447916666666,78.39683360319187L187.73828125,78.19619015524181L192.55208333333331,73.99475224695287L197.36588541666666,74.4937006030716L202.1796875,72.79850690545805L206.99348958333334,72.99770934315069L211.80729166666666,68.92330520887982L216.62109375,66.44935893039711L221.43489583333334,67.53691938179436L226.24869791666666,66.54816999227478L231.0625,67.33911085372719L235.87630208333334,66.15300106254027L240.69010416666669,62.01596370664781L245.50390625,64.67295591931543L250.31770833333334,61.52495567434007L255.13151041666666,61.91772687570014L259.9453125,60.83799209143399" style="fill: none;" fill="none"></path></g><g><path stroke="rgb(0, 153, 136)" stroke-width="2px" d="M24.069010416666664,135.23505523413903L28.8828125,115.97475371832931L33.696614583333336,103.07874530722162L38.510416666666664,95.53639076657068L43.32421875,91.3257105075851L48.13802083333333,88.76371808563734L52.951822916666664,81.12800373033129L57.765625,80.43759050463339L62.579427083333336,73.79460673261295L67.39322916666667,78.14045323298451L72.20703125,70.38077261014405L77.02083333333333,70.8350468032258L81.83463541666667,69.01938257407818L86.6484375,68.56611506420909L91.46223958333333,68.56611506420909L96.27604166666666,65.85209709054195L101.08984375,68.79271579108526L105.90364583333333,67.6604244187835L110.71744791666667,67.2079481680189L115.53125,63.82279531819745L120.34505208333334,64.49865837531377L125.15885416666667,63.82279531819745L129.97265625,65.40072392301172L134.78645833333334,61.57420391676895L139.60026041666666,65.62640392077026L144.4140625,62.92260959006481L149.22786458333334,65.85209709054195L154.04166666666666,62.92260959006481L158.85546875,60.67661612243437L163.66927083333334,60.00406562195649L168.48307291666669,60.90087693971084L173.296875,59.78001133071912L178.11067708333334,57.98994923114165L182.92447916666666,60.45236798055942L187.73828125,60.67661612243437L192.55208333333331,58.437039674212656L197.36588541666666,57.766474471243605L202.1796875,60.45236798055942L206.99348958333334,59.78001133071912L211.80729166666666,57.31971754161068L216.62109375,58.660707267881186L221.43489583333334,58.660707267881186L226.24869791666666,57.98994923114165L231.0625,57.98994923114165L235.87630208333334,55.535303950690675L240.69010416666669,56.87321715311009L245.50390625,59.55602158190525L250.31770833333334,55.31253345164466L255.13151041666666,57.766474471243605L259.9453125,57.766474471243605" style="fill: none;" fill="none"></path></g><g><path stroke="rgb(238, 51, 119)" stroke-width="2px" d="M24.069010416666664,235.76998864588154L28.8828125,124.16428388570557L33.696614583333336,100.47922193439602L38.510416666666664,85.2494322187687L43.32421875,74.9930222980008L48.13802083333333,66.54816999227478L52.951822916666664,60.2497008085208L57.765625,56.338902906735186L62.579427083333336,51.090280409776135L67.39322916666667,47.61082969451498L72.20703125,44.33892538096314L77.02083333333333,41.271970460766L81.83463541666667,38.884322915253115L86.6484375,38.12178923017246L91.46223958333333,36.21882099476679L96.27604166666666,33.84656592152573L101.08984375,34.60491648860615L105.90364583333333,32.6158716852137L110.71744791666667,31.292679599928334L115.53125,31.1038787460282L120.34505208333334,28.841287958931904L125.15885416666667,28.935433324735L129.97265625,29.21793783468457L134.78645833333334,27.712481627551874L139.60026041666666,27.43052345166008L144.4140625,25.741017562449105L149.22786458333334,26.39760042994942L154.04166666666666,26.77306816285972L158.85546875,25.084938977962985L163.66927083333334,24.335861727780504L168.48307291666669,24.8039318146752L173.296875,23.306989238642384L178.11067708333334,23.868023638711616L182.92447916666666,23.400466865232154L187.73828125,22.372880030610354L192.55208333333331,21.719685473852724L197.36588541666666,22.559622022753874L202.1796875,20.601163126433562L206.99348958333334,23.026673309555523L211.80729166666666,21.62640967805093L216.62109375,20.694316008372834L221.43489583333334,22.092851106397166L226.24869791666666,22.279525850030286L231.0625,21.906270639981333L235.87630208333334,20.41489083527454L240.69010416666669,21.160198464315577L245.50390625,23.026673309555523L250.31770833333334,20.508021402958455L255.13151041666666,21.066989755851985L259.9453125,21.160198464315577" style="fill: none;" fill="none"></path></g><g><path stroke="rgb(51, 187, 238)" stroke-width="2px" d="M24.069010416666664,109.02250427434599L28.8828125,79.97761981963282L33.696614583333336,72.88280910704297L38.510416666666664,69.246115451711L43.32421875,67.88676132102648L48.13802083333333,71.06230981346235L52.951822916666664,68.79271579108526L57.765625,67.2079481680189L62.579427083333336,68.33958035496023L67.39322916666667,63.82279531819745L72.20703125,66.7557350669053L77.02083333333333,65.17510940755936L81.83463541666667,67.4341533805549L86.6484375,68.33958035496023L91.46223958333333,69.246115451711L96.27604166666666,67.6604244187835L101.08984375,70.15370868028393L105.90364583333333,67.4341533805549L110.71744791666667,64.27330540952555L115.53125,65.85209709054195L120.34505208333334,65.62640392077026L125.15885416666667,71.06230981346235L129.97265625,70.15370868028393L134.78645833333334,62.02341271065327L139.60026041666666,67.88676132102648L144.4140625,64.27330540952555L149.22786458333334,66.07790815180788L154.04166666666666,72.655013463874L158.85546875,64.49865837531377L163.66927083333334,66.98180874288732L168.48307291666669,64.72407667164993L173.296875,73.79460673261295L178.11067708333334,63.37254609520317L182.92447916666666,66.98180874288732L187.73828125,65.62640392077026L192.55208333333331,64.49865837531377L197.36588541666666,65.85209709054195L202.1796875,69.01938257407818L206.99348958333334,62.697712864870795L211.80729166666666,66.52972710185128L216.62109375,66.7557350669053L221.43489583333334,64.49865837531377L226.24869791666666,61.125254486793565L231.0625,65.40072392301172L235.87630208333334,65.17510940755936L240.69010416666669,66.52972710185128L245.50390625,61.349696800012936L250.31770833333334,65.17510940755936L255.13151041666666,68.33958035496023L259.9453125,66.98180874288732" style="fill: none;" fill="none"></path></g><g><path stroke="rgb(204, 51, 17)" stroke-width="2px" d="M24.069010416666664,158.6509755588971L28.8828125,74.4937006030716L33.696614583333336,59.85771911632881L38.510416666666664,51.76868208867888L43.32421875,43.09147431219394L48.13802083333333,36.9794394255711L52.951822916666664,40.029476754050215L57.765625,40.698241716223116L62.579427083333336,36.21882099476679L67.39322916666667,34.03608423595205L72.20703125,38.97969222663974L77.02083333333333,32.332180302035134L81.83463541666667,36.40886805752254L86.6484375,34.51008221033235L91.46223958333333,33.562425250619285L96.27604166666666,32.42674931170388L101.08984375,34.51008221033235L105.90364583333333,31.954019238279802L110.71744791666667,32.8997167861289L115.53125,33.37302233349605L120.34505208333334,31.954019238279802L125.15885416666667,31.954019238279802L129.97265625,33.562425250619285L134.78645833333334,30.82068832940821L139.60026041666666,29.21793783468457L144.4140625,26.960870040477044L149.22786458333334,33.08900443417766L154.04166666666666,30.53760101377553L158.85546875,31.38712226007759L163.66927083333334,30.348933377950917L168.48307291666669,32.143076780765355L173.296875,29.21793783468457L178.11067708333334,31.198248409359593L182.92447916666666,28.0885849771381L187.73828125,29.02959009078709L192.55208333333331,28.653031417032658L197.36588541666666,27.806490411409293L202.1796875,30.254616724085587L206.99348958333334,30.915073675574703L211.80729166666666,30.44326147358876L216.62109375,31.292679599928334L221.43489583333334,29.312128818055502L226.24869791666666,28.747153990617555L231.0625,28.653031417032658L235.87630208333334,26.491450367227976L240.69010416666669,29.02959009078709L245.50390625,27.900510562459782L250.31770833333334,28.558920235418928L255.13151041666666,29.312128818055502L259.9453125,26.86696343179019" style="fill: none;" fill="none"></path></g><g><path stroke="rgb(0, 119, 187)" stroke-width="2px" d="M24.069010416666664,133.7553584846885L28.8828125,121.77570366758049L33.696614583333336,97.41511805363709L38.510416666666664,94.36445322954873L43.32421875,92.72675665447933L48.13802083333333,90.62618701444984L52.951822916666664,84.82082933833715L57.765625,85.74674230491279L62.579427083333336,86.67381292010974L67.39322916666667,84.58950986367992L72.20703125,78.82888212608717L77.02083333333333,85.74674230491279L81.83463541666667,74.9359255977689L86.6484375,74.70752776594234L91.46223958333333,72.42728453631702L96.27604166666666,81.8190839657216L101.08984375,63.59763811704197L105.90364583333333,66.52972710185128L110.71744791666667,75.3929226253809L115.53125,64.72407667164993L120.34505208333334,70.38077261014405L125.15885416666667,69.92671103818569L129.97265625,70.38077261014405L134.78645833333334,68.33958035496023L139.60026041666666,70.60790286649198L144.4140625,72.1996222853048L149.22786458333334,75.85013537566306L154.04166666666666,71.06230981346235L158.85546875,66.7557350669053L163.66927083333334,65.62640392077026L168.48307291666669,69.47291446254052L173.296875,68.11316412563895L178.11067708333334,68.56611506420909L182.92447916666666,71.06230981346235L187.73828125,67.6604244187835L192.55208333333331,72.42728453631702L197.36588541666666,68.79271579108526L202.1796875,66.52972710185128L206.99348958333334,66.7557350669053L211.80729166666666,69.47291446254052L216.62109375,68.79271579108526L221.43489583333334,71.06230981346235L226.24869791666666,69.246115451711L231.0625,60.67661612243437L235.87630208333334,71.74449765681737L240.69010416666669,67.4341533805549L245.50390625,65.62640392077026L250.31770833333334,67.4341533805549L255.13151041666666,71.28963926655949L259.9453125,70.15370868028393" style="fill: none;" fill="none"></path></g><g><path stroke="rgb(255, 112, 67)" stroke-width="2px" d="M24.069010416666664,198.5933553912611L28.8828125,113.91008041289629L33.696614583333336,90.32690018803201L38.510416666666664,81.71478705240375L43.32421875,73.89499040561329L48.13802083333333,64.18026773966224L52.951822916666664,62.70396925557596L57.765625,59.368019718190894L62.579427083333336,55.07211829761864L67.39322916666667,54.780064331036264L72.20703125,51.574792633559575L77.02083333333333,56.43643739178143L81.83463541666667,53.904560029940825L86.6484375,43.666972288069935L91.46223958333333,46.26189517223848L96.27604166666666,45.299815822013805L101.08984375,45.395975306514124L105.90364583333333,42.80393579349851L110.71744791666667,46.64708089485063L115.53125,42.89978709432415L120.34505208333334,44.627032195559515L125.15885416666667,44.627032195559515L129.97265625,41.4633074870978L134.78645833333334,41.08068050560975L139.60026041666666,39.17041536564475L144.4140625,41.94180537833656L149.22786458333334,38.884322915253115L154.04166666666666,35.743780557400704L158.85546875,37.83603177866039L163.66927083333334,36.69410140635635L168.48307291666669,36.0287699921885L173.296875,35.743780557400704L178.11067708333334,36.69410140635635L182.92447916666666,36.59901199716198L187.73828125,35.174114855867344L192.55208333333331,36.789202445592366L197.36588541666666,35.174114855867344L202.1796875,35.743780557400704L206.99348958333334,34.41525949695049L211.80729166666666,33.94131930474609L216.62109375,34.69976233459322L221.43489583333334,34.22564875358246L226.24869791666666,34.69976233459322L231.0625,34.22564875358246L235.87630208333334,34.98436930706278L240.69010416666669,36.0287699921885L245.50390625,33.75187431469082L250.31770833333334,30.82068832940821L255.13151041666666,36.40886805752254L259.9453125,33.08900443417766" style="fill: none;" fill="none"></path></g></g></g></g></g></g><g transform="translate(41, 178)" clip-path="url(#clip_1)"><clipPath id="clip_1"><rect width="288" height="22"></rect></clipPath><g><g><line x1="0" y1="0" x2="0" y2="5" style="visibility: inherit;" fill="rgb(0, 0, 0)" stroke="rgb(204, 204, 204)" stroke-width="1px"></line><line x1="24.069010416666664" y1="0" x2="24.069010416666664" y2="5" style="visibility: inherit;" fill="rgb(0, 0, 0)" stroke="rgb(204, 204, 204)" stroke-width="1px"></line><line x1="48.13802083333333" y1="0" x2="48.13802083333333" y2="5" style="visibility: inherit;" fill="rgb(0, 0, 0)" stroke="rgb(204, 204, 204)" stroke-width="1px"></line><line x1="72.20703125" y1="0" x2="72.20703125" y2="5" style="visibility: inherit;" fill="rgb(0, 0, 0)" stroke="rgb(204, 204, 204)" stroke-width="1px"></line><line x1="96.27604166666666" y1="0" x2="96.27604166666666" y2="5" style="visibility: inherit;" fill="rgb(0, 0, 0)" stroke="rgb(204, 204, 204)" stroke-width="1px"></line><line x1="120.34505208333334" y1="0" x2="120.34505208333334" y2="5" style="visibility: inherit;" fill="rgb(0, 0, 0)" stroke="rgb(204, 204, 204)" stroke-width="1px"></line><line x1="144.4140625" y1="0" x2="144.4140625" y2="5" style="visibility: inherit;" fill="rgb(0, 0, 0)" stroke="rgb(204, 204, 204)" stroke-width="1px"></line><line x1="168.48307291666669" y1="0" x2="168.48307291666669" y2="5" style="visibility: inherit;" fill="rgb(0, 0, 0)" stroke="rgb(204, 204, 204)" stroke-width="1px"></line><line x1="192.55208333333331" y1="0" x2="192.55208333333331" y2="5" style="visibility: inherit;" fill="rgb(0, 0, 0)" stroke="rgb(204, 204, 204)" stroke-width="1px"></line><line x1="216.62109375" y1="0" x2="216.62109375" y2="5" style="visibility: inherit;" fill="rgb(0, 0, 0)" stroke="rgb(204, 204, 204)" stroke-width="1px"></line><line x1="240.69010416666669" y1="0" x2="240.69010416666669" y2="5" style="visibility: inherit;" fill="rgb(0, 0, 0)" stroke="rgb(204, 204, 204)" stroke-width="1px"></line><line x1="264.7591145833333" y1="0" x2="264.7591145833333" y2="5" style="visibility: inherit;" fill="rgb(0, 0, 0)" stroke="rgb(204, 204, 204)" stroke-width="1px"></line><line x1="288.828125" y1="0" x2="288.828125" y2="5" style="visibility: inherit;" fill="rgb(0, 0, 0)" stroke="rgb(204, 204, 204)" stroke-width="1px"></line></g><g transform="translate(0, 8)"><text x="0" y="0" dx="0em" dy="0.95em" style="text-anchor: middle; visibility: hidden; font-family: Roboto, sans-serif; font-size: 12px; font-weight: 200;" fill="rgb(50, 49, 63)" stroke="none" stroke-width="1px">-5</text><text x="24.069010416666664" y="0" dx="0em" dy="0.95em" style="text-anchor: middle; visibility: inherit; font-family: Roboto, sans-serif; font-size: 12px; font-weight: 200;" fill="rgb(50, 49, 63)" stroke="none" stroke-width="1px">0</text><text x="48.13802083333333" y="0" dx="0em" dy="0.95em" style="text-anchor: middle; visibility: inherit; font-family: Roboto, sans-serif; font-size: 12px; font-weight: 200;" fill="rgb(50, 49, 63)" stroke="none" stroke-width="1px">5</text><text x="72.20703125" y="0" dx="0em" dy="0.95em" style="text-anchor: middle; visibility: inherit; font-family: Roboto, sans-serif; font-size: 12px; font-weight: 200;" fill="rgb(50, 49, 63)" stroke="none" stroke-width="1px">10</text><text x="96.27604166666666" y="0" dx="0em" dy="0.95em" style="text-anchor: middle; visibility: inherit; font-family: Roboto, sans-serif; font-size: 12px; font-weight: 200;" fill="rgb(50, 49, 63)" stroke="none" stroke-width="1px">15</text><text x="120.34505208333334" y="0" dx="0em" dy="0.95em" style="text-anchor: middle; visibility: inherit; font-family: Roboto, sans-serif; font-size: 12px; font-weight: 200;" fill="rgb(50, 49, 63)" stroke="none" stroke-width="1px">20</text><text x="144.4140625" y="0" dx="0em" dy="0.95em" style="text-anchor: middle; visibility: inherit; font-family: Roboto, sans-serif; font-size: 12px; font-weight: 200;" fill="rgb(50, 49, 63)" stroke="none" stroke-width="1px">25</text><text x="168.48307291666669" y="0" dx="0em" dy="0.95em" style="text-anchor: middle; visibility: inherit; font-family: Roboto, sans-serif; font-size: 12px; font-weight: 200;" fill="rgb(50, 49, 63)" stroke="none" stroke-width="1px">30</text><text x="192.55208333333331" y="0" dx="0em" dy="0.95em" style="text-anchor: middle; visibility: inherit; font-family: Roboto, sans-serif; font-size: 12px; font-weight: 200;" fill="rgb(50, 49, 63)" stroke="none" stroke-width="1px">35</text><text x="216.62109375" y="0" dx="0em" dy="0.95em" style="text-anchor: middle; visibility: inherit; font-family: Roboto, sans-serif; font-size: 12px; font-weight: 200;" fill="rgb(50, 49, 63)" stroke="none" stroke-width="1px">40</text><text x="240.69010416666669" y="0" dx="0em" dy="0.95em" style="text-anchor: middle; visibility: inherit; font-family: Roboto, sans-serif; font-size: 12px; font-weight: 200;" fill="rgb(50, 49, 63)" stroke="none" stroke-width="1px">45</text><text x="264.7591145833333" y="0" dx="0em" dy="0.95em" style="text-anchor: middle; visibility: inherit; font-family: Roboto, sans-serif; font-size: 12px; font-weight: 200;" fill="rgb(50, 49, 63)" stroke="none" stroke-width="1px">50</text><text x="288.828125" y="0" dx="0em" dy="0.95em" style="text-anchor: middle; visibility: hidden; font-family: Roboto, sans-serif; font-size: 12px; font-weight: 200;" fill="rgb(50, 49, 63)" stroke="none" stroke-width="1px">55</text></g><line x1="0" y1="0" x2="288.828125" y2="0" fill="rgb(0, 0, 0)" stroke="rgb(204, 204, 204)" stroke-width="1px"></line></g></g></g></g></svg>