<svg viewBox="0 0 330 200" xmlns="http://www.w3.org/2000/svg"><g><g><g><g><g><line x1="51.5625" y1="178" x2="46.5625" y2="178" style="visibility: inherit;" fill="rgb(0, 0, 0)" stroke="rgb(204, 204, 204)" stroke-width="1px"></line><line x1="51.5625" y1="160.20000000000002" x2="46.5625" y2="160.20000000000002" style="visibility: inherit;" fill="rgb(0, 0, 0)" stroke="rgb(204, 204, 204)" stroke-width="1px"></line><line x1="51.5625" y1="142.4" x2="46.5625" y2="142.4" style="visibility: inherit;" fill="rgb(0, 0, 0)" stroke="rgb(204, 204, 204)" stroke-width="1px"></line><line x1="51.5625" y1="124.6" x2="46.5625" y2="124.6" style="visibility: inherit;" fill="rgb(0, 0, 0)" stroke="rgb(204, 204, 204)" stroke-width="1px"></line><line x1="51.5625" y1="106.8" x2="46.5625" y2="106.8" style="visibility: inherit;" fill="rgb(0, 0, 0)" stroke="rgb(204, 204, 204)" stroke-width="1px"></line><line x1="51.5625" y1="89" x2="46.5625" y2="89" style="visibility: inherit;" fill="rgb(0, 0, 0)" stroke="rgb(204, 204, 204)" stroke-width="1px"></line><line x1="51.5625" y1="71.2" x2="46.5625" y2="71.2" style="visibility: inherit;" fill="rgb(0, 0, 0)" stroke="rgb(204, 204, 204)" stroke-width="1px"></line><line x1="51.5625" y1="53.400000000000006" x2="46.5625" y2="53.400000000000006" style="visibility: inherit;" fill="rgb(0, 0, 0)" stroke="rgb(204, 204, 204)" stroke-width="1px"></line><line x1="51.5625" y1="35.599999999999994" x2="46.5625" y2="35.599999999999994" style="visibility: inherit;" fill="rgb(0, 0, 0)" stroke="rgb(204, 204, 204)" stroke-width="1px"></line><line x1="51.5625" y1="17.799999999999997" x2="46.5625" y2="17.799999999999997" style="visibility: inherit;" fill="rgb(0, 0, 0)" stroke="rgb(204, 204, 204)" stroke-width="1px"></line><line x1="51.5625" y1="0" x2="46.5625" y2="0" style="visibility: inherit;" fill="rgb(0, 0, 0)" stroke="rgb(204, 204, 204)" stroke-width="1px"></line></g><g transform="translate(41.5625, 0)"><text x="0" y="178" dx="0em" dy="0.3em" style="text-anchor: end; visibility: hidden; font-family: Roboto, sans-serif; font-size: 12px; font-weight: 200;" fill="rgb(50, 49, 63)" stroke="none" stroke-width="1px">-0.5</text><text x="0" y="160.20000000000002" dx="0em" dy="0.3em" style="text-anchor: end; visibility: inherit; font-family: Roboto, sans-serif; font-size: 12px; font-weight: 200;" fill="rgb(50, 49, 63)" stroke="none" stroke-width="1px">0</text><text x="0" y="142.4" dx="0em" dy="0.3em" style="text-anchor: end; visibility: hidden; font-family: Roboto, sans-serif; font-size: 12px; font-weight: 200;" fill="rgb(50, 49, 63)" stroke="none" stroke-width="1px">0.5</text><text x="0" y="124.6" dx="0em" dy="0.3em" style="text-anchor: end; visibility: inherit; font-family: Roboto, sans-serif; font-size: 12px; font-weight: 200;" fill="rgb(50, 49, 63)" stroke="none" stroke-width="1px">1</text><text x="0" y="106.8" dx="0em" dy="0.3em" style="text-anchor: end; visibility: hidden; font-family: Roboto, sans-serif; font-size: 12px; font-weight: 200;" fill="rgb(50, 49, 63)" stroke="none" stroke-width="1px">1.5</text><text x="0" y="89" dx="0em" dy="0.3em" style="text-anchor: end; visibility: inherit; font-family: Roboto, sans-serif; font-size: 12px; font-weight: 200;" fill="rgb(50, 49, 63)" stroke="none" stroke-width="1px">2</text><text x="0" y="71.2" dx="0em" dy="0.3em" style="text-anchor: end; visibility: hidden; font-family: Roboto, sans-serif; font-size: 12px; font-weight: 200;" fill="rgb(50, 49, 63)" stroke="none" stroke-width="1px">2.5</text><text x="0" y="53.400000000000006" dx="0em" dy="0.3em" style="text-anchor: end; visibility: inherit; font-family: Roboto, sans-serif; font-size: 12px; font-weight: 200;" fill="rgb(50, 49, 63)" stroke="none" stroke-width="1px">3</text><text x="0" y="35.599999999999994" dx="0em" dy="0.3em" style="text-anchor: end; visibility: hidden; font-family: Roboto, sans-serif; font-size: 12px; font-weight: 200;" fill="rgb(50, 49, 63)" stroke="none" stroke-width="1px">3.5</text><text x="0" y="17.799999999999997" dx="0em" dy="0.3em" style="text-anchor: end; visibility: inherit; font-family: Roboto, sans-serif; font-size: 12px; font-weight: 200;" fill="rgb(50, 49, 63)" stroke="none" stroke-width="1px">4</text><text x="0" y="0" dx="0em" dy="0.3em" style="text-anchor: end; visibility: hidden; font-family: Roboto, sans-serif; font-size: 12px; font-weight: 200;" fill="rgb(50, 49, 63)" stroke="none" stroke-width="1px">4.5</text></g><line x1="51.5625" y1="0" x2="51.5625" y2="178" fill="rgb(0, 0, 0)" stroke="rgb(204, 204, 204)" stroke-width="1px"></line></g></g><g transform="translate(51, 0)" clip-path="url(#clip_0)"><clipPath id="clip_0"><rect width="278" height="178"></rect></clipPath><g><g><g><line x1="0" y1="0" x2="0" y2="178" fill="rgb(0, 0, 0)" stroke="rgb(60, 60, 60)" stroke-width="1px" opacity="0.25"></line><line x1="23.203125" y1="0" x2="23.203125" y2="178" fill="rgb(0, 0, 0)" stroke="rgb(60, 60, 60)" stroke-width="1px" opacity="0.25"></line><line x1="46.40625" y1="0" x2="46.40625" y2="178" fill="rgb(0, 0, 0)" stroke="rgb(60, 60, 60)" stroke-width="1px" opacity="0.25"></line><line x1="69.609375" y1="0" x2="69.609375" y2="178" fill="rgb(0, 0, 0)" stroke="rgb(60, 60, 60)" stroke-width="1px" opacity="0.25"></line><line x1="92.8125" y1="0" x2="92.8125" y2="178" fill="rgb(0, 0, 0)" stroke="rgb(60, 60, 60)" stroke-width="1px" opacity="0.25"></line><line x1="116.015625" y1="0" x2="116.015625" y2="178" fill="rgb(0, 0, 0)" stroke="rgb(60, 60, 60)" stroke-width="1px" opacity="0.25"></line><line x1="139.21875" y1="0" x2="139.21875" y2="178" fill="rgb(0, 0, 0)" stroke="rgb(60, 60, 60)" stroke-width="1px" opacity="0.25"></line><line x1="162.421875" y1="0" x2="162.421875" y2="178" fill="rgb(0, 0, 0)" stroke="rgb(60, 60, 60)" stroke-width="1px" opacity="0.25"></line><line x1="185.625" y1="0" x2="185.625" y2="178" fill="rgb(0, 0, 0)" stroke="rgb(60, 60, 60)" stroke-width="1px" opacity="0.25"></line><line x1="208.828125" y1="0" x2="208.828125" y2="178" fill="rgb(0, 0, 0)" stroke="rgb(60, 60, 60)" stroke-width="1px" opacity="0.25"></line><line x1="232.03125" y1="0" x2="232.03125" y2="178" fill="rgb(0, 0, 0)" stroke="rgb(60, 60, 60)" stroke-width="1px" opacity="0.25"></line><line x1="255.234375" y1="0" x2="255.234375" y2="178" fill="rgb(0, 0, 0)" stroke="rgb(60, 60, 60)" stroke-width="1px" opacity="0.25"></line><line x1="278.4375" y1="0" x2="278.4375" y2="178" fill="rgb(0, 0, 0)" stroke="rgb(60, 60, 60)" stroke-width="1px" opacity="0.25"></line></g><g><line x1="0" y1="178" x2="278.4375" y2="178" fill="rgb(0, 0, 0)" stroke="rgb(60, 60, 60)" stroke-width="1px" opacity="0.25"></line><line x1="0" y1="160.20000000000002" x2="278.4375" y2="160.20000000000002" fill="rgb(0, 0, 0)" stroke="rgb(60, 60, 60)" stroke-width="1px" opacity="0.25"></line><line x1="0" y1="142.4" x2="278.4375" y2="142.4" fill="rgb(0, 0, 0)" stroke="rgb(60, 60, 60)" stroke-width="1px" opacity="0.25"></line><line x1="0" y1="124.6" x2="278.4375" y2="124.6" fill="rgb(0, 0, 0)" stroke="rgb(60, 60, 60)" stroke-width="1px" opacity="0.25"></line><line x1="0" y1="106.8" x2="278.4375" y2="106.8" fill="rgb(0, 0, 0)" stroke="rgb(60, 60, 60)" stroke-width="1px" opacity="0.25"></line><line x1="0" y1="89" x2="278.4375" y2="89" fill="rgb(0, 0, 0)" stroke="rgb(60, 60, 60)" stroke-width="1px" opacity="0.25"></line><line x1="0" y1="71.2" x2="278.4375" y2="71.2" fill="rgb(0, 0, 0)" stroke="rgb(60, 60, 60)" stroke-width="1px" opacity="0.25"></line><line x1="0" y1="53.400000000000006" x2="278.4375" y2="53.400000000000006" fill="rgb(0, 0, 0)" stroke="rgb(60, 60, 60)" stroke-width="1px" opacity="0.25"></line><line x1="0" y1="35.599999999999994" x2="278.4375" y2="35.599999999999994" fill="rgb(0, 0, 0)" stroke="rgb(60, 60, 60)" stroke-width="1px" opacity="0.25"></line><line x1="0" y1="17.799999999999997" x2="278.4375" y2="17.799999999999997" fill="rgb(0, 0, 0)" stroke="rgb(60, 60, 60)" stroke-width="1px" opacity="0.25"></line><line x1="0" y1="0" x2="278.4375" y2="0" fill="rgb(0, 0, 0)" stroke="rgb(60, 60, 60)" stroke-width="1px" opacity="0.25"></line></g></g></g><g><g><line x1="0" y1="160.20000000000002" x2="278.4375" y2="160.20000000000002" fill="rgb(0, 0, 0)" stroke="rgb(153, 153, 153)" stroke-width="1.5px"></line></g></g><g><g><line x1="23.203125" y1="0" x2="23.203125" y2="178" fill="rgb(0, 0, 0)" stroke="rgb(153, 153, 153)" stroke-width="1.5px"></line></g></g><g><g><g><g><g><path stroke="rgb(255, 112, 67)" stroke-width="2px" d="M23.203125,94.15567173957825L27.84375,114.45682334899902L32.484375,125.47674560546875L37.125,131.4584234714508L41.765625,135.02594017982483L46.40625,137.6039436817169L51.04687499999999,139.28913435935974L55.6875,140.43418681621552L60.328125,141.61070742607117L64.96875,142.4585046648979L69.609375,143.52996450662613L74.25,144.07350947856904L78.890625,144.3226224541664L83.53125,144.90017976760865L88.171875,145.20930185317994L92.8125,145.61312440633773L97.453125,146.13116595745086L102.09374999999999,146.33465965986252L106.73437500000001,146.66064574718476L111.375,146.91129817962647L116.015625,146.94820376634598L120.65625,147.44910970926284L125.296875,147.59859828948973L129.9375,147.86131386756895L134.578125,147.92168794870375L139.21875,148.11700056791304L143.85937500000003,148.0744029164314L148.5,148.54983832836152L153.140625,148.5340989470482L157.78125,148.7699891448021L162.421875,148.91850057840347L167.0625,148.89087735414503L171.703125,149.16096980571749L176.34375,149.20978151559828L180.984375,149.23905984163284L185.625,149.42847138643265L190.265625,149.63447320461273L194.90625,149.5704059123993L199.546875,149.8028363108635L204.18749999999997,149.84302557706835L208.828125,149.82400888204575L213.46875000000003,149.9484364628792L218.109375,149.99094817638397L222.75,150.18734616041183L227.390625,150.16111385822296L232.03125,150.16028206348417L236.671875,150.32232819795607L241.3125,150.5196035981178L245.953125,150.64826760292053L250.59375,150.57183479070662" style="fill: none;" fill="none"></path></g><g><path stroke="rgb(187, 187, 187)" stroke-width="2px" d="M23.203125,76.61648607254028L27.84375,104.15936574935913L32.484375,119.13063554763794L37.125,127.3325518131256L41.765625,132.04420006275177L46.40625,135.32007086277008L51.04687499999999,137.49210124015806L55.6875,139.30419154167177L60.328125,140.45863564014437L64.96875,141.48084347248076L69.609375,142.33008468151093L74.25,143.1254682421684L78.890625,143.7851207256317L83.53125,144.5335089445114L88.171875,144.85572118759157L92.8125,145.50167770385744L97.453125,145.87053198814394L102.09374999999999,146.29019683599472L106.73437500000001,146.705186021328L111.375,146.96546244621277L116.015625,147.33547211885454L120.65625,147.52044247388838L125.296875,147.92348734140396L129.9375,148.2378654360771L134.578125,148.38280460834503L139.21875,148.66469602584837L143.85937500000003,148.9048268914223L148.5,149.0316957473755L153.140625,149.37750804424286L157.78125,149.49431154727935L162.421875,149.5824181318283L167.0625,149.9347670197487L171.703125,150.0649757862091L176.34375,150.1833993792534L180.984375,150.22917779684067L185.625,150.5288032054901L190.265625,150.68470530509947L194.90625,150.82813048362732L199.546875,151.00229917764662L204.18749999999997,151.11155711412428L208.828125,151.3411796748638L213.46875000000003,151.3792592167854L218.109375,151.49686958193777L222.75,151.5880221903324L227.390625,151.6791801035404L232.03125,151.86877784729003L236.671875,151.95130535960197L241.3125,152.17559180855753L245.953125,152.2422361791134L250.59375,152.30589340925215" style="fill: none;" fill="none"></path></g><g><path stroke="rgb(0, 153, 136)" stroke-width="2px" d="M23.203125,142.9490259051323L27.84375,146.87536231279373L32.484375,148.53733382225036L37.125,149.58737070560457L41.765625,150.18013373613357L46.40625,150.78049219846727L51.04687499999999,151.23763873577118L55.6875,151.54525213241575L60.328125,151.9002969264984L64.96875,152.05796022415163L69.609375,152.36265172958375L74.25,152.40892084240912L78.890625,152.60347328186035L83.53125,152.77254139781L88.171875,152.86302506923676L92.8125,152.9352713227272L97.453125,152.98535247445105L102.09374999999999,153.00241063237192L106.73437500000001,153.16150994300844L111.375,153.12155037522317L116.015625,153.10212733149527L120.65625,153.38050271868704L125.296875,153.23112978339194L129.9375,153.29115109443663L134.578125,153.38855383396148L139.21875,153.3209530055523L143.85937500000003,153.20115440487862L148.5,153.32524831295015L153.140625,153.38848646283148L157.78125,153.33234986662865L162.421875,153.35435264110563L167.0625,153.3470038831234L171.703125,153.4035203039646L176.34375,153.28870928883552L180.984375,153.3373798906803L185.625,153.36176240444183L190.265625,153.32725989818573L194.90625,153.25604490041732L199.546875,153.2727577149868L204.18749999999997,153.29341253638268L208.828125,153.14572281837465L213.46875000000003,153.14367462992666L218.109375,153.10878964662552L222.75,153.03902604579926L227.390625,153.11007288098335L232.03125,153.10770852565767L236.671875,152.87548183202742L241.3125,152.88062113523483L245.953125,152.87814750075339L250.59375,152.8926190316677" style="fill: none;" fill="none"></path></g><g><path stroke="rgb(238, 51, 119)" stroke-width="2px" d="M23.203125,126.15283133983613L27.84375,144.58535712957382L32.484375,147.6223161101341L37.125,149.35331066846848L41.765625,150.67529032230377L46.40625,151.7171816647053L51.04687499999999,152.49720407724382L55.6875,153.05148440003396L60.328125,153.69878197312354L64.96875,154.0877547621727L69.609375,154.4262777149677L74.25,154.77041793465614L78.890625,155.05438936948778L83.53125,155.41212105154992L88.171875,155.63112284541128L92.8125,155.8051501661539L97.453125,156.02819688022137L102.09374999999999,156.23936213850973L106.73437500000001,156.37272143363953L111.375,156.447915571928L116.015625,156.62361125648022L120.65625,156.71679136455057L125.296875,156.80659999847413L129.9375,156.9421777665615L134.578125,157.0887465775013L139.21875,157.1739434719086L143.85937500000003,157.20748395025728L148.5,157.204818546772L153.140625,157.34092838764192L157.78125,157.44639046490192L162.421875,157.53203773796557L167.0625,157.61091315150261L171.703125,157.59735484421253L176.34375,157.5411516726017L180.984375,157.70657936036585L185.625,157.93502770066263L190.265625,157.65314901471137L194.90625,157.87266192734242L199.546875,157.81769928634165L204.18749999999997,157.8949564665556L208.828125,157.93789468705654L213.46875000000003,157.8707463592291L218.109375,157.93032922744752L222.75,158.01413718909023L227.390625,158.1441974207759L232.03125,158.11430506259202L236.671875,157.89563999176025L241.3125,158.18739146590232L245.953125,158.10802973359822L250.59375,158.08693819344043" style="fill: none;" fill="none"></path></g><g><path stroke="rgb(51, 187, 238)" stroke-width="2px" d="M23.203125,149.17477823495867L27.84375,151.1063796162605L32.484375,151.5276024878025L37.125,151.98637919425963L41.765625,151.46619025468826L46.40625,150.59960018396376L51.04687499999999,150.9176937699318L55.6875,150.38501623868942L60.328125,149.64141826629637L64.96875,150.28984682559965L69.609375,149.315790784359L74.25,149.332319521904L78.890625,148.26358317136763L83.53125,147.7707638859749L88.171875,147.1697274684906L92.8125,147.15089432001113L97.453125,146.54259136915206L102.09374999999999,145.79121017456055L106.73437500000001,146.12208305597304L111.375,145.47083233594893L116.015625,145.31697471141817L120.65625,144.42380328178407L125.296875,143.75822319984437L129.9375,144.57162615060807L134.578125,143.52582993507386L139.21875,143.3105850100517L143.85937500000003,142.06350083351137L148.5,142.9570160150528L153.140625,141.83484427928923L157.78125,140.5052734375L162.421875,141.4831542491913L167.0625,139.9105805158615L171.703125,141.47097651958464L176.34375,140.86234254837038L180.984375,141.2528956413269L185.625,139.9649209022522L190.265625,139.63339552879333L194.90625,139.8789426088333L199.546875,138.64558835029604L204.18749999999997,138.96345701217652L208.828125,138.71968173980713L213.46875000000003,138.33439314365387L218.109375,138.7015902042389L222.75,138.08842380046846L227.390625,138.07250936031343L232.03125,137.09875357151031L236.671875,136.87837040424347L241.3125,136.76225864887238L245.953125,136.09074354171753L250.59375,135.98031642436982" style="fill: none;" fill="none"></path></g><g><path stroke="rgb(204, 51, 17)" stroke-width="2px" d="M23.203125,141.830814743042L27.84375,152.1756469786167L32.484375,154.0385573923588L37.125,155.1059197962284L41.765625,156.03171397149563L46.40625,156.62840627729892L51.04687499999999,156.3472883015871L55.6875,156.47757345736025L60.328125,156.70749839246272L64.96875,157.1182736992836L69.609375,156.78447627425194L74.25,157.29535871446134L78.890625,156.90731347203254L83.53125,156.84977003932L88.171875,156.97407746613024L92.8125,157.18746570646763L97.453125,156.78728994727135L102.09374999999999,157.2040008097887L106.73437500000001,156.78851748108863L111.375,157.24207080304623L116.015625,157.17522219717503L120.65625,156.89552962481977L125.296875,156.8796395868063L129.9375,157.54099438488484L134.578125,157.36442632377148L139.21875,157.83128464818L143.85937500000003,157.0568956822157L148.5,157.00123970210552L153.140625,156.92395254969597L157.78125,156.9083922058344L162.421875,157.10665005743502L167.0625,157.01093212664128L171.703125,156.96985589563846L176.34375,156.96244639754295L180.984375,157.13137605786324L185.625,157.17791942954065L190.265625,157.27149580717085L194.90625,156.72071931362152L199.546875,156.72041110396387L204.18749999999997,156.48541901111602L208.828125,156.54367169737816L213.46875000000003,156.74588004350662L218.109375,157.00612013041973L222.75,156.64293218255042L227.390625,157.1639415115118L232.03125,157.09113798737528L236.671875,157.23229323625563L241.3125,157.0450598478317L245.953125,156.8992719054222L250.59375,157.18125721812248" style="fill: none;" fill="none"></path></g><g><path stroke="rgb(0, 119, 187)" stroke-width="2px" d="M23.203125,97.19715042114258L27.84375,90.34930262565612L32.484375,104.60606074333191L37.125,97.61518669128418L41.765625,99.01452431678771L46.40625,97.58833584785461L51.04687499999999,92.23885593414306L55.6875,84.69936656951904L60.328125,83.67218494415283L64.96875,82.8651912689209L69.609375,79.44558124542236L74.25,71.2714409828186L78.890625,78.29693212509156L83.53125,75.16125268936158L88.171875,72.8901559829712L92.8125,60.1079662322998L97.453125,72.82452058792114L102.09374999999999,71.36413516998292L106.73437500000001,61.65751495361329L111.375,60.93784275054932L116.015625,59.113538646698004L120.65625,42.672148036956784L125.296875,47.07908143997193L129.9375,48.47868642807006L134.578125,36.14579315185547L139.21875,34.60237255096436L143.85937500000003,35.37373485565186L148.5,39.82825880050659L153.140625,37.28633651733398L157.78125,35.47455177307128L162.421875,28.41305580139161L167.0625,23.660970020294187L171.703125,29.189417362213135L176.34375,15.476627540588384L180.984375,18.556924724578867L185.625,6.900891685485847L190.265625,5.171199989318851L194.90625,8.469317054748528L199.546875,5.887545013427742L204.18749999999997,-4.451714515686035L208.828125,4.790492630004875L213.46875000000003,-9.369658470153809" style="fill: none;" fill="none"></path></g><g><path stroke="rgb(255, 112, 67)" stroke-width="2px" d="M23.203125,69.9790696144104L27.84375,108.91202445030213L32.484375,122.15556745529175L37.125,123.92493915557861L41.765625,126.76133799552917L46.40625,130.35383825302122L51.04687499999999,131.94084532260896L55.6875,133.07713634967806L60.328125,132.8689648628235L64.96875,135.02252388000488L69.609375,136.35890822410582L74.25,134.20239336490633L78.890625,130.34525506496428L83.53125,138.5575305700302L88.171875,133.81073262691498L92.8125,136.23209135532377L97.453125,135.29057610034943L102.09374999999999,136.1249892950058L106.73437500000001,133.66962671279907L111.375,133.95610361099241L116.015625,135.90171606540682L120.65625,136.27922143936158L125.296875,136.37478234767914L129.9375,133.5309419155121L134.578125,138.1985071659088L139.21875,133.57251043319704L143.85937500000003,135.7794316291809L148.5,137.6443111896515L153.140625,135.3564682483673L157.78125,136.62016816139223L162.421875,136.64755585193635L167.0625,136.12717700004578L171.703125,137.45388960838318L176.34375,134.17999856472014L180.984375,137.83304584026337L185.625,133.32956058979036L190.265625,135.04015707969666L194.90625,135.49372923374176L199.546875,138.9241143941879L204.18749999999997,134.774112200737L208.828125,135.26201286315919L213.46875000000003,133.56646931171417L218.109375,132.7983535528183L222.75,133.563543176651L227.390625,132.0956228017807L232.03125,132.51098120212555L236.671875,135.2607015132904L241.3125,134.71796181201935L245.953125,130.27806005477905L250.59375,135.4776874780655" style="fill: none;" fill="none"></path></g></g></g></g></g></g><g transform="translate(51, 178)" clip-path="url(#clip_1)"><clipPath id="clip_1"><rect width="278" height="22"></rect></clipPath><g><g><line x1="0" y1="0" x2="0" y2="5" style="visibility: inherit;" fill="rgb(0, 0, 0)" stroke="rgb(204, 204, 204)" stroke-width="1px"></line><line x1="23.203125" y1="0" x2="23.203125" y2="5" style="visibility: inherit;" fill="rgb(0, 0, 0)" stroke="rgb(204, 204, 204)" stroke-width="1px"></line><line x1="46.40625" y1="0" x2="46.40625" y2="5" style="visibility: inherit;" fill="rgb(0, 0, 0)" stroke="rgb(204, 204, 204)" stroke-width="1px"></line><line x1="69.609375" y1="0" x2="69.609375" y2="5" style="visibility: inherit;" fill="rgb(0, 0, 0)" stroke="rgb(204, 204, 204)" stroke-width="1px"></line><line x1="92.8125" y1="0" x2="92.8125" y2="5" style="visibility: inherit;" fill="rgb(0, 0, 0)" stroke="rgb(204, 204, 204)" stroke-width="1px"></line><line x1="116.015625" y1="0" x2="116.015625" y2="5" style="visibility: inherit;" fill="rgb(0, 0, 0)" stroke="rgb(204, 204, 204)" stroke-width="1px"></line><line x1="139.21875" y1="0" x2="139.21875" y2="5" style="visibility: inherit;" fill="rgb(0, 0, 0)" stroke="rgb(204, 204, 204)" stroke-width="1px"></line><line x1="162.421875" y1="0" x2="162.421875" y2="5" style="visibility: inherit;" fill="rgb(0, 0, 0)" stroke="rgb(204, 204, 204)" stroke-width="1px"></line><line x1="185.625" y1="0" x2="185.625" y2="5" style="visibility: inherit;" fill="rgb(0, 0, 0)" stroke="rgb(204, 204, 204)" stroke-width="1px"></line><line x1="208.828125" y1="0" x2="208.828125" y2="5" style="visibility: inherit;" fill="rgb(0, 0, 0)" stroke="rgb(204, 204, 204)" stroke-width="1px"></line><line x1="232.03125" y1="0" x2="232.03125" y2="5" style="visibility: inherit;" fill="rgb(0, 0, 0)" stroke="rgb(204, 204, 204)" stroke-width="1px"></line><line x1="255.234375" y1="0" x2="255.234375" y2="5" style="visibility: inherit;" fill="rgb(0, 0, 0)" stroke="rgb(204, 204, 204)" stroke-width="1px"></line><line x1="278.4375" y1="0" x2="278.4375" y2="5" style="visibility: inherit;" fill="rgb(0, 0, 0)" stroke="rgb(204, 204, 204)" stroke-width="1px"></line></g><g transform="translate(0, 8)"><text x="0" y="0" dx="0em" dy="0.95em" style="text-anchor: middle; visibility: hidden; font-family: Roboto, sans-serif; font-size: 12px; font-weight: 200;" fill="rgb(50, 49, 63)" stroke="none" stroke-width="1px">-5</text><text x="23.203125" y="0" dx="0em" dy="0.95em" style="text-anchor: middle; visibility: inherit; font-family: Roboto, sans-serif; font-size: 12px; font-weight: 200;" fill="rgb(50, 49, 63)" stroke="none" stroke-width="1px">0</text><text x="46.40625" y="0" dx="0em" dy="0.95em" style="text-anchor: middle; visibility: inherit; font-family: Roboto, sans-serif; font-size: 12px; font-weight: 200;" fill="rgb(50, 49, 63)" stroke="none" stroke-width="1px">5</text><text x="69.609375" y="0" dx="0em" dy="0.95em" style="text-anchor: middle; visibility: inherit; font-family: Roboto, sans-serif; font-size: 12px; font-weight: 200;" fill="rgb(50, 49, 63)" stroke="none" stroke-width="1px">10</text><text x="92.8125" y="0" dx="0em" dy="0.95em" style="text-anchor: middle; visibility: inherit; font-family: Roboto, sans-serif; font-size: 12px; font-weight: 200;" fill="rgb(50, 49, 63)" stroke="none" stroke-width="1px">15</text><text x="116.015625" y="0" dx="0em" dy="0.95em" style="text-anchor: middle; visibility: inherit; font-family: Roboto, sans-serif; font-size: 12px; font-weight: 200;" fill="rgb(50, 49, 63)" stroke="none" stroke-width="1px">20</text><text x="139.21875" y="0" dx="0em" dy="0.95em" style="text-anchor: middle; visibility: inherit; font-family: Roboto, sans-serif; font-size: 12px; font-weight: 200;" fill="rgb(50, 49, 63)" stroke="none" stroke-width="1px">25</text><text x="162.421875" y="0" dx="0em" dy="0.95em" style="text-anchor: middle; visibility: inherit; font-family: Roboto, sans-serif; font-size: 12px; font-weight: 200;" fill="rgb(50, 49, 63)" stroke="none" stroke-width="1px">30</text><text x="185.625" y="0" dx="0em" dy="0.95em" style="text-anchor: middle; visibility: inherit; font-family: Roboto, sans-serif; font-size: 12px; font-weight: 200;" fill="rgb(50, 49, 63)" stroke="none" stroke-width="1px">35</text><text x="208.828125" y="0" dx="0em" dy="0.95em" style="text-anchor: middle; visibility: inherit; font-family: Roboto, sans-serif; font-size: 12px; font-weight: 200;" fill="rgb(50, 49, 63)" stroke="none" stroke-width="1px">40</text><text x="232.03125" y="0" dx="0em" dy="0.95em" style="text-anchor: middle; visibility: inherit; font-family: Roboto, sans-serif; font-size: 12px; font-weight: 200;" fill="rgb(50, 49, 63)" stroke="none" stroke-width="1px">45</text><text x="255.234375" y="0" dx="0em" dy="0.95em" style="text-anchor: middle; visibility: inherit; font-family: Roboto, sans-serif; font-size: 12px; font-weight: 200;" fill="rgb(50, 49, 63)" stroke="none" stroke-width="1px">50</text><text x="278.4375" y="0" dx="0em" dy="0.95em" style="text-anchor: middle; visibility: hidden; font-family: Roboto, sans-serif; font-size: 12px; font-weight: 200;" fill="rgb(50, 49, 63)" stroke="none" stroke-width="1px">55</text></g><line x1="0" y1="0" x2="278.4375" y2="0" fill="rgb(0, 0, 0)" stroke="rgb(204, 204, 204)" stroke-width="1px"></line></g></g></g></g></svg>