<svg viewBox="0 0 1278.75 400" xmlns="http://www.w3.org/2000/svg"><g><g><g><g><g><line x1="50" y1="378" x2="45" y2="378" style="visibility: inherit;" fill="rgb(0, 0, 0)" stroke="rgb(204, 204, 204)" stroke-width="1px"></line><line x1="50" y1="330.75" x2="45" y2="330.75" style="visibility: inherit;" fill="rgb(0, 0, 0)" stroke="rgb(204, 204, 204)" stroke-width="1px"></line><line x1="50" y1="283.5" x2="45" y2="283.5" style="visibility: inherit;" fill="rgb(0, 0, 0)" stroke="rgb(204, 204, 204)" stroke-width="1px"></line><line x1="50" y1="236.25" x2="45" y2="236.25" style="visibility: inherit;" fill="rgb(0, 0, 0)" stroke="rgb(204, 204, 204)" stroke-width="1px"></line><line x1="50" y1="189" x2="45" y2="189" style="visibility: inherit;" fill="rgb(0, 0, 0)" stroke="rgb(204, 204, 204)" stroke-width="1px"></line><line x1="50" y1="141.75" x2="45" y2="141.75" style="visibility: inherit;" fill="rgb(0, 0, 0)" stroke="rgb(204, 204, 204)" stroke-width="1px"></line><line x1="50" y1="94.5" x2="45" y2="94.5" style="visibility: inherit;" fill="rgb(0, 0, 0)" stroke="rgb(204, 204, 204)" stroke-width="1px"></line><line x1="50" y1="47.25" x2="45" y2="47.25" style="visibility: inherit;" fill="rgb(0, 0, 0)" stroke="rgb(204, 204, 204)" stroke-width="1px"></line><line x1="50" y1="0" x2="45" y2="0" style="visibility: inherit;" fill="rgb(0, 0, 0)" stroke="rgb(204, 204, 204)" stroke-width="1px"></line></g><g transform="translate(40, 0)"><text x="0" y="378" dx="0em" dy="0.3em" style="text-anchor: end; visibility: hidden; font-family: Roboto, sans-serif; font-size: 12px; font-weight: 200;" fill="rgb(50, 49, 63)" stroke="none" stroke-width="1px">0.83</text><text x="0" y="330.75" dx="0em" dy="0.3em" style="text-anchor: end; visibility: inherit; font-family: Roboto, sans-serif; font-size: 12px; font-weight: 200;" fill="rgb(50, 49, 63)" stroke="none" stroke-width="1px">0.84</text><text x="0" y="283.5" dx="0em" dy="0.3em" style="text-anchor: end; visibility: inherit; font-family: Roboto, sans-serif; font-size: 12px; font-weight: 200;" fill="rgb(50, 49, 63)" stroke="none" stroke-width="1px">0.85</text><text x="0" y="236.25" dx="0em" dy="0.3em" style="text-anchor: end; visibility: inherit; font-family: Roboto, sans-serif; font-size: 12px; font-weight: 200;" fill="rgb(50, 49, 63)" stroke="none" stroke-width="1px">0.86</text><text x="0" y="189" dx="0em" dy="0.3em" style="text-anchor: end; visibility: inherit; font-family: Roboto, sans-serif; font-size: 12px; font-weight: 200;" fill="rgb(50, 49, 63)" stroke="none" stroke-width="1px">0.87</text><text x="0" y="141.75" dx="0em" dy="0.3em" style="text-anchor: end; visibility: inherit; font-family: Roboto, sans-serif; font-size: 12px; font-weight: 200;" fill="rgb(50, 49, 63)" stroke="none" stroke-width="1px">0.88</text><text x="0" y="94.5" dx="0em" dy="0.3em" style="text-anchor: end; visibility: inherit; font-family: Roboto, sans-serif; font-size: 12px; font-weight: 200;" fill="rgb(50, 49, 63)" stroke="none" stroke-width="1px">0.89</text><text x="0" y="47.25" dx="0em" dy="0.3em" style="text-anchor: end; visibility: inherit; font-family: Roboto, sans-serif; font-size: 12px; font-weight: 200;" fill="rgb(50, 49, 63)" stroke="none" stroke-width="1px">0.9</text><text x="0" y="0" dx="0em" dy="0.3em" style="text-anchor: end; visibility: hidden; font-family: Roboto, sans-serif; font-size: 12px; font-weight: 200;" fill="rgb(50, 49, 63)" stroke="none" stroke-width="1px">0.91</text></g><line x1="50" y1="0" x2="50" y2="378" fill="rgb(0, 0, 0)" stroke="rgb(204, 204, 204)" stroke-width="1px"></line></g></g><g transform="translate(50, 0)" clip-path="url(#clip_0)"><clipPath id="clip_0"><rect width="900" height="377"></rect></clipPath><g><g><g><line x1="0" y1="0" x2="0" y2="378" fill="rgb(0, 0, 0)" stroke="rgb(60, 60, 60)" stroke-width="1px" opacity="0.25"></line><line x1="75.04166666666666" y1="0" x2="75.04166666666666" y2="378" fill="rgb(0, 0, 0)" stroke="rgb(60, 60, 60)" stroke-width="1px" opacity="0.25"></line><line x1="150.08333333333331" y1="0" x2="150.08333333333331" y2="378" fill="rgb(0, 0, 0)" stroke="rgb(60, 60, 60)" stroke-width="1px" opacity="0.25"></line><line x1="225.125" y1="0" x2="225.125" y2="378" fill="rgb(0, 0, 0)" stroke="rgb(60, 60, 60)" stroke-width="1px" opacity="0.25"></line><line x1="300.16666666666663" y1="0" x2="300.16666666666663" y2="378" fill="rgb(0, 0, 0)" stroke="rgb(60, 60, 60)" stroke-width="1px" opacity="0.25"></line><line x1="375.20833333333337" y1="0" x2="375.20833333333337" y2="378" fill="rgb(0, 0, 0)" stroke="rgb(60, 60, 60)" stroke-width="1px" opacity="0.25"></line><line x1="450.25" y1="0" x2="450.25" y2="378" fill="rgb(0, 0, 0)" stroke="rgb(60, 60, 60)" stroke-width="1px" opacity="0.25"></line><line x1="525.2916666666667" y1="0" x2="525.2916666666667" y2="378" fill="rgb(0, 0, 0)" stroke="rgb(60, 60, 60)" stroke-width="1px" opacity="0.25"></line><line x1="600.3333333333333" y1="0" x2="600.3333333333333" y2="378" fill="rgb(0, 0, 0)" stroke="rgb(60, 60, 60)" stroke-width="1px" opacity="0.25"></line><line x1="675.375" y1="0" x2="675.375" y2="378" fill="rgb(0, 0, 0)" stroke="rgb(60, 60, 60)" stroke-width="1px" opacity="0.25"></line><line x1="750.4166666666667" y1="0" x2="750.4166666666667" y2="378" fill="rgb(0, 0, 0)" stroke="rgb(60, 60, 60)" stroke-width="1px" opacity="0.25"></line><line x1="825.4583333333333" y1="0" x2="825.4583333333333" y2="378" fill="rgb(0, 0, 0)" stroke="rgb(60, 60, 60)" stroke-width="1px" opacity="0.25"></line><line x1="900.5" y1="0" x2="900.5" y2="378" fill="rgb(0, 0, 0)" stroke="rgb(60, 60, 60)" stroke-width="1px" opacity="0.25"></line></g><g><line x1="0" y1="378" x2="900.5" y2="378" fill="rgb(0, 0, 0)" stroke="rgb(60, 60, 60)" stroke-width="1px" opacity="0.25"></line><line x1="0" y1="330.75" x2="900.5" y2="330.75" fill="rgb(0, 0, 0)" stroke="rgb(60, 60, 60)" stroke-width="1px" opacity="0.25"></line><line x1="0" y1="283.5" x2="900.5" y2="283.5" fill="rgb(0, 0, 0)" stroke="rgb(60, 60, 60)" stroke-width="1px" opacity="0.25"></line><line x1="0" y1="236.25" x2="900.5" y2="236.25" fill="rgb(0, 0, 0)" stroke="rgb(60, 60, 60)" stroke-width="1px" opacity="0.25"></line><line x1="0" y1="189" x2="900.5" y2="189" fill="rgb(0, 0, 0)" stroke="rgb(60, 60, 60)" stroke-width="1px" opacity="0.25"></line><line x1="0" y1="141.75" x2="900.5" y2="141.75" fill="rgb(0, 0, 0)" stroke="rgb(60, 60, 60)" stroke-width="1px" opacity="0.25"></line><line x1="0" y1="94.5" x2="900.5" y2="94.5" fill="rgb(0, 0, 0)" stroke="rgb(60, 60, 60)" stroke-width="1px" opacity="0.25"></line><line x1="0" y1="47.25" x2="900.5" y2="47.25" fill="rgb(0, 0, 0)" stroke="rgb(60, 60, 60)" stroke-width="1px" opacity="0.25"></line><line x1="0" y1="0" x2="900.5" y2="0" fill="rgb(0, 0, 0)" stroke="rgb(60, 60, 60)" stroke-width="1px" opacity="0.25"></line></g></g></g><g><g><line x1="0" y1="4299.749999999996" x2="900.5" y2="4299.749999999996" fill="rgb(0, 0, 0)" stroke="rgb(153, 153, 153)" stroke-width="1.5px"></line></g></g><g><g><line x1="75.04166666666666" y1="0" x2="75.04166666666666" y2="378" fill="rgb(0, 0, 0)" stroke="rgb(153, 153, 153)" stroke-width="1.5px"></line></g></g><g><g><g><g><g><path stroke="rgb(187, 187, 187)" stroke-width="2px" d="M75.04166666666666,483.31043100357033L90.05000000000001,373.99161136150343L105.05833333333334,303.5416615605353L120.06666666666666,275.60461735725397L135.075,253.74096608161918L150.08333333333331,230.66263622045508L165.09166666666667,206.36962777376172L180.10000000000002,172.3591906428337L195.10833333333335,183.2910162806511L210.11666666666667,160.212686419487L225.125,165.0714007616043L240.13333333333333,163.85672217607498L255.14166666666665,139.5637137293816L270.15,131.0609636306763L285.1583333333333,131.0609636306763L300.16666666666663,121.34381657838826L315.17499999999995,110.41199094057087L330.18333333333334,127.4172095060349L345.19166666666666,109.19731235504155L360.20000000000005,116.48510223627095L375.20833333333337,111.6266695261002L390.2166666666667,93.4067723751069L405.225,112.84134811162953L420.23333333333335,105.55327659845356L435.2416666666667,99.48016530275349L450.25,90.97741520404824L465.2583333333334,101.90952247381215L480.26666666666665,100.69484388828282L495.27500000000003,97.05080813169484L510.2833333333333,87.33366107940682L525.2916666666667,100.69484388828282L540.3,89.76273661851891L555.3083333333334,77.6162323951722L570.3166666666666,84.90430390834817L585.325,86.1189824938775L600.3333333333333,72.75779968500146L615.3416666666667,80.04558956623086L630.3499999999999,77.6162323951722L645.3583333333333,83.68962532281884L660.3666666666667,78.83091098070153L675.375,71.54312109947213L690.3833333333333,80.04558956623086L705.3916666666667,82.47494673728951L720.4000000000001,82.47494673728951L735.4083333333333,80.04558956623086L750.4166666666667,70.3284425139428L765.425,75.18715685606011L780.4333333333334,66.68440675735482L795.4416666666666,53.323223948478784L810.45,73.97247827053079" style="fill: none;" fill="none"></path></g><g><path stroke="rgb(238, 51, 119)" stroke-width="2px" d="M75.04166666666666,459.0174225568769L90.05000000000001,369.1328970193861L105.05833333333334,308.4003759026526L120.06666666666666,263.45811313390726L135.075,241.59446185827247L150.08333333333331,219.73081058263776L165.09166666666667,190.57908779382706L180.10000000000002,190.57908779382706L195.10833333333335,172.3591906428337L210.11666666666667,155.35425370931625L225.125,165.0714007616043L240.13333333333333,151.71021795272827L255.14166666666665,129.84628504514697L270.15,116.48510223627095L285.1583333333333,128.6318880915642L300.16666666666663,107.98263376951222L315.17499999999995,111.6266695261002L330.18333333333334,101.90952247381215L345.19166666666666,111.6266695261002L360.20000000000005,100.69484388828282L375.20833333333337,103.12391942739491L390.2166666666667,97.05080813169484L405.225,104.33859801292424L420.23333333333335,103.12391942739491L435.2416666666667,88.54833966493615L450.25,90.97741520404824L465.2583333333334,93.4067723751069L480.26666666666665,94.62145096063618L495.27500000000003,105.55327659845356L510.2833333333333,76.40155380964288L525.2916666666667,98.26548671722416L540.3,83.68962532281884L555.3083333333334,87.33366107940682L570.3166666666666,81.26026815176019L585.325,77.6162323951722L600.3333333333333,73.97247827053079L615.3416666666667,66.68440675735482L630.3499999999999,70.3284425139428L645.3583333333333,81.26026815176019L660.3666666666667,87.33366107940682L675.375,61.825974047184076L690.3833333333333,84.90430390834817L705.3916666666667,73.97247827053079L720.4000000000001,56.967259705066766L735.4083333333333,63.04037100076684L750.4166666666667,71.54312109947213L765.425,61.825974047184076L780.4333333333334,59.39661687612542L795.4416666666666,61.825974047184076L810.45,73.97247827053079" style="fill: none;" fill="none"></path></g><g><path stroke="rgb(0, 153, 136)" stroke-width="2px" d="M75.04166666666666,473.5932839512823L90.05000000000001,377.6356471180914L105.05833333333334,312.0444116592406L120.06666666666666,273.1755418181419L135.075,251.31160891056052L150.08333333333331,237.95042610168449L165.09166666666667,197.86687767505646L180.10000000000002,194.22312355041504L195.10833333333335,158.99800783395767L210.11666666666667,182.07633769512177L225.125,140.77839231491092L240.13333333333333,143.20746785402298L255.14166666666665,133.49032080173495L270.15,131.0609636306763L285.1583333333333,131.0609636306763L300.16666666666663,116.48510223627095L315.17499999999995,132.27564221620563L330.18333333333334,126.20253092050557L345.19166666666666,123.77317374944691L360.20000000000005,105.55327659845356L375.20833333333337,109.19731235504155L390.2166666666667,105.55327659845356L405.225,114.05602669715886L420.23333333333335,93.4067723751069L435.2416666666667,115.27070528268818L450.25,100.69484388828282L465.2583333333334,116.48510223627095L480.26666666666665,100.69484388828282L495.27500000000003,88.54833966493615L510.2833333333333,84.90430390834817L525.2916666666667,89.76273661851891L540.3,83.68962532281884L555.3083333333334,73.97247827053079L570.3166666666666,87.33366107940682L585.325,88.54833966493615L600.3333333333333,76.40155380964288L615.3416666666667,72.75779968500146L630.3499999999999,87.33366107940682L645.3583333333333,83.68962532281884L660.3666666666667,70.3284425139428L675.375,77.6162323951722L690.3833333333333,77.6162323951722L705.3916666666667,73.97247827053079L720.4000000000001,73.97247827053079L735.4083333333333,60.61129546165475L750.4166666666667,67.89908534288415L765.425,82.47494673728951L780.4333333333334,59.39661687612542L795.4416666666666,72.75779968500146L810.45,72.75779968500146" style="fill: none;" fill="none"></path></g></g></g></g></g></g><g transform="translate(50, 378)" clip-path="url(#clip_1)"><clipPath id="clip_1"><rect width="900" height="21"></rect></clipPath><g><g><line x1="0" y1="0" x2="0" y2="5" style="visibility: inherit;" fill="rgb(0, 0, 0)" stroke="rgb(204, 204, 204)" stroke-width="1px"></line><line x1="75.04166666666666" y1="0" x2="75.04166666666666" y2="5" style="visibility: inherit;" fill="rgb(0, 0, 0)" stroke="rgb(204, 204, 204)" stroke-width="1px"></line><line x1="150.08333333333331" y1="0" x2="150.08333333333331" y2="5" style="visibility: inherit;" fill="rgb(0, 0, 0)" stroke="rgb(204, 204, 204)" stroke-width="1px"></line><line x1="225.125" y1="0" x2="225.125" y2="5" style="visibility: inherit;" fill="rgb(0, 0, 0)" stroke="rgb(204, 204, 204)" stroke-width="1px"></line><line x1="300.16666666666663" y1="0" x2="300.16666666666663" y2="5" style="visibility: inherit;" fill="rgb(0, 0, 0)" stroke="rgb(204, 204, 204)" stroke-width="1px"></line><line x1="375.20833333333337" y1="0" x2="375.20833333333337" y2="5" style="visibility: inherit;" fill="rgb(0, 0, 0)" stroke="rgb(204, 204, 204)" stroke-width="1px"></line><line x1="450.25" y1="0" x2="450.25" y2="5" style="visibility: inherit;" fill="rgb(0, 0, 0)" stroke="rgb(204, 204, 204)" stroke-width="1px"></line><line x1="525.2916666666667" y1="0" x2="525.2916666666667" y2="5" style="visibility: inherit;" fill="rgb(0, 0, 0)" stroke="rgb(204, 204, 204)" stroke-width="1px"></line><line x1="600.3333333333333" y1="0" x2="600.3333333333333" y2="5" style="visibility: inherit;" fill="rgb(0, 0, 0)" stroke="rgb(204, 204, 204)" stroke-width="1px"></line><line x1="675.375" y1="0" x2="675.375" y2="5" style="visibility: inherit;" fill="rgb(0, 0, 0)" stroke="rgb(204, 204, 204)" stroke-width="1px"></line><line x1="750.4166666666667" y1="0" x2="750.4166666666667" y2="5" style="visibility: inherit;" fill="rgb(0, 0, 0)" stroke="rgb(204, 204, 204)" stroke-width="1px"></line><line x1="825.4583333333333" y1="0" x2="825.4583333333333" y2="5" style="visibility: inherit;" fill="rgb(0, 0, 0)" stroke="rgb(204, 204, 204)" stroke-width="1px"></line><line x1="900.5" y1="0" x2="900.5" y2="5" style="visibility: inherit;" fill="rgb(0, 0, 0)" stroke="rgb(204, 204, 204)" stroke-width="1px"></line></g><g transform="translate(0, 8)"><text x="0" y="0" dx="0em" dy="0.95em" style="text-anchor: middle; visibility: hidden; font-family: Roboto, sans-serif; font-size: 12px; font-weight: 200;" fill="rgb(50, 49, 63)" stroke="none" stroke-width="1px">-5</text><text x="75.04166666666666" y="0" dx="0em" dy="0.95em" style="text-anchor: middle; visibility: inherit; font-family: Roboto, sans-serif; font-size: 12px; font-weight: 200;" fill="rgb(50, 49, 63)" stroke="none" stroke-width="1px">0</text><text x="150.08333333333331" y="0" dx="0em" dy="0.95em" style="text-anchor: middle; visibility: inherit; font-family: Roboto, sans-serif; font-size: 12px; font-weight: 200;" fill="rgb(50, 49, 63)" stroke="none" stroke-width="1px">5</text><text x="225.125" y="0" dx="0em" dy="0.95em" style="text-anchor: middle; visibility: inherit; font-family: Roboto, sans-serif; font-size: 12px; font-weight: 200;" fill="rgb(50, 49, 63)" stroke="none" stroke-width="1px">10</text><text x="300.16666666666663" y="0" dx="0em" dy="0.95em" style="text-anchor: middle; visibility: inherit; font-family: Roboto, sans-serif; font-size: 12px; font-weight: 200;" fill="rgb(50, 49, 63)" stroke="none" stroke-width="1px">15</text><text x="375.20833333333337" y="0" dx="0em" dy="0.95em" style="text-anchor: middle; visibility: inherit; font-family: Roboto, sans-serif; font-size: 12px; font-weight: 200;" fill="rgb(50, 49, 63)" stroke="none" stroke-width="1px">20</text><text x="450.25" y="0" dx="0em" dy="0.95em" style="text-anchor: middle; visibility: inherit; font-family: Roboto, sans-serif; font-size: 12px; font-weight: 200;" fill="rgb(50, 49, 63)" stroke="none" stroke-width="1px">25</text><text x="525.2916666666667" y="0" dx="0em" dy="0.95em" style="text-anchor: middle; visibility: inherit; font-family: Roboto, sans-serif; font-size: 12px; font-weight: 200;" fill="rgb(50, 49, 63)" stroke="none" stroke-width="1px">30</text><text x="600.3333333333333" y="0" dx="0em" dy="0.95em" style="text-anchor: middle; visibility: inherit; font-family: Roboto, sans-serif; font-size: 12px; font-weight: 200;" fill="rgb(50, 49, 63)" stroke="none" stroke-width="1px">35</text><text x="675.375" y="0" dx="0em" dy="0.95em" style="text-anchor: middle; visibility: inherit; font-family: Roboto, sans-serif; font-size: 12px; font-weight: 200;" fill="rgb(50, 49, 63)" stroke="none" stroke-width="1px">40</text><text x="750.4166666666667" y="0" dx="0em" dy="0.95em" style="text-anchor: middle; visibility: inherit; font-family: Roboto, sans-serif; font-size: 12px; font-weight: 200;" fill="rgb(50, 49, 63)" stroke="none" stroke-width="1px">45</text><text x="825.4583333333333" y="0" dx="0em" dy="0.95em" style="text-anchor: middle; visibility: inherit; font-family: Roboto, sans-serif; font-size: 12px; font-weight: 200;" fill="rgb(50, 49, 63)" stroke="none" stroke-width="1px">50</text><text x="900.5" y="0" dx="0em" dy="0.95em" style="text-anchor: middle; visibility: hidden; font-family: Roboto, sans-serif; font-size: 12px; font-weight: 200;" fill="rgb(50, 49, 63)" stroke="none" stroke-width="1px">55</text></g><line x1="0" y1="0" x2="900.5" y2="0" fill="rgb(0, 0, 0)" stroke="rgb(204, 204, 204)" stroke-width="1px"></line></g></g></g></g></svg>