<svg viewBox="0 0 1278.75 400" xmlns="http://www.w3.org/2000/svg"><g><g><g><g><g><line x1="41.171875" y1="302.8986648133004" x2="36.171875" y2="302.8986648133004" style="visibility: inherit;" fill="rgb(0, 0, 0)" stroke="rgb(204, 204, 204)" stroke-width="1px"></line><line x1="41.171875" y1="103.76213452112438" x2="36.171875" y2="103.76213452112438" style="visibility: inherit;" fill="rgb(0, 0, 0)" stroke="rgb(204, 204, 204)" stroke-width="1px"></line></g><g transform="translate(31.171875, 0)"><text x="0" y="302.8986648133004" dx="0em" dy="0.3em" style="text-anchor: end; visibility: inherit; font-family: Roboto, sans-serif; font-size: 12px; font-weight: 200;" fill="rgb(50, 49, 63)" stroke="none" stroke-width="1px">0.2</text><text x="0" y="103.76213452112438" dx="0em" dy="0.3em" style="text-anchor: end; visibility: inherit; font-family: Roboto, sans-serif; font-size: 12px; font-weight: 200;" fill="rgb(50, 49, 63)" stroke="none" stroke-width="1px">0.3</text></g><line x1="41.171875" y1="0" x2="41.171875" y2="378" fill="rgb(0, 0, 0)" stroke="rgb(204, 204, 204)" stroke-width="1px"></line></g></g><g transform="translate(41, 0)" clip-path="url(#clip_0)"><clipPath id="clip_0"><rect width="909" height="377"></rect></clipPath><g><g><g><line x1="0" y1="0" x2="0" y2="378" fill="rgb(0, 0, 0)" stroke="rgb(60, 60, 60)" stroke-width="1px" opacity="0.25"></line><line x1="75.77734375" y1="0" x2="75.77734375" y2="378" fill="rgb(0, 0, 0)" stroke="rgb(60, 60, 60)" stroke-width="1px" opacity="0.25"></line><line x1="151.5546875" y1="0" x2="151.5546875" y2="378" fill="rgb(0, 0, 0)" stroke="rgb(60, 60, 60)" stroke-width="1px" opacity="0.25"></line><line x1="227.33203125" y1="0" x2="227.33203125" y2="378" fill="rgb(0, 0, 0)" stroke="rgb(60, 60, 60)" stroke-width="1px" opacity="0.25"></line><line x1="303.109375" y1="0" x2="303.109375" y2="378" fill="rgb(0, 0, 0)" stroke="rgb(60, 60, 60)" stroke-width="1px" opacity="0.25"></line><line x1="378.88671875" y1="0" x2="378.88671875" y2="378" fill="rgb(0, 0, 0)" stroke="rgb(60, 60, 60)" stroke-width="1px" opacity="0.25"></line><line x1="454.6640625" y1="0" x2="454.6640625" y2="378" fill="rgb(0, 0, 0)" stroke="rgb(60, 60, 60)" stroke-width="1px" opacity="0.25"></line><line x1="530.44140625" y1="0" x2="530.44140625" y2="378" fill="rgb(0, 0, 0)" stroke="rgb(60, 60, 60)" stroke-width="1px" opacity="0.25"></line><line x1="606.21875" y1="0" x2="606.21875" y2="378" fill="rgb(0, 0, 0)" stroke="rgb(60, 60, 60)" stroke-width="1px" opacity="0.25"></line><line x1="681.99609375" y1="0" x2="681.99609375" y2="378" fill="rgb(0, 0, 0)" stroke="rgb(60, 60, 60)" stroke-width="1px" opacity="0.25"></line><line x1="757.7734375" y1="0" x2="757.7734375" y2="378" fill="rgb(0, 0, 0)" stroke="rgb(60, 60, 60)" stroke-width="1px" opacity="0.25"></line><line x1="833.55078125" y1="0" x2="833.55078125" y2="378" fill="rgb(0, 0, 0)" stroke="rgb(60, 60, 60)" stroke-width="1px" opacity="0.25"></line><line x1="909.328125" y1="0" x2="909.328125" y2="378" fill="rgb(0, 0, 0)" stroke="rgb(60, 60, 60)" stroke-width="1px" opacity="0.25"></line></g><g><line x1="0" y1="302.8986648133004" x2="909.328125" y2="302.8986648133004" fill="rgb(0, 0, 0)" stroke="rgb(60, 60, 60)" stroke-width="1px" opacity="0.25"></line><line x1="0" y1="103.76213452112438" x2="909.328125" y2="103.76213452112438" fill="rgb(0, 0, 0)" stroke="rgb(60, 60, 60)" stroke-width="1px" opacity="0.25"></line></g></g></g><g><g><line x1="75.77734375" y1="0" x2="75.77734375" y2="378" fill="rgb(0, 0, 0)" stroke="rgb(153, 153, 153)" stroke-width="1.5px"></line></g></g><g><g><g><g><g><path stroke="rgb(187, 187, 187)" stroke-width="2px" d="M90.93281250000001,-16.929956683085255L106.08828125000001,61.982821349759604L121.24374999999999,96.12304689346927L136.39921875,132.0346863443458L151.5546875,168.79315119625656L166.71015624999998,196.45156949859228L181.86562500000002,211.35150383648107L197.02109375,224.80686889308998L212.17656250000002,239.39525085880715L227.33203125,256.42477011275133L242.48749999999998,261.67275084445305L257.64296874999997,273.8752681161998L272.7984375,279.07095506790444L287.95390625,288.96137112016123L303.109375,296.0103125019444L318.26484374999995,298.32888016794374L333.42031249999997,307.9764318683863L348.57578125000003,313.05024488680186L363.73125000000005,314.8946242587451L378.88671875,324.2468246737425L394.0421875,326.46874056287265L409.19765625,324.42017278787057L424.35312500000003,329.40408294362993L439.50859375,334.27488366473426L454.6640625,336.5616279302223L469.81953125000007,325.6038611772031L484.97499999999997,327.7407461459762L500.13046875000003,326.1792038566437L515.2859374999999,329.9499877342692L530.44140625,323.006010589924L545.596875,335.9293814381976L560.75234375,333.31194806652525L575.9078125,332.16831871327867L591.06328125,325.7355200498351L606.21875,325.9191348230387L621.3742187500001,320.1182115649317L636.5296874999999,316.2343013796225L651.68515625,315.0793686949667L666.8406249999999,306.95620351816115L681.99609375,309.88647538487027L697.1515625000001,309.7872730710619L712.30703125,297.8395966987312L727.4625000000001,301.9608923135199L742.6179687499999,293.0923839165868L757.7734375,294.48362060298973L772.92890625,294.82751094921076L788.084375,293.20617274190084L803.23984375,295.8463810765587L818.3953125,287.0554472826085" style="fill: none;" fill="none"></path></g><g><path stroke="rgb(238, 51, 119)" stroke-width="2px" d="M90.93281250000001,-5.804649754144698L106.08828125000001,53.99999999999989L121.24374999999999,105.88890978074546L136.39921875,135.99867128596833L151.5546875,163.31648450242946L166.71015624999998,178.70923113825165L181.86562500000002,207.97501637258338L197.02109375,221.87836597745812L212.17656250000002,240.5349797681047L227.33203125,250.54737330492082L242.48749999999998,255.72774146315467L257.64296874999997,272.1480684360802L272.7984375,277.0176544494092L287.95390625,286.25628872352684L303.109375,296.63815186891685L318.26484374999995,295.09553595663965L333.42031249999997,302.7509939033008L348.57578125000003,309.8957545908685L363.73125000000005,305.41575514776366L378.88671875,314.5463266622752L394.0421875,317.6231892725308L409.19765625,322.86075170976653L424.35312500000003,322.0618149266258L439.50859375,333.4073740717456L454.6640625,321.0807358166717L469.81953125000007,329.8392274653312L484.97499999999997,328.76551072197964L500.13046875000003,316.3427873816461L515.2859374999999,323.46940321077733L530.44140625,317.12681719093155L545.596875,313.7339306739073L560.75234375,312.2961885850488L575.9078125,316.778815590179L591.06328125,320.4194021731511L606.21875,321.2607949112999L621.3742187500001,317.95318809706714L636.5296874999999,314.4234394195756L651.68515625,313.9088459979616L666.8406249999999,303.9868676763092L681.99609375,319.80788848523065L697.1515625000001,307.4470875331357L712.30703125,304.6843017826762L727.4625000000001,305.62596183886717L742.6179687499999,300.4346247669773L757.7734375,299.2494503989064L772.92890625,291.57647376159474L788.084375,301.6648586064417L803.23984375,295.91726460191285L818.3953125,294.1763489021561" style="fill: none;" fill="none"></path></g><g><path stroke="rgb(0, 153, 136)" stroke-width="2px" d="M90.93281250000001,-4.896668764517888L106.08828125000001,60.53278297146812L121.24374999999999,106.87006071128296L136.39921875,135.097814686066L151.5546875,165.4432895145691L166.71015624999998,189.87662564754942L181.86562500000002,207.02970858958597L197.02109375,227.6023643388104L212.17656250000002,237.02177021131254L227.33203125,255.753603729222L242.48749999999998,258.6616720463954L257.64296874999997,271.08151813401327L272.7984375,282.1355914272078L287.95390625,288.15545024939007L303.109375,293.0155232204206L318.26484374999995,296.4129775836836L333.42031249999997,297.57557240905635L348.57578125000003,308.5535773396572L363.73125000000005,305.7731674342502L378.88671875,304.42736464029423L394.0421875,324.07720534647365L409.19765625,313.43568941004037L424.35312500000003,317.684012482876L439.50859375,324.65737849295317L454.6640625,319.8071310079466L469.81953125000007,311.32770499150695L484.97499999999997,320.11389123111593L500.13046875000003,324.6525208028691L515.2859374999999,320.62148725782663L530.44140625,322.19751321691956L545.596875,321.67056993994174L560.75234375,325.73770507993976L575.9078125,317.51046188915683L591.06328125,320.9813347165471L606.21875,322.72940393226156L621.3742187500001,320.2576195737372L636.5296874999999,315.1947285680059L651.68515625,316.37821503774865L666.8406249999999,317.8447985026251L681.99609375,307.4532183792621L697.1515625000001,307.31064061508783L712.30703125,304.88857421784235L727.4625000000001,300.08042019485885L742.6179687499999,304.9774579654006L757.7734375,304.8137024191918L772.92890625,288.99000444096157L788.084375,289.33473123167374L803.23984375,289.1687781311171L818.3953125,290.1404519287115" style="fill: none;" fill="none"></path></g></g></g></g></g></g><g transform="translate(41, 378)" clip-path="url(#clip_1)"><clipPath id="clip_1"><rect width="909" height="21"></rect></clipPath><g><g><line x1="0" y1="0" x2="0" y2="5" style="visibility: inherit;" fill="rgb(0, 0, 0)" stroke="rgb(204, 204, 204)" stroke-width="1px"></line><line x1="75.77734375" y1="0" x2="75.77734375" y2="5" style="visibility: inherit;" fill="rgb(0, 0, 0)" stroke="rgb(204, 204, 204)" stroke-width="1px"></line><line x1="151.5546875" y1="0" x2="151.5546875" y2="5" style="visibility: inherit;" fill="rgb(0, 0, 0)" stroke="rgb(204, 204, 204)" stroke-width="1px"></line><line x1="227.33203125" y1="0" x2="227.33203125" y2="5" style="visibility: inherit;" fill="rgb(0, 0, 0)" stroke="rgb(204, 204, 204)" stroke-width="1px"></line><line x1="303.109375" y1="0" x2="303.109375" y2="5" style="visibility: inherit;" fill="rgb(0, 0, 0)" stroke="rgb(204, 204, 204)" stroke-width="1px"></line><line x1="378.88671875" y1="0" x2="378.88671875" y2="5" style="visibility: inherit;" fill="rgb(0, 0, 0)" stroke="rgb(204, 204, 204)" stroke-width="1px"></line><line x1="454.6640625" y1="0" x2="454.6640625" y2="5" style="visibility: inherit;" fill="rgb(0, 0, 0)" stroke="rgb(204, 204, 204)" stroke-width="1px"></line><line x1="530.44140625" y1="0" x2="530.44140625" y2="5" style="visibility: inherit;" fill="rgb(0, 0, 0)" stroke="rgb(204, 204, 204)" stroke-width="1px"></line><line x1="606.21875" y1="0" x2="606.21875" y2="5" style="visibility: inherit;" fill="rgb(0, 0, 0)" stroke="rgb(204, 204, 204)" stroke-width="1px"></line><line x1="681.99609375" y1="0" x2="681.99609375" y2="5" style="visibility: inherit;" fill="rgb(0, 0, 0)" stroke="rgb(204, 204, 204)" stroke-width="1px"></line><line x1="757.7734375" y1="0" x2="757.7734375" y2="5" style="visibility: inherit;" fill="rgb(0, 0, 0)" stroke="rgb(204, 204, 204)" stroke-width="1px"></line><line x1="833.55078125" y1="0" x2="833.55078125" y2="5" style="visibility: inherit;" fill="rgb(0, 0, 0)" stroke="rgb(204, 204, 204)" stroke-width="1px"></line><line x1="909.328125" y1="0" x2="909.328125" y2="5" style="visibility: inherit;" fill="rgb(0, 0, 0)" stroke="rgb(204, 204, 204)" stroke-width="1px"></line></g><g transform="translate(0, 8)"><text x="0" y="0" dx="0em" dy="0.95em" style="text-anchor: middle; visibility: hidden; font-family: Roboto, sans-serif; font-size: 12px; font-weight: 200;" fill="rgb(50, 49, 63)" stroke="none" stroke-width="1px">-5</text><text x="75.77734375" y="0" dx="0em" dy="0.95em" style="text-anchor: middle; visibility: inherit; font-family: Roboto, sans-serif; font-size: 12px; font-weight: 200;" fill="rgb(50, 49, 63)" stroke="none" stroke-width="1px">0</text><text x="151.5546875" y="0" dx="0em" dy="0.95em" style="text-anchor: middle; visibility: inherit; font-family: Roboto, sans-serif; font-size: 12px; font-weight: 200;" fill="rgb(50, 49, 63)" stroke="none" stroke-width="1px">5</text><text x="227.33203125" y="0" dx="0em" dy="0.95em" style="text-anchor: middle; visibility: inherit; font-family: Roboto, sans-serif; font-size: 12px; font-weight: 200;" fill="rgb(50, 49, 63)" stroke="none" stroke-width="1px">10</text><text x="303.109375" y="0" dx="0em" dy="0.95em" style="text-anchor: middle; visibility: inherit; font-family: Roboto, sans-serif; font-size: 12px; font-weight: 200;" fill="rgb(50, 49, 63)" stroke="none" stroke-width="1px">15</text><text x="378.88671875" y="0" dx="0em" dy="0.95em" style="text-anchor: middle; visibility: inherit; font-family: Roboto, sans-serif; font-size: 12px; font-weight: 200;" fill="rgb(50, 49, 63)" stroke="none" stroke-width="1px">20</text><text x="454.6640625" y="0" dx="0em" dy="0.95em" style="text-anchor: middle; visibility: inherit; font-family: Roboto, sans-serif; font-size: 12px; font-weight: 200;" fill="rgb(50, 49, 63)" stroke="none" stroke-width="1px">25</text><text x="530.44140625" y="0" dx="0em" dy="0.95em" style="text-anchor: middle; visibility: inherit; font-family: Roboto, sans-serif; font-size: 12px; font-weight: 200;" fill="rgb(50, 49, 63)" stroke="none" stroke-width="1px">30</text><text x="606.21875" y="0" dx="0em" dy="0.95em" style="text-anchor: middle; visibility: inherit; font-family: Roboto, sans-serif; font-size: 12px; font-weight: 200;" fill="rgb(50, 49, 63)" stroke="none" stroke-width="1px">35</text><text x="681.99609375" y="0" dx="0em" dy="0.95em" style="text-anchor: middle; visibility: inherit; font-family: Roboto, sans-serif; font-size: 12px; font-weight: 200;" fill="rgb(50, 49, 63)" stroke="none" stroke-width="1px">40</text><text x="757.7734375" y="0" dx="0em" dy="0.95em" style="text-anchor: middle; visibility: inherit; font-family: Roboto, sans-serif; font-size: 12px; font-weight: 200;" fill="rgb(50, 49, 63)" stroke="none" stroke-width="1px">45</text><text x="833.55078125" y="0" dx="0em" dy="0.95em" style="text-anchor: middle; visibility: inherit; font-family: Roboto, sans-serif; font-size: 12px; font-weight: 200;" fill="rgb(50, 49, 63)" stroke="none" stroke-width="1px">50</text><text x="909.328125" y="0" dx="0em" dy="0.95em" style="text-anchor: middle; visibility: hidden; font-family: Roboto, sans-serif; font-size: 12px; font-weight: 200;" fill="rgb(50, 49, 63)" stroke="none" stroke-width="1px">55</text></g><line x1="0" y1="0" x2="909.328125" y2="0" fill="rgb(0, 0, 0)" stroke="rgb(204, 204, 204)" stroke-width="1px"></line></g></g></g></g></svg>