<svg viewBox="0 0 330 200" xmlns="http://www.w3.org/2000/svg"><g><g><g><g><g><line x1="50" y1="178" x2="45" y2="178" style="visibility: inherit;" fill="rgb(0, 0, 0)" stroke="rgb(204, 204, 204)" stroke-width="1px"></line><line x1="50" y1="155.75000000000009" x2="45" y2="155.75000000000009" style="visibility: inherit;" fill="rgb(0, 0, 0)" stroke="rgb(204, 204, 204)" stroke-width="1px"></line><line x1="50" y1="133.50000000000006" x2="45" y2="133.50000000000006" style="visibility: inherit;" fill="rgb(0, 0, 0)" stroke="rgb(204, 204, 204)" stroke-width="1px"></line><line x1="50" y1="111.25000000000004" x2="45" y2="111.25000000000004" style="visibility: inherit;" fill="rgb(0, 0, 0)" stroke="rgb(204, 204, 204)" stroke-width="1px"></line><line x1="50" y1="89" x2="45" y2="89" style="visibility: inherit;" fill="rgb(0, 0, 0)" stroke="rgb(204, 204, 204)" stroke-width="1px"></line><line x1="50" y1="66.74999999999996" x2="45" y2="66.74999999999996" style="visibility: inherit;" fill="rgb(0, 0, 0)" stroke="rgb(204, 204, 204)" stroke-width="1px"></line><line x1="50" y1="44.49999999999994" x2="45" y2="44.49999999999994" style="visibility: inherit;" fill="rgb(0, 0, 0)" stroke="rgb(204, 204, 204)" stroke-width="1px"></line><line x1="50" y1="22.25000000000004" x2="45" y2="22.25000000000004" style="visibility: inherit;" fill="rgb(0, 0, 0)" stroke="rgb(204, 204, 204)" stroke-width="1px"></line><line x1="50" y1="0" x2="45" y2="0" style="visibility: inherit;" fill="rgb(0, 0, 0)" stroke="rgb(204, 204, 204)" stroke-width="1px"></line></g><g transform="translate(40, 0)"><text x="0" y="178" dx="0em" dy="0.3em" style="text-anchor: end; visibility: hidden; font-family: Roboto, sans-serif; font-size: 12px; font-weight: 200;" fill="rgb(50, 49, 63)" stroke="none" stroke-width="1px">0.8</text><text x="0" y="155.75000000000009" dx="0em" dy="0.3em" style="text-anchor: end; visibility: inherit; font-family: Roboto, sans-serif; font-size: 12px; font-weight: 200;" fill="rgb(50, 49, 63)" stroke="none" stroke-width="1px">0.82</text><text x="0" y="133.50000000000006" dx="0em" dy="0.3em" style="text-anchor: end; visibility: hidden; font-family: Roboto, sans-serif; font-size: 12px; font-weight: 200;" fill="rgb(50, 49, 63)" stroke="none" stroke-width="1px">0.84</text><text x="0" y="111.25000000000004" dx="0em" dy="0.3em" style="text-anchor: end; visibility: inherit; font-family: Roboto, sans-serif; font-size: 12px; font-weight: 200;" fill="rgb(50, 49, 63)" stroke="none" stroke-width="1px">0.86</text><text x="0" y="89" dx="0em" dy="0.3em" style="text-anchor: end; visibility: hidden; font-family: Roboto, sans-serif; font-size: 12px; font-weight: 200;" fill="rgb(50, 49, 63)" stroke="none" stroke-width="1px">0.88</text><text x="0" y="66.74999999999996" dx="0em" dy="0.3em" style="text-anchor: end; visibility: inherit; font-family: Roboto, sans-serif; font-size: 12px; font-weight: 200;" fill="rgb(50, 49, 63)" stroke="none" stroke-width="1px">0.9</text><text x="0" y="44.49999999999994" dx="0em" dy="0.3em" style="text-anchor: end; visibility: hidden; font-family: Roboto, sans-serif; font-size: 12px; font-weight: 200;" fill="rgb(50, 49, 63)" stroke="none" stroke-width="1px">0.92</text><text x="0" y="22.25000000000004" dx="0em" dy="0.3em" style="text-anchor: end; visibility: inherit; font-family: Roboto, sans-serif; font-size: 12px; font-weight: 200;" fill="rgb(50, 49, 63)" stroke="none" stroke-width="1px">0.94</text><text x="0" y="0" dx="0em" dy="0.3em" style="text-anchor: end; visibility: hidden; font-family: Roboto, sans-serif; font-size: 12px; font-weight: 200;" fill="rgb(50, 49, 63)" stroke="none" stroke-width="1px">0.96</text></g><line x1="50" y1="0" x2="50" y2="178" fill="rgb(0, 0, 0)" stroke="rgb(204, 204, 204)" stroke-width="1px"></line></g></g><g transform="translate(50, 0)" clip-path="url(#clip_0)"><clipPath id="clip_0"><rect width="280" height="178"></rect></clipPath><g><g><g><line x1="0" y1="0" x2="0" y2="178" fill="rgb(0, 0, 0)" stroke="rgb(60, 60, 60)" stroke-width="1px" opacity="0.25"></line><line x1="23.333333333333332" y1="0" x2="23.333333333333332" y2="178" fill="rgb(0, 0, 0)" stroke="rgb(60, 60, 60)" stroke-width="1px" opacity="0.25"></line><line x1="46.666666666666664" y1="0" x2="46.666666666666664" y2="178" fill="rgb(0, 0, 0)" stroke="rgb(60, 60, 60)" stroke-width="1px" opacity="0.25"></line><line x1="70" y1="0" x2="70" y2="178" fill="rgb(0, 0, 0)" stroke="rgb(60, 60, 60)" stroke-width="1px" opacity="0.25"></line><line x1="93.33333333333333" y1="0" x2="93.33333333333333" y2="178" fill="rgb(0, 0, 0)" stroke="rgb(60, 60, 60)" stroke-width="1px" opacity="0.25"></line><line x1="116.66666666666667" y1="0" x2="116.66666666666667" y2="178" fill="rgb(0, 0, 0)" stroke="rgb(60, 60, 60)" stroke-width="1px" opacity="0.25"></line><line x1="140" y1="0" x2="140" y2="178" fill="rgb(0, 0, 0)" stroke="rgb(60, 60, 60)" stroke-width="1px" opacity="0.25"></line><line x1="163.33333333333334" y1="0" x2="163.33333333333334" y2="178" fill="rgb(0, 0, 0)" stroke="rgb(60, 60, 60)" stroke-width="1px" opacity="0.25"></line><line x1="186.66666666666666" y1="0" x2="186.66666666666666" y2="178" fill="rgb(0, 0, 0)" stroke="rgb(60, 60, 60)" stroke-width="1px" opacity="0.25"></line><line x1="210" y1="0" x2="210" y2="178" fill="rgb(0, 0, 0)" stroke="rgb(60, 60, 60)" stroke-width="1px" opacity="0.25"></line><line x1="233.33333333333334" y1="0" x2="233.33333333333334" y2="178" fill="rgb(0, 0, 0)" stroke="rgb(60, 60, 60)" stroke-width="1px" opacity="0.25"></line><line x1="256.66666666666663" y1="0" x2="256.66666666666663" y2="178" fill="rgb(0, 0, 0)" stroke="rgb(60, 60, 60)" stroke-width="1px" opacity="0.25"></line><line x1="280" y1="0" x2="280" y2="178" fill="rgb(0, 0, 0)" stroke="rgb(60, 60, 60)" stroke-width="1px" opacity="0.25"></line></g><g><line x1="0" y1="178" x2="280" y2="178" fill="rgb(0, 0, 0)" stroke="rgb(60, 60, 60)" stroke-width="1px" opacity="0.25"></line><line x1="0" y1="155.75000000000009" x2="280" y2="155.75000000000009" fill="rgb(0, 0, 0)" stroke="rgb(60, 60, 60)" stroke-width="1px" opacity="0.25"></line><line x1="0" y1="133.50000000000006" x2="280" y2="133.50000000000006" fill="rgb(0, 0, 0)" stroke="rgb(60, 60, 60)" stroke-width="1px" opacity="0.25"></line><line x1="0" y1="111.25000000000004" x2="280" y2="111.25000000000004" fill="rgb(0, 0, 0)" stroke="rgb(60, 60, 60)" stroke-width="1px" opacity="0.25"></line><line x1="0" y1="89" x2="280" y2="89" fill="rgb(0, 0, 0)" stroke="rgb(60, 60, 60)" stroke-width="1px" opacity="0.25"></line><line x1="0" y1="66.74999999999996" x2="280" y2="66.74999999999996" fill="rgb(0, 0, 0)" stroke="rgb(60, 60, 60)" stroke-width="1px" opacity="0.25"></line><line x1="0" y1="44.49999999999994" x2="280" y2="44.49999999999994" fill="rgb(0, 0, 0)" stroke="rgb(60, 60, 60)" stroke-width="1px" opacity="0.25"></line><line x1="0" y1="22.25000000000004" x2="280" y2="22.25000000000004" fill="rgb(0, 0, 0)" stroke="rgb(60, 60, 60)" stroke-width="1px" opacity="0.25"></line><line x1="0" y1="0" x2="280" y2="0" fill="rgb(0, 0, 0)" stroke="rgb(60, 60, 60)" stroke-width="1px" opacity="0.25"></line></g></g></g><g><g><line x1="0" y1="1068.0000000000005" x2="280" y2="1068.0000000000005" fill="rgb(0, 0, 0)" stroke="rgb(153, 153, 153)" stroke-width="1.5px"></line></g></g><g><g><line x1="23.333333333333332" y1="0" x2="23.333333333333332" y2="178" fill="rgb(0, 0, 0)" stroke="rgb(153, 153, 153)" stroke-width="1.5px"></line></g></g><g><g><g><g><g><path stroke="rgb(255, 112, 67)" stroke-width="2px" d="M23.333333333333332,169.70630887150767L28,142.53724294900897L32.666666666666664,129.38176992535594L37.333333333333336,122.23200875520708L42,117.37014728784563L46.666666666666664,109.07646942138673L51.33333333333333,109.93445667624475L56,104.50067001581192L60.66666666666667,100.78279155492783L65.33333333333333,93.63303038477898L70,96.77891734242439L74.66666666666667,89.91515192389488L79.33333333333333,89.05723097920418L84,85.91134402155876L88.66666666666666,86.48326921463013L93.33333333333333,88.77123522758484L98,80.1914952993393L102.66666666666666,80.1914952993393L107.33333333333334,80.47749105095863L112,80.47749105095863L116.66666666666667,81.62147405743599L121.33333333333334,77.9035955965519L126,77.9035955965519L130.66666666666666,80.47749105095863L135.33333333333334,77.04560834169388L140,77.33160409331322L144.66666666666669,78.76158285140991L149.33333333333334,76.47368314862251L154,73.04180043935776L158.66666666666666,75.90169164538383L163.33333333333334,74.47171288728714L168,73.3277961909771L172.66666666666669,73.61372563242912L177.33333333333331,72.18381318449974L182,72.75580468773842L186.66666666666666,75.32970014214516L191.33333333333334,69.609917730093L196,73.3277961909771L200.66666666666666,71.8978174328804L205.33333333333331,72.18381318449974L210,66.75002652406693L214.66666666666669,70.18190923333168L219.33333333333334,67.89394322037697L224,72.46980893611908L228.66666666666666,68.17993897199631L233.33333333333334,69.32392197847366L238,68.75193047523499L242.66666666666669,70.75383442640305L247.33333333333331,71.61182168126106L252,69.32392197847366" style="fill: none;" fill="none"></path></g><g><path stroke="rgb(187, 187, 187)" stroke-width="2px" d="M23.333333333333332,286.3987423777581L28,152.46354344487193L32.666666666666664,126.20173323154451L37.333333333333336,107.19319435954094L42,92.68665167689323L46.666666666666664,83.3074100613594L51.33333333333333,76.55438262224197L56,66.42484146356583L60.66666666666667,62.423022866249084L65.33333333333333,60.172057926654816L70,51.41812118887899L74.66666666666667,50.792816311120966L79.33333333333333,49.79239481687544L84,48.041607469320276L88.66666666666666,45.66551524400709L93.33333333333333,44.16484984755514L98,41.288580030202844L102.66666666666666,41.41364100575445L107.33333333333334,39.16260975599287L112,34.41049161553381L116.66666666666667,35.160791158676126L121.33333333333334,36.53639557957647L126,34.03530868887899L130.66666666666666,32.03439939022062L135.33333333333334,29.53324618935583L140,32.40958231687544L144.66666666666669,31.158972561359384L149.33333333333334,30.908916920423486L154,28.5328246951103L158.66666666666666,27.53240320086477L163.33333333333334,27.157220274209955L168,29.658307164907434L172.66666666666669,29.908429116010645L177.33333333333331,27.03215929865835L182,27.657397866249063L186.66666666666666,27.407342225313165L191.33333333333334,26.78203734755514L196,25.906610518693903L200.66666666666666,25.406432926654794L205.33333333333331,25.03124999999998L210,24.280884146690347L214.66666666666669,26.28179344534872L219.33333333333334,25.28137195110319L224,25.28137195110319L228.66666666666666,25.5314939022064L233.33333333333334,26.28179344534872L238,25.656554877758005L242.66666666666669,21.904858231544473L247.33333333333331,24.155889481306055L252,25.5314939022064" style="fill: none;" fill="none"></path></g><g><path stroke="rgb(0, 153, 136)" stroke-width="2px" d="M23.333333333333332,168.56232586503032L28,140.24934324622157L32.666666666666664,137.10345628857615L37.333333333333336,123.37599176168443L42,114.51025608181955L46.666666666666664,110.50644817948343L51.33333333333333,109.36246517300607L56,99.63880854845047L60.66666666666667,101.92670825123787L65.33333333333333,92.2031179368496L70,90.48714342713356L74.66666666666667,87.34125646948814L79.33333333333333,88.77123522758484L84,85.91134402155876L88.66666666666666,86.48326921463013L93.33333333333333,83.62337800860405L98,83.33738225698471L102.66666666666666,85.05335676670074L107.33333333333334,80.76348680257797L112,83.33738225698471L116.66666666666667,81.04948255419731L121.33333333333334,82.76545706391335L126,81.33547830581665L130.66666666666666,80.47749105095863L135.33333333333334,78.18959134817123L140,73.89972138404846L144.66666666666669,77.9035955965519L149.33333333333334,76.75961259007454L154,76.47368314862251L158.66666666666666,78.47558709979057L163.33333333333334,75.04370439052582L168,72.75580468773842L172.66666666666669,74.47171288728714L177.33333333333331,72.75580468773842L182,73.04180043935776L186.66666666666666,73.04180043935776L191.33333333333334,73.89972138404846L196,74.1857171356678L200.66666666666666,75.6156958937645L205.33333333333331,74.1857171356678L210,71.61182168126106L214.66666666666669,76.18768739700317L219.33333333333334,73.61372563242912L224,70.75383442640305L228.66666666666666,73.3277961909771L233.33333333333334,71.32582592964172L238,73.3277961909771L242.66666666666669,72.46980893611908L247.33333333333331,72.46980893611908L252,73.3277961909771" style="fill: none;" fill="none"></path></g><g><path stroke="rgb(238, 51, 119)" stroke-width="2px" d="M23.333333333333332,286.5238033533097L28,150.71275609731677L32.666666666666664,126.32679420709611L37.333333333333336,108.19361585378647L42,93.81213414669037L46.666666666666664,86.05868521332741L51.33333333333333,76.30432698130608L56,70.55172103643417L60.66666666666667,65.79960289597511L65.33333333333333,61.29754039645195L70,55.92011737823484L74.66666666666667,53.29396951198576L79.33333333333333,48.41679039597509L84,47.041119664907434L88.66666666666666,46.040698170661905L93.33333333333333,44.790154725313165L98,39.03754878044126L102.66666666666666,38.41224390268324L107.33333333333334,38.53730487823484L112,36.28633993864057L116.66666666666667,34.53555259108541L121.33333333333334,32.78476524353025L126,34.41049161553381L130.66666666666666,34.03530868887899L135.33333333333334,33.660125762224176L140,32.159460365772226L144.66666666666669,30.28361204266546L149.33333333333334,31.158972561359384L154,31.78427743911741L158.66666666666666,30.03349009156225L163.33333333333334,29.408185213804224L168,29.158129572868326L172.66666666666669,28.5328246951103L177.33333333333331,28.157641768455484L182,27.657397866249063L186.66666666666666,28.657885670661905L191.33333333333334,28.157641768455484L196,27.657397866249063L200.66666666666666,27.03215929865835L205.33333333333331,25.656554877758005L210,25.906610518693903L214.66666666666669,25.28137195110319L219.33333333333334,26.78203734755514L224,24.78112804889677L228.66666666666666,25.406432926654794L233.33333333333334,24.531006097793558L238,25.5314939022064L242.66666666666669,25.406432926654794L247.33333333333331,24.405945122241953L252,23.53058460354803" style="fill: none;" fill="none"></path></g><g><path stroke="rgb(51, 187, 238)" stroke-width="2px" d="M23.333333333333332,166.27442616224292L28,140.82133474946025L32.666666666666664,136.53146478533748L37.333333333333336,123.0899960100651L42,115.6542390882969L46.666666666666664,114.79625183343889L51.33333333333333,105.64458671212196L56,102.78469550609589L60.66666666666667,98.49482554197311L65.33333333333333,91.91712218523026L70,93.91902613639832L74.66666666666667,89.3431604206562L79.33333333333333,90.48714342713356L84,87.34125646948814L88.66666666666666,85.05335676670074L93.33333333333333,85.33935251832008L98,85.62534826993942L102.66666666666666,81.04948255419731L107.33333333333334,79.61957010626793L112,79.90549954771996L116.66666666666667,81.33547830581665L121.33333333333334,82.479461312294L126,79.90549954771996L130.66666666666666,77.61759984493256L135.33333333333334,80.1914952993393L140,76.18768739700317L144.66666666666669,78.76158285140991L149.33333333333334,79.90549954771996L154,74.75770863890648L158.66666666666666,76.18768739700317L163.33333333333334,74.75770863890648L168,75.90169164538383L172.66666666666669,75.6156958937645L177.33333333333331,73.04180043935776L182,73.3277961909771L186.66666666666666,72.46980893611908L191.33333333333334,75.32970014214516L196,72.18381318449974L200.66666666666666,72.18381318449974L205.33333333333331,74.1857171356678L210,71.32582592964172L214.66666666666669,73.89972138404846L219.33333333333334,74.1857171356678L224,71.32582592964172L228.66666666666666,68.75193047523499L233.33333333333334,73.04180043935776L238,71.8978174328804L242.66666666666669,71.61182168126106L247.33333333333331,68.46593472361565L252,71.8978174328804" style="fill: none;" fill="none"></path></g><g><path stroke="rgb(204, 51, 17)" stroke-width="2px" d="M23.333333333333332,282.89716768264776L28,154.3393917679787L32.666666666666664,125.20124542713167L37.333333333333336,108.69385975599289L42,94.31237804889679L46.666666666666664,84.18283689022064L51.33333333333333,77.1796875L56,70.05147713422775L60.66666666666667,63.92375457286835L65.33333333333333,59.04650914669035L70,58.421270579099634L74.66666666666667,52.41854268312452L79.33333333333333,49.79239481687544L84,44.039788872003534L88.66666666666666,43.16442835330961L93.33333333333333,43.41448399424551L98,41.538701981306055L102.66666666666666,37.03663948178289L107.33333333333334,36.91157850623129L112,36.28633993864057L116.66666666666667,35.03573018312452L121.33333333333334,33.28494283556936L126,33.03482088446615L130.66666666666666,33.78518673777578L135.33333333333334,33.159881860017755L140,30.158551067113855L144.66666666666669,33.53506478667257L149.33333333333334,31.909338414669016L154,31.28403353691099L158.66666666666666,29.78336814045904L163.33333333333334,28.157641768455484L168,26.406854420900324L172.66666666666669,29.908429116010645L177.33333333333331,27.78245884180067L182,27.03215929865835L186.66666666666666,27.28228124976156L191.33333333333334,25.78161585330961L196,26.031671494245508L200.66666666666666,25.656554877758005L205.33333333333331,27.28228124976156L210,24.656067073345163L214.66666666666669,26.656976372003534L219.33333333333334,25.5314939022064L224,25.78161585330961L228.66666666666666,26.656976372003534L233.33333333333334,24.906189024448373L238,24.78112804889677L242.66666666666669,23.030340701341608L247.33333333333331,25.906610518693903L252,24.155889481306055" style="fill: none;" fill="none"></path></g><g><path stroke="rgb(0, 119, 187)" stroke-width="2px" d="M23.333333333333332,182.57585245370868L28,149.11501261591914L32.666666666666664,135.9595395922661L37.333333333333336,124.80590420961381L42,116.51222634315492L46.666666666666664,110.50644817948343L51.33333333333333,104.50067001581192L56,104.21467426419258L60.66666666666667,99.06681704521179L65.33333333333333,93.91902613639832L70,93.91902613639832L74.66666666666667,93.34703463315964L79.33333333333333,91.05913493037224L84,88.19924372434616L88.66666666666666,84.48136526346207L93.33333333333333,83.90937376022339L98,83.62337800860405L102.66666666666666,82.76545706391335L107.33333333333334,79.61957010626793L112,83.05138650536537L116.66666666666667,81.62147405743599L121.33333333333334,81.33547830581665L126,79.04757860302925L130.66666666666666,79.04757860302925L135.33333333333334,79.61957010626793L140,79.04757860302925L144.66666666666669,76.18768739700317L149.33333333333334,77.9035955965519L154,75.90169164538383L158.66666666666666,79.04757860302925L163.33333333333334,76.75961259007454L168,74.1857171356678L172.66666666666669,72.18381318449974L177.33333333333331,76.75961259007454L182,71.61182168126106L186.66666666666666,76.18768739700317L191.33333333333334,75.04370439052582L196,75.32970014214516L200.66666666666666,71.8978174328804L205.33333333333331,73.61372563242912L210,73.61372563242912L214.66666666666669,70.4678386747837L219.33333333333334,73.3277961909771L224,70.4678386747837L228.66666666666666,73.3277961909771L233.33333333333334,69.609917730093L238,69.89591348171234L242.66666666666669,70.75383442640305L247.33333333333331,73.3277961909771L252,73.89972138404846" style="fill: none;" fill="none"></path></g><g><path stroke="rgb(255, 112, 67)" stroke-width="2px" d="M23.333333333333332,282.89716768264776L28,154.2143307924271L32.666666666666664,125.32630640268327L37.333333333333336,111.82025152444841L42,95.93810442090034L46.666666666666664,84.05777591466904L51.33333333333333,77.80499237775803L56,70.67678201198578L60.66666666666667,63.92375457286835L65.33333333333333,59.796875L70,53.91920807957647L74.66666666666667,52.043359756469705L79.33333333333333,49.16708993911741L84,48.16666844487188L88.66666666666666,43.039367377758005L93.33333333333333,40.66327515244482L98,39.787914633750894L102.66666666666666,40.91339710354803L107.33333333333334,40.53821417689321L112,36.28633993864057L116.66666666666667,35.66103506088255L121.33333333333334,35.03573018312452L126,35.28585213422773L130.66666666666666,31.659216463565805L135.33333333333334,32.53464329242704L140,30.658794969320276L144.66666666666669,31.409094512462595L149.33333333333334,29.908429116010645L154,28.657885670661905L158.66666666666666,28.5328246951103L163.33333333333334,29.158129572868326L168,28.5328246951103L172.66666666666669,27.03215929865835L177.33333333333331,26.656976372003534L182,26.28179344534872L186.66666666666666,27.157220274209955L191.33333333333334,24.405945122241953L196,25.03124999999998L200.66666666666666,26.406854420900324L205.33333333333331,26.53191539645193L210,23.155401676893213L214.66666666666669,24.03082850575445L219.33333333333334,25.406432926654794L224,25.156310975551584L228.66666666666666,26.656976372003534L233.33333333333334,26.406854420900324L238,25.156310975551584L242.66666666666669,24.531006097793558L247.33333333333331,25.156310975551584L252,24.656067073345163" style="fill: none;" fill="none"></path></g><g><path stroke="rgb(187, 187, 187)" stroke-width="2px" d="M23.333333333333332,169.42031311988833L28,143.68122595548633L32.666666666666664,127.09380391240121L37.333333333333336,120.51603424549104L42,115.36824333667757L46.666666666666664,109.93445667624475L51.33333333333333,104.21467426419258L56,96.20692583918571L60.66666666666667,98.78082129359245L65.33333333333333,93.34703463315964L70,94.491017639637L74.66666666666667,94.20502188801765L79.33333333333333,88.4852394759655L84,86.48326921463013L88.66666666666666,86.48326921463013L93.33333333333333,84.19536951184273L98,81.62147405743599L102.66666666666666,85.62534826993942L107.33333333333334,81.33547830581665L112,83.05138650536537L116.66666666666667,81.90746980905533L121.33333333333334,77.61759984493256L126,82.19346556067467L130.66666666666666,80.47749105095863L135.33333333333334,79.04757860302925L140,77.04560834169388L144.66666666666669,79.61957010626793L149.33333333333334,79.33357435464859L154,78.47558709979057L158.66666666666666,76.18768739700317L163.33333333333334,79.33357435464859L168,76.75961259007454L172.66666666666669,73.89972138404846L177.33333333333331,75.6156958937645L182,75.90169164538383L186.66666666666666,72.75580468773842L191.33333333333334,74.47171288728714L196,73.89972138404846L200.66666666666666,75.32970014214516L205.33333333333331,74.1857171356678L210,72.46980893611908L214.66666666666669,74.47171288728714L219.33333333333334,75.04370439052582L224,75.04370439052582L228.66666666666666,74.47171288728714L233.33333333333334,72.18381318449974L238,73.3277961909771L242.66666666666669,71.32582592964172L247.33333333333331,68.17993897199631L252,73.04180043935776" style="fill: none;" fill="none"></path></g><g><path stroke="rgb(0, 153, 136)" stroke-width="2px" d="M23.333333333333332,291.65110442042356L28,155.21475228667262L32.666666666666664,125.70148932933809L37.333333333333336,107.94349390268326L42,96.18822637200356L46.666666666666664,84.30789786577225L51.33333333333333,79.05553582310677L56,67.67538490891457L60.66666666666667,63.79869359731674L65.33333333333333,62.04790624976158L70,58.54633155465124L74.66666666666667,51.5431821644306L79.33333333333333,46.790997713804224L84,49.66733384132383L88.66666666666666,44.540032774209955L93.33333333333333,43.41448399424551L98,39.41273170709608L102.66666666666666,38.78742682933805L107.33333333333334,37.66194435954092L112,36.78651753067968L116.66666666666667,36.16127896308897L121.33333333333334,34.78560823202131L126,34.2854306399822L130.66666666666666,34.1603696644306L135.33333333333334,33.53506478667257L140,32.40958231687544L144.66666666666669,31.28403353691099L149.33333333333334,29.78336814045904L154,29.658307164907434L158.66666666666666,29.158129572868326L163.33333333333334,27.407342225313165L168,29.158129572868326L172.66666666666669,28.657885670661905L177.33333333333331,28.5328246951103L182,26.78203734755514L186.66666666666666,27.03215929865835L191.33333333333334,25.78161585330961L196,26.907098323106744L200.66666666666666,26.406854420900324L205.33333333333331,26.907098323106744L210,26.53191539645193L214.66666666666669,26.907098323106744L219.33333333333334,28.03258079290388L224,24.405945122241953L228.66666666666666,26.656976372003534L233.33333333333334,25.656554877758005L238,24.78112804889677L242.66666666666669,25.5314939022064L247.33333333333331,24.03082850575445L252,23.53058460354803" style="fill: none;" fill="none"></path></g></g></g></g></g></g><g transform="translate(50, 178)" clip-path="url(#clip_1)"><clipPath id="clip_1"><rect width="280" height="22"></rect></clipPath><g><g><line x1="0" y1="0" x2="0" y2="5" style="visibility: inherit;" fill="rgb(0, 0, 0)" stroke="rgb(204, 204, 204)" stroke-width="1px"></line><line x1="23.333333333333332" y1="0" x2="23.333333333333332" y2="5" style="visibility: inherit;" fill="rgb(0, 0, 0)" stroke="rgb(204, 204, 204)" stroke-width="1px"></line><line x1="46.666666666666664" y1="0" x2="46.666666666666664" y2="5" style="visibility: inherit;" fill="rgb(0, 0, 0)" stroke="rgb(204, 204, 204)" stroke-width="1px"></line><line x1="70" y1="0" x2="70" y2="5" style="visibility: inherit;" fill="rgb(0, 0, 0)" stroke="rgb(204, 204, 204)" stroke-width="1px"></line><line x1="93.33333333333333" y1="0" x2="93.33333333333333" y2="5" style="visibility: inherit;" fill="rgb(0, 0, 0)" stroke="rgb(204, 204, 204)" stroke-width="1px"></line><line x1="116.66666666666667" y1="0" x2="116.66666666666667" y2="5" style="visibility: inherit;" fill="rgb(0, 0, 0)" stroke="rgb(204, 204, 204)" stroke-width="1px"></line><line x1="140" y1="0" x2="140" y2="5" style="visibility: inherit;" fill="rgb(0, 0, 0)" stroke="rgb(204, 204, 204)" stroke-width="1px"></line><line x1="163.33333333333334" y1="0" x2="163.33333333333334" y2="5" style="visibility: inherit;" fill="rgb(0, 0, 0)" stroke="rgb(204, 204, 204)" stroke-width="1px"></line><line x1="186.66666666666666" y1="0" x2="186.66666666666666" y2="5" style="visibility: inherit;" fill="rgb(0, 0, 0)" stroke="rgb(204, 204, 204)" stroke-width="1px"></line><line x1="210" y1="0" x2="210" y2="5" style="visibility: inherit;" fill="rgb(0, 0, 0)" stroke="rgb(204, 204, 204)" stroke-width="1px"></line><line x1="233.33333333333334" y1="0" x2="233.33333333333334" y2="5" style="visibility: inherit;" fill="rgb(0, 0, 0)" stroke="rgb(204, 204, 204)" stroke-width="1px"></line><line x1="256.66666666666663" y1="0" x2="256.66666666666663" y2="5" style="visibility: inherit;" fill="rgb(0, 0, 0)" stroke="rgb(204, 204, 204)" stroke-width="1px"></line><line x1="280" y1="0" x2="280" y2="5" style="visibility: inherit;" fill="rgb(0, 0, 0)" stroke="rgb(204, 204, 204)" stroke-width="1px"></line></g><g transform="translate(0, 8)"><text x="0" y="0" dx="0em" dy="0.95em" style="text-anchor: middle; visibility: hidden; font-family: Roboto, sans-serif; font-size: 12px; font-weight: 200;" fill="rgb(50, 49, 63)" stroke="none" stroke-width="1px">-5</text><text x="23.333333333333332" y="0" dx="0em" dy="0.95em" style="text-anchor: middle; visibility: inherit; font-family: Roboto, sans-serif; font-size: 12px; font-weight: 200;" fill="rgb(50, 49, 63)" stroke="none" stroke-width="1px">0</text><text x="46.666666666666664" y="0" dx="0em" dy="0.95em" style="text-anchor: middle; visibility: inherit; font-family: Roboto, sans-serif; font-size: 12px; font-weight: 200;" fill="rgb(50, 49, 63)" stroke="none" stroke-width="1px">5</text><text x="70" y="0" dx="0em" dy="0.95em" style="text-anchor: middle; visibility: inherit; font-family: Roboto, sans-serif; font-size: 12px; font-weight: 200;" fill="rgb(50, 49, 63)" stroke="none" stroke-width="1px">10</text><text x="93.33333333333333" y="0" dx="0em" dy="0.95em" style="text-anchor: middle; visibility: inherit; font-family: Roboto, sans-serif; font-size: 12px; font-weight: 200;" fill="rgb(50, 49, 63)" stroke="none" stroke-width="1px">15</text><text x="116.66666666666667" y="0" dx="0em" dy="0.95em" style="text-anchor: middle; visibility: inherit; font-family: Roboto, sans-serif; font-size: 12px; font-weight: 200;" fill="rgb(50, 49, 63)" stroke="none" stroke-width="1px">20</text><text x="140" y="0" dx="0em" dy="0.95em" style="text-anchor: middle; visibility: inherit; font-family: Roboto, sans-serif; font-size: 12px; font-weight: 200;" fill="rgb(50, 49, 63)" stroke="none" stroke-width="1px">25</text><text x="163.33333333333334" y="0" dx="0em" dy="0.95em" style="text-anchor: middle; visibility: inherit; font-family: Roboto, sans-serif; font-size: 12px; font-weight: 200;" fill="rgb(50, 49, 63)" stroke="none" stroke-width="1px">30</text><text x="186.66666666666666" y="0" dx="0em" dy="0.95em" style="text-anchor: middle; visibility: inherit; font-family: Roboto, sans-serif; font-size: 12px; font-weight: 200;" fill="rgb(50, 49, 63)" stroke="none" stroke-width="1px">35</text><text x="210" y="0" dx="0em" dy="0.95em" style="text-anchor: middle; visibility: inherit; font-family: Roboto, sans-serif; font-size: 12px; font-weight: 200;" fill="rgb(50, 49, 63)" stroke="none" stroke-width="1px">40</text><text x="233.33333333333334" y="0" dx="0em" dy="0.95em" style="text-anchor: middle; visibility: inherit; font-family: Roboto, sans-serif; font-size: 12px; font-weight: 200;" fill="rgb(50, 49, 63)" stroke="none" stroke-width="1px">45</text><text x="256.66666666666663" y="0" dx="0em" dy="0.95em" style="text-anchor: middle; visibility: inherit; font-family: Roboto, sans-serif; font-size: 12px; font-weight: 200;" fill="rgb(50, 49, 63)" stroke="none" stroke-width="1px">50</text><text x="280" y="0" dx="0em" dy="0.95em" style="text-anchor: middle; visibility: hidden; font-family: Roboto, sans-serif; font-size: 12px; font-weight: 200;" fill="rgb(50, 49, 63)" stroke="none" stroke-width="1px">55</text></g><line x1="0" y1="0" x2="280" y2="0" fill="rgb(0, 0, 0)" stroke="rgb(204, 204, 204)" stroke-width="1px"></line></g></g></g></g></svg>