<svg viewBox="0 0 330 200" xmlns="http://www.w3.org/2000/svg"><g><g><g><g><g><line x1="50" y1="178" x2="45" y2="178" style="visibility: inherit;" fill="rgb(0, 0, 0)" stroke="rgb(204, 204, 204)" stroke-width="1px"></line><line x1="50" y1="158.2222222222222" x2="45" y2="158.2222222222222" style="visibility: inherit;" fill="rgb(0, 0, 0)" stroke="rgb(204, 204, 204)" stroke-width="1px"></line><line x1="50" y1="138.44444444444446" x2="45" y2="138.44444444444446" style="visibility: inherit;" fill="rgb(0, 0, 0)" stroke="rgb(204, 204, 204)" stroke-width="1px"></line><line x1="50" y1="118.66666666666666" x2="45" y2="118.66666666666666" style="visibility: inherit;" fill="rgb(0, 0, 0)" stroke="rgb(204, 204, 204)" stroke-width="1px"></line><line x1="50" y1="98.8888888888889" x2="45" y2="98.8888888888889" style="visibility: inherit;" fill="rgb(0, 0, 0)" stroke="rgb(204, 204, 204)" stroke-width="1px"></line><line x1="50" y1="79.1111111111111" x2="45" y2="79.1111111111111" style="visibility: inherit;" fill="rgb(0, 0, 0)" stroke="rgb(204, 204, 204)" stroke-width="1px"></line><line x1="50" y1="59.33333333333334" x2="45" y2="59.33333333333334" style="visibility: inherit;" fill="rgb(0, 0, 0)" stroke="rgb(204, 204, 204)" stroke-width="1px"></line><line x1="50" y1="39.55555555555557" x2="45" y2="39.55555555555557" style="visibility: inherit;" fill="rgb(0, 0, 0)" stroke="rgb(204, 204, 204)" stroke-width="1px"></line><line x1="50" y1="19.777777777777786" x2="45" y2="19.777777777777786" style="visibility: inherit;" fill="rgb(0, 0, 0)" stroke="rgb(204, 204, 204)" stroke-width="1px"></line><line x1="50" y1="0" x2="45" y2="0" style="visibility: inherit;" fill="rgb(0, 0, 0)" stroke="rgb(204, 204, 204)" stroke-width="1px"></line></g><g transform="translate(40, 0)"><text x="0" y="178" dx="0em" dy="0.3em" style="text-anchor: end; visibility: hidden; font-family: Roboto, sans-serif; font-size: 12px; font-weight: 200;" fill="rgb(50, 49, 63)" stroke="none" stroke-width="1px">-0.2</text><text x="0" y="158.2222222222222" dx="0em" dy="0.3em" style="text-anchor: end; visibility: inherit; font-family: Roboto, sans-serif; font-size: 12px; font-weight: 200;" fill="rgb(50, 49, 63)" stroke="none" stroke-width="1px">0</text><text x="0" y="138.44444444444446" dx="0em" dy="0.3em" style="text-anchor: end; visibility: hidden; font-family: Roboto, sans-serif; font-size: 12px; font-weight: 200;" fill="rgb(50, 49, 63)" stroke="none" stroke-width="1px">0.2</text><text x="0" y="118.66666666666666" dx="0em" dy="0.3em" style="text-anchor: end; visibility: inherit; font-family: Roboto, sans-serif; font-size: 12px; font-weight: 200;" fill="rgb(50, 49, 63)" stroke="none" stroke-width="1px">0.4</text><text x="0" y="98.8888888888889" dx="0em" dy="0.3em" style="text-anchor: end; visibility: hidden; font-family: Roboto, sans-serif; font-size: 12px; font-weight: 200;" fill="rgb(50, 49, 63)" stroke="none" stroke-width="1px">0.6</text><text x="0" y="79.1111111111111" dx="0em" dy="0.3em" style="text-anchor: end; visibility: inherit; font-family: Roboto, sans-serif; font-size: 12px; font-weight: 200;" fill="rgb(50, 49, 63)" stroke="none" stroke-width="1px">0.8</text><text x="0" y="59.33333333333334" dx="0em" dy="0.3em" style="text-anchor: end; visibility: hidden; font-family: Roboto, sans-serif; font-size: 12px; font-weight: 200;" fill="rgb(50, 49, 63)" stroke="none" stroke-width="1px">1</text><text x="0" y="39.55555555555557" dx="0em" dy="0.3em" style="text-anchor: end; visibility: inherit; font-family: Roboto, sans-serif; font-size: 12px; font-weight: 200;" fill="rgb(50, 49, 63)" stroke="none" stroke-width="1px">1.2</text><text x="0" y="19.777777777777786" dx="0em" dy="0.3em" style="text-anchor: end; visibility: hidden; font-family: Roboto, sans-serif; font-size: 12px; font-weight: 200;" fill="rgb(50, 49, 63)" stroke="none" stroke-width="1px">1.4</text><text x="0" y="0" dx="0em" dy="0.3em" style="text-anchor: end; visibility: hidden; font-family: Roboto, sans-serif; font-size: 12px; font-weight: 200;" fill="rgb(50, 49, 63)" stroke="none" stroke-width="1px">1.6</text></g><line x1="50" y1="0" x2="50" y2="178" fill="rgb(0, 0, 0)" stroke="rgb(204, 204, 204)" stroke-width="1px"></line></g></g><g transform="translate(50, 0)" clip-path="url(#clip_0)"><clipPath id="clip_0"><rect width="280" height="178"></rect></clipPath><g><g><g><line x1="0" y1="0" x2="0" y2="178" fill="rgb(0, 0, 0)" stroke="rgb(60, 60, 60)" stroke-width="1px" opacity="0.25"></line><line x1="23.333333333333332" y1="0" x2="23.333333333333332" y2="178" fill="rgb(0, 0, 0)" stroke="rgb(60, 60, 60)" stroke-width="1px" opacity="0.25"></line><line x1="46.666666666666664" y1="0" x2="46.666666666666664" y2="178" fill="rgb(0, 0, 0)" stroke="rgb(60, 60, 60)" stroke-width="1px" opacity="0.25"></line><line x1="70" y1="0" x2="70" y2="178" fill="rgb(0, 0, 0)" stroke="rgb(60, 60, 60)" stroke-width="1px" opacity="0.25"></line><line x1="93.33333333333333" y1="0" x2="93.33333333333333" y2="178" fill="rgb(0, 0, 0)" stroke="rgb(60, 60, 60)" stroke-width="1px" opacity="0.25"></line><line x1="116.66666666666667" y1="0" x2="116.66666666666667" y2="178" fill="rgb(0, 0, 0)" stroke="rgb(60, 60, 60)" stroke-width="1px" opacity="0.25"></line><line x1="140" y1="0" x2="140" y2="178" fill="rgb(0, 0, 0)" stroke="rgb(60, 60, 60)" stroke-width="1px" opacity="0.25"></line><line x1="163.33333333333334" y1="0" x2="163.33333333333334" y2="178" fill="rgb(0, 0, 0)" stroke="rgb(60, 60, 60)" stroke-width="1px" opacity="0.25"></line><line x1="186.66666666666666" y1="0" x2="186.66666666666666" y2="178" fill="rgb(0, 0, 0)" stroke="rgb(60, 60, 60)" stroke-width="1px" opacity="0.25"></line><line x1="210" y1="0" x2="210" y2="178" fill="rgb(0, 0, 0)" stroke="rgb(60, 60, 60)" stroke-width="1px" opacity="0.25"></line><line x1="233.33333333333334" y1="0" x2="233.33333333333334" y2="178" fill="rgb(0, 0, 0)" stroke="rgb(60, 60, 60)" stroke-width="1px" opacity="0.25"></line><line x1="256.66666666666663" y1="0" x2="256.66666666666663" y2="178" fill="rgb(0, 0, 0)" stroke="rgb(60, 60, 60)" stroke-width="1px" opacity="0.25"></line><line x1="280" y1="0" x2="280" y2="178" fill="rgb(0, 0, 0)" stroke="rgb(60, 60, 60)" stroke-width="1px" opacity="0.25"></line></g><g><line x1="0" y1="178" x2="280" y2="178" fill="rgb(0, 0, 0)" stroke="rgb(60, 60, 60)" stroke-width="1px" opacity="0.25"></line><line x1="0" y1="158.2222222222222" x2="280" y2="158.2222222222222" fill="rgb(0, 0, 0)" stroke="rgb(60, 60, 60)" stroke-width="1px" opacity="0.25"></line><line x1="0" y1="138.44444444444446" x2="280" y2="138.44444444444446" fill="rgb(0, 0, 0)" stroke="rgb(60, 60, 60)" stroke-width="1px" opacity="0.25"></line><line x1="0" y1="118.66666666666666" x2="280" y2="118.66666666666666" fill="rgb(0, 0, 0)" stroke="rgb(60, 60, 60)" stroke-width="1px" opacity="0.25"></line><line x1="0" y1="98.8888888888889" x2="280" y2="98.8888888888889" fill="rgb(0, 0, 0)" stroke="rgb(60, 60, 60)" stroke-width="1px" opacity="0.25"></line><line x1="0" y1="79.1111111111111" x2="280" y2="79.1111111111111" fill="rgb(0, 0, 0)" stroke="rgb(60, 60, 60)" stroke-width="1px" opacity="0.25"></line><line x1="0" y1="59.33333333333334" x2="280" y2="59.33333333333334" fill="rgb(0, 0, 0)" stroke="rgb(60, 60, 60)" stroke-width="1px" opacity="0.25"></line><line x1="0" y1="39.55555555555557" x2="280" y2="39.55555555555557" fill="rgb(0, 0, 0)" stroke="rgb(60, 60, 60)" stroke-width="1px" opacity="0.25"></line><line x1="0" y1="19.777777777777786" x2="280" y2="19.777777777777786" fill="rgb(0, 0, 0)" stroke="rgb(60, 60, 60)" stroke-width="1px" opacity="0.25"></line><line x1="0" y1="0" x2="280" y2="0" fill="rgb(0, 0, 0)" stroke="rgb(60, 60, 60)" stroke-width="1px" opacity="0.25"></line></g></g></g><g><g><line x1="0" y1="158.2222222222222" x2="280" y2="158.2222222222222" fill="rgb(0, 0, 0)" stroke="rgb(153, 153, 153)" stroke-width="1.5px"></line></g></g><g><g><line x1="23.333333333333332" y1="0" x2="23.333333333333332" y2="178" fill="rgb(0, 0, 0)" stroke="rgb(153, 153, 153)" stroke-width="1.5px"></line></g></g><g><g><g><g><g><path stroke="rgb(255, 112, 67)" stroke-width="2px" d="M23.333333333333332,109.8308127058877L28,119.8504292898708L32.666666666666664,124.62625552548302L37.333333333333336,127.66066772407954L42,129.69052804178662L46.666666666666664,131.47691805495154L51.33333333333333,132.19434396425885L56,133.58747047848172L60.66666666666667,134.45985882812076L65.33333333333333,134.9889623887009L70,135.57829621103076L74.66666666666667,136.2472140226099L79.33333333333333,136.76680281096034L84,137.2632522980372L88.66666666666666,137.98410865333346L93.33333333333333,138.04533946182994L98,138.43219150437247L102.66666666666666,138.5718436638514L107.33333333333334,138.89614753590692L112,138.54672979315123L116.66666666666667,139.1586694882976L121.33333333333334,138.8041016558806L126,139.10486689209938L130.66666666666666,139.08459071649443L135.33333333333334,139.27650265561212L140,139.202784905831L144.66666666666669,139.1821506553226L149.33333333333334,139.28254130151538L154,139.44290875726276L158.66666666666666,139.19982894592815L163.33333333333334,138.9673734969563L168,138.85024321741528L172.66666666666669,139.38140386674138L177.33333333333331,139.23780551552773L182,138.95587089326648L186.66666666666666,139.1317121949461L191.33333333333334,139.15610254804292L196,139.03890153765678L200.66666666666666,138.6586451464229L205.33333333333331,138.91638834608924L210,138.62642135222754L214.66666666666669,138.6889651020368L219.33333333333334,138.63447435365785L224,138.3206887476974L228.66666666666666,138.3154325617684L233.33333333333334,138.13170329729715L238,138.26831255687605L242.66666666666669,138.10572886798116L247.33333333333331,137.77834083636603L252,137.83057851261563" style="fill: none;" fill="none"></path></g><g><path stroke="rgb(187, 187, 187)" stroke-width="2px" d="M23.333333333333332,60.67884030607012L28,114.14672046237523L32.666666666666664,122.9629548655616L37.333333333333336,128.21252746052213L42,132.1960709757275L46.666666666666664,134.6486261917485L51.33333333333333,136.90839712156188L56,138.68592514925533L60.66666666666667,140.27604590853056L65.33333333333333,140.96893558237286L70,142.70256627930533L74.66666666666667,143.29515519407062L79.33333333333333,143.79216905434927L84,144.76742362976074L88.66666666666666,145.35445133182736L93.33333333333333,145.8695826033751L98,146.70741598804793L102.66666666666666,147.07479420801005L107.33333333333334,147.35311639971204L112,148.12776503629155L116.66666666666667,148.39453599684768L121.33333333333334,148.40085314545365L126,148.87128252287707L130.66666666666666,149.31518193913828L135.33333333333334,149.61096580823263L140,149.82387523021964L144.66666666666669,149.89822734726798L149.33333333333334,150.03632711205216L154,150.3173864401049L158.66666666666666,150.66433891819585L163.33333333333334,150.77140773501662L168,150.45237920516067L172.66666666666669,151.0224366618527L177.33333333333331,151.20038736363253L182,151.1405814869536L186.66666666666666,151.61355864836108L191.33333333333334,151.535588943296L196,151.44677089485856L200.66666666666666,151.57299598223634L205.33333333333331,151.69087188276978L210,152.07255541616016L214.66666666666669,152.07298974775605L219.33333333333334,152.04766994714737L224,152.0767281676332L228.66666666666666,152.09104269080692L233.33333333333334,152.00687151153883L238,152.3185285611285L242.66666666666669,152.6857340062658L247.33333333333331,152.5422071226769L252,152.32606581681304" style="fill: none;" fill="none"></path></g><g><path stroke="rgb(0, 153, 136)" stroke-width="2px" d="M23.333333333333332,110.22145916355981L28,120.67543681462607L32.666666666666664,124.56299562586678L37.333333333333336,127.24818017085394L42,130.1204654839304L46.666666666666664,131.27669671509L51.33333333333333,132.7821025517252L56,133.9803243279457L60.66666666666667,134.40863201353284L65.33333333333333,135.39694085054927L70,136.1864105463028L74.66666666666667,136.74606688486207L79.33333333333333,136.6137368414137L84,137.57233135567773L88.66666666666666,137.76747038960457L93.33333333333333,137.91268376178212L98,138.1812929875321L102.66666666666666,138.37546978725325L107.33333333333334,138.6828454103735L112,138.81909364793034L116.66666666666667,139.0537447002199L121.33333333333334,139.0099549392859L126,138.76419767075114L130.66666666666666,139.16370906101335L135.33333333333334,139.3034776316749L140,139.100928068161L144.66666666666669,139.36857211258678L149.33333333333334,139.43626300493875L154,138.88622753487695L158.66666666666666,139.13492308060327L163.33333333333334,138.88249353567758L168,139.0823980602953L172.66666666666669,138.8390854265955L177.33333333333331,138.96602961089877L182,139.2686102721426L186.66666666666666,138.93661294711958L191.33333333333334,138.94205480151706L196,138.80726686120033L200.66666666666666,138.60013894902337L205.33333333333331,138.60199416014882L210,138.87792108125157L214.66666666666669,138.14880395266744L219.33333333333334,138.4096224705378L224,138.63540269600023L228.66666666666666,138.55855805344052L233.33333333333334,138.2527635594209L238,138.10991819699606L242.66666666666669,137.59668044911493L247.33333333333331,137.42283582025104L252,137.60489701562457" style="fill: none;" fill="none"></path></g><g><path stroke="rgb(238, 51, 119)" stroke-width="2px" d="M23.333333333333332,61.90544283390045L28,114.6372889743911L32.666666666666664,123.08767692248028L37.333333333333336,128.4326624804073L42,131.77808999352985L46.666666666666664,134.56641337275505L51.33333333333333,136.87446841928693L56,138.35430063472856L60.66666666666667,140.0093405213621L65.33333333333333,141.04337390263876L70,142.2534578310119L74.66666666666667,143.5248654021157L79.33333333333333,144.16806813081106L84,144.779655645291L88.66666666666666,145.54341762595706L93.33333333333333,145.98936160571046L98,146.95453114145332L102.66666666666666,147.1665114843183L107.33333333333334,147.4206820395258L112,147.77294006778132L116.66666666666667,148.32067973249488L121.33333333333334,148.62708575361304L126,148.99425988561578L130.66666666666666,149.24468391637006L135.33333333333334,149.22971108059087L140,149.7752720879184L144.66666666666669,149.88604395919376L149.33333333333334,150.14026535219617L154,150.46066723929513L158.66666666666666,150.62913264003066L163.33333333333334,150.59934242897563L168,150.9439077410433L172.66666666666669,150.91566108332742L177.33333333333331,151.07259072528947L182,151.28287868532868L186.66666666666666,151.25942625270952L191.33333333333334,151.45382482310137L196,151.68780319558252L200.66666666666666,151.82722695337404L205.33333333333331,152.03347736100355L210,151.70697272817293L214.66666666666669,151.98544890681902L219.33333333333334,151.85785340931682L224,152.3299969045652L228.66666666666666,152.13412035422195L233.33333333333334,152.1490147229698L238,152.37464722411502L242.66666666666669,152.25601059860654L247.33333333333331,152.5090962457988L252,152.59121291504968" style="fill: none;" fill="none"></path></g><g><path stroke="rgb(51, 187, 238)" stroke-width="2px" d="M23.333333333333332,110.26496158043545L28,120.80882045295503L32.666666666666664,124.90878104501301L37.333333333333336,128.25385785102844L42,130.3798973825243L46.666666666666664,131.5620367328326L51.33333333333333,133.29450331793893L56,133.92215852273833L60.66666666666667,135.09890759322377L65.33333333333333,135.65465457903016L70,136.3418121072981L74.66666666666667,136.51407708062064L79.33333333333333,137.0309677819411L84,137.36479084690413L88.66666666666666,137.64122025171915L93.33333333333333,138.12575601206888L98,138.05997632609476L102.66666666666666,138.5267733799087L107.33333333333334,138.61818120876947L112,139.04688675536048L116.66666666666667,138.8088833557235L121.33333333333334,138.8169746696949L126,139.4441686504417L130.66666666666666,139.50235213836035L135.33333333333334,139.1919851899147L140,139.2551198369927L144.66666666666669,139.45677789714603L149.33333333333334,139.48558303382663L154,139.01101884908147L158.66666666666666,139.0862528913551L163.33333333333334,139.47393602132797L168,139.2849638329612L172.66666666666669,139.25892456703716L177.33333333333331,139.1724502146244L182,139.35486801134218L186.66666666666666,139.10048010614184L191.33333333333334,138.64086812734604L196,138.729912367132L200.66666666666666,139.02480399608612L205.33333333333331,138.9080317914486L210,138.62283912963338L214.66666666666669,138.45064341359668L219.33333333333334,138.5351093047195L224,138.60804754164485L228.66666666666666,138.43414249685077L233.33333333333334,137.99493636687598L238,138.14927107095718L242.66666666666669,137.66014517347017L247.33333333333331,138.0244267086188L252,137.6985770728853" style="fill: none;" fill="none"></path></g><g><path stroke="rgb(204, 51, 17)" stroke-width="2px" d="M23.333333333333332,61.262935625182266L28,114.44511621528203L32.666666666666664,123.43192689286339L37.333333333333336,127.9751341144244L42,131.92048297325772L46.666666666666664,134.60948551032277L51.33333333333333,136.9922942188051L56,138.6333235038651L60.66666666666667,140.09359864062733L65.33333333333333,141.18733180231519L70,142.2092584205998L74.66666666666667,143.2201819717884L79.33333333333333,143.93669427434602L84,145.39564320776196L88.66666666666666,145.60389986634254L93.33333333333333,145.99281489186816L98,146.58461618920168L102.66666666666666,147.3219484107362L107.33333333333334,147.63001071247788L112,147.96191888716487L116.66666666666667,148.66604150334993L121.33333333333334,148.6597029881345L126,148.53471716410584L130.66666666666666,149.03459709717166L135.33333333333334,149.34161611894766L140,149.92098573346934L144.66666666666669,149.6679851843251L149.33333333333334,149.73544399109153L154,150.198813546035L158.66666666666666,150.49298018382657L163.33333333333334,150.67877832551798L168,151.06233917342294L172.66666666666669,150.8380354543527L177.33333333333331,151.23903366592197L182,151.32357323500844L186.66666666666666,151.39324606458345L191.33333333333334,151.70622784396014L196,151.62001283797952L200.66666666666666,151.5160458634297L205.33333333333331,151.74484983252157L210,152.05642694152064L214.66666666666669,152.0919205637442L219.33333333333334,151.94591920574507L224,151.79587403270932L228.66666666666666,151.9457438521915L233.33333333333334,152.22458584192725L238,152.43854849040508L242.66666666666669,152.63317546248436L247.33333333333331,152.32540087319083L252,152.35809841669268" style="fill: none;" fill="none"></path></g><g><path stroke="rgb(0, 119, 187)" stroke-width="2px" d="M23.333333333333332,109.57985966735417L28,119.81002724170685L32.666666666666664,124.60172960493301L37.333333333333336,127.99891441398198L42,130.5615282985899L46.666666666666664,131.51331496900983L51.33333333333333,132.88143223524094L56,133.6689568327533L60.66666666666667,134.98035827610227L65.33333333333333,135.46222984128528L70,136.16508814361362L74.66666666666667,136.29110693269305L79.33333333333333,136.7575680149926L84,136.902974423435L88.66666666666666,137.8560224605931L93.33333333333333,138.22005643778377L98,138.05575310521655L102.66666666666666,138.74282664060593L107.33333333333334,138.70586093266806L112,138.60389357805252L116.66666666666667,139.11008476548724L121.33333333333334,139.13312975896727L126,139.45298348201644L130.66666666666666,139.34709645973314L135.33333333333334,139.3432386815548L140,139.11356825961005L144.66666666666669,139.65310461984743L149.33333333333334,139.1054754720794L154,139.08165980709921L158.66666666666666,139.21900437275568L163.33333333333334,139.12171851595244L168,139.24893530872134L172.66666666666669,139.4585992164082L177.33333333333331,139.12492056025397L182,139.23382690548897L186.66666666666666,139.26963144871922L191.33333333333334,139.00874809424081L196,138.7718572318554L200.66666666666666,138.8944441013866L205.33333333333331,138.7224060561922L210,138.78734139270253L214.66666666666669,138.45912964145342L219.33333333333334,138.35332219137084L224,138.45055057936244L228.66666666666666,138.61675922407042L233.33333333333334,138.42580362492137L238,138.50663129819762L242.66666666666669,138.08777502179146L247.33333333333331,137.8979069093863L252,137.72662922077708" style="fill: none;" fill="none"></path></g><g><path stroke="rgb(255, 112, 67)" stroke-width="2px" d="M23.333333333333332,62.403311358557815L28,114.28344613313675L32.666666666666664,122.97900782028836L37.333333333333336,128.1282133460045L42,131.7591223385599L46.666666666666664,134.93586710095406L51.33333333333333,136.58678544229932L56,138.42949194378323L60.66666666666667,139.9982917739285L65.33333333333333,141.52841067314148L70,142.75254940986633L74.66666666666667,143.28527203202248L79.33333333333333,144.3220093945662L84,144.63740265369415L88.66666666666666,145.4596295721001L93.33333333333333,146.1596733762158L98,146.5594787415531L102.66666666666666,146.96554599702358L107.33333333333334,147.22940667801433L112,147.99506144556733L116.66666666666667,148.30726444886793L121.33333333333334,148.61930904454655L126,149.03871643212108L130.66666666666666,149.47896584206157L135.33333333333334,149.54313492774963L140,149.80851411157184L144.66666666666669,149.79272639751434L149.33333333333334,150.2241315046946L154,150.28213595516152L158.66666666666666,150.7657905270656L163.33333333333334,150.37273185286256L168,150.82058924933276L172.66666666666669,151.02687870628304L177.33333333333331,151.26149439315L182,151.20959047807585L186.66666666666666,151.3975142290195L191.33333333333334,151.65835632383823L196,151.76676092214055L200.66666666666666,151.6215077638626L205.33333333333331,151.91341322494875L210,152.17241116033662L214.66666666666669,151.90911558932729L219.33333333333334,151.9849434759882L224,152.0707841979133L228.66666666666666,151.75841689275373L233.33333333333334,152.03400784234205L238,152.51970624095864L242.66666666666669,152.4028478331036L247.33333333333331,152.46786274181474L252,152.2458754579226" style="fill: none;" fill="none"></path></g><g><path stroke="rgb(187, 187, 187)" stroke-width="2px" d="M23.333333333333332,110.95606972111597L28,120.29127991199493L32.666666666666664,125.92143455478882L37.333333333333336,128.09051085842978L42,130.21512693166733L46.666666666666664,132.23478137784534L51.33333333333333,133.6578373544746L56,134.39188059171042L60.66666666666667,135.03589083088767L65.33333333333333,135.71448108553886L70,136.48154089185925L74.66666666666667,136.71261414223247L79.33333333333333,137.24045191539656L84,137.46124856339563L88.66666666666666,137.87515220708318L93.33333333333333,138.1650970975558L98,138.2595610883501L102.66666666666666,138.6478719545735L107.33333333333334,138.84905110796294L112,138.92166810896663L116.66666666666667,139.28571534819073L121.33333333333334,139.37119210097524L126,139.29239793949657L130.66666666666666,139.48352299796213L135.33333333333334,139.668445845445L140,139.7546328537994L144.66666666666669,139.3379662864738L149.33333333333334,139.41995217733913L154,139.3600755698151L158.66666666666666,139.50433996982045L163.33333333333334,139.2378128833241L168,139.73084371288618L172.66666666666669,139.63203272223473L177.33333333333331,139.58869387043845L182,139.34302796257865L186.66666666666666,139.35008483794002L191.33333333333334,139.125857743952L196,138.9742432302899L200.66666666666666,138.92892686194844L205.33333333333331,138.6071678267585L210,138.7238501442803L214.66666666666669,138.71991132034194L219.33333333333334,138.2396636174785L224,138.40664440724584L228.66666666666666,138.04557817843227L233.33333333333334,138.10265207621785L238,138.1167348821958L242.66666666666669,138.05025230844817L247.33333333333331,138.1584012442165L252,137.7960382832421" style="fill: none;" fill="none"></path></g><g><path stroke="rgb(0, 153, 136)" stroke-width="2px" d="M23.333333333333332,59.82199505964916L28,113.89889136950177L32.666666666666664,122.69009294774797L37.333333333333336,127.86461716890335L42,131.54107977284323L46.666666666666664,134.42696603801517L51.33333333333333,136.50691558255087L56,138.34458398487834L60.66666666666667,140.01857531732983L65.33333333333333,140.84155669808388L70,142.18308211366335L74.66666666666667,143.13395959801144L79.33333333333333,144.16764374574026L84,144.6944146619903L88.66666666666666,145.41575876540608L93.33333333333333,146.00489292045435L98,146.77236900726953L102.66666666666666,147.2163804140356L107.33333333333334,147.543621826503L112,147.9580205861065L116.66666666666667,148.24731563693948L121.33333333333334,148.74106114274926L126,148.71597305933633L130.66666666666666,149.1468506322967L135.33333333333334,149.31499995456804L140,149.67821905348035L144.66666666666669,149.83754986027876L149.33333333333334,150.1848950419161L154,150.43503246539169L158.66666666666666,150.55372029708494L163.33333333333334,150.97018498679003L168,150.6637598094013L172.66666666666669,150.9179789920648L177.33333333333331,150.85184049440753L182,151.4741113136212L186.66666666666666,151.36410053571066L191.33333333333334,151.50060590936076L196,151.57111203670502L200.66666666666666,151.8246784326103L205.33333333333331,151.8466514117188L210,151.90665474534035L214.66666666666669,151.89276718596616L219.33333333333334,151.77174302604465L224,152.12213221275144L228.66666666666666,152.28982510003777L233.33333333333334,152.07606248723138L238,152.38573133697113L242.66666666666669,152.271477813522L247.33333333333331,152.61463992877137L252,152.45802120781607" style="fill: none;" fill="none"></path></g></g></g></g></g></g><g transform="translate(50, 178)" clip-path="url(#clip_1)"><clipPath id="clip_1"><rect width="280" height="22"></rect></clipPath><g><g><line x1="0" y1="0" x2="0" y2="5" style="visibility: inherit;" fill="rgb(0, 0, 0)" stroke="rgb(204, 204, 204)" stroke-width="1px"></line><line x1="23.333333333333332" y1="0" x2="23.333333333333332" y2="5" style="visibility: inherit;" fill="rgb(0, 0, 0)" stroke="rgb(204, 204, 204)" stroke-width="1px"></line><line x1="46.666666666666664" y1="0" x2="46.666666666666664" y2="5" style="visibility: inherit;" fill="rgb(0, 0, 0)" stroke="rgb(204, 204, 204)" stroke-width="1px"></line><line x1="70" y1="0" x2="70" y2="5" style="visibility: inherit;" fill="rgb(0, 0, 0)" stroke="rgb(204, 204, 204)" stroke-width="1px"></line><line x1="93.33333333333333" y1="0" x2="93.33333333333333" y2="5" style="visibility: inherit;" fill="rgb(0, 0, 0)" stroke="rgb(204, 204, 204)" stroke-width="1px"></line><line x1="116.66666666666667" y1="0" x2="116.66666666666667" y2="5" style="visibility: inherit;" fill="rgb(0, 0, 0)" stroke="rgb(204, 204, 204)" stroke-width="1px"></line><line x1="140" y1="0" x2="140" y2="5" style="visibility: inherit;" fill="rgb(0, 0, 0)" stroke="rgb(204, 204, 204)" stroke-width="1px"></line><line x1="163.33333333333334" y1="0" x2="163.33333333333334" y2="5" style="visibility: inherit;" fill="rgb(0, 0, 0)" stroke="rgb(204, 204, 204)" stroke-width="1px"></line><line x1="186.66666666666666" y1="0" x2="186.66666666666666" y2="5" style="visibility: inherit;" fill="rgb(0, 0, 0)" stroke="rgb(204, 204, 204)" stroke-width="1px"></line><line x1="210" y1="0" x2="210" y2="5" style="visibility: inherit;" fill="rgb(0, 0, 0)" stroke="rgb(204, 204, 204)" stroke-width="1px"></line><line x1="233.33333333333334" y1="0" x2="233.33333333333334" y2="5" style="visibility: inherit;" fill="rgb(0, 0, 0)" stroke="rgb(204, 204, 204)" stroke-width="1px"></line><line x1="256.66666666666663" y1="0" x2="256.66666666666663" y2="5" style="visibility: inherit;" fill="rgb(0, 0, 0)" stroke="rgb(204, 204, 204)" stroke-width="1px"></line><line x1="280" y1="0" x2="280" y2="5" style="visibility: inherit;" fill="rgb(0, 0, 0)" stroke="rgb(204, 204, 204)" stroke-width="1px"></line></g><g transform="translate(0, 8)"><text x="0" y="0" dx="0em" dy="0.95em" style="text-anchor: middle; visibility: hidden; font-family: Roboto, sans-serif; font-size: 12px; font-weight: 200;" fill="rgb(50, 49, 63)" stroke="none" stroke-width="1px">-5</text><text x="23.333333333333332" y="0" dx="0em" dy="0.95em" style="text-anchor: middle; visibility: inherit; font-family: Roboto, sans-serif; font-size: 12px; font-weight: 200;" fill="rgb(50, 49, 63)" stroke="none" stroke-width="1px">0</text><text x="46.666666666666664" y="0" dx="0em" dy="0.95em" style="text-anchor: middle; visibility: inherit; font-family: Roboto, sans-serif; font-size: 12px; font-weight: 200;" fill="rgb(50, 49, 63)" stroke="none" stroke-width="1px">5</text><text x="70" y="0" dx="0em" dy="0.95em" style="text-anchor: middle; visibility: inherit; font-family: Roboto, sans-serif; font-size: 12px; font-weight: 200;" fill="rgb(50, 49, 63)" stroke="none" stroke-width="1px">10</text><text x="93.33333333333333" y="0" dx="0em" dy="0.95em" style="text-anchor: middle; visibility: inherit; font-family: Roboto, sans-serif; font-size: 12px; font-weight: 200;" fill="rgb(50, 49, 63)" stroke="none" stroke-width="1px">15</text><text x="116.66666666666667" y="0" dx="0em" dy="0.95em" style="text-anchor: middle; visibility: inherit; font-family: Roboto, sans-serif; font-size: 12px; font-weight: 200;" fill="rgb(50, 49, 63)" stroke="none" stroke-width="1px">20</text><text x="140" y="0" dx="0em" dy="0.95em" style="text-anchor: middle; visibility: inherit; font-family: Roboto, sans-serif; font-size: 12px; font-weight: 200;" fill="rgb(50, 49, 63)" stroke="none" stroke-width="1px">25</text><text x="163.33333333333334" y="0" dx="0em" dy="0.95em" style="text-anchor: middle; visibility: inherit; font-family: Roboto, sans-serif; font-size: 12px; font-weight: 200;" fill="rgb(50, 49, 63)" stroke="none" stroke-width="1px">30</text><text x="186.66666666666666" y="0" dx="0em" dy="0.95em" style="text-anchor: middle; visibility: inherit; font-family: Roboto, sans-serif; font-size: 12px; font-weight: 200;" fill="rgb(50, 49, 63)" stroke="none" stroke-width="1px">35</text><text x="210" y="0" dx="0em" dy="0.95em" style="text-anchor: middle; visibility: inherit; font-family: Roboto, sans-serif; font-size: 12px; font-weight: 200;" fill="rgb(50, 49, 63)" stroke="none" stroke-width="1px">40</text><text x="233.33333333333334" y="0" dx="0em" dy="0.95em" style="text-anchor: middle; visibility: inherit; font-family: Roboto, sans-serif; font-size: 12px; font-weight: 200;" fill="rgb(50, 49, 63)" stroke="none" stroke-width="1px">45</text><text x="256.66666666666663" y="0" dx="0em" dy="0.95em" style="text-anchor: middle; visibility: inherit; font-family: Roboto, sans-serif; font-size: 12px; font-weight: 200;" fill="rgb(50, 49, 63)" stroke="none" stroke-width="1px">50</text><text x="280" y="0" dx="0em" dy="0.95em" style="text-anchor: middle; visibility: hidden; font-family: Roboto, sans-serif; font-size: 12px; font-weight: 200;" fill="rgb(50, 49, 63)" stroke="none" stroke-width="1px">55</text></g><line x1="0" y1="0" x2="280" y2="0" fill="rgb(0, 0, 0)" stroke="rgb(204, 204, 204)" stroke-width="1px"></line></g></g></g></g></svg>