<svg viewBox="0 0 950.5 400" xmlns="http://www.w3.org/2000/svg"><g><g><g><g><g><line x1="60" y1="378" x2="55" y2="378" style="visibility: inherit;" fill="rgb(0, 0, 0)" stroke="rgb(204, 204, 204)" stroke-width="1px"></line><line x1="60" y1="343.6363636363636" x2="55" y2="343.6363636363636" style="visibility: inherit;" fill="rgb(0, 0, 0)" stroke="rgb(204, 204, 204)" stroke-width="1px"></line><line x1="60" y1="309.27272727272725" x2="55" y2="309.27272727272725" style="visibility: inherit;" fill="rgb(0, 0, 0)" stroke="rgb(204, 204, 204)" stroke-width="1px"></line><line x1="60" y1="274.90909090909093" x2="55" y2="274.90909090909093" style="visibility: inherit;" fill="rgb(0, 0, 0)" stroke="rgb(204, 204, 204)" stroke-width="1px"></line><line x1="60" y1="240.54545454545453" x2="55" y2="240.54545454545453" style="visibility: inherit;" fill="rgb(0, 0, 0)" stroke="rgb(204, 204, 204)" stroke-width="1px"></line><line x1="60" y1="206.1818181818182" x2="55" y2="206.1818181818182" style="visibility: inherit;" fill="rgb(0, 0, 0)" stroke="rgb(204, 204, 204)" stroke-width="1px"></line><line x1="60" y1="171.81818181818184" x2="55" y2="171.81818181818184" style="visibility: inherit;" fill="rgb(0, 0, 0)" stroke="rgb(204, 204, 204)" stroke-width="1px"></line><line x1="60" y1="137.45454545454547" x2="55" y2="137.45454545454547" style="visibility: inherit;" fill="rgb(0, 0, 0)" stroke="rgb(204, 204, 204)" stroke-width="1px"></line><line x1="60" y1="103.09090909090907" x2="55" y2="103.09090909090907" style="visibility: inherit;" fill="rgb(0, 0, 0)" stroke="rgb(204, 204, 204)" stroke-width="1px"></line><line x1="60" y1="68.72727272727269" x2="55" y2="68.72727272727269" style="visibility: inherit;" fill="rgb(0, 0, 0)" stroke="rgb(204, 204, 204)" stroke-width="1px"></line><line x1="60" y1="34.363636363636374" x2="55" y2="34.363636363636374" style="visibility: inherit;" fill="rgb(0, 0, 0)" stroke="rgb(204, 204, 204)" stroke-width="1px"></line><line x1="60" y1="0" x2="55" y2="0" style="visibility: inherit;" fill="rgb(0, 0, 0)" stroke="rgb(204, 204, 204)" stroke-width="1px"></line></g><g transform="translate(50, 0)"><text x="0" y="378" dx="0em" dy="0.3em" style="text-anchor: end; visibility: hidden; font-family: &quot;Helvetica Neue&quot;, sans-serif; font-size: 12px; font-weight: 200;" fill="rgb(50, 49, 63)" stroke="none" stroke-width="1px">0.845</text><text x="0" y="343.6363636363636" dx="0em" dy="0.3em" style="text-anchor: end; visibility: inherit; font-family: &quot;Helvetica Neue&quot;, sans-serif; font-size: 12px; font-weight: 200;" fill="rgb(50, 49, 63)" stroke="none" stroke-width="1px">0.85</text><text x="0" y="309.27272727272725" dx="0em" dy="0.3em" style="text-anchor: end; visibility: inherit; font-family: &quot;Helvetica Neue&quot;, sans-serif; font-size: 12px; font-weight: 200;" fill="rgb(50, 49, 63)" stroke="none" stroke-width="1px">0.855</text><text x="0" y="274.90909090909093" dx="0em" dy="0.3em" style="text-anchor: end; visibility: inherit; font-family: &quot;Helvetica Neue&quot;, sans-serif; font-size: 12px; font-weight: 200;" fill="rgb(50, 49, 63)" stroke="none" stroke-width="1px">0.86</text><text x="0" y="240.54545454545453" dx="0em" dy="0.3em" style="text-anchor: end; visibility: inherit; font-family: &quot;Helvetica Neue&quot;, sans-serif; font-size: 12px; font-weight: 200;" fill="rgb(50, 49, 63)" stroke="none" stroke-width="1px">0.865</text><text x="0" y="206.1818181818182" dx="0em" dy="0.3em" style="text-anchor: end; visibility: inherit; font-family: &quot;Helvetica Neue&quot;, sans-serif; font-size: 12px; font-weight: 200;" fill="rgb(50, 49, 63)" stroke="none" stroke-width="1px">0.87</text><text x="0" y="171.81818181818184" dx="0em" dy="0.3em" style="text-anchor: end; visibility: inherit; font-family: &quot;Helvetica Neue&quot;, sans-serif; font-size: 12px; font-weight: 200;" fill="rgb(50, 49, 63)" stroke="none" stroke-width="1px">0.875</text><text x="0" y="137.45454545454547" dx="0em" dy="0.3em" style="text-anchor: end; visibility: inherit; font-family: &quot;Helvetica Neue&quot;, sans-serif; font-size: 12px; font-weight: 200;" fill="rgb(50, 49, 63)" stroke="none" stroke-width="1px">0.88</text><text x="0" y="103.09090909090907" dx="0em" dy="0.3em" style="text-anchor: end; visibility: inherit; font-family: &quot;Helvetica Neue&quot;, sans-serif; font-size: 12px; font-weight: 200;" fill="rgb(50, 49, 63)" stroke="none" stroke-width="1px">0.885</text><text x="0" y="68.72727272727269" dx="0em" dy="0.3em" style="text-anchor: end; visibility: inherit; font-family: &quot;Helvetica Neue&quot;, sans-serif; font-size: 12px; font-weight: 200;" fill="rgb(50, 49, 63)" stroke="none" stroke-width="1px">0.89</text><text x="0" y="34.363636363636374" dx="0em" dy="0.3em" style="text-anchor: end; visibility: inherit; font-family: &quot;Helvetica Neue&quot;, sans-serif; font-size: 12px; font-weight: 200;" fill="rgb(50, 49, 63)" stroke="none" stroke-width="1px">0.895</text><text x="0" y="0" dx="0em" dy="0.3em" style="text-anchor: end; visibility: hidden; font-family: &quot;Helvetica Neue&quot;, sans-serif; font-size: 12px; font-weight: 200;" fill="rgb(50, 49, 63)" stroke="none" stroke-width="1px">0.9</text></g><line x1="60" y1="0" x2="60" y2="378" fill="rgb(0, 0, 0)" stroke="rgb(204, 204, 204)" stroke-width="1px"></line></g></g><g transform="translate(60, 0)" clip-path="url(#clip_0)"><clipPath id="clip_0"><rect width="890" height="378"></rect></clipPath><g><g><g><line x1="0" y1="0" x2="0" y2="378" fill="rgb(0, 0, 0)" stroke="rgb(60, 60, 60)" stroke-width="1px" opacity="0.25"></line><line x1="74.20833333333333" y1="0" x2="74.20833333333333" y2="378" fill="rgb(0, 0, 0)" stroke="rgb(60, 60, 60)" stroke-width="1px" opacity="0.25"></line><line x1="148.41666666666666" y1="0" x2="148.41666666666666" y2="378" fill="rgb(0, 0, 0)" stroke="rgb(60, 60, 60)" stroke-width="1px" opacity="0.25"></line><line x1="222.625" y1="0" x2="222.625" y2="378" fill="rgb(0, 0, 0)" stroke="rgb(60, 60, 60)" stroke-width="1px" opacity="0.25"></line><line x1="296.8333333333333" y1="0" x2="296.8333333333333" y2="378" fill="rgb(0, 0, 0)" stroke="rgb(60, 60, 60)" stroke-width="1px" opacity="0.25"></line><line x1="371.0416666666667" y1="0" x2="371.0416666666667" y2="378" fill="rgb(0, 0, 0)" stroke="rgb(60, 60, 60)" stroke-width="1px" opacity="0.25"></line><line x1="445.25" y1="0" x2="445.25" y2="378" fill="rgb(0, 0, 0)" stroke="rgb(60, 60, 60)" stroke-width="1px" opacity="0.25"></line><line x1="519.4583333333334" y1="0" x2="519.4583333333334" y2="378" fill="rgb(0, 0, 0)" stroke="rgb(60, 60, 60)" stroke-width="1px" opacity="0.25"></line><line x1="593.6666666666666" y1="0" x2="593.6666666666666" y2="378" fill="rgb(0, 0, 0)" stroke="rgb(60, 60, 60)" stroke-width="1px" opacity="0.25"></line><line x1="667.875" y1="0" x2="667.875" y2="378" fill="rgb(0, 0, 0)" stroke="rgb(60, 60, 60)" stroke-width="1px" opacity="0.25"></line><line x1="742.0833333333334" y1="0" x2="742.0833333333334" y2="378" fill="rgb(0, 0, 0)" stroke="rgb(60, 60, 60)" stroke-width="1px" opacity="0.25"></line><line x1="816.2916666666666" y1="0" x2="816.2916666666666" y2="378" fill="rgb(0, 0, 0)" stroke="rgb(60, 60, 60)" stroke-width="1px" opacity="0.25"></line><line x1="890.5" y1="0" x2="890.5" y2="378" fill="rgb(0, 0, 0)" stroke="rgb(60, 60, 60)" stroke-width="1px" opacity="0.25"></line></g><g><line x1="0" y1="378" x2="890.5" y2="378" fill="rgb(0, 0, 0)" stroke="rgb(60, 60, 60)" stroke-width="1px" opacity="0.25"></line><line x1="0" y1="343.6363636363636" x2="890.5" y2="343.6363636363636" fill="rgb(0, 0, 0)" stroke="rgb(60, 60, 60)" stroke-width="1px" opacity="0.25"></line><line x1="0" y1="309.27272727272725" x2="890.5" y2="309.27272727272725" fill="rgb(0, 0, 0)" stroke="rgb(60, 60, 60)" stroke-width="1px" opacity="0.25"></line><line x1="0" y1="274.90909090909093" x2="890.5" y2="274.90909090909093" fill="rgb(0, 0, 0)" stroke="rgb(60, 60, 60)" stroke-width="1px" opacity="0.25"></line><line x1="0" y1="240.54545454545453" x2="890.5" y2="240.54545454545453" fill="rgb(0, 0, 0)" stroke="rgb(60, 60, 60)" stroke-width="1px" opacity="0.25"></line><line x1="0" y1="206.1818181818182" x2="890.5" y2="206.1818181818182" fill="rgb(0, 0, 0)" stroke="rgb(60, 60, 60)" stroke-width="1px" opacity="0.25"></line><line x1="0" y1="171.81818181818184" x2="890.5" y2="171.81818181818184" fill="rgb(0, 0, 0)" stroke="rgb(60, 60, 60)" stroke-width="1px" opacity="0.25"></line><line x1="0" y1="137.45454545454547" x2="890.5" y2="137.45454545454547" fill="rgb(0, 0, 0)" stroke="rgb(60, 60, 60)" stroke-width="1px" opacity="0.25"></line><line x1="0" y1="103.09090909090907" x2="890.5" y2="103.09090909090907" fill="rgb(0, 0, 0)" stroke="rgb(60, 60, 60)" stroke-width="1px" opacity="0.25"></line><line x1="0" y1="68.72727272727269" x2="890.5" y2="68.72727272727269" fill="rgb(0, 0, 0)" stroke="rgb(60, 60, 60)" stroke-width="1px" opacity="0.25"></line><line x1="0" y1="34.363636363636374" x2="890.5" y2="34.363636363636374" fill="rgb(0, 0, 0)" stroke="rgb(60, 60, 60)" stroke-width="1px" opacity="0.25"></line><line x1="0" y1="0" x2="890.5" y2="0" fill="rgb(0, 0, 0)" stroke="rgb(60, 60, 60)" stroke-width="1px" opacity="0.25"></line></g></g></g><g><g><line x1="0" y1="6185.45454545454" x2="890.5" y2="6185.45454545454" fill="rgb(0, 0, 0)" stroke="rgb(153, 153, 153)" stroke-width="1.5px"></line></g></g><g><g><line x1="74.20833333333333" y1="0" x2="74.20833333333333" y2="378" fill="rgb(0, 0, 0)" stroke="rgb(153, 153, 153)" stroke-width="1.5px"></line></g></g><g><g><g><g><g><path stroke="rgb(255, 112, 67)" stroke-width="2px" d="M89.05000000000001,415.4275625402275L103.89166666666667,331.70074029402286L118.73333333333333,297.85370089791024L133.575,255.099718353965L148.41666666666666,196.31258270957252L163.25833333333333,189.18719204989347L178.10000000000002,142.8701045296409L192.94166666666666,142.8701045296409L207.78333333333333,141.0885520414873L222.625,125.05580858750781L237.46666666666667,139.3074091998014L252.30833333333334,114.36731295152146L267.15,94.77146452123475L281.9916666666667,84.08296888524842L296.8333333333333,98.33456949754202L311.67499999999995,91.20876919139522L326.51666666666665,82.30182604356253L341.35833333333335,71.6133304075762L356.20000000000005,66.26908258958304L371.0416666666667,57.361729795282656L385.8833333333333,68.05022543126898L400.725,59.143282283436236L415.56666666666666,35.98473852331L430.40833333333336,59.143282283436236L445.25,46.67323415929633L460.0916666666667,48.45478664744991L474.93333333333334,55.58017730712896L489.77500000000003,66.26908258958304L504.6166666666667,53.79903446544307L519.4583333333334,59.143282283436236L534.3,50.235929489135856L549.1416666666667,55.58017730712896L563.9833333333333,69.83177791942256L578.825,53.79903446544307L593.6666666666666,25.29624288732367L608.5083333333333,34.203186035156364L623.3499999999999,46.67323415929633L638.1916666666667,39.54743385314953L653.0333333333333,41.328986341303164L667.875,41.328986341303164L682.7166666666667,41.328986341303164L697.5583333333333,23.514690399170036L712.4000000000001,52.01748197728949L727.2416666666667,39.54743385314953L742.0833333333334,46.67323415929633L756.925,53.79903446544307L771.7666666666667,50.235929489135856L786.6083333333333,48.45478664744991L801.45,62.70597761327582" style="fill: none;" fill="none"></path></g><g><path stroke="rgb(0, 153, 136)" stroke-width="2px" d="M89.05000000000001,397.6132665980944L103.89166666666667,358.4219793839886L118.73333333333333,287.1652052619239L133.575,262.2255186601118L148.41666666666666,223.03423144600603L163.25833333333333,182.06139174374667L178.10000000000002,187.4056395617398L192.94166666666666,166.02864828976718L207.78333333333333,144.65165701779452L222.625,133.96316138180825L237.46666666666667,137.52585671164775L252.30833333333334,130.40005640550098L267.15,105.46036980368882L281.9916666666667,100.11612198569566L296.8333333333333,94.77146452123475L311.67499999999995,96.55301700938838L326.51666666666665,78.73872106725526L341.35833333333335,76.95757822556936L356.20000000000005,71.6133304075762L371.0416666666667,52.01748197728949L385.8833333333333,76.95757822556936L400.725,69.83177791942256L415.56666666666666,66.26908258958304L430.40833333333336,52.01748197728949L445.25,41.328986341303164L460.0916666666667,62.70597761327582L474.93333333333334,44.89168167114269L489.77500000000003,55.58017730712896L504.6166666666667,59.143282283436236L519.4583333333334,59.143282283436236L534.3,55.58017730712896L549.1416666666667,57.361729795282656L563.9833333333333,59.143282283436236L578.825,55.58017730712896L593.6666666666666,73.39447324926209L608.5083333333333,32.42204319347047L623.3499999999999,41.328986341303164L638.1916666666667,66.26908258958304L653.0333333333333,34.203186035156364L667.875,57.361729795282656L682.7166666666667,68.05022543126898L697.5583333333333,57.361729795282656L712.4000000000001,62.70597761327582L727.2416666666667,46.67323415929633L742.0833333333334,60.92483477158987L756.925,50.235929489135856L771.7666666666667,41.328986341303164L786.6083333333333,57.361729795282656L801.45,60.92483477158987" style="fill: none;" fill="none"></path></g><g><path stroke="rgb(51, 187, 238)" stroke-width="2px" d="M89.05000000000001,383.36207563226856L103.89166666666667,335.2638452703301L118.73333333333333,260.44396617195815L133.575,247.9739180478182L148.41666666666666,178.49869641390714L163.25833333333333,180.27983925559303L178.10000000000002,151.77704767747363L192.94166666666666,151.77704767747363L207.78333333333333,155.34015265378085L222.625,125.05580858750781L237.46666666666667,96.55301700938838L252.30833333333334,103.67881731553518L267.15,101.89726482738155L281.9916666666667,110.80461762168198L296.8333333333333,112.58576046336788L311.67499999999995,107.24151264537471L326.51666666666665,96.55301700938838L341.35833333333335,80.52027355540889L356.20000000000005,94.77146452123475L371.0416666666667,62.70597761327582L385.8833333333333,46.67323415929633L400.725,76.95757822556936L415.56666666666666,53.79903446544307L430.40833333333336,43.11053882945674L445.25,59.143282283436236L460.0916666666667,57.361729795282656L474.93333333333334,80.52027355540889L489.77500000000003,55.58017730712896L504.6166666666667,76.95757822556936L519.4583333333334,59.143282283436236L534.3,48.45478664744991L549.1416666666667,30.640490705316836L563.9833333333333,16.388890093023292L578.825,55.58017730712896L593.6666666666666,39.54743385314953L608.5083333333333,43.11053882945674L623.3499999999999,35.98473852331L638.1916666666667,39.54743385314953L653.0333333333333,27.077795375477308L667.875,39.54743385314953L682.7166666666667,46.67323415929633L697.5583333333333,57.361729795282656L712.4000000000001,46.67323415929633L727.2416666666667,39.54743385314953L742.0833333333334,39.54743385314953L756.925,44.89168167114269L771.7666666666667,35.98473852331L786.6083333333333,59.143282283436236L801.45,60.92483477158987" style="fill: none;" fill="none"></path></g></g></g></g></g></g><g transform="translate(60, 378)" clip-path="url(#clip_1)"><clipPath id="clip_1"><rect width="890" height="22"></rect></clipPath><g><g><line x1="0" y1="0" x2="0" y2="5" style="visibility: inherit;" fill="rgb(0, 0, 0)" stroke="rgb(204, 204, 204)" stroke-width="1px"></line><line x1="74.20833333333333" y1="0" x2="74.20833333333333" y2="5" style="visibility: inherit;" fill="rgb(0, 0, 0)" stroke="rgb(204, 204, 204)" stroke-width="1px"></line><line x1="148.41666666666666" y1="0" x2="148.41666666666666" y2="5" style="visibility: inherit;" fill="rgb(0, 0, 0)" stroke="rgb(204, 204, 204)" stroke-width="1px"></line><line x1="222.625" y1="0" x2="222.625" y2="5" style="visibility: inherit;" fill="rgb(0, 0, 0)" stroke="rgb(204, 204, 204)" stroke-width="1px"></line><line x1="296.8333333333333" y1="0" x2="296.8333333333333" y2="5" style="visibility: inherit;" fill="rgb(0, 0, 0)" stroke="rgb(204, 204, 204)" stroke-width="1px"></line><line x1="371.0416666666667" y1="0" x2="371.0416666666667" y2="5" style="visibility: inherit;" fill="rgb(0, 0, 0)" stroke="rgb(204, 204, 204)" stroke-width="1px"></line><line x1="445.25" y1="0" x2="445.25" y2="5" style="visibility: inherit;" fill="rgb(0, 0, 0)" stroke="rgb(204, 204, 204)" stroke-width="1px"></line><line x1="519.4583333333334" y1="0" x2="519.4583333333334" y2="5" style="visibility: inherit;" fill="rgb(0, 0, 0)" stroke="rgb(204, 204, 204)" stroke-width="1px"></line><line x1="593.6666666666666" y1="0" x2="593.6666666666666" y2="5" style="visibility: inherit;" fill="rgb(0, 0, 0)" stroke="rgb(204, 204, 204)" stroke-width="1px"></line><line x1="667.875" y1="0" x2="667.875" y2="5" style="visibility: inherit;" fill="rgb(0, 0, 0)" stroke="rgb(204, 204, 204)" stroke-width="1px"></line><line x1="742.0833333333334" y1="0" x2="742.0833333333334" y2="5" style="visibility: inherit;" fill="rgb(0, 0, 0)" stroke="rgb(204, 204, 204)" stroke-width="1px"></line><line x1="816.2916666666666" y1="0" x2="816.2916666666666" y2="5" style="visibility: inherit;" fill="rgb(0, 0, 0)" stroke="rgb(204, 204, 204)" stroke-width="1px"></line><line x1="890.5" y1="0" x2="890.5" y2="5" style="visibility: inherit;" fill="rgb(0, 0, 0)" stroke="rgb(204, 204, 204)" stroke-width="1px"></line></g><g transform="translate(0, 8)"><text x="0" y="0" dx="0em" dy="0.95em" style="text-anchor: middle; visibility: hidden; font-family: &quot;Helvetica Neue&quot;, sans-serif; font-size: 12px; font-weight: 200;" fill="rgb(50, 49, 63)" stroke="none" stroke-width="1px">-5</text><text x="74.20833333333333" y="0" dx="0em" dy="0.95em" style="text-anchor: middle; visibility: inherit; font-family: &quot;Helvetica Neue&quot;, sans-serif; font-size: 12px; font-weight: 200;" fill="rgb(50, 49, 63)" stroke="none" stroke-width="1px">0</text><text x="148.41666666666666" y="0" dx="0em" dy="0.95em" style="text-anchor: middle; visibility: inherit; font-family: &quot;Helvetica Neue&quot;, sans-serif; font-size: 12px; font-weight: 200;" fill="rgb(50, 49, 63)" stroke="none" stroke-width="1px">5</text><text x="222.625" y="0" dx="0em" dy="0.95em" style="text-anchor: middle; visibility: inherit; font-family: &quot;Helvetica Neue&quot;, sans-serif; font-size: 12px; font-weight: 200;" fill="rgb(50, 49, 63)" stroke="none" stroke-width="1px">10</text><text x="296.8333333333333" y="0" dx="0em" dy="0.95em" style="text-anchor: middle; visibility: inherit; font-family: &quot;Helvetica Neue&quot;, sans-serif; font-size: 12px; font-weight: 200;" fill="rgb(50, 49, 63)" stroke="none" stroke-width="1px">15</text><text x="371.0416666666667" y="0" dx="0em" dy="0.95em" style="text-anchor: middle; visibility: inherit; font-family: &quot;Helvetica Neue&quot;, sans-serif; font-size: 12px; font-weight: 200;" fill="rgb(50, 49, 63)" stroke="none" stroke-width="1px">20</text><text x="445.25" y="0" dx="0em" dy="0.95em" style="text-anchor: middle; visibility: inherit; font-family: &quot;Helvetica Neue&quot;, sans-serif; font-size: 12px; font-weight: 200;" fill="rgb(50, 49, 63)" stroke="none" stroke-width="1px">25</text><text x="519.4583333333334" y="0" dx="0em" dy="0.95em" style="text-anchor: middle; visibility: inherit; font-family: &quot;Helvetica Neue&quot;, sans-serif; font-size: 12px; font-weight: 200;" fill="rgb(50, 49, 63)" stroke="none" stroke-width="1px">30</text><text x="593.6666666666666" y="0" dx="0em" dy="0.95em" style="text-anchor: middle; visibility: inherit; font-family: &quot;Helvetica Neue&quot;, sans-serif; font-size: 12px; font-weight: 200;" fill="rgb(50, 49, 63)" stroke="none" stroke-width="1px">35</text><text x="667.875" y="0" dx="0em" dy="0.95em" style="text-anchor: middle; visibility: inherit; font-family: &quot;Helvetica Neue&quot;, sans-serif; font-size: 12px; font-weight: 200;" fill="rgb(50, 49, 63)" stroke="none" stroke-width="1px">40</text><text x="742.0833333333334" y="0" dx="0em" dy="0.95em" style="text-anchor: middle; visibility: inherit; font-family: &quot;Helvetica Neue&quot;, sans-serif; font-size: 12px; font-weight: 200;" fill="rgb(50, 49, 63)" stroke="none" stroke-width="1px">45</text><text x="816.2916666666666" y="0" dx="0em" dy="0.95em" style="text-anchor: middle; visibility: inherit; font-family: &quot;Helvetica Neue&quot;, sans-serif; font-size: 12px; font-weight: 200;" fill="rgb(50, 49, 63)" stroke="none" stroke-width="1px">50</text><text x="890.5" y="0" dx="0em" dy="0.95em" style="text-anchor: middle; visibility: hidden; font-family: &quot;Helvetica Neue&quot;, sans-serif; font-size: 12px; font-weight: 200;" fill="rgb(50, 49, 63)" stroke="none" stroke-width="1px">55</text></g><line x1="0" y1="0" x2="890.5" y2="0" fill="rgb(0, 0, 0)" stroke="rgb(204, 204, 204)" stroke-width="1px"></line></g></g></g></g></svg>