<svg viewBox="0 0 950.5 400" xmlns="http://www.w3.org/2000/svg"><g><g><g><g><g><line x1="60" y1="378" x2="55" y2="378" style="visibility: inherit;" fill="rgb(0, 0, 0)" stroke="rgb(204, 204, 204)" stroke-width="1px"></line><line x1="60" y1="343.6363636363636" x2="55" y2="343.6363636363636" style="visibility: inherit;" fill="rgb(0, 0, 0)" stroke="rgb(204, 204, 204)" stroke-width="1px"></line><line x1="60" y1="309.27272727272725" x2="55" y2="309.27272727272725" style="visibility: inherit;" fill="rgb(0, 0, 0)" stroke="rgb(204, 204, 204)" stroke-width="1px"></line><line x1="60" y1="274.90909090909093" x2="55" y2="274.90909090909093" style="visibility: inherit;" fill="rgb(0, 0, 0)" stroke="rgb(204, 204, 204)" stroke-width="1px"></line><line x1="60" y1="240.54545454545453" x2="55" y2="240.54545454545453" style="visibility: inherit;" fill="rgb(0, 0, 0)" stroke="rgb(204, 204, 204)" stroke-width="1px"></line><line x1="60" y1="206.1818181818182" x2="55" y2="206.1818181818182" style="visibility: inherit;" fill="rgb(0, 0, 0)" stroke="rgb(204, 204, 204)" stroke-width="1px"></line><line x1="60" y1="171.81818181818184" x2="55" y2="171.81818181818184" style="visibility: inherit;" fill="rgb(0, 0, 0)" stroke="rgb(204, 204, 204)" stroke-width="1px"></line><line x1="60" y1="137.45454545454547" x2="55" y2="137.45454545454547" style="visibility: inherit;" fill="rgb(0, 0, 0)" stroke="rgb(204, 204, 204)" stroke-width="1px"></line><line x1="60" y1="103.09090909090907" x2="55" y2="103.09090909090907" style="visibility: inherit;" fill="rgb(0, 0, 0)" stroke="rgb(204, 204, 204)" stroke-width="1px"></line><line x1="60" y1="68.72727272727269" x2="55" y2="68.72727272727269" style="visibility: inherit;" fill="rgb(0, 0, 0)" stroke="rgb(204, 204, 204)" stroke-width="1px"></line><line x1="60" y1="34.363636363636374" x2="55" y2="34.363636363636374" style="visibility: inherit;" fill="rgb(0, 0, 0)" stroke="rgb(204, 204, 204)" stroke-width="1px"></line><line x1="60" y1="0" x2="55" y2="0" style="visibility: inherit;" fill="rgb(0, 0, 0)" stroke="rgb(204, 204, 204)" stroke-width="1px"></line></g><g transform="translate(50, 0)"><text x="0" y="378" dx="0em" dy="0.3em" style="text-anchor: end; visibility: hidden; font-family: &quot;Helvetica Neue&quot;, sans-serif; font-size: 12px; font-weight: 200;" fill="rgb(50, 49, 63)" stroke="none" stroke-width="1px">0.845</text><text x="0" y="343.6363636363636" dx="0em" dy="0.3em" style="text-anchor: end; visibility: inherit; font-family: &quot;Helvetica Neue&quot;, sans-serif; font-size: 12px; font-weight: 200;" fill="rgb(50, 49, 63)" stroke="none" stroke-width="1px">0.85</text><text x="0" y="309.27272727272725" dx="0em" dy="0.3em" style="text-anchor: end; visibility: inherit; font-family: &quot;Helvetica Neue&quot;, sans-serif; font-size: 12px; font-weight: 200;" fill="rgb(50, 49, 63)" stroke="none" stroke-width="1px">0.855</text><text x="0" y="274.90909090909093" dx="0em" dy="0.3em" style="text-anchor: end; visibility: inherit; font-family: &quot;Helvetica Neue&quot;, sans-serif; font-size: 12px; font-weight: 200;" fill="rgb(50, 49, 63)" stroke="none" stroke-width="1px">0.86</text><text x="0" y="240.54545454545453" dx="0em" dy="0.3em" style="text-anchor: end; visibility: inherit; font-family: &quot;Helvetica Neue&quot;, sans-serif; font-size: 12px; font-weight: 200;" fill="rgb(50, 49, 63)" stroke="none" stroke-width="1px">0.865</text><text x="0" y="206.1818181818182" dx="0em" dy="0.3em" style="text-anchor: end; visibility: inherit; font-family: &quot;Helvetica Neue&quot;, sans-serif; font-size: 12px; font-weight: 200;" fill="rgb(50, 49, 63)" stroke="none" stroke-width="1px">0.87</text><text x="0" y="171.81818181818184" dx="0em" dy="0.3em" style="text-anchor: end; visibility: inherit; font-family: &quot;Helvetica Neue&quot;, sans-serif; font-size: 12px; font-weight: 200;" fill="rgb(50, 49, 63)" stroke="none" stroke-width="1px">0.875</text><text x="0" y="137.45454545454547" dx="0em" dy="0.3em" style="text-anchor: end; visibility: inherit; font-family: &quot;Helvetica Neue&quot;, sans-serif; font-size: 12px; font-weight: 200;" fill="rgb(50, 49, 63)" stroke="none" stroke-width="1px">0.88</text><text x="0" y="103.09090909090907" dx="0em" dy="0.3em" style="text-anchor: end; visibility: inherit; font-family: &quot;Helvetica Neue&quot;, sans-serif; font-size: 12px; font-weight: 200;" fill="rgb(50, 49, 63)" stroke="none" stroke-width="1px">0.885</text><text x="0" y="68.72727272727269" dx="0em" dy="0.3em" style="text-anchor: end; visibility: inherit; font-family: &quot;Helvetica Neue&quot;, sans-serif; font-size: 12px; font-weight: 200;" fill="rgb(50, 49, 63)" stroke="none" stroke-width="1px">0.89</text><text x="0" y="34.363636363636374" dx="0em" dy="0.3em" style="text-anchor: end; visibility: inherit; font-family: &quot;Helvetica Neue&quot;, sans-serif; font-size: 12px; font-weight: 200;" fill="rgb(50, 49, 63)" stroke="none" stroke-width="1px">0.895</text><text x="0" y="0" dx="0em" dy="0.3em" style="text-anchor: end; visibility: hidden; font-family: &quot;Helvetica Neue&quot;, sans-serif; font-size: 12px; font-weight: 200;" fill="rgb(50, 49, 63)" stroke="none" stroke-width="1px">0.9</text></g><line x1="60" y1="0" x2="60" y2="378" fill="rgb(0, 0, 0)" stroke="rgb(204, 204, 204)" stroke-width="1px"></line></g></g><g transform="translate(60, 0)" clip-path="url(#clip_0)"><clipPath id="clip_0"><rect width="890" height="378"></rect></clipPath><g><g><g><line x1="0" y1="0" x2="0" y2="378" fill="rgb(0, 0, 0)" stroke="rgb(60, 60, 60)" stroke-width="1px" opacity="0.25"></line><line x1="74.20833333333333" y1="0" x2="74.20833333333333" y2="378" fill="rgb(0, 0, 0)" stroke="rgb(60, 60, 60)" stroke-width="1px" opacity="0.25"></line><line x1="148.41666666666666" y1="0" x2="148.41666666666666" y2="378" fill="rgb(0, 0, 0)" stroke="rgb(60, 60, 60)" stroke-width="1px" opacity="0.25"></line><line x1="222.625" y1="0" x2="222.625" y2="378" fill="rgb(0, 0, 0)" stroke="rgb(60, 60, 60)" stroke-width="1px" opacity="0.25"></line><line x1="296.8333333333333" y1="0" x2="296.8333333333333" y2="378" fill="rgb(0, 0, 0)" stroke="rgb(60, 60, 60)" stroke-width="1px" opacity="0.25"></line><line x1="371.0416666666667" y1="0" x2="371.0416666666667" y2="378" fill="rgb(0, 0, 0)" stroke="rgb(60, 60, 60)" stroke-width="1px" opacity="0.25"></line><line x1="445.25" y1="0" x2="445.25" y2="378" fill="rgb(0, 0, 0)" stroke="rgb(60, 60, 60)" stroke-width="1px" opacity="0.25"></line><line x1="519.4583333333334" y1="0" x2="519.4583333333334" y2="378" fill="rgb(0, 0, 0)" stroke="rgb(60, 60, 60)" stroke-width="1px" opacity="0.25"></line><line x1="593.6666666666666" y1="0" x2="593.6666666666666" y2="378" fill="rgb(0, 0, 0)" stroke="rgb(60, 60, 60)" stroke-width="1px" opacity="0.25"></line><line x1="667.875" y1="0" x2="667.875" y2="378" fill="rgb(0, 0, 0)" stroke="rgb(60, 60, 60)" stroke-width="1px" opacity="0.25"></line><line x1="742.0833333333334" y1="0" x2="742.0833333333334" y2="378" fill="rgb(0, 0, 0)" stroke="rgb(60, 60, 60)" stroke-width="1px" opacity="0.25"></line><line x1="816.2916666666666" y1="0" x2="816.2916666666666" y2="378" fill="rgb(0, 0, 0)" stroke="rgb(60, 60, 60)" stroke-width="1px" opacity="0.25"></line><line x1="890.5" y1="0" x2="890.5" y2="378" fill="rgb(0, 0, 0)" stroke="rgb(60, 60, 60)" stroke-width="1px" opacity="0.25"></line></g><g><line x1="0" y1="378" x2="890.5" y2="378" fill="rgb(0, 0, 0)" stroke="rgb(60, 60, 60)" stroke-width="1px" opacity="0.25"></line><line x1="0" y1="343.6363636363636" x2="890.5" y2="343.6363636363636" fill="rgb(0, 0, 0)" stroke="rgb(60, 60, 60)" stroke-width="1px" opacity="0.25"></line><line x1="0" y1="309.27272727272725" x2="890.5" y2="309.27272727272725" fill="rgb(0, 0, 0)" stroke="rgb(60, 60, 60)" stroke-width="1px" opacity="0.25"></line><line x1="0" y1="274.90909090909093" x2="890.5" y2="274.90909090909093" fill="rgb(0, 0, 0)" stroke="rgb(60, 60, 60)" stroke-width="1px" opacity="0.25"></line><line x1="0" y1="240.54545454545453" x2="890.5" y2="240.54545454545453" fill="rgb(0, 0, 0)" stroke="rgb(60, 60, 60)" stroke-width="1px" opacity="0.25"></line><line x1="0" y1="206.1818181818182" x2="890.5" y2="206.1818181818182" fill="rgb(0, 0, 0)" stroke="rgb(60, 60, 60)" stroke-width="1px" opacity="0.25"></line><line x1="0" y1="171.81818181818184" x2="890.5" y2="171.81818181818184" fill="rgb(0, 0, 0)" stroke="rgb(60, 60, 60)" stroke-width="1px" opacity="0.25"></line><line x1="0" y1="137.45454545454547" x2="890.5" y2="137.45454545454547" fill="rgb(0, 0, 0)" stroke="rgb(60, 60, 60)" stroke-width="1px" opacity="0.25"></line><line x1="0" y1="103.09090909090907" x2="890.5" y2="103.09090909090907" fill="rgb(0, 0, 0)" stroke="rgb(60, 60, 60)" stroke-width="1px" opacity="0.25"></line><line x1="0" y1="68.72727272727269" x2="890.5" y2="68.72727272727269" fill="rgb(0, 0, 0)" stroke="rgb(60, 60, 60)" stroke-width="1px" opacity="0.25"></line><line x1="0" y1="34.363636363636374" x2="890.5" y2="34.363636363636374" fill="rgb(0, 0, 0)" stroke="rgb(60, 60, 60)" stroke-width="1px" opacity="0.25"></line><line x1="0" y1="0" x2="890.5" y2="0" fill="rgb(0, 0, 0)" stroke="rgb(60, 60, 60)" stroke-width="1px" opacity="0.25"></line></g></g></g><g><g><line x1="0" y1="6185.45454545454" x2="890.5" y2="6185.45454545454" fill="rgb(0, 0, 0)" stroke="rgb(153, 153, 153)" stroke-width="1.5px"></line></g></g><g><g><line x1="74.20833333333333" y1="0" x2="74.20833333333333" y2="378" fill="rgb(0, 0, 0)" stroke="rgb(153, 153, 153)" stroke-width="1.5px"></line></g></g><g><g><g><g><g><path stroke="rgb(255, 112, 67)" stroke-width="2px" d="M89.05000000000001,415.4275625402275L103.89166666666667,331.70074029402286L118.73333333333333,297.85370089791024L133.575,255.099718353965L148.41666666666666,196.31258270957252L163.25833333333333,189.18719204989347L178.10000000000002,142.8701045296409L192.94166666666666,142.8701045296409L207.78333333333333,141.0885520414873L222.625,125.05580858750781L237.46666666666667,139.3074091998014L252.30833333333334,114.36731295152146L267.15,94.77146452123475L281.9916666666667,84.08296888524842L296.8333333333333,98.33456949754202L311.67499999999995,91.20876919139522L326.51666666666665,82.30182604356253L341.35833333333335,71.6133304075762L356.20000000000005,66.26908258958304L371.0416666666667,57.361729795282656L385.8833333333333,68.05022543126898L400.725,59.143282283436236L415.56666666666666,35.98473852331L430.40833333333336,59.143282283436236L445.25,46.67323415929633L460.0916666666667,48.45478664744991L474.93333333333334,55.58017730712896L489.77500000000003,66.26908258958304L504.6166666666667,53.79903446544307L519.4583333333334,59.143282283436236L534.3,50.235929489135856L549.1416666666667,55.58017730712896L563.9833333333333,69.83177791942256L578.825,53.79903446544307L593.6666666666666,25.29624288732367L608.5083333333333,34.203186035156364L623.3499999999999,46.67323415929633L638.1916666666667,39.54743385314953L653.0333333333333,41.328986341303164L667.875,41.328986341303164L682.7166666666667,41.328986341303164L697.5583333333333,23.514690399170036L712.4000000000001,52.01748197728949L727.2416666666667,39.54743385314953L742.0833333333334,46.67323415929633L756.925,53.79903446544307L771.7666666666667,50.235929489135856L786.6083333333333,48.45478664744991L801.45,62.70597761327582" style="fill: none;" fill="none"></path></g><g><path stroke="rgb(0, 153, 136)" stroke-width="2px" d="M89.05000000000001,397.6132665980944L103.89166666666667,358.4219793839886L118.73333333333333,287.1652052619239L133.575,262.2255186601118L148.41666666666666,223.03423144600603L163.25833333333333,182.06139174374667L178.10000000000002,187.4056395617398L192.94166666666666,166.02864828976718L207.78333333333333,144.65165701779452L222.625,133.96316138180825L237.46666666666667,137.52585671164775L252.30833333333334,130.40005640550098L267.15,105.46036980368882L281.9916666666667,100.11612198569566L296.8333333333333,94.77146452123475L311.67499999999995,96.55301700938838L326.51666666666665,78.73872106725526L341.35833333333335,76.95757822556936L356.20000000000005,71.6133304075762L371.0416666666667,52.01748197728949L385.8833333333333,76.95757822556936L400.725,69.83177791942256L415.56666666666666,66.26908258958304L430.40833333333336,52.01748197728949L445.25,41.328986341303164L460.0916666666667,62.70597761327582L474.93333333333334,44.89168167114269L489.77500000000003,55.58017730712896L504.6166666666667,59.143282283436236L519.4583333333334,59.143282283436236L534.3,55.58017730712896L549.1416666666667,57.361729795282656L563.9833333333333,59.143282283436236L578.825,55.58017730712896L593.6666666666666,73.39447324926209L608.5083333333333,32.42204319347047L623.3499999999999,41.328986341303164L638.1916666666667,66.26908258958304L653.0333333333333,34.203186035156364L667.875,57.361729795282656L682.7166666666667,68.05022543126898L697.5583333333333,57.361729795282656L712.4000000000001,62.70597761327582L727.2416666666667,46.67323415929633L742.0833333333334,60.92483477158987L756.925,50.235929489135856L771.7666666666667,41.328986341303164L786.6083333333333,57.361729795282656L801.45,60.92483477158987" style="fill: none;" fill="none"></path></g><g><path stroke="rgb(51, 187, 238)" stroke-width="2px" d="M89.05000000000001,383.36207563226856L103.89166666666667,335.2638452703301L118.73333333333333,260.44396617195815L133.575,247.9739180478182L148.41666666666666,178.49869641390714L163.25833333333333,180.27983925559303L178.10000000000002,151.77704767747363L192.94166666666666,151.77704767747363L207.78333333333333,155.34015265378085L222.625,125.05580858750781L237.46666666666667,96.55301700938838L252.30833333333334,103.67881731553518L267.15,101.89726482738155L281.9916666666667,110.80461762168198L296.8333333333333,112.58576046336788L311.67499999999995,107.24151264537471L326.51666666666665,96.55301700938838L341.35833333333335,80.52027355540889L356.20000000000005,94.77146452123475L371.0416666666667,62.70597761327582L385.8833333333333,46.67323415929633L400.725,76.95757822556936L415.56666666666666,53.79903446544307L430.40833333333336,43.11053882945674L445.25,59.143282283436236L460.0916666666667,57.361729795282656L474.93333333333334,80.52027355540889L489.77500000000003,55.58017730712896L504.6166666666667,76.95757822556936L519.4583333333334,59.143282283436236L534.3,48.45478664744991L549.1416666666667,30.640490705316836L563.9833333333333,16.388890093023292L578.825,55.58017730712896L593.6666666666666,39.54743385314953L608.5083333333333,43.11053882945674L623.3499999999999,35.98473852331L638.1916666666667,39.54743385314953L653.0333333333333,27.077795375477308L667.875,39.54743385314953L682.7166666666667,46.67323415929633L697.5583333333333,57.361729795282656L712.4000000000001,46.67323415929633L727.2416666666667,39.54743385314953L742.0833333333334,39.54743385314953L756.925,44.89168167114269L771.7666666666667,35.98473852331L786.6083333333333,59.143282283436236L801.45,60.92483477158987" style="fill: none;" fill="none"></path></g><g><path stroke="rgb(204, 51, 17)" stroke-width="2px" d="M103.89166666666667,424.0244033119893L118.73333333333333,337.4525863474064L133.575,318.0181386254049L148.41666666666666,289.75007447329426L163.25833333333333,231.44673130728975L178.10000000000002,245.5807633833451L192.94166666666666,159.0089464187622L207.78333333333333,183.74380978670987L222.625,173.1433881412853L237.46666666666667,153.70894041928378L252.30833333333334,121.90685619007462L267.15,114.84004497528082L281.9916666666667,116.60685019059616L296.8333333333333,118.37365540591156L311.67499999999995,118.37365540591156L326.51666666666665,104.23921368338853L341.35833333333335,97.17240246859473L356.20000000000005,86.57157117670238L371.0416666666667,61.836707808754795L385.8833333333333,75.97114953127783L400.725,93.63879203796392L415.56666666666666,83.03796074607163L430.40833333333336,77.73795474659318L445.25,67.13712345470088L460.0916666666667,67.13712345470088L474.93333333333334,65.37031823938554L489.77500000000003,67.13712345470088L504.6166666666667,47.70267573269939L519.4583333333334,15.901001149958006L534.3,37.102254087274844L549.1416666666667,40.63586451790559L563.9833333333333,45.93587051738399L578.825,37.102254087274844L593.6666666666666,37.102254087274844L608.5083333333333,60.07031223990714L623.3499999999999,42.402260086753245L638.1916666666667,24.73461758006715L653.0333333333333,44.169065302068645L667.875,30.035033226013297L682.7166666666667,28.268228010697953L697.5583333333333,38.869059302590244L712.4000000000001,28.268228010697953L727.2416666666667,35.33544887195944L742.0833333333334,58.30350702459174L756.925,15.901001149958006L771.7666666666667,37.102254087274844L786.6083333333333,8.833780288696403L801.45,28.268228010697953" style="fill: none;" fill="none"></path></g><g><path stroke="rgb(0, 153, 136)" stroke-width="2px" d="M103.89166666666667,388.6891182986171L118.73333333333333,335.68578113209105L133.575,330.3857751326126L148.41666666666666,272.0824319666081L163.25833333333333,277.38243796608657L178.10000000000002,173.1433881412853L192.94166666666666,173.1433881412853L207.78333333333333,148.40852477333763L222.625,141.3413039120761L237.46666666666667,167.84297249533915L252.30833333333334,125.44046662070537L267.15,118.37365540591156L281.9916666666667,106.00601889870387L296.8333333333333,116.60685019059616L311.67499999999995,100.70560325275773L326.51666666666665,109.53962932933467L341.35833333333335,90.10518160733318L356.20000000000005,88.33837639201778L371.0416666666667,88.33837639201778L385.8833333333333,93.63879203796392L400.725,97.17240246859473L415.56666666666666,68.90392867001628L430.40833333333336,74.20434431596243L445.25,79.50475996190858L460.0916666666667,81.27115553075623L474.93333333333334,42.402260086753245L489.77500000000003,49.46948094801479L504.6166666666667,56.53670180927634L519.4583333333334,68.90392867001628L534.3,60.07031223990714L549.1416666666667,60.07031223990714L563.9833333333333,60.07031223990714L578.825,49.46948094801479L593.6666666666666,33.5686436566441L608.5083333333333,35.33544887195944L623.3499999999999,44.169065302068645L638.1916666666667,35.33544887195944L653.0333333333333,37.102254087274844L667.875,42.402260086753245L682.7166666666667,33.5686436566441L697.5583333333333,35.33544887195944L712.4000000000001,26.501422795382553L727.2416666666667,24.73461758006715L742.0833333333334,15.901001149958006L756.925,17.66780636527335L771.7666666666667,31.801838441328698L786.6083333333333,33.5686436566441L801.45,49.46948094801479" style="fill: none;" fill="none"></path></g><g><path stroke="rgb(51, 187, 238)" stroke-width="2px" d="M103.89166666666667,406.35676080530317L118.73333333333333,332.15217070146025L133.575,277.38243796608657L148.41666666666666,245.5807633833451L163.25833333333333,212.01228358528826L178.10000000000002,199.6446470780806L192.94166666666666,189.04422543265602L207.78333333333333,181.97700457139447L222.625,194.34464107860217L237.46666666666667,137.80810312791309L252.30833333333334,132.50768748196694L267.15,111.30643454465002L281.9916666666667,132.50768748196694L296.8333333333333,107.77282411401927L311.67499999999995,98.93920768391007L326.51666666666665,97.17240246859473L341.35833333333335,74.20434431596243L356.20000000000005,60.07031223990714L371.0416666666667,83.03796074607163L385.8833333333333,88.33837639201778L400.725,68.90392867001628L415.56666666666666,74.20434431596243L430.40833333333336,61.836707808754795L445.25,65.37031823938554L460.0916666666667,56.53670180927634L474.93333333333334,70.67073388533169L489.77500000000003,47.70267573269939L504.6166666666667,38.869059302590244L519.4583333333334,60.07031223990714L534.3,19.43461158058875L549.1416666666667,31.801838441328698L563.9833333333333,47.70267573269939L578.825,65.37031823938554L593.6666666666666,54.76989659396099L608.5083333333333,30.035033226013297L623.3499999999999,21.20141679590415L638.1916666666667,47.70267573269939L653.0333333333333,30.035033226013297L667.875,26.501422795382553L682.7166666666667,35.33544887195944L697.5583333333333,56.53670180927634L712.4000000000001,30.035033226013297L727.2416666666667,31.801838441328698L742.0833333333334,44.169065302068645L756.925,53.00309137864559L771.7666666666667,44.169065302068645L786.6083333333333,30.035033226013297L801.45,19.43461158058875" style="fill: none;" fill="none"></path></g><g><path stroke="rgb(0, 119, 187)" stroke-width="2px" d="M89.05000000000001,429.3244093114677L103.89166666666667,358.6538392847233L118.73333333333333,318.0181386254049L133.575,309.18452219529576L148.41666666666666,245.5807633833451L163.25833333333333,227.91312087665898L178.10000000000002,210.2454783699729L192.94166666666666,189.04422543265602L207.78333333333333,171.37658292596993L222.625,157.24255084991455L237.46666666666667,121.90685619007462L252.30833333333334,125.44046662070537L267.15,125.44046662070537L281.9916666666667,120.14005097475922L296.8333333333333,113.07323975996542L311.67499999999995,98.93920768391007L326.51666666666665,88.33837639201778L341.35833333333335,91.87198682264858L356.20000000000005,100.70560325275773L371.0416666666667,77.73795474659318L385.8833333333333,63.60351302407014L400.725,81.27115553075623L415.56666666666666,84.80476596138698L430.40833333333336,84.80476596138698L445.25,72.43753910064703L460.0916666666667,58.30350702459174L474.93333333333334,58.30350702459174L489.77500000000003,70.67073388533169L504.6166666666667,67.13712345470088L519.4583333333334,65.37031823938554L534.3,72.43753910064703L549.1416666666667,22.967812364751808L563.9833333333333,49.46948094801479L578.825,35.33544887195944L593.6666666666666,26.501422795382553L608.5083333333333,37.102254087274844L623.3499999999999,30.035033226013297L638.1916666666667,30.035033226013297L653.0333333333333,31.801838441328698L667.875,47.70267573269939L682.7166666666667,22.967812364751808L697.5583333333333,31.801838441328698L712.4000000000001,19.43461158058875L727.2416666666667,10.60058550401186L742.0833333333334,19.43461158058875L756.925,30.035033226013297L771.7666666666667,21.20141679590415L786.6083333333333,37.102254087274844L801.45,19.43461158058875" style="fill: none;" fill="none"></path></g><g><path stroke="rgb(255, 112, 67)" stroke-width="2px" d="M103.89166666666667,386.9223130833017L118.73333333333333,342.75300199335254L133.575,312.71772297945876L148.41666666666666,261.4816006747158L163.25833333333333,266.78201632066197L178.10000000000002,233.21353652260512L192.94166666666666,210.2454783699729L207.78333333333333,166.07616728002372L222.625,185.51061500202525L237.46666666666667,143.1081091273915L252.30833333333334,137.80810312791309L267.15,118.37365540591156L281.9916666666667,121.90685619007462L296.8333333333333,136.04129791259768L311.67499999999995,83.03796074607163L326.51666666666665,83.03796074607163L341.35833333333335,84.80476596138698L356.20000000000005,84.80476596138698L371.0416666666667,91.87198682264858L385.8833333333333,68.90392867001628L400.725,68.90392867001628L415.56666666666666,84.80476596138698L430.40833333333336,63.60351302407014L445.25,65.37031823938554L460.0916666666667,74.20434431596243L474.93333333333334,60.07031223990714L489.77500000000003,38.869059302590244L504.6166666666667,56.53670180927634L519.4583333333334,47.70267573269939L534.3,40.63586451790559L549.1416666666667,42.402260086753245L563.9833333333333,33.5686436566441L578.825,37.102254087274844L593.6666666666666,53.00309137864559L608.5083333333333,17.66780636527335L623.3499999999999,40.63586451790559L638.1916666666667,31.801838441328698L653.0333333333333,33.5686436566441L667.875,0.000163858587256982L682.7166666666667,21.20141679590415L697.5583333333333,7.066975073381059L712.4000000000001,35.33544887195944L727.2416666666667,8.833780288696403L742.0833333333334,15.901001149958006L756.925,12.367390719327204L771.7666666666667,24.73461758006715L786.6083333333333,30.035033226013297L801.45,15.901001149958006" style="fill: none;" fill="none"></path></g><g><path stroke="rgb(0, 153, 136)" stroke-width="2px" d="M103.89166666666667,434.62482495741386L118.73333333333333,349.8202228546141L133.575,295.05008047277266L148.41666666666666,270.3156267512927L163.25833333333333,263.2484058900312L178.10000000000002,203.17825750871137L192.94166666666666,217.31228958476672L207.78333333333333,157.24255084991455L222.625,146.64171955802226L237.46666666666667,127.20727183602074L252.30833333333334,136.04129791259768L267.15,118.37365540591156L281.9916666666667,121.90685619007462L296.8333333333333,104.23921368338853L311.67499999999995,102.47240846807313L326.51666666666665,113.07323975996542L341.35833333333335,86.57157117670238L356.20000000000005,102.47240846807313L371.0416666666667,88.33837639201778L385.8833333333333,98.93920768391007L400.725,90.10518160733318L415.56666666666666,84.80476596138698L430.40833333333336,70.67073388533169L445.25,44.169065302068645L460.0916666666667,68.90392867001628L474.93333333333334,61.836707808754795L489.77500000000003,60.07031223990714L504.6166666666667,72.43753910064703L519.4583333333334,51.23628616333019L534.3,37.102254087274844L549.1416666666667,47.70267573269939L563.9833333333333,37.102254087274844L578.825,38.869059302590244L593.6666666666666,38.869059302590244L608.5083333333333,44.169065302068645L623.3499999999999,45.93587051738399L638.1916666666667,54.76989659396099L653.0333333333333,45.93587051738399L667.875,30.035033226013297L682.7166666666667,58.30350702459174L697.5583333333333,42.402260086753245L712.4000000000001,24.73461758006715L727.2416666666667,40.63586451790559L742.0833333333334,28.268228010697953L756.925,40.63586451790559L771.7666666666667,35.33544887195944L786.6083333333333,35.33544887195944L801.45,40.63586451790559" style="fill: none;" fill="none"></path></g><g><path stroke="rgb(51, 187, 238)" stroke-width="2px" d="M103.89166666666667,431.0912145267831L118.73333333333333,348.0534176392987L133.575,302.1173013340342L148.41666666666666,296.81688568808806L163.25833333333333,240.28034773739896L178.10000000000002,222.61270523071286L192.94166666666666,196.11103664744982L207.78333333333333,155.47574563459918L222.625,167.84297249533915L237.46666666666667,139.57449869676074L252.30833333333334,146.64171955802226L267.15,127.20727183602074L281.9916666666667,113.07323975996542L296.8333333333333,114.84004497528082L311.67499999999995,116.60685019059616L326.51666666666665,88.33837639201778L341.35833333333335,79.50475996190858L356.20000000000005,81.27115553075623L371.0416666666667,90.10518160733318L385.8833333333333,97.17240246859473L400.725,81.27115553075623L415.56666666666666,67.13712345470088L430.40833333333336,83.03796074607163L445.25,58.30350702459174L460.0916666666667,74.20434431596243L474.93333333333334,81.27115553075623L489.77500000000003,49.46948094801479L504.6166666666667,58.30350702459174L519.4583333333334,49.46948094801479L534.3,56.53670180927634L549.1416666666667,54.76989659396099L563.9833333333333,38.869059302590244L578.825,40.63586451790559L593.6666666666666,35.33544887195944L608.5083333333333,53.00309137864559L623.3499999999999,33.5686436566441L638.1916666666667,33.5686436566441L653.0333333333333,45.93587051738399L667.875,28.268228010697953L682.7166666666667,44.169065302068645L697.5583333333333,45.93587051738399L712.4000000000001,28.268228010697953L727.2416666666667,12.367390719327204L742.0833333333334,38.869059302590244L756.925,31.801838441328698L771.7666666666667,30.035033226013297L786.6083333333333,10.60058550401186L801.45,31.801838441328698" style="fill: none;" fill="none"></path></g><g><path stroke="rgb(0, 119, 187)" stroke-width="2px" d="M103.89166666666667,427.55801374262006L118.73333333333333,358.6538392847233L133.575,307.41771697998036L148.41666666666666,270.3156267512927L163.25833333333333,233.21353652260512L178.10000000000002,231.44673130728975L192.94166666666666,199.6446470780806L207.78333333333333,167.84297249533915L222.625,167.84297249533915L237.46666666666667,164.30936206470835L252.30833333333334,150.17532998865303L267.15,132.50768748196694L281.9916666666667,109.53962932933467L296.8333333333333,106.00601889870387L311.67499999999995,104.23921368338853L326.51666666666665,98.93920768391007L341.35833333333335,79.50475996190858L356.20000000000005,100.70560325275773L371.0416666666667,91.87198682264858L385.8833333333333,90.10518160733318L400.725,75.97114953127783L415.56666666666666,75.97114953127783L430.40833333333336,79.50475996190858L445.25,75.97114953127783L460.0916666666667,58.30350702459174L474.93333333333334,68.90392867001628L489.77500000000003,56.53670180927634L504.6166666666667,75.97114953127783L519.4583333333334,61.836707808754795L534.3,45.93587051738399L549.1416666666667,33.5686436566441L563.9833333333333,61.836707808754795L578.825,30.035033226013297L593.6666666666666,58.30350702459174L608.5083333333333,51.23628616333019L623.3499999999999,53.00309137864559L638.1916666666667,31.801838441328698L653.0333333333333,42.402260086753245L667.875,42.402260086753245L682.7166666666667,22.967812364751808L697.5583333333333,40.63586451790559L712.4000000000001,22.967812364751808L727.2416666666667,40.63586451790559L742.0833333333334,17.66780636527335L756.925,19.43461158058875L771.7666666666667,24.73461758006715L786.6083333333333,40.63586451790559L801.45,44.169065302068645" style="fill: none;" fill="none"></path></g><g><path stroke="rgb(187, 187, 187)" stroke-width="2px" d="M89.05000000000001,475.26052561673225L103.89166666666667,372.78787136077864L118.73333333333333,332.15217070146025L133.575,300.3504961187188L148.41666666666666,266.78201632066197L163.25833333333333,231.44673130728975L178.10000000000002,181.97700457139447L192.94166666666666,197.87784186276522L207.78333333333333,164.30936206470835L222.625,171.37658292596993L237.46666666666667,169.60977771065453L252.30833333333334,134.2744926972823L267.15,121.90685619007462L281.9916666666667,121.90685619007462L296.8333333333333,107.77282411401927L311.67499999999995,91.87198682264858L326.51666666666665,116.60685019059616L341.35833333333335,90.10518160733318L356.20000000000005,100.70560325275773L371.0416666666667,93.63879203796392L385.8833333333333,67.13712345470088L400.725,95.40559725327932L415.56666666666666,84.80476596138698L430.40833333333336,75.97114953127783L445.25,63.60351302407014L460.0916666666667,79.50475996190858L474.93333333333334,77.73795474659318L489.77500000000003,72.43753910064703L504.6166666666667,58.30350702459174L519.4583333333334,77.73795474659318L534.3,61.836707808754795L549.1416666666667,44.169065302068645L563.9833333333333,54.76989659396099L578.825,56.53670180927634L593.6666666666666,37.102254087274844L608.5083333333333,47.70267573269939L623.3499999999999,44.169065302068645L638.1916666666667,53.00309137864559L653.0333333333333,45.93587051738399L667.875,35.33544887195944L682.7166666666667,47.70267573269939L697.5583333333333,51.23628616333019L712.4000000000001,51.23628616333019L727.2416666666667,47.70267573269939L742.0833333333334,33.5686436566441L756.925,40.63586451790559L771.7666666666667,28.268228010697953L786.6083333333333,8.833780288696403L801.45,38.869059302590244" style="fill: none;" fill="none"></path></g></g></g></g></g></g><g transform="translate(60, 378)" clip-path="url(#clip_1)"><clipPath id="clip_1"><rect width="890" height="22"></rect></clipPath><g><g><line x1="0" y1="0" x2="0" y2="5" style="visibility: inherit;" fill="rgb(0, 0, 0)" stroke="rgb(204, 204, 204)" stroke-width="1px"></line><line x1="74.20833333333333" y1="0" x2="74.20833333333333" y2="5" style="visibility: inherit;" fill="rgb(0, 0, 0)" stroke="rgb(204, 204, 204)" stroke-width="1px"></line><line x1="148.41666666666666" y1="0" x2="148.41666666666666" y2="5" style="visibility: inherit;" fill="rgb(0, 0, 0)" stroke="rgb(204, 204, 204)" stroke-width="1px"></line><line x1="222.625" y1="0" x2="222.625" y2="5" style="visibility: inherit;" fill="rgb(0, 0, 0)" stroke="rgb(204, 204, 204)" stroke-width="1px"></line><line x1="296.8333333333333" y1="0" x2="296.8333333333333" y2="5" style="visibility: inherit;" fill="rgb(0, 0, 0)" stroke="rgb(204, 204, 204)" stroke-width="1px"></line><line x1="371.0416666666667" y1="0" x2="371.0416666666667" y2="5" style="visibility: inherit;" fill="rgb(0, 0, 0)" stroke="rgb(204, 204, 204)" stroke-width="1px"></line><line x1="445.25" y1="0" x2="445.25" y2="5" style="visibility: inherit;" fill="rgb(0, 0, 0)" stroke="rgb(204, 204, 204)" stroke-width="1px"></line><line x1="519.4583333333334" y1="0" x2="519.4583333333334" y2="5" style="visibility: inherit;" fill="rgb(0, 0, 0)" stroke="rgb(204, 204, 204)" stroke-width="1px"></line><line x1="593.6666666666666" y1="0" x2="593.6666666666666" y2="5" style="visibility: inherit;" fill="rgb(0, 0, 0)" stroke="rgb(204, 204, 204)" stroke-width="1px"></line><line x1="667.875" y1="0" x2="667.875" y2="5" style="visibility: inherit;" fill="rgb(0, 0, 0)" stroke="rgb(204, 204, 204)" stroke-width="1px"></line><line x1="742.0833333333334" y1="0" x2="742.0833333333334" y2="5" style="visibility: inherit;" fill="rgb(0, 0, 0)" stroke="rgb(204, 204, 204)" stroke-width="1px"></line><line x1="816.2916666666666" y1="0" x2="816.2916666666666" y2="5" style="visibility: inherit;" fill="rgb(0, 0, 0)" stroke="rgb(204, 204, 204)" stroke-width="1px"></line><line x1="890.5" y1="0" x2="890.5" y2="5" style="visibility: inherit;" fill="rgb(0, 0, 0)" stroke="rgb(204, 204, 204)" stroke-width="1px"></line></g><g transform="translate(0, 8)"><text x="0" y="0" dx="0em" dy="0.95em" style="text-anchor: middle; visibility: hidden; font-family: &quot;Helvetica Neue&quot;, sans-serif; font-size: 12px; font-weight: 200;" fill="rgb(50, 49, 63)" stroke="none" stroke-width="1px">-5</text><text x="74.20833333333333" y="0" dx="0em" dy="0.95em" style="text-anchor: middle; visibility: inherit; font-family: &quot;Helvetica Neue&quot;, sans-serif; font-size: 12px; font-weight: 200;" fill="rgb(50, 49, 63)" stroke="none" stroke-width="1px">0</text><text x="148.41666666666666" y="0" dx="0em" dy="0.95em" style="text-anchor: middle; visibility: inherit; font-family: &quot;Helvetica Neue&quot;, sans-serif; font-size: 12px; font-weight: 200;" fill="rgb(50, 49, 63)" stroke="none" stroke-width="1px">5</text><text x="222.625" y="0" dx="0em" dy="0.95em" style="text-anchor: middle; visibility: inherit; font-family: &quot;Helvetica Neue&quot;, sans-serif; font-size: 12px; font-weight: 200;" fill="rgb(50, 49, 63)" stroke="none" stroke-width="1px">10</text><text x="296.8333333333333" y="0" dx="0em" dy="0.95em" style="text-anchor: middle; visibility: inherit; font-family: &quot;Helvetica Neue&quot;, sans-serif; font-size: 12px; font-weight: 200;" fill="rgb(50, 49, 63)" stroke="none" stroke-width="1px">15</text><text x="371.0416666666667" y="0" dx="0em" dy="0.95em" style="text-anchor: middle; visibility: inherit; font-family: &quot;Helvetica Neue&quot;, sans-serif; font-size: 12px; font-weight: 200;" fill="rgb(50, 49, 63)" stroke="none" stroke-width="1px">20</text><text x="445.25" y="0" dx="0em" dy="0.95em" style="text-anchor: middle; visibility: inherit; font-family: &quot;Helvetica Neue&quot;, sans-serif; font-size: 12px; font-weight: 200;" fill="rgb(50, 49, 63)" stroke="none" stroke-width="1px">25</text><text x="519.4583333333334" y="0" dx="0em" dy="0.95em" style="text-anchor: middle; visibility: inherit; font-family: &quot;Helvetica Neue&quot;, sans-serif; font-size: 12px; font-weight: 200;" fill="rgb(50, 49, 63)" stroke="none" stroke-width="1px">30</text><text x="593.6666666666666" y="0" dx="0em" dy="0.95em" style="text-anchor: middle; visibility: inherit; font-family: &quot;Helvetica Neue&quot;, sans-serif; font-size: 12px; font-weight: 200;" fill="rgb(50, 49, 63)" stroke="none" stroke-width="1px">35</text><text x="667.875" y="0" dx="0em" dy="0.95em" style="text-anchor: middle; visibility: inherit; font-family: &quot;Helvetica Neue&quot;, sans-serif; font-size: 12px; font-weight: 200;" fill="rgb(50, 49, 63)" stroke="none" stroke-width="1px">40</text><text x="742.0833333333334" y="0" dx="0em" dy="0.95em" style="text-anchor: middle; visibility: inherit; font-family: &quot;Helvetica Neue&quot;, sans-serif; font-size: 12px; font-weight: 200;" fill="rgb(50, 49, 63)" stroke="none" stroke-width="1px">45</text><text x="816.2916666666666" y="0" dx="0em" dy="0.95em" style="text-anchor: middle; visibility: inherit; font-family: &quot;Helvetica Neue&quot;, sans-serif; font-size: 12px; font-weight: 200;" fill="rgb(50, 49, 63)" stroke="none" stroke-width="1px">50</text><text x="890.5" y="0" dx="0em" dy="0.95em" style="text-anchor: middle; visibility: hidden; font-family: &quot;Helvetica Neue&quot;, sans-serif; font-size: 12px; font-weight: 200;" fill="rgb(50, 49, 63)" stroke="none" stroke-width="1px">55</text></g><line x1="0" y1="0" x2="890.5" y2="0" fill="rgb(0, 0, 0)" stroke="rgb(204, 204, 204)" stroke-width="1px"></line></g></g></g></g></svg>