<svg viewBox="0 0 950.5 400" xmlns="http://www.w3.org/2000/svg"><g><g><g><g><g><line x1="50" y1="378" x2="45" y2="378" style="visibility: inherit;" fill="rgb(0, 0, 0)" stroke="rgb(204, 204, 204)" stroke-width="1px"></line><line x1="50" y1="330.75" x2="45" y2="330.75" style="visibility: inherit;" fill="rgb(0, 0, 0)" stroke="rgb(204, 204, 204)" stroke-width="1px"></line><line x1="50" y1="283.5" x2="45" y2="283.5" style="visibility: inherit;" fill="rgb(0, 0, 0)" stroke="rgb(204, 204, 204)" stroke-width="1px"></line><line x1="50" y1="236.25000000000003" x2="45" y2="236.25000000000003" style="visibility: inherit;" fill="rgb(0, 0, 0)" stroke="rgb(204, 204, 204)" stroke-width="1px"></line><line x1="50" y1="189" x2="45" y2="189" style="visibility: inherit;" fill="rgb(0, 0, 0)" stroke="rgb(204, 204, 204)" stroke-width="1px"></line><line x1="50" y1="141.74999999999997" x2="45" y2="141.74999999999997" style="visibility: inherit;" fill="rgb(0, 0, 0)" stroke="rgb(204, 204, 204)" stroke-width="1px"></line><line x1="50" y1="94.50000000000006" x2="45" y2="94.50000000000006" style="visibility: inherit;" fill="rgb(0, 0, 0)" stroke="rgb(204, 204, 204)" stroke-width="1px"></line><line x1="50" y1="47.25000000000006" x2="45" y2="47.25000000000006" style="visibility: inherit;" fill="rgb(0, 0, 0)" stroke="rgb(204, 204, 204)" stroke-width="1px"></line><line x1="50" y1="0" x2="45" y2="0" style="visibility: inherit;" fill="rgb(0, 0, 0)" stroke="rgb(204, 204, 204)" stroke-width="1px"></line></g><g transform="translate(40, 0)"><text x="0" y="378" dx="0em" dy="0.3em" style="text-anchor: end; visibility: hidden; font-family: &quot;Helvetica Neue&quot;, sans-serif; font-size: 12px; font-weight: 200;" fill="rgb(50, 49, 63)" stroke="none" stroke-width="1px">0.18</text><text x="0" y="330.75" dx="0em" dy="0.3em" style="text-anchor: end; visibility: inherit; font-family: &quot;Helvetica Neue&quot;, sans-serif; font-size: 12px; font-weight: 200;" fill="rgb(50, 49, 63)" stroke="none" stroke-width="1px">0.2</text><text x="0" y="283.5" dx="0em" dy="0.3em" style="text-anchor: end; visibility: inherit; font-family: &quot;Helvetica Neue&quot;, sans-serif; font-size: 12px; font-weight: 200;" fill="rgb(50, 49, 63)" stroke="none" stroke-width="1px">0.22</text><text x="0" y="236.25000000000003" dx="0em" dy="0.3em" style="text-anchor: end; visibility: inherit; font-family: &quot;Helvetica Neue&quot;, sans-serif; font-size: 12px; font-weight: 200;" fill="rgb(50, 49, 63)" stroke="none" stroke-width="1px">0.24</text><text x="0" y="189" dx="0em" dy="0.3em" style="text-anchor: end; visibility: inherit; font-family: &quot;Helvetica Neue&quot;, sans-serif; font-size: 12px; font-weight: 200;" fill="rgb(50, 49, 63)" stroke="none" stroke-width="1px">0.26</text><text x="0" y="141.74999999999997" dx="0em" dy="0.3em" style="text-anchor: end; visibility: inherit; font-family: &quot;Helvetica Neue&quot;, sans-serif; font-size: 12px; font-weight: 200;" fill="rgb(50, 49, 63)" stroke="none" stroke-width="1px">0.28</text><text x="0" y="94.50000000000006" dx="0em" dy="0.3em" style="text-anchor: end; visibility: inherit; font-family: &quot;Helvetica Neue&quot;, sans-serif; font-size: 12px; font-weight: 200;" fill="rgb(50, 49, 63)" stroke="none" stroke-width="1px">0.3</text><text x="0" y="47.25000000000006" dx="0em" dy="0.3em" style="text-anchor: end; visibility: inherit; font-family: &quot;Helvetica Neue&quot;, sans-serif; font-size: 12px; font-weight: 200;" fill="rgb(50, 49, 63)" stroke="none" stroke-width="1px">0.32</text><text x="0" y="0" dx="0em" dy="0.3em" style="text-anchor: end; visibility: hidden; font-family: &quot;Helvetica Neue&quot;, sans-serif; font-size: 12px; font-weight: 200;" fill="rgb(50, 49, 63)" stroke="none" stroke-width="1px">0.34</text></g><line x1="50" y1="0" x2="50" y2="378" fill="rgb(0, 0, 0)" stroke="rgb(204, 204, 204)" stroke-width="1px"></line></g></g><g transform="translate(50, 0)" clip-path="url(#clip_0)"><clipPath id="clip_0"><rect width="900" height="378"></rect></clipPath><g><g><g><line x1="0" y1="0" x2="0" y2="378" fill="rgb(0, 0, 0)" stroke="rgb(60, 60, 60)" stroke-width="1px" opacity="0.25"></line><line x1="75.04166666666666" y1="0" x2="75.04166666666666" y2="378" fill="rgb(0, 0, 0)" stroke="rgb(60, 60, 60)" stroke-width="1px" opacity="0.25"></line><line x1="150.08333333333331" y1="0" x2="150.08333333333331" y2="378" fill="rgb(0, 0, 0)" stroke="rgb(60, 60, 60)" stroke-width="1px" opacity="0.25"></line><line x1="225.125" y1="0" x2="225.125" y2="378" fill="rgb(0, 0, 0)" stroke="rgb(60, 60, 60)" stroke-width="1px" opacity="0.25"></line><line x1="300.16666666666663" y1="0" x2="300.16666666666663" y2="378" fill="rgb(0, 0, 0)" stroke="rgb(60, 60, 60)" stroke-width="1px" opacity="0.25"></line><line x1="375.20833333333337" y1="0" x2="375.20833333333337" y2="378" fill="rgb(0, 0, 0)" stroke="rgb(60, 60, 60)" stroke-width="1px" opacity="0.25"></line><line x1="450.25" y1="0" x2="450.25" y2="378" fill="rgb(0, 0, 0)" stroke="rgb(60, 60, 60)" stroke-width="1px" opacity="0.25"></line><line x1="525.2916666666667" y1="0" x2="525.2916666666667" y2="378" fill="rgb(0, 0, 0)" stroke="rgb(60, 60, 60)" stroke-width="1px" opacity="0.25"></line><line x1="600.3333333333333" y1="0" x2="600.3333333333333" y2="378" fill="rgb(0, 0, 0)" stroke="rgb(60, 60, 60)" stroke-width="1px" opacity="0.25"></line><line x1="675.375" y1="0" x2="675.375" y2="378" fill="rgb(0, 0, 0)" stroke="rgb(60, 60, 60)" stroke-width="1px" opacity="0.25"></line><line x1="750.4166666666667" y1="0" x2="750.4166666666667" y2="378" fill="rgb(0, 0, 0)" stroke="rgb(60, 60, 60)" stroke-width="1px" opacity="0.25"></line><line x1="825.4583333333333" y1="0" x2="825.4583333333333" y2="378" fill="rgb(0, 0, 0)" stroke="rgb(60, 60, 60)" stroke-width="1px" opacity="0.25"></line><line x1="900.5" y1="0" x2="900.5" y2="378" fill="rgb(0, 0, 0)" stroke="rgb(60, 60, 60)" stroke-width="1px" opacity="0.25"></line></g><g><line x1="0" y1="378" x2="900.5" y2="378" fill="rgb(0, 0, 0)" stroke="rgb(60, 60, 60)" stroke-width="1px" opacity="0.25"></line><line x1="0" y1="330.75" x2="900.5" y2="330.75" fill="rgb(0, 0, 0)" stroke="rgb(60, 60, 60)" stroke-width="1px" opacity="0.25"></line><line x1="0" y1="283.5" x2="900.5" y2="283.5" fill="rgb(0, 0, 0)" stroke="rgb(60, 60, 60)" stroke-width="1px" opacity="0.25"></line><line x1="0" y1="236.25000000000003" x2="900.5" y2="236.25000000000003" fill="rgb(0, 0, 0)" stroke="rgb(60, 60, 60)" stroke-width="1px" opacity="0.25"></line><line x1="0" y1="189" x2="900.5" y2="189" fill="rgb(0, 0, 0)" stroke="rgb(60, 60, 60)" stroke-width="1px" opacity="0.25"></line><line x1="0" y1="141.74999999999997" x2="900.5" y2="141.74999999999997" fill="rgb(0, 0, 0)" stroke="rgb(60, 60, 60)" stroke-width="1px" opacity="0.25"></line><line x1="0" y1="94.50000000000006" x2="900.5" y2="94.50000000000006" fill="rgb(0, 0, 0)" stroke="rgb(60, 60, 60)" stroke-width="1px" opacity="0.25"></line><line x1="0" y1="47.25000000000006" x2="900.5" y2="47.25000000000006" fill="rgb(0, 0, 0)" stroke="rgb(60, 60, 60)" stroke-width="1px" opacity="0.25"></line><line x1="0" y1="0" x2="900.5" y2="0" fill="rgb(0, 0, 0)" stroke="rgb(60, 60, 60)" stroke-width="1px" opacity="0.25"></line></g></g></g><g><g><line x1="0" y1="803.25" x2="900.5" y2="803.25" fill="rgb(0, 0, 0)" stroke="rgb(153, 153, 153)" stroke-width="1.5px"></line></g></g><g><g><line x1="75.04166666666666" y1="0" x2="75.04166666666666" y2="378" fill="rgb(0, 0, 0)" stroke="rgb(153, 153, 153)" stroke-width="1.5px"></line></g></g><g><g><g><g><g><path stroke="rgb(255, 112, 67)" stroke-width="2px" d="M75.04166666666666,-195.28050224483002L90.05000000000001,5.383174985647258L105.05833333333334,92.82419134676462L120.06666666666666,157.57736054062846L135.075,197.41025653481486L150.08333333333331,229.1885492652655L165.09166666666667,252.25029804557562L180.10000000000002,267.4677874222398L195.10833333333335,284.33528796583414L210.11666666666667,293.64808195084333L225.125,305.3362301811576L240.13333333333333,313.37083757668734L255.14166666666665,314.10156686604023L270.15,331.7981918603182L285.1583333333333,326.9393719062209L300.16666666666663,332.9799547120929L315.17499999999995,326.7651121392846L330.18333333333334,328.47901855409145L345.19166666666666,325.0294496566057L360.20000000000005,330.4568141028285L375.20833333333337,336.56277072429657L390.2166666666667,322.94787273555994L405.225,323.5024060383439L420.23333333333335,322.8220536634326L435.2416666666667,319.84618970006704L450.25,321.68954119831324L465.2583333333334,314.0743541792035L480.26666666666665,314.8565165027976L495.27500000000003,305.10293331742287L510.2833333333333,300.72000094503164L525.2916666666667,301.16966155171394L540.3,283.5181680768728L555.3083333333334,284.83969078212976L570.3166666666666,281.9842596799135L585.325,280.6393263190985L600.3333333333333,278.70300107449293L615.3416666666667,275.72724272310734L630.3499999999999,264.9747814312577L645.3583333333333,256.17976778000593L660.3666666666667,257.6453452259302L675.375,260.1487011909485L690.3833333333333,249.00420822948217L705.3916666666667,246.42012950778008L720.4000000000001,238.4367087185383L735.4083333333333,236.66915141791108L750.4166666666667,236.3175691366196L765.425,219.8657925501466L780.4333333333334,208.1716948449612L795.4416666666666,213.2392392754555L810.45,198.64605751633647" style="fill: none;" fill="none"></path></g><g><path stroke="rgb(0, 153, 136)" stroke-width="2px" d="M75.04166666666666,-180.06632204353798L90.05000000000001,8.141407862305698L105.05833333333334,90.52044202387339L120.06666666666666,163.18169546127322L135.075,200.89995798468593L150.08333333333331,235.88283502310517L165.09166666666667,263.32498148828745L180.10000000000002,270.3878178521991L195.10833333333335,286.43031281232834L210.11666666666667,297.2017490565777L225.125,311.56533037126064L240.13333333333333,311.26570918411016L255.14166666666665,318.90951704978943L270.15,326.5626539736986L285.1583333333333,332.4262311011553L300.16666666666663,323.01634450256824L315.17499999999995,334.421347014606L330.18333333333334,330.68553444743156L345.19166666666666,333.9840782135725L360.20000000000005,333.0624024644494L375.20833333333337,331.84011981636286L390.2166666666667,320.39491434395313L405.225,323.78907215595245L420.23333333333335,322.79357363283634L435.2416666666667,314.50444136559963L450.25,311.827916957438L465.2583333333334,315.95611323416233L480.26666666666665,308.27530597150326L495.27500000000003,301.68948371708393L510.2833333333333,301.03673127293587L525.2916666666667,290.41910127550364L540.3,281.6436258405447L555.3083333333334,275.0494250357151L570.3166666666666,275.5598477348685L585.325,269.5258480757475L600.3333333333333,264.1836068853736L615.3416666666667,259.7004135400057L630.3499999999999,259.1317634359002L645.3583333333333,250.5130513831973L660.3666666666667,244.46152013540268L675.375,230.4943709895015L690.3833333333333,228.3920941203833L705.3916666666667,233.71979606151584L720.4000000000001,240.09481680393222L735.4083333333333,227.74493911117318L750.4166666666667,223.43424533307555L765.425,220.69107976555827L780.4333333333334,217.52222751080993L795.4416666666666,208.63364164531234L810.45,200.34810018539432" style="fill: none;" fill="none"></path></g><g><path stroke="rgb(51, 187, 238)" stroke-width="2px" d="M75.04166666666666,-173.73178589344013L90.05000000000001,4.90869556367403L105.05833333333334,93.01175822317606L120.06666666666666,161.62821364402774L135.075,190.22948679327968L150.08333333333331,237.13616759330037L165.09166666666667,250.84358167648315L180.10000000000002,257.09922567754984L195.10833333333335,273.9342329353094L210.11666666666667,288.6566837579012L225.125,299.6401184499264L240.13333333333333,313.15792382508516L255.14166666666665,324.3679666221142L270.15,319.4918967112899L285.1583333333333,317.20532693713903L300.16666666666663,320.27972687780857L315.17499999999995,313.8845694512129L330.18333333333334,322.3605645149946L345.19166666666666,322.37918742746115L360.20000000000005,326.14731726050377L375.20833333333337,323.81438382714987L390.2166666666667,325.95580753684044L405.225,321.5657639577985L420.23333333333335,318.27151507884264L435.2416666666667,314.8221222013235L450.25,307.25266516953707L465.2583333333334,313.9764518737793L480.26666666666665,302.7540172711015L495.27500000000003,304.7026991173625L510.2833333333333,294.054828889668L525.2916666666667,291.0823797136545L540.3,279.6525231823325L555.3083333333334,282.8695697039366L570.3166666666666,281.82777792960405L585.325,268.20914831757545L600.3333333333333,267.93388829380274L615.3416666666667,265.6295757070184L630.3499999999999,262.7565426081419L645.3583333333333,258.11207976937294L660.3666666666667,249.64991987496614L675.375,243.65936194360256L690.3833333333333,242.92300001531842L705.3916666666667,239.33215749263766L720.4000000000001,239.48610455542806L735.4083333333333,227.518401414156L750.4166666666667,227.66073115915063L765.425,221.80704635381701L780.4333333333334,212.90937785804275L795.4416666666666,205.52646678686145L810.45,194.24006652832034" style="fill: none;" fill="none"></path></g><g><path stroke="rgb(204, 51, 17)" stroke-width="2px" d="M90.05000000000001,-88.03829576075071L105.05833333333334,9.336442619562206L120.06666666666666,89.75095313787466L135.075,133.5166984498501L150.08333333333331,156.11118462681773L165.09166666666667,207.99208407104018L180.10000000000002,217.95896825194362L195.10833333333335,243.4899955317378L210.11666666666667,253.66595622897148L225.125,269.4195320159197L240.13333333333333,288.76553450524807L255.14166666666665,299.87161991000175L270.15,307.4515677317977L285.1583333333333,315.14332343637943L300.16666666666663,317.8630431443453L315.17499999999995,327.3361561149359L330.18333333333334,327.7846901938319L345.19166666666666,341.76285818964243L360.20000000000005,339.15660095214844L375.20833333333337,343.861438639462L390.2166666666667,342.19776832312346L405.225,351.70925364643335L420.23333333333335,351.45001143962145L435.2416666666667,348.9517248496413L450.25,360.5637268424034L465.2583333333334,350.8093691691756L480.26666666666665,352.54006788879633L495.27500000000003,354.3274802416563L510.2833333333333,351.45553846657276L525.2916666666667,364.77570862323046L540.3,349.4827066808939L555.3083333333334,353.8791573867202L570.3166666666666,352.91840520501137L585.325,347.8726168423891L600.3333333333333,344.2499147057533L615.3416666666667,337.9738523885608L630.3499999999999,341.1130980849266L645.3583333333333,342.95944192260504L660.3666666666667,339.5019873306155L675.375,334.0509658008814L690.3833333333333,338.5868243202567L705.3916666666667,331.6005566418171L720.4000000000001,331.55215115100145L735.4083333333333,334.06673718988895L750.4166666666667,328.1716524884105L765.425,330.6724737659097L780.4333333333334,321.49968606233597L795.4416666666666,322.56854970753193L810.45,316.54775154590607" style="fill: none;" fill="none"></path></g><g><path stroke="rgb(255, 112, 67)" stroke-width="2px" d="M105.05833333333334,-5.079170197248402L120.06666666666666,82.11379882693296L135.075,148.6353350132704L150.08333333333331,166.58740018308166L165.09166666666667,196.61985647678378L180.10000000000002,239.6933152601123L195.10833333333335,256.684769064188L210.11666666666667,259.79257759451866L225.125,266.5486815646291L240.13333333333333,290.9746906980872L255.14166666666665,289.0855388045311L270.15,310.5479701682925L285.1583333333333,323.9445329904556L300.16666666666663,324.7574284002185L315.17499999999995,325.4843908622861L330.18333333333334,328.3393995165825L345.19166666666666,342.82443460822105L360.20000000000005,339.7252158522606L375.20833333333337,344.69975133240223L390.2166666666667,341.72522512078285L405.225,342.1503837481141L420.23333333333335,341.3413959816098L435.2416666666667,340.3706106618047L450.25,361.48617707937956L465.2583333333334,357.4330709204078L480.26666666666665,351.76378463208675L495.27500000000003,347.1504773274064L510.2833333333333,347.49702543765306L525.2916666666667,360.37714567780495L540.3,351.7624468803406L555.3083333333334,349.1807972341776L570.3166666666666,348.91303566098213L585.325,342.9514858201146L600.3333333333333,342.68407628685236L615.3416666666667,333.89300548285246L630.3499999999999,338.5128607302904L645.3583333333333,343.7534327879548L660.3666666666667,338.4799449965358L675.375,326.43852469325066L690.3833333333333,329.0720298215747L705.3916666666667,336.88647144287825L720.4000000000001,324.60172113776207L735.4083333333333,330.75537917017937L750.4166666666667,319.86893147975206L765.425,321.5499573647976L780.4333333333334,318.93588484078646L795.4416666666666,318.54128327965736L810.45,312.7646248117089" style="fill: none;" fill="none"></path></g><g><path stroke="rgb(0, 153, 136)" stroke-width="2px" d="M90.05000000000001,-97.86943334341044L105.05833333333334,20.414153605699596L120.06666666666666,80.76809097826487L135.075,127.23602440953258L150.08333333333331,171.95129182934764L165.09166666666667,202.57552725076678L180.10000000000002,234.59232703596356L195.10833333333335,245.91037568449974L210.11666666666667,265.758281506598L225.125,286.74222019314766L240.13333333333333,278.8663476034999L255.14166666666665,303.6917108371854L270.15,305.49668998271227L285.1583333333333,309.2996013611555L300.16666666666663,323.983574219048L315.17499999999995,325.7520820274949L330.18333333333334,337.1608865708113L345.19166666666666,341.58000864833593L360.20000000000005,340.8041126355529L375.20833333333337,338.14015605300665L390.2166666666667,341.84974164515734L405.225,339.95738618820906L420.23333333333335,346.9271783977747L435.2416666666667,355.351493999362L450.25,351.8969613388181L465.2583333333334,351.79867178946733L480.26666666666665,355.56697764247656L495.27500000000003,350.0190395191312L510.2833333333333,354.7693959698081L525.2916666666667,348.46992299705744L540.3,352.6628594174981L555.3083333333334,342.63299529254436L570.3166666666666,336.809656329453L585.325,334.60652001947165L600.3333333333333,343.0813181474805L615.3416666666667,343.9314593821764L630.3499999999999,336.0906147658825L645.3583333333333,338.52736477553844L660.3666666666667,332.1035160943866L675.375,333.92827988415956L690.3833333333333,333.9971036911011L705.3916666666667,335.5494941845536L720.4000000000001,328.17587696760893L735.4083333333333,336.46557249873877L750.4166666666667,329.82043151557446L765.425,331.76788122206926L780.4333333333334,323.44347455352545L795.4416666666666,310.0090322345495L810.45,317.2353559434414" style="fill: none;" fill="none"></path></g><g><path stroke="rgb(51, 187, 238)" stroke-width="2px" d="M90.05000000000001,-85.06933178007597L105.05833333333334,21.90792945027357L120.06666666666666,89.86177530884748L135.075,141.65783312916759L150.08333333333331,174.0118519663811L165.09166666666667,207.65018288791182L180.10000000000002,220.718292452395L195.10833333333335,232.48501599580052L210.11666666666667,257.2694369852543L225.125,272.19378270953894L240.13333333333333,289.34569631516933L255.14166666666665,306.68757066875696L270.15,303.44549410790205L285.1583333333333,303.1715366318822L300.16666666666663,314.9144622758031L315.17499999999995,326.6097569167614L330.18333333333334,330.22246111929417L345.19166666666666,337.5417937785387L360.20000000000005,339.88873840123415L375.20833333333337,338.29480719566345L390.2166666666667,340.02068296819925L405.225,346.23679288476706L420.23333333333335,338.328919865191L435.2416666666667,340.8779002055526L450.25,348.1471023783088L465.2583333333334,348.65073070675135L480.26666666666665,346.7217630967498L495.27500000000003,351.6623619273305L510.2833333333333,349.75025703012943L525.2916666666667,349.87188682705164L540.3,361.17993754148483L555.3083333333334,349.26504039019346L570.3166666666666,345.16201496869326L585.325,334.7984521910548L600.3333333333333,337.2444960549474L615.3416666666667,340.54434236884117L630.3499999999999,343.8961849808693L645.3583333333333,330.46945233643055L660.3666666666667,326.81594670563936L675.375,328.40160497277975L690.3833333333333,335.40642515569925L705.3916666666667,332.3170635178685L720.4000000000001,329.2552314028144L735.4083333333333,323.0686928406358L750.4166666666667,323.6882127150893L765.425,323.470229588449L780.4333333333334,326.14330400526524L795.4416666666666,318.0891231894493L810.45,310.2514117285609" style="fill: none;" fill="none"></path></g><g><path stroke="rgb(0, 119, 187)" stroke-width="2px" d="M90.05000000000001,-80.75923646986479L105.05833333333334,30.1592526286841L120.06666666666666,88.32483936846262L135.075,129.3205936700106L150.08333333333331,177.0793167203665L165.09166666666667,211.33991342782977L180.10000000000002,228.55642636120322L195.10833333333335,243.08476236462593L210.11666666666667,254.4539976194501L225.125,264.73982997983694L240.13333333333333,287.2645418420434L255.14166666666665,296.724805355072L270.15,306.42572336643934L285.1583333333333,311.0550836920738L300.16666666666663,319.2514182329178L315.17499999999995,321.07702691853046L330.18333333333334,331.1013992205262L345.19166666666666,332.8417086303234L360.20000000000005,331.62509382516146L375.20833333333337,334.543504871428L390.2166666666667,345.5462313517928L405.225,340.14643163233995L420.23333333333335,338.00923240184784L435.2416666666667,341.23511512577534L450.25,341.1323546692729L465.2583333333334,350.4255400300026L480.26666666666665,349.0115364342928L495.27500000000003,343.56653478741646L510.2833333333333,341.60257440805435L525.2916666666667,340.4065891429782L540.3,345.7364737316966L555.3083333333334,349.56694983690977L570.3166666666666,342.98753470927477L585.325,350.9834529161453L600.3333333333333,343.82028517127037L615.3416666666667,347.15227273106575L630.3499999999999,349.35312078148127L645.3583333333333,342.086875744164L660.3666666666667,341.6157054975629L675.375,344.2767049446702L690.3833333333333,334.9049442708492L705.3916666666667,330.65916665643454L720.4000000000001,337.20886961370707L735.4083333333333,329.35714696347713L750.4166666666667,328.8530961871147L765.425,322.0271474942565L780.4333333333334,320.2395591214299L795.4416666666666,317.98597548902035L810.45,309.86455504596233" style="fill: none;" fill="none"></path></g><g><path stroke="rgb(255, 112, 67)" stroke-width="2px" d="M90.05000000000001,-113.46937890350813L105.05833333333334,0.6272563040257069L120.06666666666666,73.12072750926023L135.075,121.61500279605394L150.08333333333331,164.29266308248046L165.09166666666667,181.43229049444201L180.10000000000002,214.71470904350284L195.10833333333335,235.55645880103114L210.11666666666667,248.1969806626439L225.125,262.2764305472374L240.13333333333333,278.25717770308256L255.14166666666665,290.6703873798251L270.15,302.5307887494564L285.1583333333333,319.752371057868L300.16666666666663,321.2152025923133L315.17499999999995,330.45727175474167L330.18333333333334,333.7936246097088L345.19166666666666,341.5413898676634L360.20000000000005,333.1936429515481L375.20833333333337,347.81315729767084L390.2166666666667,339.34237242490053L405.225,346.527789093554L420.23333333333335,346.0433821454644L435.2416666666667,350.62824462354183L450.25,348.8670944496989L465.2583333333334,348.37413293123245L480.26666666666665,350.7725105881691L495.27500000000003,354.6037611812353L510.2833333333333,348.7964752390981L525.2916666666667,343.2430100888014L540.3,340.44471506774426L555.3083333333334,353.1343817040324L570.3166666666666,349.7037525549531L585.325,342.96820771694183L600.3333333333333,347.16913544386625L615.3416666666667,347.7518319413066L630.3499999999999,344.9518471285701L645.3583333333333,335.8673510402441L660.3666666666667,342.0249519199133L675.375,335.0975101143122L690.3833333333333,336.591708406806L705.3916666666667,335.2898999378085L720.4000000000001,327.7934207841754L735.4083333333333,327.6678481400013L750.4166666666667,323.2784734368324L765.425,326.5421300455928L780.4333333333334,322.6579326465726L795.4416666666666,314.83648543059826L810.45,316.08446699380875" style="fill: none;" fill="none"></path></g><g><path stroke="rgb(0, 153, 136)" stroke-width="2px" d="M105.05833333333334,-0.8840511292218594L120.06666666666666,63.266214475035724L135.075,131.88640151917937L150.08333333333331,159.50928528606894L165.09166666666667,195.47410731017592L180.10000000000002,224.10016407072547L195.10833333333335,234.3326271772385L210.11666666666667,257.9437694773078L225.125,276.8045553267002L240.13333333333333,290.17499678581953L255.14166666666665,287.0135725736618L270.15,309.91482634842396L285.1583333333333,314.5767855718732L300.16666666666663,318.04599829763174L315.17499999999995,324.46319342404604L330.18333333333334,329.102164439857L345.19166666666666,336.4455062225461L360.20000000000005,339.70053785294294L375.20833333333337,345.3064569532871L390.2166666666667,344.26029988378286L405.225,338.38904828578234L420.23333333333335,347.93355495482683L435.2416666666667,351.27268892526627L450.25,346.4336888194084L465.2583333333334,352.8278253301978L480.26666666666665,354.44499117136L495.27500000000003,341.30439658463L510.2833333333333,347.24584494531155L525.2916666666667,341.21518966555595L540.3,345.99099860340357L555.3083333333334,340.1781504303217L570.3166666666666,343.2109040468931L585.325,350.4396920353174L600.3333333333333,342.5081267282367L615.3416666666667,342.63813507556915L630.3499999999999,339.4179906025529L645.3583333333333,334.46961168944836L660.3666666666667,334.5139335170388L675.375,341.10595167428255L690.3833333333333,323.6870157793164L705.3916666666667,329.9180873930454L720.4000000000001,335.3120784536004L735.4083333333333,333.4762254059315L750.4166666666667,326.17065750807524L765.425,322.7580175995827L780.4333333333334,310.4965371340513L795.4416666666666,306.34331081807613L810.45,310.69283460080624" style="fill: none;" fill="none"></path></g><g><path stroke="rgb(51, 187, 238)" stroke-width="2px" d="M90.05000000000001,-90.5729832798242L105.05833333333334,7.376917943358478L120.06666666666666,87.29230624437338L135.075,138.08434617519382L150.08333333333331,166.3261865526438L165.09166666666667,207.71559190750125L180.10000000000002,222.71055684238675L195.10833333333335,250.82362101227045L210.11666666666667,264.1006662771106L225.125,280.51716846227646L240.13333333333333,284.6326560974121L255.14166666666665,296.9814072623849L270.15,304.9565903171897L285.1583333333333,311.5606130361557L300.16666666666663,323.13639011979103L315.17499999999995,321.56488385796547L330.18333333333334,332.71687527000904L345.19166666666666,334.90064938366413L360.20000000000005,345.1426175683737L375.20833333333337,339.45660938322544L390.2166666666667,339.6499145105481L405.225,354.6338605955243L420.23333333333335,356.0238902717829L435.2416666666667,348.60908438265324L450.25,350.11739947646856L465.2583333333334,354.93510116636753L480.26666666666665,355.623268827796L495.27500000000003,344.28571716696024L510.2833333333333,346.0830922499299L525.2916666666667,355.345016464591L540.3,350.83038595318794L555.3083333333334,350.208296187222L570.3166666666666,348.14238504320383L585.325,352.5004281923175L600.3333333333333,346.422986805439L615.3416666666667,335.442650064826L630.3499999999999,337.5699569731951L645.3583333333333,344.6150505244732L660.3666666666667,341.82531007379293L675.375,335.0119292065501L690.3833333333333,330.89809615910053L705.3916666666667,332.9160242602229L720.4000000000001,334.6585515215993L735.4083333333333,330.50388184189796L750.4166666666667,320.0110500007868L765.425,323.698175445199L780.4333333333334,312.01273792237043L795.4416666666666,320.71558751910925L810.45,312.9308932721615" style="fill: none;" fill="none"></path></g><g><path stroke="rgb(0, 119, 187)" stroke-width="2px" d="M90.05000000000001,-114.43460199236864L105.05833333333334,0.041321039199885945L120.06666666666666,81.20159295201307L135.075,142.42359039187434L150.08333333333331,165.16220171749595L165.09166666666667,197.84713809192183L180.10000000000002,216.66145467013123L195.10833333333335,247.9914245456457L210.11666666666667,259.50355280935764L225.125,276.2951535433531L240.13333333333333,279.30579905211926L255.14166666666665,290.44976395368576L270.15,293.9235884025693L285.1583333333333,316.6923343464732L300.16666666666663,325.3892696723342L315.17499999999995,321.463989213109L330.18333333333334,337.87848477065563L345.19166666666666,336.99535739421844L360.20000000000005,334.5593114644289L375.20833333333337,346.6524464339018L390.2166666666667,347.20300168544054L405.225,354.84445088356733L420.23333333333335,352.31476233154535L435.2416666666667,352.2225982770324L450.25,346.73566867411137L465.2583333333334,359.62543480843306L480.26666666666665,346.5423283427954L495.27500000000003,345.97336140275L510.2833333333333,349.2545848041773L525.2916666666667,346.93038196116686L540.3,349.96964831650257L555.3083333333334,354.9786133021116L570.3166666666666,347.00688023865223L585.325,349.60870177298784L600.3333333333333,350.4640884026885L615.3416666666667,344.2314678132534L630.3499999999999,338.5720386430621L645.3583333333333,341.5006940513849L660.3666666666667,337.3906278312206L675.375,338.94196220487356L690.3833333333333,331.1008359566331L705.3916666666667,328.5730484202504L720.4000000000001,330.89587830752134L735.4083333333333,334.8666775301099L750.4166666666667,330.30466244369745L765.425,332.2356718853116L780.4333333333334,322.22900719195604L795.4416666666666,317.6929726526141L810.45,313.6010716930032" style="fill: none;" fill="none"></path></g><g><path stroke="rgb(187, 187, 187)" stroke-width="2px" d="M90.05000000000001,-102.93725940585131L105.05833333333334,31.569665417075214L120.06666666666666,83.38987317681318L135.075,134.14790605008605L150.08333333333331,182.39835847914222L165.09166666666667,216.395805336535L180.10000000000002,233.93242818117145L195.10833333333335,249.31812223792076L210.11666666666667,265.52994840592146L225.125,283.85535192489624L240.13333333333333,289.37579572945833L255.14166666666665,301.98607736080885L270.15,307.261008515954L285.1583333333333,317.1493525877595L300.16666666666663,324.0762663334608L315.17499999999995,326.33305352926254L330.18333333333334,335.6099746450782L345.19166666666666,340.416235037148L360.20000000000005,342.1510878279805L375.20833333333337,350.8483399897814L390.2166666666667,352.8904180303216L405.225,351.0079900994897L420.23333333333335,355.574053645134L435.2416666666667,359.9919435828924L450.25,362.0509899482131L465.2583333333334,352.09663838893175L480.26666666666665,354.0553181692958L495.27500000000003,352.624839104712L510.2833333333333,356.0713804587722L525.2916666666667,349.7039285749197L540.3,361.4826566800475L555.3083333333334,359.1220177039504L570.3166666666666,358.0866330564022L585.325,352.21756410598755L600.3333333333333,352.38615602999926L615.3416666666667,347.02926997840405L630.3499999999999,343.4071311056614L645.3583333333333,342.32450269907713L660.3666666666667,334.637534737587L675.375,337.4251277446747L690.3833333333333,337.3310274705291L705.3916666666667,325.8576940074563L720.4000000000001,329.84694012254477L735.4083333333333,321.2209056392312L750.4166666666667,322.58442670851946L765.425,322.92087127268314L780.4333333333334,321.3325727060437L795.4416666666666,323.9162993878126L810.45,315.25928539037704" style="fill: none;" fill="none"></path></g></g></g></g></g></g><g transform="translate(50, 378)" clip-path="url(#clip_1)"><clipPath id="clip_1"><rect width="900" height="22"></rect></clipPath><g><g><line x1="0" y1="0" x2="0" y2="5" style="visibility: inherit;" fill="rgb(0, 0, 0)" stroke="rgb(204, 204, 204)" stroke-width="1px"></line><line x1="75.04166666666666" y1="0" x2="75.04166666666666" y2="5" style="visibility: inherit;" fill="rgb(0, 0, 0)" stroke="rgb(204, 204, 204)" stroke-width="1px"></line><line x1="150.08333333333331" y1="0" x2="150.08333333333331" y2="5" style="visibility: inherit;" fill="rgb(0, 0, 0)" stroke="rgb(204, 204, 204)" stroke-width="1px"></line><line x1="225.125" y1="0" x2="225.125" y2="5" style="visibility: inherit;" fill="rgb(0, 0, 0)" stroke="rgb(204, 204, 204)" stroke-width="1px"></line><line x1="300.16666666666663" y1="0" x2="300.16666666666663" y2="5" style="visibility: inherit;" fill="rgb(0, 0, 0)" stroke="rgb(204, 204, 204)" stroke-width="1px"></line><line x1="375.20833333333337" y1="0" x2="375.20833333333337" y2="5" style="visibility: inherit;" fill="rgb(0, 0, 0)" stroke="rgb(204, 204, 204)" stroke-width="1px"></line><line x1="450.25" y1="0" x2="450.25" y2="5" style="visibility: inherit;" fill="rgb(0, 0, 0)" stroke="rgb(204, 204, 204)" stroke-width="1px"></line><line x1="525.2916666666667" y1="0" x2="525.2916666666667" y2="5" style="visibility: inherit;" fill="rgb(0, 0, 0)" stroke="rgb(204, 204, 204)" stroke-width="1px"></line><line x1="600.3333333333333" y1="0" x2="600.3333333333333" y2="5" style="visibility: inherit;" fill="rgb(0, 0, 0)" stroke="rgb(204, 204, 204)" stroke-width="1px"></line><line x1="675.375" y1="0" x2="675.375" y2="5" style="visibility: inherit;" fill="rgb(0, 0, 0)" stroke="rgb(204, 204, 204)" stroke-width="1px"></line><line x1="750.4166666666667" y1="0" x2="750.4166666666667" y2="5" style="visibility: inherit;" fill="rgb(0, 0, 0)" stroke="rgb(204, 204, 204)" stroke-width="1px"></line><line x1="825.4583333333333" y1="0" x2="825.4583333333333" y2="5" style="visibility: inherit;" fill="rgb(0, 0, 0)" stroke="rgb(204, 204, 204)" stroke-width="1px"></line><line x1="900.5" y1="0" x2="900.5" y2="5" style="visibility: inherit;" fill="rgb(0, 0, 0)" stroke="rgb(204, 204, 204)" stroke-width="1px"></line></g><g transform="translate(0, 8)"><text x="0" y="0" dx="0em" dy="0.95em" style="text-anchor: middle; visibility: hidden; font-family: &quot;Helvetica Neue&quot;, sans-serif; font-size: 12px; font-weight: 200;" fill="rgb(50, 49, 63)" stroke="none" stroke-width="1px">-5</text><text x="75.04166666666666" y="0" dx="0em" dy="0.95em" style="text-anchor: middle; visibility: inherit; font-family: &quot;Helvetica Neue&quot;, sans-serif; font-size: 12px; font-weight: 200;" fill="rgb(50, 49, 63)" stroke="none" stroke-width="1px">0</text><text x="150.08333333333331" y="0" dx="0em" dy="0.95em" style="text-anchor: middle; visibility: inherit; font-family: &quot;Helvetica Neue&quot;, sans-serif; font-size: 12px; font-weight: 200;" fill="rgb(50, 49, 63)" stroke="none" stroke-width="1px">5</text><text x="225.125" y="0" dx="0em" dy="0.95em" style="text-anchor: middle; visibility: inherit; font-family: &quot;Helvetica Neue&quot;, sans-serif; font-size: 12px; font-weight: 200;" fill="rgb(50, 49, 63)" stroke="none" stroke-width="1px">10</text><text x="300.16666666666663" y="0" dx="0em" dy="0.95em" style="text-anchor: middle; visibility: inherit; font-family: &quot;Helvetica Neue&quot;, sans-serif; font-size: 12px; font-weight: 200;" fill="rgb(50, 49, 63)" stroke="none" stroke-width="1px">15</text><text x="375.20833333333337" y="0" dx="0em" dy="0.95em" style="text-anchor: middle; visibility: inherit; font-family: &quot;Helvetica Neue&quot;, sans-serif; font-size: 12px; font-weight: 200;" fill="rgb(50, 49, 63)" stroke="none" stroke-width="1px">20</text><text x="450.25" y="0" dx="0em" dy="0.95em" style="text-anchor: middle; visibility: inherit; font-family: &quot;Helvetica Neue&quot;, sans-serif; font-size: 12px; font-weight: 200;" fill="rgb(50, 49, 63)" stroke="none" stroke-width="1px">25</text><text x="525.2916666666667" y="0" dx="0em" dy="0.95em" style="text-anchor: middle; visibility: inherit; font-family: &quot;Helvetica Neue&quot;, sans-serif; font-size: 12px; font-weight: 200;" fill="rgb(50, 49, 63)" stroke="none" stroke-width="1px">30</text><text x="600.3333333333333" y="0" dx="0em" dy="0.95em" style="text-anchor: middle; visibility: inherit; font-family: &quot;Helvetica Neue&quot;, sans-serif; font-size: 12px; font-weight: 200;" fill="rgb(50, 49, 63)" stroke="none" stroke-width="1px">35</text><text x="675.375" y="0" dx="0em" dy="0.95em" style="text-anchor: middle; visibility: inherit; font-family: &quot;Helvetica Neue&quot;, sans-serif; font-size: 12px; font-weight: 200;" fill="rgb(50, 49, 63)" stroke="none" stroke-width="1px">40</text><text x="750.4166666666667" y="0" dx="0em" dy="0.95em" style="text-anchor: middle; visibility: inherit; font-family: &quot;Helvetica Neue&quot;, sans-serif; font-size: 12px; font-weight: 200;" fill="rgb(50, 49, 63)" stroke="none" stroke-width="1px">45</text><text x="825.4583333333333" y="0" dx="0em" dy="0.95em" style="text-anchor: middle; visibility: inherit; font-family: &quot;Helvetica Neue&quot;, sans-serif; font-size: 12px; font-weight: 200;" fill="rgb(50, 49, 63)" stroke="none" stroke-width="1px">50</text><text x="900.5" y="0" dx="0em" dy="0.95em" style="text-anchor: middle; visibility: hidden; font-family: &quot;Helvetica Neue&quot;, sans-serif; font-size: 12px; font-weight: 200;" fill="rgb(50, 49, 63)" stroke="none" stroke-width="1px">55</text></g><line x1="0" y1="0" x2="900.5" y2="0" fill="rgb(0, 0, 0)" stroke="rgb(204, 204, 204)" stroke-width="1px"></line></g></g></g></g></svg>