<svg viewBox="0 0 1391 400" xmlns="http://www.w3.org/2000/svg"><g><g><g><g><g><line x1="40" y1="302.4989790931477" x2="35" y2="302.4989790931477" style="visibility: inherit;" fill="rgb(0, 0, 0)" stroke="rgb(204, 204, 204)" stroke-width="1px"></line><line x1="40" y1="67.01212501936118" x2="35" y2="67.01212501936118" style="visibility: inherit;" fill="rgb(0, 0, 0)" stroke="rgb(204, 204, 204)" stroke-width="1px"></line></g><g transform="translate(30, 0)"><text x="0" y="302.4989790931477" dx="0em" dy="0.3em" style="text-anchor: end; visibility: inherit; font-family: &quot;Helvetica Neue&quot;, sans-serif; font-size: 12px; font-weight: 200;" fill="rgb(50, 49, 63)" stroke="none" stroke-width="1px">0.2</text><text x="0" y="67.01212501936118" dx="0em" dy="0.3em" style="text-anchor: end; visibility: inherit; font-family: &quot;Helvetica Neue&quot;, sans-serif; font-size: 12px; font-weight: 200;" fill="rgb(50, 49, 63)" stroke="none" stroke-width="1px">0.3</text></g><line x1="40" y1="0" x2="40" y2="378" fill="rgb(0, 0, 0)" stroke="rgb(204, 204, 204)" stroke-width="1px"></line></g></g><g transform="translate(40, 0)" clip-path="url(#clip_0)"><clipPath id="clip_0"><rect width="1351" height="378"></rect></clipPath><g><g><g><line x1="0" y1="0" x2="0" y2="378" fill="rgb(0, 0, 0)" stroke="rgb(60, 60, 60)" stroke-width="1px" opacity="0.25"></line><line x1="112.58333333333333" y1="0" x2="112.58333333333333" y2="378" fill="rgb(0, 0, 0)" stroke="rgb(60, 60, 60)" stroke-width="1px" opacity="0.25"></line><line x1="225.16666666666666" y1="0" x2="225.16666666666666" y2="378" fill="rgb(0, 0, 0)" stroke="rgb(60, 60, 60)" stroke-width="1px" opacity="0.25"></line><line x1="337.75" y1="0" x2="337.75" y2="378" fill="rgb(0, 0, 0)" stroke="rgb(60, 60, 60)" stroke-width="1px" opacity="0.25"></line><line x1="450.3333333333333" y1="0" x2="450.3333333333333" y2="378" fill="rgb(0, 0, 0)" stroke="rgb(60, 60, 60)" stroke-width="1px" opacity="0.25"></line><line x1="562.9166666666667" y1="0" x2="562.9166666666667" y2="378" fill="rgb(0, 0, 0)" stroke="rgb(60, 60, 60)" stroke-width="1px" opacity="0.25"></line><line x1="675.5" y1="0" x2="675.5" y2="378" fill="rgb(0, 0, 0)" stroke="rgb(60, 60, 60)" stroke-width="1px" opacity="0.25"></line><line x1="788.0833333333334" y1="0" x2="788.0833333333334" y2="378" fill="rgb(0, 0, 0)" stroke="rgb(60, 60, 60)" stroke-width="1px" opacity="0.25"></line><line x1="900.6666666666666" y1="0" x2="900.6666666666666" y2="378" fill="rgb(0, 0, 0)" stroke="rgb(60, 60, 60)" stroke-width="1px" opacity="0.25"></line><line x1="1013.25" y1="0" x2="1013.25" y2="378" fill="rgb(0, 0, 0)" stroke="rgb(60, 60, 60)" stroke-width="1px" opacity="0.25"></line><line x1="1125.8333333333335" y1="0" x2="1125.8333333333335" y2="378" fill="rgb(0, 0, 0)" stroke="rgb(60, 60, 60)" stroke-width="1px" opacity="0.25"></line><line x1="1238.4166666666665" y1="0" x2="1238.4166666666665" y2="378" fill="rgb(0, 0, 0)" stroke="rgb(60, 60, 60)" stroke-width="1px" opacity="0.25"></line><line x1="1351" y1="0" x2="1351" y2="378" fill="rgb(0, 0, 0)" stroke="rgb(60, 60, 60)" stroke-width="1px" opacity="0.25"></line></g><g><line x1="0" y1="302.4989790931477" x2="1351" y2="302.4989790931477" fill="rgb(0, 0, 0)" stroke="rgb(60, 60, 60)" stroke-width="1px" opacity="0.25"></line><line x1="0" y1="67.01212501936118" x2="1351" y2="67.01212501936118" fill="rgb(0, 0, 0)" stroke="rgb(60, 60, 60)" stroke-width="1px" opacity="0.25"></line></g></g></g><g><g><line x1="112.58333333333333" y1="0" x2="112.58333333333333" y2="378" fill="rgb(0, 0, 0)" stroke="rgb(153, 153, 153)" stroke-width="1.5px"></line></g></g><g><g><g><g><g><path stroke="rgb(51, 187, 238)" stroke-width="2px" d="M112.58333333333333,-129.6243223949421L135.1,4.358764474126247L157.61666666666667,70.10501331968982L180.13333333333333,128.69318997372034L202.65,165.39005636806513L225.16666666666666,195.6597531370345L247.6833333333333,219.9121157682705L270.2,239.90844979641824L292.7166666666667,251.01392772906055L315.23333333333335,263.180955537125L337.75,268.871725352847L360.26666666666665,275.38173584648484L382.7833333333333,287.46446420863265L405.3,293.4076441846385L427.81666666666666,296.71938557979126L450.3333333333333,295.300868664468L472.84999999999997,302.3202428237037L495.3666666666666,300.17957504987777L517.8833333333333,301.8821148296516L540.4,299.2871600360945L562.9166666666667,293.05123792191716L585.4333333333334,300.495707285107L607.95,290.33685152715236L630.4666666666667,281.71661663277513L652.9833333333333,290.6309230694426L675.5,281.76350445336857L698.0166666666668,275.3445278254985L720.5333333333333,279.4547622295598L743.0500000000001,273.23986258890744L765.5666666666666,266.8580181148789L788.0833333333334,260.39741465156794L810.6,259.35100066288965L833.1166666666667,248.15644432670453L855.6333333333333,245.58500303340048L878.15,239.5459298627114L900.6666666666666,237.37539464790424L923.1833333333334,225.78078972568173L945.6999999999999,226.3818974370873L968.2166666666667,221.6597115269147L990.7333333333332,215.0667922241448L1013.25,208.86035352930483L1035.7666666666667,206.75259075310896L1058.2833333333333,194.48063027217478L1080.8,197.37559700084478L1103.3166666666666,184.46426338795806L1125.8333333333335,175.55131832554974L1148.35,174.27225444735174L1170.8666666666668,164.15610097784872L1193.3833333333332,162.62709529121187L1215.9,157.0551999973794" style="fill: none;" fill="none"></path></g><g><path stroke="rgb(0, 119, 187)" stroke-width="2px" d="M112.58333333333333,-119.21309957791533L135.1,6.2375194693468075L157.61666666666667,66.93704493278125L180.13333333333333,126.14687280900986L202.65,158.85092191385183L225.16666666666666,193.16386364625723L247.6833333333333,216.6251069487135L270.2,241.31230830756144L292.7166666666667,249.5807621827458L315.23333333333335,266.34140857816465L337.75,269.06810458050336L360.26666666666665,291.5511866107299L382.7833333333333,289.5616963736711L405.3,292.4594709922641L427.81666666666666,301.79026748291164L450.3333333333333,308.5253701668911L472.84999999999997,296.6236390177707L495.3666666666666,296.79488012799084L517.8833333333333,289.19884493102586L540.4,305.36777028880147L562.9166666666667,298.8111520284092L585.4333333333334,286.5858025713359L607.95,286.3802964543266L630.4666666666667,277.14269297586253L652.9833333333333,275.1965039796754L675.5,271.3531923777289L698.0166666666668,265.7703781201688L720.5333333333333,257.2333503646428L743.0500000000001,259.35381280585216L765.5666666666666,250.96474560809497L788.0833333333334,249.95521526399182L810.6,235.39995727574222L833.1166666666667,224.1459454135704L855.6333333333333,223.54053627907916L878.15,223.01450923880475L900.6666666666666,219.91684531142337L923.1833333333334,225.55238400406554L945.6999999999999,202.87177248681877L968.2166666666667,192.5605600617956L990.7333333333332,193.53215847321204L1013.25,186.0719761451846L1035.7666666666667,185.13977815760754L1058.2833333333333,175.04169651355878L1080.8,175.24095924302517L1103.3166666666666,170.2282000951485L1125.8333333333335,164.05033252439043L1148.35,159.99847839687223L1170.8666666666668,161.87636104552982L1193.3833333333332,162.12287335602466L1215.9,154.62576407546754" style="fill: none;" fill="none"></path></g><g><path stroke="rgb(187, 187, 187)" stroke-width="2px" d="M135.1,-3.886121738939835L157.61666666666667,86.9909792465142L180.13333333333333,127.23576089410128L202.65,162.88549505900417L225.16666666666666,190.16999756359095L247.6833333333333,212.9062742953052L270.2,237.77619790437143L292.7166666666667,240.72395585236018L315.23333333333335,256.53185790308993L337.75,275.0344023158896L360.26666666666665,272.27427754646385L382.7833333333333,283.8037592775926L405.3,301.6208742440531L427.81666666666666,302.4767725149991L450.3333333333333,302.94024907122855L472.84999999999997,311.45681710894166L495.3666666666666,297.9152115660836L517.8833333333333,302.5624101183604L540.4,292.3273026039391L562.9166666666667,298.40603964852875L585.4333333333334,293.85928979190174L607.95,293.4822833939142L630.4666666666667,286.4780311806327L652.9833333333333,276.52743044548265L675.5,272.85091947525325L698.0166666666668,272.8870634240984L720.5333333333333,263.0022823246842L743.0500000000001,259.4020230885302L765.5666666666666,261.39253969660973L788.0833333333334,258.4955765234812L810.6,247.13663438872095L833.1166666666667,243.03630233041432L855.6333333333333,240.71119503384878L878.15,239.6422276361292L900.6666666666666,235.5448475558425L923.1833333333334,232.99212767791286L945.6999999999999,216.503667139066L968.2166666666667,216.66022995571484L990.7333333333332,213.6442318832064L1013.25,209.09717147523605L1035.7666666666667,208.334019884806L1058.2833333333333,204.21189234058852L1080.8,196.73962694978772L1103.3166666666666,197.98360045617417L1125.8333333333335,194.25382684260768L1148.35,188.47780397656925L1170.8666666666668,178.64798263994743L1193.3833333333332,176.08439505277255L1215.9,170.48200683129627" style="fill: none;" fill="none"></path></g><g><path stroke="rgb(238, 51, 119)" stroke-width="2px" d="M112.58333333333333,-121.45959975296671L135.1,8.804556617731805L157.61666666666667,78.34994461628821L180.13333333333333,124.59851912847151L202.65,164.743189771916L225.16666666666666,188.1984184512663L247.6833333333333,219.1305063142957L270.2,230.59248065580928L292.7166666666667,244.06106152302868L315.23333333333335,258.2531365121729L337.75,267.56900552099205L360.26666666666665,277.79891535128496L382.7833333333333,282.97705633181613L405.3,281.78596852606864L427.81666666666666,297.16478240387266L450.3333333333333,297.83690985961783L472.84999999999997,298.97198584433306L495.3666666666666,291.79124048071014L517.8833333333333,299.28638544269137L540.4,297.3046608410417L562.9166666666667,288.55264511367625L585.4333333333334,285.2906712567718L607.95,287.0194898366188L630.4666666666667,273.65405904492843L652.9833333333333,260.44518840539547L675.5,270.3914324088847L698.0166666666668,266.2255802733765L720.5333333333333,254.19416853023904L743.0500000000001,255.39253966454527L765.5666666666666,256.897459532201L788.0833333333334,246.09446244504045L810.6,251.00335440958702L833.1166666666667,241.03835735506377L855.6333333333333,239.59970709420733L878.15,240.1601407707293L900.6666666666666,233.50606303850716L923.1833333333334,220.81574454317854L945.6999999999999,220.0275126004257L968.2166666666667,215.14474462364345L990.7333333333332,216.22505613778523L1013.25,200.527052828371L1035.7666666666667,198.27127815031832L1058.2833333333333,196.801522508688L1080.8,193.89939489124959L1103.3166666666666,177.77292548779792L1125.8333333333335,182.92698747186753L1148.35,176.23011778236378L1170.8666666666668,173.1664751171344L1193.3833333333332,164.62803155317408L1215.9,167.01072463598476" style="fill: none;" fill="none"></path></g><g><path stroke="rgb(204, 51, 17)" stroke-width="2px" d="M112.58333333333333,-121.58362272131302L135.1,4.375132058913437L157.61666666666667,80.71642921010539L180.13333333333333,127.23416091174477L202.65,172.51798575696685L225.16666666666666,197.25046269245473L247.6833333333333,219.06254921919574L270.2,233.74353868502325L292.7166666666667,248.36009314390608L315.23333333333335,266.6743453573084L337.75,272.9396180248143L360.26666666666665,285.19897432578193L382.7833333333333,300.9920452375669L405.3,295.98744323605933L427.81666666666666,303.93663097268814L450.3333333333333,303.8339622381756L472.84999999999997,300.6142635111587L495.3666666666666,310.3862685502809L517.8833333333333,307.4980461460188L540.4,296.81112002216855L562.9166666666667,285.19868031401586L585.4333333333334,295.3818640403706L607.95,288.8788252899628L630.4666666666667,293.3250069350461L652.9833333333333,282.3492739839399L675.5,283.62533070564945L698.0166666666668,278.25704832465794L720.5333333333333,266.8194395756085L743.0500000000001,274.84387616137917L765.5666666666666,265.59013509764634L788.0833333333334,254.81203829188064L810.6,256.26534014082426L833.1166666666667,257.32746184244854L855.6333333333333,248.06400415659238L878.15,232.37578252598598L900.6666666666666,233.6206572237254L923.1833333333334,224.34142096561413L945.6999999999999,207.4973888422837L968.2166666666667,215.28370006058609L990.7333333333332,208.19270739914697L1013.25,193.963321700583L1035.7666666666667,197.5042975619403L1058.2833333333333,183.81066197131236L1080.8,180.67393242472332L1103.3166666666666,190.2298059218012L1125.8333333333335,178.88940729725888L1148.35,169.27510652790207L1170.8666666666668,169.76512670289893L1193.3833333333332,169.20637570259328L1215.9,157.9928197895801" style="fill: none;" fill="none"></path></g><g><path stroke="rgb(238, 51, 119)" stroke-width="2px" d="M135.1,-67.29915752249372L157.61666666666667,0.8974590959885518L180.13333333333333,54L202.65,90.14284178360987L225.16666666666666,132.1161943320913L247.6833333333333,162.83479936265616L270.2,190.23009124775234L292.7166666666667,204.50051583266406L315.23333333333335,215.69025740525896L337.75,237.77267545082762L360.26666666666665,243.78221303527866L382.7833333333333,261.4775295929001L405.3,275.8599533624307L427.81666666666666,287.33671573424414L450.3333333333333,290.95093421296053L472.84999999999997,297.32027168328295L495.3666666666666,295.91098397494983L517.8833333333333,307.99420412216944L540.4,315.9606321424467L562.9166666666667,320.4147143486246L585.4333333333334,314.84082563841287L607.95,317.359460156628L630.4666666666667,329.74223272143365L652.9833333333333,316.7520805435004L675.5,332.5417442122358L698.0166666666668,327.4521458103828L720.5333333333333,330.99401007796473L743.0500000000001,324.5856136638058L765.5666666666666,330.50524481784805L788.0833333333334,329.62048133978425L810.6,327.16813291359927L833.1166666666667,329.5586405060114L855.6333333333333,324.8568537493259L878.15,312.69727996721133L900.6666666666666,327.47152462452925L923.1833333333334,321.4545673472371L945.6999999999999,306.75471199778804L968.2166666666667,310.906017870641L990.7333333333332,313.15378292201376L1013.25,319.5765500554371L1035.7666666666667,299.8663285759297L1058.2833333333333,301.70210769318123L1080.8,305.8242472273373L1103.3166666666666,294.7713219354817L1125.8333333333335,292.4008249998159L1148.35,289.9697889763141L1170.8666666666668,287.91294463857105L1193.3833333333332,282.18658452306124L1215.9,273.7159072121975" style="fill: none;" fill="none"></path></g><g><path stroke="rgb(204, 51, 17)" stroke-width="2px" d="M135.1,-77.5855524631977L157.61666666666667,8.577403038033367L180.13333333333333,46.45807189542512L202.65,99.25637441366115L225.16666666666666,140.49640283105353L247.6833333333333,160.91611075435904L270.2,188.79065909478646L292.7166666666667,197.8496622085949L315.23333333333335,217.9889607862405L337.75,237.17652742722674L360.26666666666665,250.43964362972628L382.7833333333333,264.5239553145637L405.3,276.65451996772873L427.81666666666666,278.94120721787453L450.3333333333333,294.1533592682644L472.84999999999997,293.9060597375551L495.3666666666666,297.37508450193315L517.8833333333333,293.3627885896483L540.4,305.12099672855464L562.9166666666667,312.7324675367762L585.4333333333334,307.44096037426766L607.95,311.78882267094514L630.4666666666667,308.66040240366766L652.9833333333333,309.5927975190168L675.5,311.9782295290878L698.0166666666668,325.6113089860975L720.5333333333333,324.4479964154565L743.0500000000001,325.7793791410672L765.5666666666666,326.535350202249L788.0833333333334,315.8652472433075L810.6,317.4839073839125L833.1166666666667,307.0627125340966L855.6333333333333,312.5686586948278L878.15,313.8148544370074L900.6666666666666,317.90064229928817L923.1833333333334,311.1990096618126L945.6999999999999,307.6090041173782L968.2166666666667,310.1613811369507L990.7333333333332,297.0207368239683L1013.25,300.0330994442065L1035.7666666666667,295.9752912313745L1058.2833333333333,301.8995350474704L1080.8,292.2188007220508L1103.3166666666666,293.07039627560687L1125.8333333333335,282.6502421363732L1148.35,285.3156247369815L1170.8666666666668,276.74607807440765L1193.3833333333332,270.57763625105224L1215.9,269.53464889154446" style="fill: none;" fill="none"></path></g><g><path stroke="rgb(238, 51, 119)" stroke-width="2px" d="M135.1,-62.55494789341844L157.61666666666667,8.166425070773869L180.13333333333333,69.52712121054378L202.65,105.13310974199862L225.16666666666666,137.43750856365716L247.6833333333333,155.64004265173375L270.2,190.24799573156415L292.7166666666667,206.68925869188695L315.23333333333335,228.75144528709868L337.75,240.59149820091687L360.26666666666665,246.7174892420213L382.7833333333333,266.13517788028275L405.3,271.89365669498375L427.81666666666666,282.81870855743307L450.3333333333333,295.0956739537138L472.84999999999997,293.2714693856553L495.3666666666666,302.3243523785867L517.8833333333333,310.7733155846684L540.4,305.47553835835436L562.9166666666667,316.27280171678166L585.4333333333334,319.9113139246788L607.95,326.10493947168436L630.4666666666667,325.16016500268256L652.9833333333333,338.5767391835844L675.5,324.0000000000001L698.0166666666668,334.3572641430894L720.5333333333333,333.0875514606034L743.0500000000001,318.3971878485029L765.5666666666666,326.82469403901575L788.0833333333334,319.32433422901784L810.6,315.3121112031817L833.1166666666667,313.6119240954821L855.6333333333333,318.9128085182223L878.15,323.2179467073305L900.6666666666666,324.21292702890423L923.1833333333334,320.3015506377725L945.6999999999999,316.12748267287407L968.2166666666667,315.5189555191412L990.7333333333332,303.78582218732066L1013.25,322.49480749033114L1035.7666666666667,307.8776695610404L1058.2833333333333,304.6105657107272L1080.8,305.72411611714426L1103.3166666666666,299.58515390010507L1125.8333333333335,298.1836381508027L1148.35,289.1100386105722L1170.8666666666668,301.03995426348155L1193.3833333333332,294.2431961366125L1215.9,292.18449419608004" style="fill: none;" fill="none"></path></g><g><path stroke="rgb(204, 51, 17)" stroke-width="2px" d="M135.1,-65.11898898207858L157.61666666666667,5.008849973210033L180.13333333333333,75.56460192797448L202.65,109.02871711179324L225.16666666666666,131.46845053626058L247.6833333333333,164.7565023602271L270.2,180.67270449611175L292.7166666666667,203.11144809556876L315.23333333333335,228.108935045068L337.75,236.05599197677677L360.26666666666665,246.3747771562017L382.7833333333333,264.8580010288431L405.3,262.6739887787522L427.81666666666666,280.84126545927484L450.3333333333333,290.0649953845562L472.84999999999997,290.7636388652303L495.3666666666666,301.5034946986112L517.8833333333333,298.8045734114142L540.4,297.3927989836522L562.9166666666667,301.62268890979846L585.4333333333334,304.60018621366936L607.95,306.3794372578727L630.4666666666667,309.77092948205257L652.9833333333333,317.5820010686836L675.5,314.52125184843953L698.0166666666668,325.49546257084444L720.5333333333333,316.4203288743459L743.0500000000001,313.78048363732114L765.5666666666666,313.259875854427L788.0833333333334,318.64272796905414L810.6,317.5216952480861L833.1166666666667,316.3455635076178L855.6333333333333,306.66997946089293L878.15,314.10905285415146L900.6666666666666,318.0560949768965L923.1833333333334,309.922643206077L945.6999999999999,320.60307193467577L968.2166666666667,320.90591114138164L990.7333333333332,308.2647085819262L1013.25,309.7208489898656L1035.7666666666667,312.677375052185L1058.2833333333333,303.4347806969899L1080.8,308.20947016945445L1103.3166666666666,301.11756663969703L1125.8333333333335,304.698994387339L1148.35,284.3064105636184L1170.8666666666668,294.58543722511496L1193.3833333333332,285.9034337431668L1215.9,286.49550057529325" style="fill: none;" fill="none"></path></g></g></g></g></g></g><g transform="translate(40, 378)" clip-path="url(#clip_1)"><clipPath id="clip_1"><rect width="1351" height="22"></rect></clipPath><g><g><line x1="0" y1="0" x2="0" y2="5" style="visibility: inherit;" fill="rgb(0, 0, 0)" stroke="rgb(204, 204, 204)" stroke-width="1px"></line><line x1="112.58333333333333" y1="0" x2="112.58333333333333" y2="5" style="visibility: inherit;" fill="rgb(0, 0, 0)" stroke="rgb(204, 204, 204)" stroke-width="1px"></line><line x1="225.16666666666666" y1="0" x2="225.16666666666666" y2="5" style="visibility: inherit;" fill="rgb(0, 0, 0)" stroke="rgb(204, 204, 204)" stroke-width="1px"></line><line x1="337.75" y1="0" x2="337.75" y2="5" style="visibility: inherit;" fill="rgb(0, 0, 0)" stroke="rgb(204, 204, 204)" stroke-width="1px"></line><line x1="450.3333333333333" y1="0" x2="450.3333333333333" y2="5" style="visibility: inherit;" fill="rgb(0, 0, 0)" stroke="rgb(204, 204, 204)" stroke-width="1px"></line><line x1="562.9166666666667" y1="0" x2="562.9166666666667" y2="5" style="visibility: inherit;" fill="rgb(0, 0, 0)" stroke="rgb(204, 204, 204)" stroke-width="1px"></line><line x1="675.5" y1="0" x2="675.5" y2="5" style="visibility: inherit;" fill="rgb(0, 0, 0)" stroke="rgb(204, 204, 204)" stroke-width="1px"></line><line x1="788.0833333333334" y1="0" x2="788.0833333333334" y2="5" style="visibility: inherit;" fill="rgb(0, 0, 0)" stroke="rgb(204, 204, 204)" stroke-width="1px"></line><line x1="900.6666666666666" y1="0" x2="900.6666666666666" y2="5" style="visibility: inherit;" fill="rgb(0, 0, 0)" stroke="rgb(204, 204, 204)" stroke-width="1px"></line><line x1="1013.25" y1="0" x2="1013.25" y2="5" style="visibility: inherit;" fill="rgb(0, 0, 0)" stroke="rgb(204, 204, 204)" stroke-width="1px"></line><line x1="1125.8333333333335" y1="0" x2="1125.8333333333335" y2="5" style="visibility: inherit;" fill="rgb(0, 0, 0)" stroke="rgb(204, 204, 204)" stroke-width="1px"></line><line x1="1238.4166666666665" y1="0" x2="1238.4166666666665" y2="5" style="visibility: inherit;" fill="rgb(0, 0, 0)" stroke="rgb(204, 204, 204)" stroke-width="1px"></line><line x1="1351" y1="0" x2="1351" y2="5" style="visibility: inherit;" fill="rgb(0, 0, 0)" stroke="rgb(204, 204, 204)" stroke-width="1px"></line></g><g transform="translate(0, 8)"><text x="0" y="0" dx="0em" dy="0.95em" style="text-anchor: middle; visibility: hidden; font-family: &quot;Helvetica Neue&quot;, sans-serif; font-size: 12px; font-weight: 200;" fill="rgb(50, 49, 63)" stroke="none" stroke-width="1px">-5</text><text x="112.58333333333333" y="0" dx="0em" dy="0.95em" style="text-anchor: middle; visibility: inherit; font-family: &quot;Helvetica Neue&quot;, sans-serif; font-size: 12px; font-weight: 200;" fill="rgb(50, 49, 63)" stroke="none" stroke-width="1px">0</text><text x="225.16666666666666" y="0" dx="0em" dy="0.95em" style="text-anchor: middle; visibility: inherit; font-family: &quot;Helvetica Neue&quot;, sans-serif; font-size: 12px; font-weight: 200;" fill="rgb(50, 49, 63)" stroke="none" stroke-width="1px">5</text><text x="337.75" y="0" dx="0em" dy="0.95em" style="text-anchor: middle; visibility: inherit; font-family: &quot;Helvetica Neue&quot;, sans-serif; font-size: 12px; font-weight: 200;" fill="rgb(50, 49, 63)" stroke="none" stroke-width="1px">10</text><text x="450.3333333333333" y="0" dx="0em" dy="0.95em" style="text-anchor: middle; visibility: inherit; font-family: &quot;Helvetica Neue&quot;, sans-serif; font-size: 12px; font-weight: 200;" fill="rgb(50, 49, 63)" stroke="none" stroke-width="1px">15</text><text x="562.9166666666667" y="0" dx="0em" dy="0.95em" style="text-anchor: middle; visibility: inherit; font-family: &quot;Helvetica Neue&quot;, sans-serif; font-size: 12px; font-weight: 200;" fill="rgb(50, 49, 63)" stroke="none" stroke-width="1px">20</text><text x="675.5" y="0" dx="0em" dy="0.95em" style="text-anchor: middle; visibility: inherit; font-family: &quot;Helvetica Neue&quot;, sans-serif; font-size: 12px; font-weight: 200;" fill="rgb(50, 49, 63)" stroke="none" stroke-width="1px">25</text><text x="788.0833333333334" y="0" dx="0em" dy="0.95em" style="text-anchor: middle; visibility: inherit; font-family: &quot;Helvetica Neue&quot;, sans-serif; font-size: 12px; font-weight: 200;" fill="rgb(50, 49, 63)" stroke="none" stroke-width="1px">30</text><text x="900.6666666666666" y="0" dx="0em" dy="0.95em" style="text-anchor: middle; visibility: inherit; font-family: &quot;Helvetica Neue&quot;, sans-serif; font-size: 12px; font-weight: 200;" fill="rgb(50, 49, 63)" stroke="none" stroke-width="1px">35</text><text x="1013.25" y="0" dx="0em" dy="0.95em" style="text-anchor: middle; visibility: inherit; font-family: &quot;Helvetica Neue&quot;, sans-serif; font-size: 12px; font-weight: 200;" fill="rgb(50, 49, 63)" stroke="none" stroke-width="1px">40</text><text x="1125.8333333333335" y="0" dx="0em" dy="0.95em" style="text-anchor: middle; visibility: inherit; font-family: &quot;Helvetica Neue&quot;, sans-serif; font-size: 12px; font-weight: 200;" fill="rgb(50, 49, 63)" stroke="none" stroke-width="1px">45</text><text x="1238.4166666666665" y="0" dx="0em" dy="0.95em" style="text-anchor: middle; visibility: inherit; font-family: &quot;Helvetica Neue&quot;, sans-serif; font-size: 12px; font-weight: 200;" fill="rgb(50, 49, 63)" stroke="none" stroke-width="1px">50</text><text x="1351" y="0" dx="0em" dy="0.95em" style="text-anchor: middle; visibility: hidden; font-family: &quot;Helvetica Neue&quot;, sans-serif; font-size: 12px; font-weight: 200;" fill="rgb(50, 49, 63)" stroke="none" stroke-width="1px">55</text></g><line x1="0" y1="0" x2="1351" y2="0" fill="rgb(0, 0, 0)" stroke="rgb(204, 204, 204)" stroke-width="1px"></line></g></g></g></g></svg>