<svg viewBox="0 0 950.5 400" xmlns="http://www.w3.org/2000/svg"><g><g><g><g><g><line x1="40" y1="290.1075298580874" x2="35" y2="290.1075298580874" style="visibility: inherit;" fill="rgb(0, 0, 0)" stroke="rgb(204, 204, 204)" stroke-width="1px"></line></g><g transform="translate(30, 0)"><text x="0" y="290.1075298580874" dx="0em" dy="0.3em" style="text-anchor: end; visibility: inherit; font-family: &quot;Helvetica Neue&quot;, sans-serif; font-size: 12px; font-weight: 200;" fill="rgb(50, 49, 63)" stroke="none" stroke-width="1px">0.2</text></g><line x1="40" y1="0" x2="40" y2="378" fill="rgb(0, 0, 0)" stroke="rgb(204, 204, 204)" stroke-width="1px"></line></g></g><g transform="translate(40, 0)" clip-path="url(#clip_0)"><clipPath id="clip_0"><rect width="910" height="378"></rect></clipPath><g><g><g><line x1="43.50417840815033" y1="0" x2="43.50417840815033" y2="378" fill="rgb(0, 0, 0)" stroke="rgb(60, 60, 60)" stroke-width="1px" opacity="0.25"></line><line x1="123.59830859206505" y1="0" x2="123.59830859206505" y2="378" fill="rgb(0, 0, 0)" stroke="rgb(60, 60, 60)" stroke-width="1px" opacity="0.25"></line><line x1="203.69243877597972" y1="0" x2="203.69243877597972" y2="378" fill="rgb(0, 0, 0)" stroke="rgb(60, 60, 60)" stroke-width="1px" opacity="0.25"></line><line x1="283.78656895989445" y1="0" x2="283.78656895989445" y2="378" fill="rgb(0, 0, 0)" stroke="rgb(60, 60, 60)" stroke-width="1px" opacity="0.25"></line><line x1="363.8806991438092" y1="0" x2="363.8806991438092" y2="378" fill="rgb(0, 0, 0)" stroke="rgb(60, 60, 60)" stroke-width="1px" opacity="0.25"></line><line x1="443.97482932772385" y1="0" x2="443.97482932772385" y2="378" fill="rgb(0, 0, 0)" stroke="rgb(60, 60, 60)" stroke-width="1px" opacity="0.25"></line><line x1="524.0689595116386" y1="0" x2="524.0689595116386" y2="378" fill="rgb(0, 0, 0)" stroke="rgb(60, 60, 60)" stroke-width="1px" opacity="0.25"></line><line x1="604.1630896955533" y1="0" x2="604.1630896955533" y2="378" fill="rgb(0, 0, 0)" stroke="rgb(60, 60, 60)" stroke-width="1px" opacity="0.25"></line><line x1="684.257219879468" y1="0" x2="684.257219879468" y2="378" fill="rgb(0, 0, 0)" stroke="rgb(60, 60, 60)" stroke-width="1px" opacity="0.25"></line><line x1="764.3513500633827" y1="0" x2="764.3513500633827" y2="378" fill="rgb(0, 0, 0)" stroke="rgb(60, 60, 60)" stroke-width="1px" opacity="0.25"></line><line x1="844.4454802472974" y1="0" x2="844.4454802472974" y2="378" fill="rgb(0, 0, 0)" stroke="rgb(60, 60, 60)" stroke-width="1px" opacity="0.25"></line></g><g><line x1="0" y1="290.1075298580874" x2="910.5" y2="290.1075298580874" fill="rgb(0, 0, 0)" stroke="rgb(60, 60, 60)" stroke-width="1px" opacity="0.25"></line></g></g></g><g><g><line x1="-677.342993247082" y1="0" x2="-677.342993247082" y2="378" fill="rgb(0, 0, 0)" stroke="rgb(153, 153, 153)" stroke-width="1.5px"></line></g></g><g><g><g><g><g><path stroke="rgb(255, 112, 67)" stroke-width="2px" d="M-36.58995177576436,279.2365642618363L3.457113316192985,283.90099862010373L43.50417840815033,274.52998779445545L83.55124350010769,289.30458573535657L123.59830859206505,306.13058476720266L163.6453736840224,268.9078755045235L203.69243877597972,270.403225027171L243.73950386793712,268.56883322766043L283.78656895989445,260.5756092265223L323.8336340518518,265.5210637540155L363.8806991438092,245.21166526820835L403.9277642357665,247.28303806041697L443.97482932772385,221.6870344336369L484.02189441968125,210.34783584518186L524.0689595116386,211.5066024999679L564.116024603596,166.78036640845266L604.1630896955533,170.0759080531963L644.2101547875106,162.96568051426286L684.257219879468,159.6301825297784L724.3042849714253,154.84304963218688L764.3513500633827,147.52048785947923L804.39841515534,121.40149103725435L844.4454802472974,100.42239384963818L884.4925453392548,103.89477054246379L924.539610431212,109.84757390723348" style="fill: none;" fill="none"></path></g><g><path stroke="rgb(0, 153, 136)" stroke-width="2px" d="M-36.58995177576436,300.2045941247895L3.457113316192985,289.93093622673666L43.50417840815033,298.9978625964087L83.55124350010769,296.4579909893536L123.59830859206505,293.0974022734346L163.6453736840224,262.0457867119834L203.69243877597972,271.1769241599869L243.73950386793712,268.4921009513049L283.78656895989445,246.35023970699422L323.8336340518518,239.28087011386293L363.8806991438092,250.20067804204393L403.9277642357665,229.95677599673087L443.97482932772385,212.84746814032098L484.02189441968125,211.1639357379443L524.0689595116386,184.08277665444976L564.116024603596,162.1200794692234L604.1630896955533,145.85833256189218L644.2101547875106,147.109800704204L684.257219879468,132.39230950996412L724.3042849714253,119.50029145192627L764.3513500633827,108.77956340617328L804.39841515534,107.42606533038912L844.4454802472974,87.08326304841847L884.4925453392548,72.98846266626231L924.539610431212,41.03138180053713" style="fill: none;" fill="none"></path></g><g><path stroke="rgb(51, 187, 238)" stroke-width="2px" d="M-36.58995177576436,244.70956440583814L3.457113316192985,267.32602679434206L43.50417840815033,267.3761558519541L83.55124350010769,277.5593345630022L123.59830859206505,271.24526146188606L163.6453736840224,277.039852462847L203.69243877597972,265.1883942935423L243.73950386793712,256.36588999807896L283.78656895989445,247.19188314205135L323.8336340518518,227.28518091490218L363.8806991438092,244.952627314102L403.9277642357665,215.59774281757691L443.97482932772385,220.64744710661103L484.02189441968125,193.29235947430513L524.0689595116386,185.75803373867464L564.116024603596,157.1883194307274L604.1630896955533,165.16599128904468L644.2101547875106,162.57715629207968L684.257219879468,129.202876300629L724.3042849714253,128.53710775227026L764.3513500633827,122.97708221342646L804.39841515534,116.0780880061887L844.4454802472974,105.00255805867096L884.4925453392548,85.06350953939494L924.539610431212,71.1315998955032" style="fill: none;" fill="none"></path></g><g><path stroke="rgb(204, 51, 17)" stroke-width="2px" d="M-36.58995177576436,280.78880672120204L3.457113316192985,282.0093427608049L43.50417840815033,320.63480484775664L83.55124350010769,313.34504919191374L123.59830859206505,326.5345618031842L163.6453736840224,321.8552644519014L203.69243877597972,348.8386045060457L243.73950386793712,348.0956488590497L283.78656895989445,340.9576443155365L323.8336340518518,374.4738744249274L363.8806991438092,346.26147536912123L403.9277642357665,351.2224911433955L443.97482932772385,356.3661123041422L484.02189441968125,348.1114841770232L524.0689595116386,386.84882577064457L564.116024603596,342.471453942349L604.1630896955533,355.0740558626159L644.2101547875106,352.3095252187637L684.257219879468,337.88659135447455L724.3042849714253,327.629643570032L764.3513500633827,310.05037110697333L804.39841515534,318.8135670929775L844.4454802472974,323.99547510294576L884.4925453392548,314.30874558701356L924.539610431212,299.18237953169154" style="fill: none;" fill="none"></path></g><g><path stroke="rgb(0, 153, 136)" stroke-width="2px" d="M-36.58995177576436,276.4874630349719L3.457113316192985,307.79061732698904L43.50417840815033,320.1220296485504L83.55124350010769,317.9483979921434L123.59830859206505,310.5131221663177L163.6453736840224,320.87852819315475L203.69243877597972,315.58049622933953L243.73950386793712,335.2019262217132L283.78656895989445,359.3221431358166L323.8336340518518,349.37681749454504L363.8806991438092,349.094964628457L403.9277642357665,359.94504259121686L443.97482932772385,344.00231843172827L484.02189441968125,357.64096697012246L524.0689595116386,339.5855753188686L564.116024603596,351.5751941885268L604.1630896955533,323.07776623312077L644.2101547875106,306.815542096746L684.257219879468,300.71595567957155L724.3042849714253,324.33826119684954L764.3513500633827,326.7318760305063L804.39841515534,304.8216478282172L844.4454802472974,311.59119773928956L884.4925453392548,293.8208565294464L924.539610431212,298.843956746968" style="fill: none;" fill="none"></path></g><g><path stroke="rgb(51, 187, 238)" stroke-width="2px" d="M-36.58995177576436,278.81459122493646L3.457113316192985,288.66312447882655L43.50417840815033,308.8489117779136L83.55124350010769,315.38870985164715L123.59830859206505,310.9435978054761L163.6453736840224,315.7573582877909L203.69243877597972,333.24502040803605L243.73950386793712,311.0385706185373L283.78656895989445,318.15495298733805L323.8336340518518,338.667064013833L363.8806991438092,340.1003066751184L403.9277642357665,334.61936491590404L443.97482932772385,348.7041871266525L484.02189441968125,343.23490141855547L524.0689595116386,343.58211759282426L564.116024603596,376.2769518853587L604.1630896955533,341.85068124134904L644.2101547875106,330.2044254311993L684.257219879468,301.24619619700525L724.3042849714253,308.02283983221025L764.3513500633827,317.22148014087827L804.39841515534,326.63247113694L844.4454802472974,289.3391876188657L884.4925453392548,279.37467006407724L924.539610431212,283.68995299512005" style="fill: none;" fill="none"></path></g><g><path stroke="rgb(0, 119, 187)" stroke-width="2px" d="M-36.58995177576436,263.87567656140067L3.457113316192985,291.07055868902967L43.50417840815033,295.85056147162413L83.55124350010769,292.50710331951456L123.59830859206505,300.5419145271711L163.6453736840224,331.290570756072L203.69243877597972,316.1087933284451L243.73950386793712,310.1488045056465L283.78656895989445,319.1553780216207L323.8336340518518,318.86750528950034L363.8806991438092,345.1638074900266L403.9277642357665,341.12807648673225L443.97482932772385,325.7038704815888L484.02189441968125,320.1853010847331L524.0689595116386,316.83616941919973L564.116024603596,331.82870647448965L604.1630896955533,342.7117908790018L644.2101547875106,324.07448013864007L684.257219879468,346.7596240173071L724.3042849714253,326.41860784529104L764.3513500633827,335.84059880600876L804.39841515534,342.1018459804519L844.4454802472974,321.5439646120364L884.4925453392548,320.2221203642177L924.539610431212,327.70519718700814" style="fill: none;" fill="none"></path></g><g><path stroke="rgb(255, 112, 67)" stroke-width="2px" d="M-36.58995177576436,289.30583871221205L3.457113316192985,298.4726189251231L43.50417840815033,320.01375481799914L83.55124350010769,296.8193476361847L123.59830859206505,337.7175859721441L163.6453736840224,313.86329921981337L203.69243877597972,334.06949190703074L243.73950386793712,332.6973254819189L283.78656895989445,345.74338256605836L323.8336340518518,340.7165296527256L363.8806991438092,339.3129588598518L403.9277642357665,346.1560274319976L443.97482932772385,357.1629905500374L484.02189441968125,340.51536767665203L524.0689595116386,324.7931721501113L564.116024603596,316.9428002895726L604.1630896955533,352.93047575714706L644.2101547875106,343.10216985786747L684.257219879468,324.02012653261033L724.3042849714253,335.8884570025449L764.3513500633827,337.54330039531135L804.39841515534,329.6106851435391L844.4454802472974,304.20316435837225L884.4925453392548,321.3701633980932L924.539610431212,302.0728202974636" style="fill: none;" fill="none"></path></g><g><path stroke="rgb(0, 153, 136)" stroke-width="2px" d="M-36.58995177576436,272.9981720452631L3.457113316192985,285.60107916150366L43.50417840815033,305.8053740462035L83.55124350010769,314.8630658116557L123.59830859206505,330.61264309211765L163.6453736840224,327.65893124243166L203.69243877597972,311.2059906459333L243.73950386793712,338.05982225618345L283.78656895989445,347.5877102581298L323.8336340518518,333.8028227514401L363.8806991438092,352.04918912132604L403.9277642357665,356.70498960768083L443.97482932772385,319.34949896179654L484.02189441968125,336.1061891717339L524.0689595116386,319.0995539134073L564.116024603596,332.5490271587674L604.1630896955533,316.19745424813846L644.2101547875106,324.70283093091246L684.257219879468,345.2042626252284L724.3042849714253,322.7269068810643L764.3513500633827,323.0922101841434L804.39841515534,314.07431204731535L844.4454802472974,300.3378592032866L884.4925453392548,300.46024965066823L924.539610431212,318.793550381623" style="fill: none;" fill="none"></path></g><g><path stroke="rgb(51, 187, 238)" stroke-width="2px" d="M-36.58995177576436,265.1860292024436L3.457113316192985,295.50710093829457L43.50417840815033,301.5286194362337L83.55124350010769,330.1496148763821L123.59830859206505,314.1820911805821L163.6453736840224,314.7217112635448L203.69243877597972,357.2498360555275L243.73950386793712,361.2668342933356L283.78656895989445,339.98172793979745L323.8336340518518,344.28326559881646L363.8806991438092,358.11932324181385L403.9277642357665,360.1078131443865L443.97482932772385,327.7306143753514L484.02189441968125,332.8097565011084L524.0689595116386,359.30342313928327L564.116024603596,346.3216056889982L604.1630896955533,344.54294959584456L644.2101547875106,338.6536467598126L684.257219879468,351.1086516747818L724.3042849714253,333.7724979763084L764.3513500633827,303.0274760605879L804.39841515534,308.92719341935674L844.4454802472974,328.65977641738874L884.4925453392548,320.8099887085469L924.539610431212,301.83621273374376" style="fill: none;" fill="none"></path></g><g><path stroke="rgb(0, 119, 187)" stroke-width="2px" d="M-36.58995177576436,264.91492379870476L3.457113316192985,309.7850789527156L43.50417840815033,307.3309885057415L83.55124350010769,300.5855684611704L123.59830859206505,334.4228408238185L163.6453736840224,335.9845783921559L203.69243877597972,357.85761291933545L243.73950386793712,350.57557943212885L283.78656895989445,350.31104525741074L323.8336340518518,334.65879309863544L363.8806991438092,371.7331782591478L403.9277642357665,334.11069933680915L443.97482932772385,332.4990998931109L484.02189441968125,341.820869957587L524.0689595116386,335.2110136589153L564.116024603596,343.8612645200713L604.1630896955533,358.244962993808L644.2101547875106,335.4280326232997L684.257219879468,342.83092133789L724.3042849714253,345.2740054164677L764.3513500633827,327.5776223552995L804.39841515534,311.71563755702886L844.4454802472974,319.8996664371366L884.4925453392548,308.4288159490009L924.539610431212,312.7465258534783" style="fill: none;" fill="none"></path></g><g><path stroke="rgb(187, 187, 187)" stroke-width="2px" d="M-36.58995177576436,278.06335503031266L3.457113316192985,303.4905487292963L43.50417840815033,316.8631462978335L83.55124350010769,321.72421291877333L123.59830859206505,346.37297551135356L163.6453736840224,352.2290815421892L203.69243877597972,346.82985371342477L243.73950386793712,359.9655023052858L283.78656895989445,372.8030384232825L323.8336340518518,378.8300068380702L363.8806991438092,349.9495958914756L403.9277642357665,355.58159349050857L443.97482932772385,351.4659754049185L484.02189441968125,361.40429499422794L524.0689595116386,343.1026722226724L564.116024603596,377.1636510083859L604.1630896955533,370.26511473698736L644.2101547875106,367.25095259639886L684.257219879468,350.29659746872056L724.3042849714253,350.78053459071884L764.3513500633827,335.4915572525554L804.39841515534,325.25508071864056L844.4454802472974,322.2111273930848L884.4925453392548,300.80162363370135L924.539610431212,308.5246804940317" style="fill: none;" fill="none"></path></g></g></g></g></g></g><g transform="translate(40, 378)" clip-path="url(#clip_1)"><clipPath id="clip_1"><rect width="910" height="22"></rect></clipPath><g><g><line x1="43.50417840815033" y1="0" x2="43.50417840815033" y2="5" style="visibility: inherit;" fill="rgb(0, 0, 0)" stroke="rgb(204, 204, 204)" stroke-width="1px"></line><line x1="123.59830859206505" y1="0" x2="123.59830859206505" y2="5" style="visibility: inherit;" fill="rgb(0, 0, 0)" stroke="rgb(204, 204, 204)" stroke-width="1px"></line><line x1="203.69243877597972" y1="0" x2="203.69243877597972" y2="5" style="visibility: inherit;" fill="rgb(0, 0, 0)" stroke="rgb(204, 204, 204)" stroke-width="1px"></line><line x1="283.78656895989445" y1="0" x2="283.78656895989445" y2="5" style="visibility: inherit;" fill="rgb(0, 0, 0)" stroke="rgb(204, 204, 204)" stroke-width="1px"></line><line x1="363.8806991438092" y1="0" x2="363.8806991438092" y2="5" style="visibility: inherit;" fill="rgb(0, 0, 0)" stroke="rgb(204, 204, 204)" stroke-width="1px"></line><line x1="443.97482932772385" y1="0" x2="443.97482932772385" y2="5" style="visibility: inherit;" fill="rgb(0, 0, 0)" stroke="rgb(204, 204, 204)" stroke-width="1px"></line><line x1="524.0689595116386" y1="0" x2="524.0689595116386" y2="5" style="visibility: inherit;" fill="rgb(0, 0, 0)" stroke="rgb(204, 204, 204)" stroke-width="1px"></line><line x1="604.1630896955533" y1="0" x2="604.1630896955533" y2="5" style="visibility: inherit;" fill="rgb(0, 0, 0)" stroke="rgb(204, 204, 204)" stroke-width="1px"></line><line x1="684.257219879468" y1="0" x2="684.257219879468" y2="5" style="visibility: inherit;" fill="rgb(0, 0, 0)" stroke="rgb(204, 204, 204)" stroke-width="1px"></line><line x1="764.3513500633827" y1="0" x2="764.3513500633827" y2="5" style="visibility: inherit;" fill="rgb(0, 0, 0)" stroke="rgb(204, 204, 204)" stroke-width="1px"></line><line x1="844.4454802472974" y1="0" x2="844.4454802472974" y2="5" style="visibility: inherit;" fill="rgb(0, 0, 0)" stroke="rgb(204, 204, 204)" stroke-width="1px"></line></g><g transform="translate(0, 8)"><text x="43.50417840815033" y="0" dx="0em" dy="0.95em" style="text-anchor: middle; visibility: inherit; font-family: &quot;Helvetica Neue&quot;, sans-serif; font-size: 12px; font-weight: 200;" fill="rgb(50, 49, 63)" stroke="none" stroke-width="1px">18</text><text x="123.59830859206505" y="0" dx="0em" dy="0.95em" style="text-anchor: middle; visibility: inherit; font-family: &quot;Helvetica Neue&quot;, sans-serif; font-size: 12px; font-weight: 200;" fill="rgb(50, 49, 63)" stroke="none" stroke-width="1px">20</text><text x="203.69243877597972" y="0" dx="0em" dy="0.95em" style="text-anchor: middle; visibility: inherit; font-family: &quot;Helvetica Neue&quot;, sans-serif; font-size: 12px; font-weight: 200;" fill="rgb(50, 49, 63)" stroke="none" stroke-width="1px">22</text><text x="283.78656895989445" y="0" dx="0em" dy="0.95em" style="text-anchor: middle; visibility: inherit; font-family: &quot;Helvetica Neue&quot;, sans-serif; font-size: 12px; font-weight: 200;" fill="rgb(50, 49, 63)" stroke="none" stroke-width="1px">24</text><text x="363.8806991438092" y="0" dx="0em" dy="0.95em" style="text-anchor: middle; visibility: inherit; font-family: &quot;Helvetica Neue&quot;, sans-serif; font-size: 12px; font-weight: 200;" fill="rgb(50, 49, 63)" stroke="none" stroke-width="1px">26</text><text x="443.97482932772385" y="0" dx="0em" dy="0.95em" style="text-anchor: middle; visibility: inherit; font-family: &quot;Helvetica Neue&quot;, sans-serif; font-size: 12px; font-weight: 200;" fill="rgb(50, 49, 63)" stroke="none" stroke-width="1px">28</text><text x="524.0689595116386" y="0" dx="0em" dy="0.95em" style="text-anchor: middle; visibility: inherit; font-family: &quot;Helvetica Neue&quot;, sans-serif; font-size: 12px; font-weight: 200;" fill="rgb(50, 49, 63)" stroke="none" stroke-width="1px">30</text><text x="604.1630896955533" y="0" dx="0em" dy="0.95em" style="text-anchor: middle; visibility: inherit; font-family: &quot;Helvetica Neue&quot;, sans-serif; font-size: 12px; font-weight: 200;" fill="rgb(50, 49, 63)" stroke="none" stroke-width="1px">32</text><text x="684.257219879468" y="0" dx="0em" dy="0.95em" style="text-anchor: middle; visibility: inherit; font-family: &quot;Helvetica Neue&quot;, sans-serif; font-size: 12px; font-weight: 200;" fill="rgb(50, 49, 63)" stroke="none" stroke-width="1px">34</text><text x="764.3513500633827" y="0" dx="0em" dy="0.95em" style="text-anchor: middle; visibility: inherit; font-family: &quot;Helvetica Neue&quot;, sans-serif; font-size: 12px; font-weight: 200;" fill="rgb(50, 49, 63)" stroke="none" stroke-width="1px">36</text><text x="844.4454802472974" y="0" dx="0em" dy="0.95em" style="text-anchor: middle; visibility: inherit; font-family: &quot;Helvetica Neue&quot;, sans-serif; font-size: 12px; font-weight: 200;" fill="rgb(50, 49, 63)" stroke="none" stroke-width="1px">38</text></g><line x1="0" y1="0" x2="910.5" y2="0" fill="rgb(0, 0, 0)" stroke="rgb(204, 204, 204)" stroke-width="1px"></line></g></g></g></g></svg>