<svg viewBox="0 0 1391 400" xmlns="http://www.w3.org/2000/svg"><g><g><g><g><g><line x1="40" y1="27.743056899701628" x2="35" y2="27.743056899701628" style="visibility: inherit;" fill="rgb(0, 0, 0)" stroke="rgb(204, 204, 204)" stroke-width="1px"></line></g><g transform="translate(30, 0)"><text x="0" y="27.743056899701628" dx="0em" dy="0.3em" style="text-anchor: end; visibility: inherit; font-family: &quot;Helvetica Neue&quot;, sans-serif; font-size: 12px; font-weight: 200;" fill="rgb(50, 49, 63)" stroke="none" stroke-width="1px">0.9</text></g><line x1="40" y1="0" x2="40" y2="378" fill="rgb(0, 0, 0)" stroke="rgb(204, 204, 204)" stroke-width="1px"></line></g></g><g transform="translate(40, 0)" clip-path="url(#clip_0)"><clipPath id="clip_0"><rect width="1351" height="378"></rect></clipPath><g><g><g><line x1="0" y1="0" x2="0" y2="378" fill="rgb(0, 0, 0)" stroke="rgb(60, 60, 60)" stroke-width="1px" opacity="0.25"></line><line x1="112.58333333333333" y1="0" x2="112.58333333333333" y2="378" fill="rgb(0, 0, 0)" stroke="rgb(60, 60, 60)" stroke-width="1px" opacity="0.25"></line><line x1="225.16666666666666" y1="0" x2="225.16666666666666" y2="378" fill="rgb(0, 0, 0)" stroke="rgb(60, 60, 60)" stroke-width="1px" opacity="0.25"></line><line x1="337.75" y1="0" x2="337.75" y2="378" fill="rgb(0, 0, 0)" stroke="rgb(60, 60, 60)" stroke-width="1px" opacity="0.25"></line><line x1="450.3333333333333" y1="0" x2="450.3333333333333" y2="378" fill="rgb(0, 0, 0)" stroke="rgb(60, 60, 60)" stroke-width="1px" opacity="0.25"></line><line x1="562.9166666666667" y1="0" x2="562.9166666666667" y2="378" fill="rgb(0, 0, 0)" stroke="rgb(60, 60, 60)" stroke-width="1px" opacity="0.25"></line><line x1="675.5" y1="0" x2="675.5" y2="378" fill="rgb(0, 0, 0)" stroke="rgb(60, 60, 60)" stroke-width="1px" opacity="0.25"></line><line x1="788.0833333333334" y1="0" x2="788.0833333333334" y2="378" fill="rgb(0, 0, 0)" stroke="rgb(60, 60, 60)" stroke-width="1px" opacity="0.25"></line><line x1="900.6666666666666" y1="0" x2="900.6666666666666" y2="378" fill="rgb(0, 0, 0)" stroke="rgb(60, 60, 60)" stroke-width="1px" opacity="0.25"></line><line x1="1013.25" y1="0" x2="1013.25" y2="378" fill="rgb(0, 0, 0)" stroke="rgb(60, 60, 60)" stroke-width="1px" opacity="0.25"></line><line x1="1125.8333333333335" y1="0" x2="1125.8333333333335" y2="378" fill="rgb(0, 0, 0)" stroke="rgb(60, 60, 60)" stroke-width="1px" opacity="0.25"></line><line x1="1238.4166666666665" y1="0" x2="1238.4166666666665" y2="378" fill="rgb(0, 0, 0)" stroke="rgb(60, 60, 60)" stroke-width="1px" opacity="0.25"></line><line x1="1351" y1="0" x2="1351" y2="378" fill="rgb(0, 0, 0)" stroke="rgb(60, 60, 60)" stroke-width="1px" opacity="0.25"></line></g><g><line x1="0" y1="27.743056899701628" x2="1351" y2="27.743056899701628" fill="rgb(0, 0, 0)" stroke="rgb(60, 60, 60)" stroke-width="1px" opacity="0.25"></line></g></g></g><g><g><line x1="112.58333333333333" y1="0" x2="112.58333333333333" y2="378" fill="rgb(0, 0, 0)" stroke="rgb(153, 153, 153)" stroke-width="1.5px"></line></g></g><g><g><g><g><g><path stroke="rgb(51, 187, 238)" stroke-width="2px" d="M135.1,379.0437792879906L157.61666666666667,312.73851460796743L180.13333333333333,264.7434338118196L202.65,228.2400394179701L225.16666666666666,212.44761395250245L247.6833333333333,173.17060971485978L270.2,160.66361298549793L292.7166666666667,146.62837969398566L315.23333333333335,141.9582355331451L337.75,129.5244086699634L360.26666666666665,146.62837969398566L382.7833333333333,132.6303038660309L405.3,134.183578608603L427.81666666666666,117.12010869547032L450.3333333333333,132.6303038660309L472.84999999999997,93.9399697585983L495.3666666666666,107.83585486453586L517.8833333333333,97.02467145392148L540.4,95.4819183091708L562.9166666666667,97.02467145392148L585.4333333333334,100.11117383375716L607.95,98.56787487327318L630.4666666666667,97.02467145392148L652.9833333333333,87.77560585668067L675.5,89.31611177051991L698.0166666666668,97.02467145392148L720.5333333333333,67.7911773064667L743.0500000000001,69.3258708204416L765.5666666666666,87.77560585668067L788.0833333333334,83.15713314234995L810.6,69.3258708204416L833.1166666666667,78.54269108124782L855.6333333333333,87.77560585668067L878.15,61.657206321798185L900.6666666666666,73.93227264420835L923.1833333333334,72.3962417114538L945.6999999999999,61.657206321798185L968.2166666666667,73.93227264420835L990.7333333333332,67.7911773064667L1013.25,72.3962417114538L1035.7666666666667,69.3258708204416L1058.2833333333333,69.3258708204416L1080.8,81.61842036680974L1103.3166666666666,58.59306340983352L1125.8333333333335,70.86065687806553L1148.35,69.3258708204416L1170.8666666666668,80.08050890355037L1193.3833333333332,72.3962417114538L1215.9,64.72347861746056" style="fill: none;" fill="none"></path></g><g><path stroke="rgb(0, 119, 187)" stroke-width="2px" d="M112.58333333333333,459.3936877567188L135.1,359.55110833809573L157.61666666666667,298.2939324191543L180.13333333333333,252.01820370253813L202.65,223.49728439965156L225.16666666666666,196.7018553891419L247.6833333333333,185.70762187159423L270.2,140.40231778094605L292.7166666666667,165.35031543758447L315.23333333333335,160.66361298549793L337.75,137.29221267966886L360.26666666666665,110.92867654159778L382.7833333333333,120.21836748494047L405.3,127.97250184391174L427.81666666666666,97.02467145392148L450.3333333333333,110.92867654159778L472.84999999999997,107.83585486453586L495.3666666666666,100.11117383375716L517.8833333333333,109.38186175328065L540.4,81.61842036680974L562.9166666666667,90.85671227237191L585.4333333333334,83.15713314234995L607.95,83.15713314234995L630.4666666666667,67.7911773064667L652.9833333333333,80.08050890355037L675.5,86.2355486448941L698.0166666666668,101.65527848759729L720.5333333333333,55.53069519507733L743.0500000000001,81.61842036680974L765.5666666666666,57.06148153492177L788.0833333333334,72.3962417114538L810.6,69.3258708204416L833.1166666666667,72.3962417114538L855.6333333333333,75.46839658988421L878.15,75.46839658988421L900.6666666666666,72.3962417114538L923.1833333333334,60.12508906102556L945.6999999999999,70.86065687806553L968.2166666666667,95.4819183091708L990.7333333333332,84.69629383675783L1013.25,78.54269108124782L1035.7666666666667,78.54269108124782L1058.2833333333333,95.4819183091708L1080.8,87.77560585668067L1103.3166666666666,78.54269108124782L1125.8333333333335,92.39811627183826L1148.35,75.46839658988421L1170.8666666666668,80.08050890355037L1193.3833333333332,90.85671227237191L1215.9,63.19012019531834" style="fill: none;" fill="none"></path></g><g><path stroke="rgb(187, 187, 187)" stroke-width="2px" d="M135.1,388.8175044090713L157.61666666666667,299.8970206112499L180.13333333333333,267.9294407928047L202.65,237.7383312047886L225.16666666666666,215.6022552226337L247.6833333333333,173.17060971485978L270.2,177.8687765629027L292.7166666666667,140.40231778094605L315.23333333333335,140.40231778094605L337.75,129.5244086699634L360.26666666666665,135.7376671857829L382.7833333333333,124.86934070089629L405.3,118.66918927656917L427.81666666666666,120.21836748494047L450.3333333333333,98.56787487327318L472.84999999999997,101.65527848759729L495.3666666666666,98.56787487327318L517.8833333333333,97.02467145392148L540.4,101.65527848759729L562.9166666666667,78.54269108124782L585.4333333333334,90.85671227237191L607.95,66.2569291154756L630.4666666666667,66.2569291154756L652.9833333333333,67.7911773064667L675.5,90.85671227237191L698.0166666666668,75.46839658988421L720.5333333333333,75.46839658988421L743.0500000000001,78.54269108124782L765.5666666666666,72.3962417114538L788.0833333333334,70.86065687806553L810.6,78.54269108124782L833.1166666666667,77.00532039667337L855.6333333333333,70.86065687806553L878.15,64.72347861746056L900.6666666666666,67.7911773064667L923.1833333333334,63.19012019531834L945.6999999999999,66.2569291154756L968.2166666666667,52.46974781087317L990.7333333333332,61.657206321798185L1013.25,53.99999999999932L1035.7666666666667,55.53069519507733L1058.2833333333333,46.353866800918865L1080.8,87.77560585668067L1103.3166666666666,61.657206321798185L1125.8333333333335,57.06148153492177L1148.35,70.86065687806553L1170.8666666666668,63.19012019531834L1193.3833333333332,57.06148153492177L1215.9,67.7911773064667" style="fill: none;" fill="none"></path></g><g><path stroke="rgb(238, 51, 119)" stroke-width="2px" d="M135.1,401.87667885122823L157.61666666666667,324.0000000000006L180.13333333333333,266.33638049692746L202.65,236.1543400204443L225.16666666666666,191.98729309256876L247.6833333333333,179.43539996325146L270.2,176.3022570568385L292.7166666666667,165.35031543758447L315.23333333333335,159.1021818872738L337.75,134.183578608603L360.26666666666665,123.3187993841272L382.7833333333333,120.21836748494047L405.3,118.66918927656917L427.81666666666666,114.02366433012963L450.3333333333333,120.21836748494047L472.84999999999997,101.65527848759729L495.3666666666666,109.38186175328065L517.8833333333333,106.28994447615844L540.4,90.85671227237191L562.9166666666667,98.56787487327318L585.4333333333334,87.77560585668067L607.95,89.31611177051991L630.4666666666667,72.3962417114538L652.9833333333333,75.46839658988421L675.5,75.46839658988421L698.0166666666668,66.2569291154756L720.5333333333333,77.00532039667337L743.0500000000001,72.3962417114538L765.5666666666666,70.86065687806553L788.0833333333334,75.46839658988421L810.6,72.3962417114538L833.1166666666667,77.00532039667337L855.6333333333333,73.93227264420835L878.15,50.94029008167058L900.6666666666666,63.19012019531834L923.1833333333334,67.7911773064667L945.6999999999999,64.72347861746056L968.2166666666667,64.72347861746056L990.7333333333332,58.59306340983352L1013.25,73.93227264420835L1035.7666666666667,69.3258708204416L1058.2833333333333,72.3962417114538L1080.8,60.12508906102556L1103.3166666666666,98.56787487327318L1125.8333333333335,93.9399697585983L1148.35,77.00532039667337L1170.8666666666668,58.59306340983352L1193.3833333333332,73.93227264420835L1215.9,81.61842036680974" style="fill: none;" fill="none"></path></g><g><path stroke="rgb(204, 51, 17)" stroke-width="2px" d="M112.58333333333333,494.20648120891053L135.1,364.4175431344264L157.61666666666667,307.9190218447943L180.13333333333333,240.90846702654164L202.65,212.44761395250245L225.16666666666666,177.8687765629027L247.6833333333333,177.8687765629027L270.2,152.861781613522L292.7166666666667,134.183578608603L315.23333333333335,137.29221267966886L337.75,149.74398289923698L360.26666666666665,126.42069361777084L382.7833333333333,112.47594397888116L405.3,146.62837969398566L427.81666666666666,123.3187993841272L450.3333333333333,123.3187993841272L472.84999999999997,101.65527848759729L495.3666666666666,87.77560585668067L517.8833333333333,92.39811627183826L540.4,90.85671227237191L562.9166666666667,101.65527848759729L585.4333333333334,75.46839658988421L607.95,75.46839658988421L630.4666666666667,84.69629383675783L652.9833333333333,70.86065687806553L675.5,67.7911773064667L698.0166666666668,81.61842036680974L720.5333333333333,78.54269108124782L743.0500000000001,77.00532039667337L765.5666666666666,57.06148153492177L788.0833333333334,84.69629383675783L810.6,63.19012019531834L833.1166666666667,75.46839658988421L855.6333333333333,72.3962417114538L878.15,57.06148153492177L900.6666666666666,58.59306340983352L923.1833333333334,69.3258708204416L945.6999999999999,58.59306340983352L968.2166666666667,72.3962417114538L990.7333333333332,83.15713314234995L1013.25,69.3258708204416L1035.7666666666667,78.54269108124782L1058.2833333333333,66.2569291154756L1080.8,81.61842036680974L1103.3166666666666,70.86065687806553L1125.8333333333335,63.19012019531834L1148.35,80.08050890355037L1170.8666666666668,64.72347861746056L1193.3833333333332,89.31611177051991L1215.9,84.69629383675783" style="fill: none;" fill="none"></path></g><g><path stroke="rgb(238, 51, 119)" stroke-width="2px" d="M157.61666666666667,382.19009065688704L180.13333333333333,319.5783761019827L202.65,281.4138193283059L225.16666666666666,270.33386276206L247.6833333333333,235.66226274022515L270.2,201.21653793712807L292.7166666666667,199.6561095680126L315.23333333333335,187.18959443868707L337.75,166.9937643708942L360.26666666666665,159.24685248642967L382.7833333333333,140.6999424184305L405.3,143.7866393549002L427.81666666666666,126.8324189896546L450.3333333333333,131.45064868055016L472.84999999999997,105.33255270000899L495.3666666666666,114.5358748334524L517.8833333333333,114.5358748334524L540.4,117.60733092146035L562.9166666666667,91.55735918957834L585.4333333333334,105.33255270000899L607.95,132.99107447166008L630.4666666666667,96.145222166L652.9833333333333,97.67504005782331L675.5,82.3935586229644L698.0166666666668,71.72284574650388L720.5333333333333,96.145222166L743.0500000000001,73.24596592160174L765.5666666666666,70.20016420418631L788.0833333333334,74.76952498226427L810.6,82.3935586229644L833.1166666666667,59.554006221608404L855.6333333333333,48.928889589830305L878.15,64.11381931470538L900.6666666666666,76.29352318149421L923.1833333333334,58.0348245662895L945.6999999999999,70.20016420418631L968.2166666666667,56.51607927855707L990.7333333333332,61.07362449533895L1013.25,65.63474884936551L1035.7666666666667,51.9624591158381L1058.2833333333333,51.9624591158381L1080.8,56.51607927855707L1103.3166666666666,50.445456794492145L1125.8333333333335,54.997770107798885L1148.35,53.47989680361843L1170.8666666666668,71.72284574650388L1193.3833333333332,50.445456794492145L1215.9,70.20016420418631" style="fill: none;" fill="none"></path></g><g><path stroke="rgb(204, 51, 17)" stroke-width="2px" d="M135.1,494.81387368297806L157.61666666666667,375.7340317658104L180.13333333333333,374.12124801384624L202.65,305.2343198859746L225.16666666666666,238.80491456524612L247.6833333333333,237.23335516699026L270.2,218.41135002457563L292.7166666666667,199.6561095680126L315.23333333333335,179.41305754453168L337.75,148.41970781723683L360.26666666666665,173.19976458128528L382.7833333333333,148.41970781723683L405.3,125.29378614957426L427.81666666666666,125.29378614957426L450.3333333333333,125.29378614957426L472.84999999999997,116.07137985096313L495.3666666666666,128.37149970205758L517.8833333333333,134.53194917965294L540.4,134.53194917965294L562.9166666666667,106.86538693373717L585.4333333333334,106.86538693373717L607.95,102.26821670945435L630.4666666666667,109.93238916634454L652.9833333333333,116.07137985096313L675.5,96.145222166L698.0166666666668,83.91975621557896L720.5333333333333,85.44639446931706L743.0500000000001,93.08620457142655L765.5666666666666,100.73671443799594L788.0833333333334,86.97347363871529L810.6,71.72284574650388L833.1166666666667,88.50099397853432L855.6333333333333,70.20016420418631L878.15,96.145222166L900.6666666666666,82.3935586229644L923.1833333333334,65.63474884936551L945.6999999999999,62.593679638525884L968.2166666666667,56.51607927855707L990.7333333333332,82.3935586229644L1013.25,67.15611600785604L1035.7666666666667,65.63474884936551L1058.2833333333333,58.0348245662895L1080.8,73.24596592160174L1103.3166666666666,64.11381931470538L1125.8333333333335,65.63474884936551L1148.35,51.9624591158381L1170.8666666666668,59.554006221608404L1193.3833333333332,59.554006221608404L1215.9,61.07362449533895" style="fill: none;" fill="none"></path></g><g><path stroke="rgb(238, 51, 119)" stroke-width="2px" d="M135.1,443.91753052265574L157.61666666666667,362.84588811627214L180.13333333333333,303.64289429381176L202.65,275.0795727801309L225.16666666666666,246.6697258562212L247.6833333333333,209.02559501917008L270.2,209.02559501917008L292.7166666666667,185.6332996353904L315.23333333333335,163.8938530067605L337.75,176.30549839773195L360.26666666666665,159.24685248642967L382.7833333333333,131.45064868055016L405.3,114.5358748334524L427.81666666666666,129.9110285475977L450.3333333333333,103.80016271105728L472.84999999999997,108.39866566989042L495.3666666666666,96.145222166L517.8833333333333,108.39866566989042L540.4,94.61549214494568L562.9166666666667,97.67504005782331L585.4333333333334,90.0289557437556L607.95,99.20565563970479L630.4666666666667,97.67504005782331L652.9833333333333,79.34283800875266L675.5,82.3935586229644L698.0166666666668,85.44639446931706L720.5333333333333,86.97347363871529L743.0500000000001,100.73671443799594L765.5666666666666,64.11381931470538L788.0833333333334,91.55735918957834L810.6,73.24596592160174L833.1166666666667,77.8179607725101L855.6333333333333,70.20016420418631L878.15,65.63474884936551L900.6666666666666,61.07362449533895L923.1833333333334,51.9624591158381L945.6999999999999,56.51607927855707L968.2166666666667,70.20016420418631L990.7333333333332,77.8179607725101L1013.25,45.897410907678875L1035.7666666666667,74.76952498226427L1058.2833333333333,61.07362449533895L1080.8,39.8389608259792L1103.3166666666666,47.41275725232009L1125.8333333333335,58.0348245662895L1148.35,45.897410907678875L1170.8666666666668,42.86731812429571L1193.3833333333332,45.897410907678875L1215.9,61.07362449533895" style="fill: none;" fill="none"></path></g><g><path stroke="rgb(204, 51, 17)" stroke-width="2px" d="M135.1,435.75438801539354L157.61666666666667,369.28621982180624L180.13333333333333,290.9290720450672L202.65,260.8555681435292L225.16666666666666,259.2774419845206L247.6833333333333,223.11066441154497L270.2,215.2807925181876L292.7166666666667,173.19976458128528L315.23333333333335,153.0571981216414L337.75,162.34439899290993L360.26666666666665,151.51091603554974L382.7833333333333,129.9110285475977L405.3,129.9110285475977L427.81666666666666,119.14372830417068L450.3333333333333,114.5358748334524L472.84999999999997,120.68057225854693L495.3666666666666,114.5358748334524L517.8833333333333,109.93238916634454L540.4,113.00117147277905L562.9166666666667,102.26821670945435L585.4333333333334,108.39866566989042L607.95,88.50099397853432L630.4666666666667,79.34283800875266L652.9833333333333,94.61549214494568L675.5,93.08620457142655L698.0166666666668,68.67792104208627L720.5333333333333,85.44639446931706L743.0500000000001,85.44639446931706L765.5666666666666,76.29352318149421L788.0833333333334,77.8179607725101L810.6,67.15611600785604L833.1166666666667,65.63474884936551L855.6333333333333,80.86780143715379L878.15,70.20016420418631L900.6666666666666,59.554006221608404L923.1833333333334,77.8179607725101L945.6999999999999,80.86780143715379L968.2166666666667,58.0348245662895L990.7333333333332,67.15611600785604L1013.25,58.0348245662895L1035.7666666666667,59.554006221608404L1058.2833333333333,51.9624591158381L1080.8,62.593679638525884L1103.3166666666666,35.299674567684235L1125.8333333333335,41.35292266376331L1148.35,50.445456794492145L1170.8666666666668,45.897410907678875L1193.3833333333332,54.997770107798885L1215.9,51.9624591158381" style="fill: none;" fill="none"></path></g></g></g></g></g></g><g transform="translate(40, 378)" clip-path="url(#clip_1)"><clipPath id="clip_1"><rect width="1351" height="22"></rect></clipPath><g><g><line x1="0" y1="0" x2="0" y2="5" style="visibility: inherit;" fill="rgb(0, 0, 0)" stroke="rgb(204, 204, 204)" stroke-width="1px"></line><line x1="112.58333333333333" y1="0" x2="112.58333333333333" y2="5" style="visibility: inherit;" fill="rgb(0, 0, 0)" stroke="rgb(204, 204, 204)" stroke-width="1px"></line><line x1="225.16666666666666" y1="0" x2="225.16666666666666" y2="5" style="visibility: inherit;" fill="rgb(0, 0, 0)" stroke="rgb(204, 204, 204)" stroke-width="1px"></line><line x1="337.75" y1="0" x2="337.75" y2="5" style="visibility: inherit;" fill="rgb(0, 0, 0)" stroke="rgb(204, 204, 204)" stroke-width="1px"></line><line x1="450.3333333333333" y1="0" x2="450.3333333333333" y2="5" style="visibility: inherit;" fill="rgb(0, 0, 0)" stroke="rgb(204, 204, 204)" stroke-width="1px"></line><line x1="562.9166666666667" y1="0" x2="562.9166666666667" y2="5" style="visibility: inherit;" fill="rgb(0, 0, 0)" stroke="rgb(204, 204, 204)" stroke-width="1px"></line><line x1="675.5" y1="0" x2="675.5" y2="5" style="visibility: inherit;" fill="rgb(0, 0, 0)" stroke="rgb(204, 204, 204)" stroke-width="1px"></line><line x1="788.0833333333334" y1="0" x2="788.0833333333334" y2="5" style="visibility: inherit;" fill="rgb(0, 0, 0)" stroke="rgb(204, 204, 204)" stroke-width="1px"></line><line x1="900.6666666666666" y1="0" x2="900.6666666666666" y2="5" style="visibility: inherit;" fill="rgb(0, 0, 0)" stroke="rgb(204, 204, 204)" stroke-width="1px"></line><line x1="1013.25" y1="0" x2="1013.25" y2="5" style="visibility: inherit;" fill="rgb(0, 0, 0)" stroke="rgb(204, 204, 204)" stroke-width="1px"></line><line x1="1125.8333333333335" y1="0" x2="1125.8333333333335" y2="5" style="visibility: inherit;" fill="rgb(0, 0, 0)" stroke="rgb(204, 204, 204)" stroke-width="1px"></line><line x1="1238.4166666666665" y1="0" x2="1238.4166666666665" y2="5" style="visibility: inherit;" fill="rgb(0, 0, 0)" stroke="rgb(204, 204, 204)" stroke-width="1px"></line><line x1="1351" y1="0" x2="1351" y2="5" style="visibility: inherit;" fill="rgb(0, 0, 0)" stroke="rgb(204, 204, 204)" stroke-width="1px"></line></g><g transform="translate(0, 8)"><text x="0" y="0" dx="0em" dy="0.95em" style="text-anchor: middle; visibility: hidden; font-family: &quot;Helvetica Neue&quot;, sans-serif; font-size: 12px; font-weight: 200;" fill="rgb(50, 49, 63)" stroke="none" stroke-width="1px">-5</text><text x="112.58333333333333" y="0" dx="0em" dy="0.95em" style="text-anchor: middle; visibility: inherit; font-family: &quot;Helvetica Neue&quot;, sans-serif; font-size: 12px; font-weight: 200;" fill="rgb(50, 49, 63)" stroke="none" stroke-width="1px">0</text><text x="225.16666666666666" y="0" dx="0em" dy="0.95em" style="text-anchor: middle; visibility: inherit; font-family: &quot;Helvetica Neue&quot;, sans-serif; font-size: 12px; font-weight: 200;" fill="rgb(50, 49, 63)" stroke="none" stroke-width="1px">5</text><text x="337.75" y="0" dx="0em" dy="0.95em" style="text-anchor: middle; visibility: inherit; font-family: &quot;Helvetica Neue&quot;, sans-serif; font-size: 12px; font-weight: 200;" fill="rgb(50, 49, 63)" stroke="none" stroke-width="1px">10</text><text x="450.3333333333333" y="0" dx="0em" dy="0.95em" style="text-anchor: middle; visibility: inherit; font-family: &quot;Helvetica Neue&quot;, sans-serif; font-size: 12px; font-weight: 200;" fill="rgb(50, 49, 63)" stroke="none" stroke-width="1px">15</text><text x="562.9166666666667" y="0" dx="0em" dy="0.95em" style="text-anchor: middle; visibility: inherit; font-family: &quot;Helvetica Neue&quot;, sans-serif; font-size: 12px; font-weight: 200;" fill="rgb(50, 49, 63)" stroke="none" stroke-width="1px">20</text><text x="675.5" y="0" dx="0em" dy="0.95em" style="text-anchor: middle; visibility: inherit; font-family: &quot;Helvetica Neue&quot;, sans-serif; font-size: 12px; font-weight: 200;" fill="rgb(50, 49, 63)" stroke="none" stroke-width="1px">25</text><text x="788.0833333333334" y="0" dx="0em" dy="0.95em" style="text-anchor: middle; visibility: inherit; font-family: &quot;Helvetica Neue&quot;, sans-serif; font-size: 12px; font-weight: 200;" fill="rgb(50, 49, 63)" stroke="none" stroke-width="1px">30</text><text x="900.6666666666666" y="0" dx="0em" dy="0.95em" style="text-anchor: middle; visibility: inherit; font-family: &quot;Helvetica Neue&quot;, sans-serif; font-size: 12px; font-weight: 200;" fill="rgb(50, 49, 63)" stroke="none" stroke-width="1px">35</text><text x="1013.25" y="0" dx="0em" dy="0.95em" style="text-anchor: middle; visibility: inherit; font-family: &quot;Helvetica Neue&quot;, sans-serif; font-size: 12px; font-weight: 200;" fill="rgb(50, 49, 63)" stroke="none" stroke-width="1px">40</text><text x="1125.8333333333335" y="0" dx="0em" dy="0.95em" style="text-anchor: middle; visibility: inherit; font-family: &quot;Helvetica Neue&quot;, sans-serif; font-size: 12px; font-weight: 200;" fill="rgb(50, 49, 63)" stroke="none" stroke-width="1px">45</text><text x="1238.4166666666665" y="0" dx="0em" dy="0.95em" style="text-anchor: middle; visibility: inherit; font-family: &quot;Helvetica Neue&quot;, sans-serif; font-size: 12px; font-weight: 200;" fill="rgb(50, 49, 63)" stroke="none" stroke-width="1px">50</text><text x="1351" y="0" dx="0em" dy="0.95em" style="text-anchor: middle; visibility: hidden; font-family: &quot;Helvetica Neue&quot;, sans-serif; font-size: 12px; font-weight: 200;" fill="rgb(50, 49, 63)" stroke="none" stroke-width="1px">55</text></g><line x1="0" y1="0" x2="1351" y2="0" fill="rgb(0, 0, 0)" stroke="rgb(204, 204, 204)" stroke-width="1px"></line></g></g></g></g></svg>