<svg viewBox="0 0 330 200" xmlns="http://www.w3.org/2000/svg"><g><g><g><g><g><line x1="50" y1="178" x2="45" y2="178" style="visibility: inherit;" fill="rgb(0, 0, 0)" stroke="rgb(204, 204, 204)" stroke-width="1px"></line><line x1="50" y1="160.20000000000002" x2="45" y2="160.20000000000002" style="visibility: inherit;" fill="rgb(0, 0, 0)" stroke="rgb(204, 204, 204)" stroke-width="1px"></line><line x1="50" y1="142.4" x2="45" y2="142.4" style="visibility: inherit;" fill="rgb(0, 0, 0)" stroke="rgb(204, 204, 204)" stroke-width="1px"></line><line x1="50" y1="124.6" x2="45" y2="124.6" style="visibility: inherit;" fill="rgb(0, 0, 0)" stroke="rgb(204, 204, 204)" stroke-width="1px"></line><line x1="50" y1="106.8" x2="45" y2="106.8" style="visibility: inherit;" fill="rgb(0, 0, 0)" stroke="rgb(204, 204, 204)" stroke-width="1px"></line><line x1="50" y1="89" x2="45" y2="89" style="visibility: inherit;" fill="rgb(0, 0, 0)" stroke="rgb(204, 204, 204)" stroke-width="1px"></line><line x1="50" y1="71.2" x2="45" y2="71.2" style="visibility: inherit;" fill="rgb(0, 0, 0)" stroke="rgb(204, 204, 204)" stroke-width="1px"></line><line x1="50" y1="53.400000000000006" x2="45" y2="53.400000000000006" style="visibility: inherit;" fill="rgb(0, 0, 0)" stroke="rgb(204, 204, 204)" stroke-width="1px"></line><line x1="50" y1="35.599999999999994" x2="45" y2="35.599999999999994" style="visibility: inherit;" fill="rgb(0, 0, 0)" stroke="rgb(204, 204, 204)" stroke-width="1px"></line><line x1="50" y1="17.799999999999997" x2="45" y2="17.799999999999997" style="visibility: inherit;" fill="rgb(0, 0, 0)" stroke="rgb(204, 204, 204)" stroke-width="1px"></line><line x1="50" y1="0" x2="45" y2="0" style="visibility: inherit;" fill="rgb(0, 0, 0)" stroke="rgb(204, 204, 204)" stroke-width="1px"></line></g><g transform="translate(40, 0)"><text x="0" y="178" dx="0em" dy="0.3em" style="text-anchor: end; visibility: hidden; font-family: Roboto, sans-serif; font-size: 12px; font-weight: 200;" fill="rgb(50, 49, 63)" stroke="none" stroke-width="1px">-0.5</text><text x="0" y="160.20000000000002" dx="0em" dy="0.3em" style="text-anchor: end; visibility: inherit; font-family: Roboto, sans-serif; font-size: 12px; font-weight: 200;" fill="rgb(50, 49, 63)" stroke="none" stroke-width="1px">0</text><text x="0" y="142.4" dx="0em" dy="0.3em" style="text-anchor: end; visibility: hidden; font-family: Roboto, sans-serif; font-size: 12px; font-weight: 200;" fill="rgb(50, 49, 63)" stroke="none" stroke-width="1px">0.5</text><text x="0" y="124.6" dx="0em" dy="0.3em" style="text-anchor: end; visibility: inherit; font-family: Roboto, sans-serif; font-size: 12px; font-weight: 200;" fill="rgb(50, 49, 63)" stroke="none" stroke-width="1px">1</text><text x="0" y="106.8" dx="0em" dy="0.3em" style="text-anchor: end; visibility: hidden; font-family: Roboto, sans-serif; font-size: 12px; font-weight: 200;" fill="rgb(50, 49, 63)" stroke="none" stroke-width="1px">1.5</text><text x="0" y="89" dx="0em" dy="0.3em" style="text-anchor: end; visibility: inherit; font-family: Roboto, sans-serif; font-size: 12px; font-weight: 200;" fill="rgb(50, 49, 63)" stroke="none" stroke-width="1px">2</text><text x="0" y="71.2" dx="0em" dy="0.3em" style="text-anchor: end; visibility: hidden; font-family: Roboto, sans-serif; font-size: 12px; font-weight: 200;" fill="rgb(50, 49, 63)" stroke="none" stroke-width="1px">2.5</text><text x="0" y="53.400000000000006" dx="0em" dy="0.3em" style="text-anchor: end; visibility: inherit; font-family: Roboto, sans-serif; font-size: 12px; font-weight: 200;" fill="rgb(50, 49, 63)" stroke="none" stroke-width="1px">3</text><text x="0" y="35.599999999999994" dx="0em" dy="0.3em" style="text-anchor: end; visibility: hidden; font-family: Roboto, sans-serif; font-size: 12px; font-weight: 200;" fill="rgb(50, 49, 63)" stroke="none" stroke-width="1px">3.5</text><text x="0" y="17.799999999999997" dx="0em" dy="0.3em" style="text-anchor: end; visibility: inherit; font-family: Roboto, sans-serif; font-size: 12px; font-weight: 200;" fill="rgb(50, 49, 63)" stroke="none" stroke-width="1px">4</text><text x="0" y="0" dx="0em" dy="0.3em" style="text-anchor: end; visibility: hidden; font-family: Roboto, sans-serif; font-size: 12px; font-weight: 200;" fill="rgb(50, 49, 63)" stroke="none" stroke-width="1px">4.5</text></g><line x1="50" y1="0" x2="50" y2="178" fill="rgb(0, 0, 0)" stroke="rgb(204, 204, 204)" stroke-width="1px"></line></g></g><g transform="translate(50, 0)" clip-path="url(#clip_0)"><clipPath id="clip_0"><rect width="280" height="178"></rect></clipPath><g><g><g><line x1="0" y1="0" x2="0" y2="178" fill="rgb(0, 0, 0)" stroke="rgb(60, 60, 60)" stroke-width="1px" opacity="0.25"></line><line x1="23.333333333333332" y1="0" x2="23.333333333333332" y2="178" fill="rgb(0, 0, 0)" stroke="rgb(60, 60, 60)" stroke-width="1px" opacity="0.25"></line><line x1="46.666666666666664" y1="0" x2="46.666666666666664" y2="178" fill="rgb(0, 0, 0)" stroke="rgb(60, 60, 60)" stroke-width="1px" opacity="0.25"></line><line x1="70" y1="0" x2="70" y2="178" fill="rgb(0, 0, 0)" stroke="rgb(60, 60, 60)" stroke-width="1px" opacity="0.25"></line><line x1="93.33333333333333" y1="0" x2="93.33333333333333" y2="178" fill="rgb(0, 0, 0)" stroke="rgb(60, 60, 60)" stroke-width="1px" opacity="0.25"></line><line x1="116.66666666666667" y1="0" x2="116.66666666666667" y2="178" fill="rgb(0, 0, 0)" stroke="rgb(60, 60, 60)" stroke-width="1px" opacity="0.25"></line><line x1="140" y1="0" x2="140" y2="178" fill="rgb(0, 0, 0)" stroke="rgb(60, 60, 60)" stroke-width="1px" opacity="0.25"></line><line x1="163.33333333333334" y1="0" x2="163.33333333333334" y2="178" fill="rgb(0, 0, 0)" stroke="rgb(60, 60, 60)" stroke-width="1px" opacity="0.25"></line><line x1="186.66666666666666" y1="0" x2="186.66666666666666" y2="178" fill="rgb(0, 0, 0)" stroke="rgb(60, 60, 60)" stroke-width="1px" opacity="0.25"></line><line x1="210" y1="0" x2="210" y2="178" fill="rgb(0, 0, 0)" stroke="rgb(60, 60, 60)" stroke-width="1px" opacity="0.25"></line><line x1="233.33333333333334" y1="0" x2="233.33333333333334" y2="178" fill="rgb(0, 0, 0)" stroke="rgb(60, 60, 60)" stroke-width="1px" opacity="0.25"></line><line x1="256.66666666666663" y1="0" x2="256.66666666666663" y2="178" fill="rgb(0, 0, 0)" stroke="rgb(60, 60, 60)" stroke-width="1px" opacity="0.25"></line><line x1="280" y1="0" x2="280" y2="178" fill="rgb(0, 0, 0)" stroke="rgb(60, 60, 60)" stroke-width="1px" opacity="0.25"></line></g><g><line x1="0" y1="178" x2="280" y2="178" fill="rgb(0, 0, 0)" stroke="rgb(60, 60, 60)" stroke-width="1px" opacity="0.25"></line><line x1="0" y1="160.20000000000002" x2="280" y2="160.20000000000002" fill="rgb(0, 0, 0)" stroke="rgb(60, 60, 60)" stroke-width="1px" opacity="0.25"></line><line x1="0" y1="142.4" x2="280" y2="142.4" fill="rgb(0, 0, 0)" stroke="rgb(60, 60, 60)" stroke-width="1px" opacity="0.25"></line><line x1="0" y1="124.6" x2="280" y2="124.6" fill="rgb(0, 0, 0)" stroke="rgb(60, 60, 60)" stroke-width="1px" opacity="0.25"></line><line x1="0" y1="106.8" x2="280" y2="106.8" fill="rgb(0, 0, 0)" stroke="rgb(60, 60, 60)" stroke-width="1px" opacity="0.25"></line><line x1="0" y1="89" x2="280" y2="89" fill="rgb(0, 0, 0)" stroke="rgb(60, 60, 60)" stroke-width="1px" opacity="0.25"></line><line x1="0" y1="71.2" x2="280" y2="71.2" fill="rgb(0, 0, 0)" stroke="rgb(60, 60, 60)" stroke-width="1px" opacity="0.25"></line><line x1="0" y1="53.400000000000006" x2="280" y2="53.400000000000006" fill="rgb(0, 0, 0)" stroke="rgb(60, 60, 60)" stroke-width="1px" opacity="0.25"></line><line x1="0" y1="35.599999999999994" x2="280" y2="35.599999999999994" fill="rgb(0, 0, 0)" stroke="rgb(60, 60, 60)" stroke-width="1px" opacity="0.25"></line><line x1="0" y1="17.799999999999997" x2="280" y2="17.799999999999997" fill="rgb(0, 0, 0)" stroke="rgb(60, 60, 60)" stroke-width="1px" opacity="0.25"></line><line x1="0" y1="0" x2="280" y2="0" fill="rgb(0, 0, 0)" stroke="rgb(60, 60, 60)" stroke-width="1px" opacity="0.25"></line></g></g></g><g><g><line x1="0" y1="160.20000000000002" x2="280" y2="160.20000000000002" fill="rgb(0, 0, 0)" stroke="rgb(153, 153, 153)" stroke-width="1.5px"></line></g></g><g><g><line x1="23.333333333333332" y1="0" x2="23.333333333333332" y2="178" fill="rgb(0, 0, 0)" stroke="rgb(153, 153, 153)" stroke-width="1.5px"></line></g></g><g><g><g><g><g><path stroke="rgb(255, 112, 67)" stroke-width="2px" d="M23.333333333333332,94.15567173957825L28,106.84389149546624L32.666666666666664,116.35044971485527L37.333333333333336,123.29345236034955L42,128.38214416268963L46.666666666666664,132.25138738193777L51.33333333333333,135.14756048426383L56,137.2983357830876L60.66666666666667,139.04084491761603L65.33333333333333,140.4162252152431L70,141.66625600670685L74.66666666666667,142.63125799473346L79.33333333333333,143.30868854982634L84,143.9457842916919L88.66666666666666,144.45142906286603L93.33333333333333,144.91623832805703L98,145.4022916524055L102.66666666666666,145.7752767357372L107.33333333333334,146.12944592196055L112,146.44219825974793L116.66666666666667,146.64460490257167L121.33333333333334,146.96641106091562L126,147.2192879493905L130.66666666666666,147.4760995335331L135.33333333333334,147.65433540633109L140,147.8394017866533L144.66666666666669,147.9334023347732L149.33333333333334,148.17997688362854L154,148.32162576118785L158.66666666666666,148.50097115428213L163.33333333333334,148.66798294608384L168,148.7571407164041L172.66666666666669,148.9186723598429L177.33333333333331,149.0351160254813L182,149.1166935533443L186.66666666666666,149.24140468786595L191.33333333333334,149.3986320955377L196,149.46734162253748L200.66666666666666,149.60153949816686L205.33333333333331,149.69813392985657L210,149.74848391077262L214.66666666666669,149.82846493165374L219.33333333333334,149.8934582295646L224,150.01101340192386L228.66666666666666,150.07105358444974L233.33333333333334,150.10674497606576L238,150.19297826482511L242.66666666666669,150.32362839814513L247.33333333333331,150.45348408005705L252,150.50082436431725" style="fill: none;" fill="none"></path></g><g><path stroke="rgb(187, 187, 187)" stroke-width="2px" d="M23.333333333333332,76.61648607254028L28,93.83078587055206L32.666666666666664,106.73887244049384L37.333333333333336,116.20287950512241L42,123.07368127369865L46.666666666666664,128.2119690644946L51.33333333333333,132.03092835351305L56,134.9899335535573L60.66666666666667,137.19968357716604L65.33333333333333,138.92256514128022L70,140.29053591506676L74.66666666666667,141.42698264307074L79.33333333333333,142.3714714440182L84,143.23696468075576L88.66666666666666,143.88477187270465L93.33333333333333,144.53171671541628L98,145.06733348653412L102.66666666666666,145.55652850894361L107.33333333333334,146.01601951342926L112,146.39581057230552L116.66666666666667,146.7716834364296L121.33333333333334,147.0711909935826L126,147.41211222506914L130.66666666666666,147.74241507457322L135.33333333333334,147.99857161634236L140,148.26502183466016L144.66666666666669,148.520944119299L149.33333333333334,148.7252448959895L154,148.98615025142314L158.66666666666666,149.18941481470213L163.33333333333334,149.34661616240447L168,149.58187652406573L172.66666666666669,149.77511623815067L177.33333333333331,149.93842949927088L182,150.05472882029807L186.66666666666666,150.2443585763308L191.33333333333334,150.42049726892833L196,150.58355055541338L200.66666666666666,150.75105000467985L205.33333333333331,150.8952528486504L210,151.07362357927883L214.66666666666669,151.19587783434028L219.33333333333334,151.31627453341406L224,151.42497359620023L228.66666666666666,151.52665619914688L233.33333333333334,151.6635048584127L238,151.77862505889271L242.66666666666669,151.93741175876218L247.33333333333331,152.05934152690432L252,152.15796227984427" style="fill: none;" fill="none"></path></g><g><path stroke="rgb(0, 153, 136)" stroke-width="2px" d="M23.333333333333332,142.9490259051323L28,145.4029861599207L32.666666666666664,147.00214313049705L37.333333333333336,148.19020727346924L42,149.05329127011407L46.666666666666664,149.77798285189493L51.33333333333333,150.3786603305108L56,150.85326864851942L60.66666666666667,151.27634358025827L65.33333333333333,151.59089219299344L70,151.90072005398792L74.66666666666667,152.10444383167712L79.33333333333333,152.30431665953506L84,152.49175343810978L88.66666666666666,152.64033194994587L93.33333333333333,152.75834099070582L98,152.8491609569903L102.66666666666666,152.91046705338744L107.33333333333334,153.01089032862592L112,153.05515596568665L116.66666666666667,153.07394492418254L121.33333333333334,153.19656965599196L126,153.21039381612553L130.66666666666666,153.24269688051422L135.33333333333334,153.30103982776382L140,153.30900511246654L144.66666666666669,153.26586478527764L149.33333333333334,153.28961821093347L154,153.32916552626415L158.66666666666666,153.33043926269156L163.33333333333334,153.34000461532597L168,153.34280432266777L172.66666666666669,153.3670907163462L177.33333333333331,153.33573814444367L182,153.33639484294963L186.66666666666666,153.34654186765115L191.33333333333334,153.33882907981726L196,153.30571540793434L200.66666666666666,153.29253233072595L205.33333333333331,153.2928844129891L210,153.2340197750961L214.66666666666669,153.19788171701094L219.33333333333334,153.1622448888465L224,153.11295735161906L228.66666666666666,153.11180356336467L233.33333333333334,153.11016554828174L238,153.0162920617765L242.66666666666669,152.96202369115863L247.33333333333331,152.9284732149961L252,152.9141315416646" style="fill: none;" fill="none"></path></g><g><path stroke="rgb(238, 51, 119)" stroke-width="2px" d="M23.333333333333332,126.15283133983613L28,137.6731599584222L32.666666666666664,142.74926003582624L37.333333333333336,145.78420977509197L42,147.90560140729696L46.666666666666664,149.50484795729707L51.33333333333333,150.7362621208033L56,151.67817149301675L60.66666666666667,152.49464384521735L65.33333333333333,153.135764825402L70,153.65384957745633L74.66666666666667,154.10145125175444L79.33333333333333,154.48312499124032L84,154.85501484373842L88.66666666666666,155.16560407880226L93.33333333333333,155.4214947033005L98,155.66421665878767L102.66666666666666,155.89429821774965L107.33333333333334,156.0856791660901L112,156.23057902619374L116.66666666666667,156.38779536715543L121.33333333333334,156.51939549825684L126,156.63427820560722L130.66666666666666,156.75743861356992L135.33333333333334,156.88996217591077L140,157.0035548880783L144.66666666666669,157.08512659643776L149.33333333333334,157.13300340597235L154,157.2161734292847L158.66666666666666,157.3082602638896L163.33333333333334,157.39777126539312L168,157.4830280266222L172.66666666666669,157.52875875584206L177.33333333333331,157.53371592268795L182,157.60286129894777L186.66666666666666,157.73572786100416L191.33333333333334,157.7026963222826L196,157.770682564559L200.66666666666666,157.78948925331397L205.33333333333331,157.831676138667L210,157.8741635580569L214.66666666666669,157.87279667852513L219.33333333333334,157.89580969810072L224,157.94314069450473L228.66666666666666,158.02356338502156L233.33333333333334,158.059860056052L238,157.99417203033283L242.66666666666669,158.07145980456238L247.33333333333331,158.08608777617692L252,158.08642794308233" style="fill: none;" fill="none"></path></g><g><path stroke="rgb(51, 187, 238)" stroke-width="2px" d="M23.333333333333332,149.17477823495867L28,150.38202909827234L32.666666666666664,150.96650531742037L37.333333333333336,151.435197356409L42,151.44863980014568L46.666666666666664,151.09240338760964L51.33333333333333,151.02050689899482L56,150.7619681771341L60.66666666666667,150.30918520363812L65.33333333333333,150.30140279517477L70,149.90572247429313L74.66666666666667,149.67586093479855L79.33333333333333,149.11021105142152L84,148.57401199733624L88.66666666666666,148.01203395215947L93.33333333333333,147.6674808970964L98,147.21744891053692L102.66666666666666,146.64689547076375L107.33333333333334,146.43695771208567L112,146.05049343188458L116.66666666666667,145.75707950709122L121.33333333333334,145.22376199735243L126,144.63754184879153L130.66666666666666,144.61117544458406L135.33333333333334,144.17703600650907L140,143.83045501672228L144.66666666666669,143.12367262005293L149.33333333333334,143.0570099371157L154,142.56814349385908L158.66666666666666,141.7429952888967L163.33333333333334,141.63905885922796L168,140.94766746685588L172.66666666666669,141.156991097943L177.33333333333331,141.03913167473715L182,141.12463726284295L186.66666666666666,140.66075071382193L191.33333333333334,140.2498086372673L196,140.10146222534289L200.66666666666666,139.5191126740267L205.33333333333331,139.2968504089895L210,139.06598294113138L214.66666666666669,138.77334702199954L219.33333333333334,138.74464429488702L224,138.48215609707412L228.66666666666666,138.31829740235278L233.33333333333334,137.8304798699854L238,137.44963608367436L242.66666666666669,137.1746851097474L247.33333333333331,136.74110848252963L252,136.43679165926324" style="fill: none;" fill="none"></path></g><g><path stroke="rgb(204, 51, 17)" stroke-width="2px" d="M23.333333333333332,141.830814743042L28,148.2963348902762L32.666666666666664,151.2260402484816L37.333333333333336,153.00907312887995L42,154.32007280038223L46.666666666666664,155.2885934925633L51.33333333333333,155.72426750006935L56,156.030737400468L60.66666666666667,156.3041976464934L65.33333333333333,156.63180900823536L70,156.69309827028033L74.66666666666667,156.93452798789744L79.33333333333333,156.9236279453394L84,156.89406161352287L88.66666666666666,156.92608301054588L93.33333333333333,157.03066559281046L98,156.93329885365847L102.66666666666666,157.04159063421912L107.33333333333334,156.94035520408738L112,157.06104585631238L116.66666666666667,157.10671739455174L121.33333333333334,157.02224117476854L126,156.96520008911295L130.66666666666666,157.19551889876004L135.33333333333334,157.26308206084863L140,157.49036348348176L144.66666666666669,157.3169761855151L149.33333333333334,157.19068151459444L154,157.08398988932385L158.66666666666666,157.0137508004L163.33333333333334,157.05091050814306L168,157.03491915426963L172.66666666666669,157.0088938495744L177.33333333333331,156.99031486822952L182,157.04673934505297L186.66666666666666,157.09921137938926L191.33333333333334,157.16812515092838L196,156.98916281534113L200.66666666666666,156.88166213055072L205.33333333333331,156.72316488256496L210,156.65136760843265L214.66666666666669,156.68917258248044L219.33333333333334,156.81595160169277L224,156.74674383402385L228.66666666666666,156.91362290503636L233.33333333333334,156.98462893797637L238,157.08369465729177L242.66666666666669,157.06824073350742L247.33333333333331,157.00065320227242L252,157.07289480861303" style="fill: none;" fill="none"></path></g><g><path stroke="rgb(0, 119, 187)" stroke-width="2px" d="M23.333333333333332,97.19715042114258L28,92.91724554896355L32.666666666666664,98.88092677058005L37.333333333333336,98.29924474884484L42,98.60948050870903L46.666666666666664,98.18103299727373L51.33333333333333,95.73570874297637L56,91.2457579415404L60.66666666666667,88.18548827521006L65.33333333333333,86.04442327135936L70,83.39527543060923L74.66666666666667,78.53516224295514L79.33333333333333,78.43974557501929L84,77.1273199493853L88.66666666666666,75.43165708760316L93.33333333333333,69.30045106487627L98,70.71031751738725L102.66666666666666,70.97187114180029L107.33333333333334,67.24590162094363L112,64.72258581636213L116.66666666666667,62.47891772926042L121.33333333333334,54.556105570935415L126,51.56527229903574L130.66666666666666,50.330632100453386L135.33333333333334,44.65668038980608L140,40.63495039393285L144.66666666666669,38.53046202469688L149.33333333333334,39.04958105380877L154,38.34428297934719L158.66666666666666,37.19639024306768L163.33333333333334,33.68305600037328L168,29.674221289292074L172.66666666666669,29.480299709200363L177.33333333333331,23.878830681266862L182,21.75006826199675L186.66666666666666,15.810397570128092L191.33333333333334,11.554718511467469L196,10.32055792419721L200.66666666666666,8.54735275593887L205.33333333333331,3.3477258403383194L210,3.9248325566678224L214.66666666666669,-1.392963856619938" style="fill: none;" fill="none"></path></g><g><path stroke="rgb(255, 112, 67)" stroke-width="2px" d="M23.333333333333332,69.9790696144104L28,94.31216638684273L32.666666666666664,108.5179832585004L37.333333333333336,115.59838578473119L42,120.44005485603496L46.666666666666664,124.59963771258467L51.33333333333333,127.62069091142133L56,129.84055426681942L60.66666666666667,131.06425054430184L65.33333333333333,132.65719178512558L70,134.14326980803466L74.66666666666667,134.16697082273345L79.33333333333333,132.6362853381509L84,135.00664094025632L88.66666666666666,134.52805258986365L93.33333333333333,135.20986044153625L98,135.24215217097256L102.66666666666666,135.59532288858864L107.33333333333334,134.8249974777436L112,134.47742722332393L116.66666666666667,135.04715525825287L121.33333333333334,135.53998821744773L126,135.87390850660972L130.66666666666666,134.93671742940197L135.33333333333334,136.2414370333601L140,135.17386457221133L144.66666666666669,135.41609164291623L149.33333333333334,136.30738000894536L154,135.92701516456623L158.66666666666666,136.20427642459185L163.33333333333334,136.38158821904906L168,136.27982372334867L172.66666666666669,136.74945009978805L177.33333333333331,135.72166945631375L182,136.56622002441205L186.66666666666666,135.27155623720964L191.33333333333334,135.17899657363162L196,135.30488963814315L200.66666666666666,136.7525795437864L205.33333333333331,135.96119260550873L210,135.6815207083446L214.66666666666669,134.8355001492853L219.33333333333334,134.0206415104632L224,133.83780217690665L228.66666666666666,133.14093042678383L233.33333333333334,132.8889507369048L238,133.83765104749455L242.66666666666669,134.18977535331237L247.33333333333331,132.62508923387796L252,133.7661285315622" style="fill: none;" fill="none"></path></g></g></g></g><g opacity="0.2"><g><g><g><path stroke="rgb(255, 112, 67)" stroke-width="2px" d="M23.333333333333332,94.15567173957825L28,114.45682334899902L32.666666666666664,125.47674560546875L37.333333333333336,131.4584234714508L42,135.02594017982483L46.666666666666664,137.6039436817169L51.33333333333333,139.28913435935974L56,140.43418681621552L60.66666666666667,141.61070742607117L65.33333333333333,142.4585046648979L70,143.52996450662613L74.66666666666667,144.07350947856904L79.33333333333333,144.3226224541664L84,144.90017976760865L88.66666666666666,145.20930185317994L93.33333333333333,145.61312440633773L98,146.13116595745086L102.66666666666666,146.33465965986252L107.33333333333334,146.66064574718476L112,146.91129817962647L116.66666666666667,146.94820376634598L121.33333333333334,147.44910970926284L126,147.59859828948973L130.66666666666666,147.86131386756895L135.33333333333334,147.92168794870375L140,148.11700056791304L144.66666666666669,148.0744029164314L149.33333333333334,148.54983832836152L154,148.5340989470482L158.66666666666666,148.7699891448021L163.33333333333334,148.91850057840347L168,148.89087735414503L172.66666666666669,149.16096980571749L177.33333333333331,149.20978151559828L182,149.23905984163284L186.66666666666666,149.42847138643265L191.33333333333334,149.63447320461273L196,149.5704059123993L200.66666666666666,149.8028363108635L205.33333333333331,149.84302557706835L210,149.82400888204575L214.66666666666669,149.9484364628792L219.33333333333334,149.99094817638397L224,150.18734616041183L228.66666666666666,150.16111385822296L233.33333333333334,150.16028206348417L238,150.32232819795607L242.66666666666669,150.5196035981178L247.33333333333331,150.64826760292053L252,150.57183479070662" style="fill: none;" fill="none"></path></g><g><path stroke="rgb(187, 187, 187)" stroke-width="2px" d="M23.333333333333332,76.61648607254028L28,104.15936574935913L32.666666666666664,119.13063554763794L37.333333333333336,127.3325518131256L42,132.04420006275177L46.666666666666664,135.32007086277008L51.33333333333333,137.49210124015806L56,139.30419154167177L60.66666666666667,140.45863564014437L65.33333333333333,141.48084347248076L70,142.33008468151093L74.66666666666667,143.1254682421684L79.33333333333333,143.7851207256317L84,144.5335089445114L88.66666666666666,144.85572118759157L93.33333333333333,145.50167770385744L98,145.87053198814394L102.66666666666666,146.29019683599472L107.33333333333334,146.705186021328L112,146.96546244621277L116.66666666666667,147.33547211885454L121.33333333333334,147.52044247388838L126,147.92348734140396L130.66666666666666,148.2378654360771L135.33333333333334,148.38280460834503L140,148.66469602584837L144.66666666666669,148.9048268914223L149.33333333333334,149.0316957473755L154,149.37750804424286L158.66666666666666,149.49431154727935L163.33333333333334,149.5824181318283L168,149.9347670197487L172.66666666666669,150.0649757862091L177.33333333333331,150.1833993792534L182,150.22917779684067L186.66666666666666,150.5288032054901L191.33333333333334,150.68470530509947L196,150.82813048362732L200.66666666666666,151.00229917764662L205.33333333333331,151.11155711412428L210,151.3411796748638L214.66666666666669,151.3792592167854L219.33333333333334,151.49686958193777L224,151.5880221903324L228.66666666666666,151.6791801035404L233.33333333333334,151.86877784729003L238,151.95130535960197L242.66666666666669,152.17559180855753L247.33333333333331,152.2422361791134L252,152.30589340925215" style="fill: none;" fill="none"></path></g><g><path stroke="rgb(0, 153, 136)" stroke-width="2px" d="M23.333333333333332,142.9490259051323L28,146.87536231279373L32.666666666666664,148.53733382225036L37.333333333333336,149.58737070560457L42,150.18013373613357L46.666666666666664,150.78049219846727L51.33333333333333,151.23763873577118L56,151.54525213241575L60.66666666666667,151.9002969264984L65.33333333333333,152.05796022415163L70,152.36265172958375L74.66666666666667,152.40892084240912L79.33333333333333,152.60347328186035L84,152.77254139781L88.66666666666666,152.86302506923676L93.33333333333333,152.9352713227272L98,152.98535247445105L102.66666666666666,153.00241063237192L107.33333333333334,153.16150994300844L112,153.12155037522317L116.66666666666667,153.10212733149527L121.33333333333334,153.38050271868704L126,153.23112978339194L130.66666666666666,153.29115109443663L135.33333333333334,153.38855383396148L140,153.3209530055523L144.66666666666669,153.20115440487862L149.33333333333334,153.32524831295015L154,153.38848646283148L158.66666666666666,153.33234986662865L163.33333333333334,153.35435264110563L168,153.3470038831234L172.66666666666669,153.4035203039646L177.33333333333331,153.28870928883552L182,153.3373798906803L186.66666666666666,153.36176240444183L191.33333333333334,153.32725989818573L196,153.25604490041732L200.66666666666666,153.2727577149868L205.33333333333331,153.29341253638268L210,153.14572281837465L214.66666666666669,153.14367462992666L219.33333333333334,153.10878964662552L224,153.03902604579926L228.66666666666666,153.11007288098335L233.33333333333334,153.10770852565767L238,152.87548183202742L242.66666666666669,152.88062113523483L247.33333333333331,152.87814750075339L252,152.8926190316677" style="fill: none;" fill="none"></path></g><g><path stroke="rgb(238, 51, 119)" stroke-width="2px" d="M23.333333333333332,126.15283133983613L28,144.58535712957382L32.666666666666664,147.6223161101341L37.333333333333336,149.35331066846848L42,150.67529032230377L46.666666666666664,151.7171816647053L51.33333333333333,152.49720407724382L56,153.05148440003396L60.66666666666667,153.69878197312354L65.33333333333333,154.0877547621727L70,154.4262777149677L74.66666666666667,154.77041793465614L79.33333333333333,155.05438936948778L84,155.41212105154992L88.66666666666666,155.63112284541128L93.33333333333333,155.8051501661539L98,156.02819688022137L102.66666666666666,156.23936213850973L107.33333333333334,156.37272143363953L112,156.447915571928L116.66666666666667,156.62361125648022L121.33333333333334,156.71679136455057L126,156.80659999847413L130.66666666666666,156.9421777665615L135.33333333333334,157.0887465775013L140,157.1739434719086L144.66666666666669,157.20748395025728L149.33333333333334,157.204818546772L154,157.34092838764192L158.66666666666666,157.44639046490192L163.33333333333334,157.53203773796557L168,157.61091315150261L172.66666666666669,157.59735484421253L177.33333333333331,157.5411516726017L182,157.70657936036585L186.66666666666666,157.93502770066263L191.33333333333334,157.65314901471137L196,157.87266192734242L200.66666666666666,157.81769928634165L205.33333333333331,157.8949564665556L210,157.93789468705654L214.66666666666669,157.8707463592291L219.33333333333334,157.93032922744752L224,158.01413718909023L228.66666666666666,158.1441974207759L233.33333333333334,158.11430506259202L238,157.89563999176025L242.66666666666669,158.18739146590232L247.33333333333331,158.10802973359822L252,158.08693819344043" style="fill: none;" fill="none"></path></g><g><path stroke="rgb(51, 187, 238)" stroke-width="2px" d="M23.333333333333332,149.17477823495867L28,151.1063796162605L32.666666666666664,151.5276024878025L37.333333333333336,151.98637919425963L42,151.46619025468826L46.666666666666664,150.59960018396376L51.33333333333333,150.9176937699318L56,150.38501623868942L60.66666666666667,149.64141826629637L65.33333333333333,150.28984682559965L70,149.315790784359L74.66666666666667,149.332319521904L79.33333333333333,148.26358317136763L84,147.7707638859749L88.66666666666666,147.1697274684906L93.33333333333333,147.15089432001113L98,146.54259136915206L102.66666666666666,145.79121017456055L107.33333333333334,146.12208305597304L112,145.47083233594893L116.66666666666667,145.31697471141817L121.33333333333334,144.42380328178407L126,143.75822319984437L130.66666666666666,144.57162615060807L135.33333333333334,143.52582993507386L140,143.3105850100517L144.66666666666669,142.06350083351137L149.33333333333334,142.9570160150528L154,141.83484427928923L158.66666666666666,140.5052734375L163.33333333333334,141.4831542491913L168,139.9105805158615L172.66666666666669,141.47097651958464L177.33333333333331,140.86234254837038L182,141.2528956413269L186.66666666666666,139.9649209022522L191.33333333333334,139.63339552879333L196,139.8789426088333L200.66666666666666,138.64558835029604L205.33333333333331,138.96345701217652L210,138.71968173980713L214.66666666666669,138.33439314365387L219.33333333333334,138.7015902042389L224,138.08842380046846L228.66666666666666,138.07250936031343L233.33333333333334,137.09875357151031L238,136.87837040424347L242.66666666666669,136.76225864887238L247.33333333333331,136.09074354171753L252,135.98031642436982" style="fill: none;" fill="none"></path></g><g><path stroke="rgb(204, 51, 17)" stroke-width="2px" d="M23.333333333333332,141.830814743042L28,152.1756469786167L32.666666666666664,154.0385573923588L37.333333333333336,155.1059197962284L42,156.03171397149563L46.666666666666664,156.62840627729892L51.33333333333333,156.3472883015871L56,156.47757345736025L60.66666666666667,156.70749839246272L65.33333333333333,157.1182736992836L70,156.78447627425194L74.66666666666667,157.29535871446134L79.33333333333333,156.90731347203254L84,156.84977003932L88.66666666666666,156.97407746613024L93.33333333333333,157.18746570646763L98,156.78728994727135L102.66666666666666,157.2040008097887L107.33333333333334,156.78851748108863L112,157.24207080304623L116.66666666666667,157.17522219717503L121.33333333333334,156.89552962481977L126,156.8796395868063L130.66666666666666,157.54099438488484L135.33333333333334,157.36442632377148L140,157.83128464818L144.66666666666669,157.0568956822157L149.33333333333334,157.00123970210552L154,156.92395254969597L158.66666666666666,156.9083922058344L163.33333333333334,157.10665005743502L168,157.01093212664128L172.66666666666669,156.96985589563846L177.33333333333331,156.96244639754295L182,157.13137605786324L186.66666666666666,157.17791942954065L191.33333333333334,157.27149580717085L196,156.72071931362152L200.66666666666666,156.72041110396387L205.33333333333331,156.48541901111602L210,156.54367169737816L214.66666666666669,156.74588004350662L219.33333333333334,157.00612013041973L224,156.64293218255042L228.66666666666666,157.1639415115118L233.33333333333334,157.09113798737528L238,157.23229323625563L242.66666666666669,157.0450598478317L247.33333333333331,156.8992719054222L252,157.18125721812248" style="fill: none;" fill="none"></path></g><g><path stroke="rgb(0, 119, 187)" stroke-width="2px" d="M23.333333333333332,97.19715042114258L28,90.34930262565612L32.666666666666664,104.60606074333191L37.333333333333336,97.61518669128418L42,99.01452431678771L46.666666666666664,97.58833584785461L51.33333333333333,92.23885593414306L56,84.69936656951904L60.66666666666667,83.67218494415283L65.33333333333333,82.8651912689209L70,79.44558124542236L74.66666666666667,71.2714409828186L79.33333333333333,78.29693212509156L84,75.16125268936158L88.66666666666666,72.8901559829712L93.33333333333333,60.1079662322998L98,72.82452058792114L102.66666666666666,71.36413516998292L107.33333333333334,61.65751495361329L112,60.93784275054932L116.66666666666667,59.113538646698004L121.33333333333334,42.672148036956784L126,47.07908143997193L130.66666666666666,48.47868642807006L135.33333333333334,36.14579315185547L140,34.60237255096436L144.66666666666669,35.37373485565186L149.33333333333334,39.82825880050659L154,37.28633651733398L158.66666666666666,35.47455177307128L163.33333333333334,28.41305580139161L168,23.660970020294187L172.66666666666669,29.189417362213135L177.33333333333331,15.476627540588384L182,18.556924724578867L186.66666666666666,6.900891685485847L191.33333333333334,5.171199989318851L196,8.469317054748528L200.66666666666666,5.887545013427742L205.33333333333331,-4.451714515686035L210,4.790492630004875L214.66666666666669,-9.369658470153809" style="fill: none;" fill="none"></path></g><g><path stroke="rgb(255, 112, 67)" stroke-width="2px" d="M23.333333333333332,69.9790696144104L28,108.91202445030213L32.666666666666664,122.15556745529175L37.333333333333336,123.92493915557861L42,126.76133799552917L46.666666666666664,130.35383825302122L51.33333333333333,131.94084532260896L56,133.07713634967806L60.66666666666667,132.8689648628235L65.33333333333333,135.02252388000488L70,136.35890822410582L74.66666666666667,134.20239336490633L79.33333333333333,130.34525506496428L84,138.5575305700302L88.66666666666666,133.81073262691498L93.33333333333333,136.23209135532377L98,135.29057610034943L102.66666666666666,136.1249892950058L107.33333333333334,133.66962671279907L112,133.95610361099241L116.66666666666667,135.90171606540682L121.33333333333334,136.27922143936158L126,136.37478234767914L130.66666666666666,133.5309419155121L135.33333333333334,138.1985071659088L140,133.57251043319704L144.66666666666669,135.7794316291809L149.33333333333334,137.6443111896515L154,135.3564682483673L158.66666666666666,136.62016816139223L163.33333333333334,136.64755585193635L168,136.12717700004578L172.66666666666669,137.45388960838318L177.33333333333331,134.17999856472014L182,137.83304584026337L186.66666666666666,133.32956058979036L191.33333333333334,135.04015707969666L196,135.49372923374176L200.66666666666666,138.9241143941879L205.33333333333331,134.774112200737L210,135.26201286315919L214.66666666666669,133.56646931171417L219.33333333333334,132.7983535528183L224,133.563543176651L228.66666666666666,132.0956228017807L233.33333333333334,132.51098120212555L238,135.2607015132904L242.66666666666669,134.71796181201935L247.33333333333331,130.27806005477905L252,135.4776874780655" style="fill: none;" fill="none"></path></g></g></g></g></g></g><g transform="translate(50, 178)" clip-path="url(#clip_1)"><clipPath id="clip_1"><rect width="280" height="22"></rect></clipPath><g><g><line x1="0" y1="0" x2="0" y2="5" style="visibility: inherit;" fill="rgb(0, 0, 0)" stroke="rgb(204, 204, 204)" stroke-width="1px"></line><line x1="23.333333333333332" y1="0" x2="23.333333333333332" y2="5" style="visibility: inherit;" fill="rgb(0, 0, 0)" stroke="rgb(204, 204, 204)" stroke-width="1px"></line><line x1="46.666666666666664" y1="0" x2="46.666666666666664" y2="5" style="visibility: inherit;" fill="rgb(0, 0, 0)" stroke="rgb(204, 204, 204)" stroke-width="1px"></line><line x1="70" y1="0" x2="70" y2="5" style="visibility: inherit;" fill="rgb(0, 0, 0)" stroke="rgb(204, 204, 204)" stroke-width="1px"></line><line x1="93.33333333333333" y1="0" x2="93.33333333333333" y2="5" style="visibility: inherit;" fill="rgb(0, 0, 0)" stroke="rgb(204, 204, 204)" stroke-width="1px"></line><line x1="116.66666666666667" y1="0" x2="116.66666666666667" y2="5" style="visibility: inherit;" fill="rgb(0, 0, 0)" stroke="rgb(204, 204, 204)" stroke-width="1px"></line><line x1="140" y1="0" x2="140" y2="5" style="visibility: inherit;" fill="rgb(0, 0, 0)" stroke="rgb(204, 204, 204)" stroke-width="1px"></line><line x1="163.33333333333334" y1="0" x2="163.33333333333334" y2="5" style="visibility: inherit;" fill="rgb(0, 0, 0)" stroke="rgb(204, 204, 204)" stroke-width="1px"></line><line x1="186.66666666666666" y1="0" x2="186.66666666666666" y2="5" style="visibility: inherit;" fill="rgb(0, 0, 0)" stroke="rgb(204, 204, 204)" stroke-width="1px"></line><line x1="210" y1="0" x2="210" y2="5" style="visibility: inherit;" fill="rgb(0, 0, 0)" stroke="rgb(204, 204, 204)" stroke-width="1px"></line><line x1="233.33333333333334" y1="0" x2="233.33333333333334" y2="5" style="visibility: inherit;" fill="rgb(0, 0, 0)" stroke="rgb(204, 204, 204)" stroke-width="1px"></line><line x1="256.66666666666663" y1="0" x2="256.66666666666663" y2="5" style="visibility: inherit;" fill="rgb(0, 0, 0)" stroke="rgb(204, 204, 204)" stroke-width="1px"></line><line x1="280" y1="0" x2="280" y2="5" style="visibility: inherit;" fill="rgb(0, 0, 0)" stroke="rgb(204, 204, 204)" stroke-width="1px"></line></g><g transform="translate(0, 8)"><text x="0" y="0" dx="0em" dy="0.95em" style="text-anchor: middle; visibility: hidden; font-family: Roboto, sans-serif; font-size: 12px; font-weight: 200;" fill="rgb(50, 49, 63)" stroke="none" stroke-width="1px">-5</text><text x="23.333333333333332" y="0" dx="0em" dy="0.95em" style="text-anchor: middle; visibility: inherit; font-family: Roboto, sans-serif; font-size: 12px; font-weight: 200;" fill="rgb(50, 49, 63)" stroke="none" stroke-width="1px">0</text><text x="46.666666666666664" y="0" dx="0em" dy="0.95em" style="text-anchor: middle; visibility: inherit; font-family: Roboto, sans-serif; font-size: 12px; font-weight: 200;" fill="rgb(50, 49, 63)" stroke="none" stroke-width="1px">5</text><text x="70" y="0" dx="0em" dy="0.95em" style="text-anchor: middle; visibility: inherit; font-family: Roboto, sans-serif; font-size: 12px; font-weight: 200;" fill="rgb(50, 49, 63)" stroke="none" stroke-width="1px">10</text><text x="93.33333333333333" y="0" dx="0em" dy="0.95em" style="text-anchor: middle; visibility: inherit; font-family: Roboto, sans-serif; font-size: 12px; font-weight: 200;" fill="rgb(50, 49, 63)" stroke="none" stroke-width="1px">15</text><text x="116.66666666666667" y="0" dx="0em" dy="0.95em" style="text-anchor: middle; visibility: inherit; font-family: Roboto, sans-serif; font-size: 12px; font-weight: 200;" fill="rgb(50, 49, 63)" stroke="none" stroke-width="1px">20</text><text x="140" y="0" dx="0em" dy="0.95em" style="text-anchor: middle; visibility: inherit; font-family: Roboto, sans-serif; font-size: 12px; font-weight: 200;" fill="rgb(50, 49, 63)" stroke="none" stroke-width="1px">25</text><text x="163.33333333333334" y="0" dx="0em" dy="0.95em" style="text-anchor: middle; visibility: inherit; font-family: Roboto, sans-serif; font-size: 12px; font-weight: 200;" fill="rgb(50, 49, 63)" stroke="none" stroke-width="1px">30</text><text x="186.66666666666666" y="0" dx="0em" dy="0.95em" style="text-anchor: middle; visibility: inherit; font-family: Roboto, sans-serif; font-size: 12px; font-weight: 200;" fill="rgb(50, 49, 63)" stroke="none" stroke-width="1px">35</text><text x="210" y="0" dx="0em" dy="0.95em" style="text-anchor: middle; visibility: inherit; font-family: Roboto, sans-serif; font-size: 12px; font-weight: 200;" fill="rgb(50, 49, 63)" stroke="none" stroke-width="1px">40</text><text x="233.33333333333334" y="0" dx="0em" dy="0.95em" style="text-anchor: middle; visibility: inherit; font-family: Roboto, sans-serif; font-size: 12px; font-weight: 200;" fill="rgb(50, 49, 63)" stroke="none" stroke-width="1px">45</text><text x="256.66666666666663" y="0" dx="0em" dy="0.95em" style="text-anchor: middle; visibility: inherit; font-family: Roboto, sans-serif; font-size: 12px; font-weight: 200;" fill="rgb(50, 49, 63)" stroke="none" stroke-width="1px">50</text><text x="280" y="0" dx="0em" dy="0.95em" style="text-anchor: middle; visibility: hidden; font-family: Roboto, sans-serif; font-size: 12px; font-weight: 200;" fill="rgb(50, 49, 63)" stroke="none" stroke-width="1px">55</text></g><line x1="0" y1="0" x2="280" y2="0" fill="rgb(0, 0, 0)" stroke="rgb(204, 204, 204)" stroke-width="1px"></line></g></g></g></g></svg>