<svg viewBox="0 0 950.5 400" xmlns="http://www.w3.org/2000/svg"><g><g><g><g><g><line x1="60" y1="378" x2="55" y2="378" style="visibility: inherit;" fill="rgb(0, 0, 0)" stroke="rgb(204, 204, 204)" stroke-width="1px"></line><line x1="60" y1="343.6363636363636" x2="55" y2="343.6363636363636" style="visibility: inherit;" fill="rgb(0, 0, 0)" stroke="rgb(204, 204, 204)" stroke-width="1px"></line><line x1="60" y1="309.27272727272725" x2="55" y2="309.27272727272725" style="visibility: inherit;" fill="rgb(0, 0, 0)" stroke="rgb(204, 204, 204)" stroke-width="1px"></line><line x1="60" y1="274.90909090909093" x2="55" y2="274.90909090909093" style="visibility: inherit;" fill="rgb(0, 0, 0)" stroke="rgb(204, 204, 204)" stroke-width="1px"></line><line x1="60" y1="240.54545454545453" x2="55" y2="240.54545454545453" style="visibility: inherit;" fill="rgb(0, 0, 0)" stroke="rgb(204, 204, 204)" stroke-width="1px"></line><line x1="60" y1="206.1818181818182" x2="55" y2="206.1818181818182" style="visibility: inherit;" fill="rgb(0, 0, 0)" stroke="rgb(204, 204, 204)" stroke-width="1px"></line><line x1="60" y1="171.81818181818184" x2="55" y2="171.81818181818184" style="visibility: inherit;" fill="rgb(0, 0, 0)" stroke="rgb(204, 204, 204)" stroke-width="1px"></line><line x1="60" y1="137.45454545454547" x2="55" y2="137.45454545454547" style="visibility: inherit;" fill="rgb(0, 0, 0)" stroke="rgb(204, 204, 204)" stroke-width="1px"></line><line x1="60" y1="103.09090909090907" x2="55" y2="103.09090909090907" style="visibility: inherit;" fill="rgb(0, 0, 0)" stroke="rgb(204, 204, 204)" stroke-width="1px"></line><line x1="60" y1="68.72727272727269" x2="55" y2="68.72727272727269" style="visibility: inherit;" fill="rgb(0, 0, 0)" stroke="rgb(204, 204, 204)" stroke-width="1px"></line><line x1="60" y1="34.363636363636374" x2="55" y2="34.363636363636374" style="visibility: inherit;" fill="rgb(0, 0, 0)" stroke="rgb(204, 204, 204)" stroke-width="1px"></line><line x1="60" y1="0" x2="55" y2="0" style="visibility: inherit;" fill="rgb(0, 0, 0)" stroke="rgb(204, 204, 204)" stroke-width="1px"></line></g><g transform="translate(50, 0)"><text x="0" y="378" dx="0em" dy="0.3em" style="text-anchor: end; visibility: hidden; font-family: &quot;Helvetica Neue&quot;, sans-serif; font-size: 12px; font-weight: 200;" fill="rgb(50, 49, 63)" stroke="none" stroke-width="1px">0.845</text><text x="0" y="343.6363636363636" dx="0em" dy="0.3em" style="text-anchor: end; visibility: inherit; font-family: &quot;Helvetica Neue&quot;, sans-serif; font-size: 12px; font-weight: 200;" fill="rgb(50, 49, 63)" stroke="none" stroke-width="1px">0.85</text><text x="0" y="309.27272727272725" dx="0em" dy="0.3em" style="text-anchor: end; visibility: inherit; font-family: &quot;Helvetica Neue&quot;, sans-serif; font-size: 12px; font-weight: 200;" fill="rgb(50, 49, 63)" stroke="none" stroke-width="1px">0.855</text><text x="0" y="274.90909090909093" dx="0em" dy="0.3em" style="text-anchor: end; visibility: inherit; font-family: &quot;Helvetica Neue&quot;, sans-serif; font-size: 12px; font-weight: 200;" fill="rgb(50, 49, 63)" stroke="none" stroke-width="1px">0.86</text><text x="0" y="240.54545454545453" dx="0em" dy="0.3em" style="text-anchor: end; visibility: inherit; font-family: &quot;Helvetica Neue&quot;, sans-serif; font-size: 12px; font-weight: 200;" fill="rgb(50, 49, 63)" stroke="none" stroke-width="1px">0.865</text><text x="0" y="206.1818181818182" dx="0em" dy="0.3em" style="text-anchor: end; visibility: inherit; font-family: &quot;Helvetica Neue&quot;, sans-serif; font-size: 12px; font-weight: 200;" fill="rgb(50, 49, 63)" stroke="none" stroke-width="1px">0.87</text><text x="0" y="171.81818181818184" dx="0em" dy="0.3em" style="text-anchor: end; visibility: inherit; font-family: &quot;Helvetica Neue&quot;, sans-serif; font-size: 12px; font-weight: 200;" fill="rgb(50, 49, 63)" stroke="none" stroke-width="1px">0.875</text><text x="0" y="137.45454545454547" dx="0em" dy="0.3em" style="text-anchor: end; visibility: inherit; font-family: &quot;Helvetica Neue&quot;, sans-serif; font-size: 12px; font-weight: 200;" fill="rgb(50, 49, 63)" stroke="none" stroke-width="1px">0.88</text><text x="0" y="103.09090909090907" dx="0em" dy="0.3em" style="text-anchor: end; visibility: inherit; font-family: &quot;Helvetica Neue&quot;, sans-serif; font-size: 12px; font-weight: 200;" fill="rgb(50, 49, 63)" stroke="none" stroke-width="1px">0.885</text><text x="0" y="68.72727272727269" dx="0em" dy="0.3em" style="text-anchor: end; visibility: inherit; font-family: &quot;Helvetica Neue&quot;, sans-serif; font-size: 12px; font-weight: 200;" fill="rgb(50, 49, 63)" stroke="none" stroke-width="1px">0.89</text><text x="0" y="34.363636363636374" dx="0em" dy="0.3em" style="text-anchor: end; visibility: inherit; font-family: &quot;Helvetica Neue&quot;, sans-serif; font-size: 12px; font-weight: 200;" fill="rgb(50, 49, 63)" stroke="none" stroke-width="1px">0.895</text><text x="0" y="0" dx="0em" dy="0.3em" style="text-anchor: end; visibility: hidden; font-family: &quot;Helvetica Neue&quot;, sans-serif; font-size: 12px; font-weight: 200;" fill="rgb(50, 49, 63)" stroke="none" stroke-width="1px">0.9</text></g><line x1="60" y1="0" x2="60" y2="378" fill="rgb(0, 0, 0)" stroke="rgb(204, 204, 204)" stroke-width="1px"></line></g></g><g transform="translate(60, 0)" clip-path="url(#clip_0)"><clipPath id="clip_0"><rect width="890" height="378"></rect></clipPath><g><g><g><line x1="0" y1="0" x2="0" y2="378" fill="rgb(0, 0, 0)" stroke="rgb(60, 60, 60)" stroke-width="1px" opacity="0.25"></line><line x1="74.20833333333333" y1="0" x2="74.20833333333333" y2="378" fill="rgb(0, 0, 0)" stroke="rgb(60, 60, 60)" stroke-width="1px" opacity="0.25"></line><line x1="148.41666666666666" y1="0" x2="148.41666666666666" y2="378" fill="rgb(0, 0, 0)" stroke="rgb(60, 60, 60)" stroke-width="1px" opacity="0.25"></line><line x1="222.625" y1="0" x2="222.625" y2="378" fill="rgb(0, 0, 0)" stroke="rgb(60, 60, 60)" stroke-width="1px" opacity="0.25"></line><line x1="296.8333333333333" y1="0" x2="296.8333333333333" y2="378" fill="rgb(0, 0, 0)" stroke="rgb(60, 60, 60)" stroke-width="1px" opacity="0.25"></line><line x1="371.0416666666667" y1="0" x2="371.0416666666667" y2="378" fill="rgb(0, 0, 0)" stroke="rgb(60, 60, 60)" stroke-width="1px" opacity="0.25"></line><line x1="445.25" y1="0" x2="445.25" y2="378" fill="rgb(0, 0, 0)" stroke="rgb(60, 60, 60)" stroke-width="1px" opacity="0.25"></line><line x1="519.4583333333334" y1="0" x2="519.4583333333334" y2="378" fill="rgb(0, 0, 0)" stroke="rgb(60, 60, 60)" stroke-width="1px" opacity="0.25"></line><line x1="593.6666666666666" y1="0" x2="593.6666666666666" y2="378" fill="rgb(0, 0, 0)" stroke="rgb(60, 60, 60)" stroke-width="1px" opacity="0.25"></line><line x1="667.875" y1="0" x2="667.875" y2="378" fill="rgb(0, 0, 0)" stroke="rgb(60, 60, 60)" stroke-width="1px" opacity="0.25"></line><line x1="742.0833333333334" y1="0" x2="742.0833333333334" y2="378" fill="rgb(0, 0, 0)" stroke="rgb(60, 60, 60)" stroke-width="1px" opacity="0.25"></line><line x1="816.2916666666666" y1="0" x2="816.2916666666666" y2="378" fill="rgb(0, 0, 0)" stroke="rgb(60, 60, 60)" stroke-width="1px" opacity="0.25"></line><line x1="890.5" y1="0" x2="890.5" y2="378" fill="rgb(0, 0, 0)" stroke="rgb(60, 60, 60)" stroke-width="1px" opacity="0.25"></line></g><g><line x1="0" y1="378" x2="890.5" y2="378" fill="rgb(0, 0, 0)" stroke="rgb(60, 60, 60)" stroke-width="1px" opacity="0.25"></line><line x1="0" y1="343.6363636363636" x2="890.5" y2="343.6363636363636" fill="rgb(0, 0, 0)" stroke="rgb(60, 60, 60)" stroke-width="1px" opacity="0.25"></line><line x1="0" y1="309.27272727272725" x2="890.5" y2="309.27272727272725" fill="rgb(0, 0, 0)" stroke="rgb(60, 60, 60)" stroke-width="1px" opacity="0.25"></line><line x1="0" y1="274.90909090909093" x2="890.5" y2="274.90909090909093" fill="rgb(0, 0, 0)" stroke="rgb(60, 60, 60)" stroke-width="1px" opacity="0.25"></line><line x1="0" y1="240.54545454545453" x2="890.5" y2="240.54545454545453" fill="rgb(0, 0, 0)" stroke="rgb(60, 60, 60)" stroke-width="1px" opacity="0.25"></line><line x1="0" y1="206.1818181818182" x2="890.5" y2="206.1818181818182" fill="rgb(0, 0, 0)" stroke="rgb(60, 60, 60)" stroke-width="1px" opacity="0.25"></line><line x1="0" y1="171.81818181818184" x2="890.5" y2="171.81818181818184" fill="rgb(0, 0, 0)" stroke="rgb(60, 60, 60)" stroke-width="1px" opacity="0.25"></line><line x1="0" y1="137.45454545454547" x2="890.5" y2="137.45454545454547" fill="rgb(0, 0, 0)" stroke="rgb(60, 60, 60)" stroke-width="1px" opacity="0.25"></line><line x1="0" y1="103.09090909090907" x2="890.5" y2="103.09090909090907" fill="rgb(0, 0, 0)" stroke="rgb(60, 60, 60)" stroke-width="1px" opacity="0.25"></line><line x1="0" y1="68.72727272727269" x2="890.5" y2="68.72727272727269" fill="rgb(0, 0, 0)" stroke="rgb(60, 60, 60)" stroke-width="1px" opacity="0.25"></line><line x1="0" y1="34.363636363636374" x2="890.5" y2="34.363636363636374" fill="rgb(0, 0, 0)" stroke="rgb(60, 60, 60)" stroke-width="1px" opacity="0.25"></line><line x1="0" y1="0" x2="890.5" y2="0" fill="rgb(0, 0, 0)" stroke="rgb(60, 60, 60)" stroke-width="1px" opacity="0.25"></line></g></g></g><g><g><line x1="0" y1="6185.45454545454" x2="890.5" y2="6185.45454545454" fill="rgb(0, 0, 0)" stroke="rgb(153, 153, 153)" stroke-width="1.5px"></line></g></g><g><g><line x1="74.20833333333333" y1="0" x2="74.20833333333333" y2="378" fill="rgb(0, 0, 0)" stroke="rgb(153, 153, 153)" stroke-width="1.5px"></line></g></g><g><g><g><g><g><path stroke="rgb(51, 187, 238)" stroke-width="2px" d="M89.05000000000001,397.6132665980944L103.89166666666667,324.5753496343438L118.73333333333333,271.1324618079445L133.575,230.1596221056851L148.41666666666666,212.3457358100197L163.25833333333333,167.80979113145307L178.10000000000002,153.55860016562724L192.94166666666666,137.52585671164775L207.78333333333333,132.18160889365458L222.625,117.93000828136104L237.46666666666667,137.52585671164775L252.30833333333334,121.49311325766831L267.15,123.2742560993542L281.9916666666667,103.67881731553518L296.8333333333333,121.49311325766831L311.67499999999995,76.95757822556936L326.51666666666665,92.99032167954886L341.35833333333335,80.52027355540889L356.20000000000005,78.73872106725526L371.0416666666667,80.52027355540889L385.8833333333333,84.08296888524842L400.725,82.30182604356253L415.56666666666666,80.52027355540889L430.40833333333336,69.83177791942256L445.25,71.6133304075762L460.0916666666667,80.52027355540889L474.93333333333334,46.67323415929633L489.77500000000003,48.45478664744991L504.6166666666667,69.83177791942256L519.4583333333334,64.4875301014294L534.3,48.45478664744991L549.1416666666667,59.143282283436236L563.9833333333333,69.83177791942256L578.825,39.54743385314953L593.6666666666666,53.79903446544307L608.5083333333333,52.01748197728949L623.3499999999999,39.54743385314953L638.1916666666667,53.79903446544307L653.0333333333333,46.67323415929633L667.875,52.01748197728949L682.7166666666667,48.45478664744991L697.5583333333333,48.45478664744991L712.4000000000001,62.70597761327582L727.2416666666667,35.98473852331L742.0833333333334,50.235929489135856L756.925,48.45478664744991L771.7666666666667,60.92483477158987L786.6083333333333,52.01748197728949L801.45,43.11053882945674" style="fill: none;" fill="none"></path></g><g><path stroke="rgb(0, 153, 136)" stroke-width="2px" d="M89.05000000000001,397.6132665980944L103.89166666666667,358.4219793839886L118.73333333333333,287.1652052619239L133.575,262.2255186601118L148.41666666666666,223.03423144600603L163.25833333333333,182.06139174374667L178.10000000000002,187.4056395617398L192.94166666666666,166.02864828976718L207.78333333333333,144.65165701779452L222.625,133.96316138180825L237.46666666666667,137.52585671164775L252.30833333333334,130.40005640550098L267.15,105.46036980368882L281.9916666666667,100.11612198569566L296.8333333333333,94.77146452123475L311.67499999999995,96.55301700938838L326.51666666666665,78.73872106725526L341.35833333333335,76.95757822556936L356.20000000000005,71.6133304075762L371.0416666666667,52.01748197728949L385.8833333333333,76.95757822556936L400.725,69.83177791942256L415.56666666666666,66.26908258958304L430.40833333333336,52.01748197728949L445.25,41.328986341303164L460.0916666666667,62.70597761327582L474.93333333333334,44.89168167114269L489.77500000000003,55.58017730712896L504.6166666666667,59.143282283436236L519.4583333333334,59.143282283436236L534.3,55.58017730712896L549.1416666666667,57.361729795282656L563.9833333333333,59.143282283436236L578.825,55.58017730712896L593.6666666666666,73.39447324926209L608.5083333333333,32.42204319347047L623.3499999999999,41.328986341303164L638.1916666666667,66.26908258958304L653.0333333333333,34.203186035156364L667.875,57.361729795282656L682.7166666666667,68.05022543126898L697.5583333333333,57.361729795282656L712.4000000000001,62.70597761327582L727.2416666666667,46.67323415929633L742.0833333333334,60.92483477158987L756.925,50.235929489135856L771.7666666666667,41.328986341303164L786.6083333333333,57.361729795282656L801.45,60.92483477158987" style="fill: none;" fill="none"></path></g><g><path stroke="rgb(255, 112, 67)" stroke-width="2px" d="M103.89166666666667,386.9223130833017L118.73333333333333,342.75300199335254L133.575,312.71772297945876L148.41666666666666,261.4816006747158L163.25833333333333,266.78201632066197L178.10000000000002,233.21353652260512L192.94166666666666,210.2454783699729L207.78333333333333,166.07616728002372L222.625,185.51061500202525L237.46666666666667,143.1081091273915L252.30833333333334,137.80810312791309L267.15,118.37365540591156L281.9916666666667,121.90685619007462L296.8333333333333,136.04129791259768L311.67499999999995,83.03796074607163L326.51666666666665,83.03796074607163L341.35833333333335,84.80476596138698L356.20000000000005,84.80476596138698L371.0416666666667,91.87198682264858L385.8833333333333,68.90392867001628L400.725,68.90392867001628L415.56666666666666,84.80476596138698L430.40833333333336,63.60351302407014L445.25,65.37031823938554L460.0916666666667,74.20434431596243L474.93333333333334,60.07031223990714L489.77500000000003,38.869059302590244L504.6166666666667,56.53670180927634L519.4583333333334,47.70267573269939L534.3,40.63586451790559L549.1416666666667,42.402260086753245L563.9833333333333,33.5686436566441L578.825,37.102254087274844L593.6666666666666,53.00309137864559L608.5083333333333,17.66780636527335L623.3499999999999,40.63586451790559L638.1916666666667,31.801838441328698L653.0333333333333,33.5686436566441L667.875,0.000163858587256982L682.7166666666667,21.20141679590415L697.5583333333333,7.066975073381059L712.4000000000001,35.33544887195944L727.2416666666667,8.833780288696403L742.0833333333334,15.901001149958006L756.925,12.367390719327204L771.7666666666667,24.73461758006715L786.6083333333333,30.035033226013297L801.45,15.901001149958006" style="fill: none;" fill="none"></path></g><g><path stroke="rgb(204, 51, 17)" stroke-width="2px" d="M103.89166666666667,386.9223130833017L118.73333333333333,300.3504961187188L133.575,266.78201632066197L148.41666666666666,265.01521110534657L163.25833333333333,224.37951044602823L178.10000000000002,215.54548436945132L192.94166666666666,167.84297249533915L207.78333333333333,144.8749143427069L222.625,155.47574563459918L237.46666666666667,143.1081091273915L252.30833333333334,118.37365540591156L267.15,118.37365540591156L281.9916666666667,106.00601889870387L296.8333333333333,100.70560325275773L311.67499999999995,107.77282411401927L326.51666666666665,100.70560325275773L341.35833333333335,95.40559725327932L356.20000000000005,98.93920768391007L371.0416666666667,86.57157117670238L385.8833333333333,93.63879203796392L400.725,70.67073388533169L415.56666666666666,60.07031223990714L430.40833333333336,77.73795474659318L445.25,75.97114953127783L460.0916666666667,47.70267573269939L474.93333333333334,67.13712345470088L489.77500000000003,67.13712345470088L504.6166666666667,56.53670180927634L519.4583333333334,58.30350702459174L534.3,45.93587051738399L549.1416666666667,44.169065302068645L563.9833333333333,61.836707808754795L578.825,49.46948094801479L593.6666666666666,37.102254087274844L608.5083333333333,58.30350702459174L623.3499999999999,61.836707808754795L638.1916666666667,35.33544887195944L653.0333333333333,45.93587051738399L667.875,35.33544887195944L682.7166666666667,37.102254087274844L697.5583333333333,28.268228010697953L712.4000000000001,40.63586451790559L727.2416666666667,8.833780288696403L742.0833333333334,15.901001149958006L756.925,26.501422795382553L771.7666666666667,21.20141679590415L786.6083333333333,31.801838441328698L801.45,28.268228010697953" style="fill: none;" fill="none"></path></g></g></g></g></g></g><g transform="translate(60, 378)" clip-path="url(#clip_1)"><clipPath id="clip_1"><rect width="890" height="22"></rect></clipPath><g><g><line x1="0" y1="0" x2="0" y2="5" style="visibility: inherit;" fill="rgb(0, 0, 0)" stroke="rgb(204, 204, 204)" stroke-width="1px"></line><line x1="74.20833333333333" y1="0" x2="74.20833333333333" y2="5" style="visibility: inherit;" fill="rgb(0, 0, 0)" stroke="rgb(204, 204, 204)" stroke-width="1px"></line><line x1="148.41666666666666" y1="0" x2="148.41666666666666" y2="5" style="visibility: inherit;" fill="rgb(0, 0, 0)" stroke="rgb(204, 204, 204)" stroke-width="1px"></line><line x1="222.625" y1="0" x2="222.625" y2="5" style="visibility: inherit;" fill="rgb(0, 0, 0)" stroke="rgb(204, 204, 204)" stroke-width="1px"></line><line x1="296.8333333333333" y1="0" x2="296.8333333333333" y2="5" style="visibility: inherit;" fill="rgb(0, 0, 0)" stroke="rgb(204, 204, 204)" stroke-width="1px"></line><line x1="371.0416666666667" y1="0" x2="371.0416666666667" y2="5" style="visibility: inherit;" fill="rgb(0, 0, 0)" stroke="rgb(204, 204, 204)" stroke-width="1px"></line><line x1="445.25" y1="0" x2="445.25" y2="5" style="visibility: inherit;" fill="rgb(0, 0, 0)" stroke="rgb(204, 204, 204)" stroke-width="1px"></line><line x1="519.4583333333334" y1="0" x2="519.4583333333334" y2="5" style="visibility: inherit;" fill="rgb(0, 0, 0)" stroke="rgb(204, 204, 204)" stroke-width="1px"></line><line x1="593.6666666666666" y1="0" x2="593.6666666666666" y2="5" style="visibility: inherit;" fill="rgb(0, 0, 0)" stroke="rgb(204, 204, 204)" stroke-width="1px"></line><line x1="667.875" y1="0" x2="667.875" y2="5" style="visibility: inherit;" fill="rgb(0, 0, 0)" stroke="rgb(204, 204, 204)" stroke-width="1px"></line><line x1="742.0833333333334" y1="0" x2="742.0833333333334" y2="5" style="visibility: inherit;" fill="rgb(0, 0, 0)" stroke="rgb(204, 204, 204)" stroke-width="1px"></line><line x1="816.2916666666666" y1="0" x2="816.2916666666666" y2="5" style="visibility: inherit;" fill="rgb(0, 0, 0)" stroke="rgb(204, 204, 204)" stroke-width="1px"></line><line x1="890.5" y1="0" x2="890.5" y2="5" style="visibility: inherit;" fill="rgb(0, 0, 0)" stroke="rgb(204, 204, 204)" stroke-width="1px"></line></g><g transform="translate(0, 8)"><text x="0" y="0" dx="0em" dy="0.95em" style="text-anchor: middle; visibility: hidden; font-family: &quot;Helvetica Neue&quot;, sans-serif; font-size: 12px; font-weight: 200;" fill="rgb(50, 49, 63)" stroke="none" stroke-width="1px">-5</text><text x="74.20833333333333" y="0" dx="0em" dy="0.95em" style="text-anchor: middle; visibility: inherit; font-family: &quot;Helvetica Neue&quot;, sans-serif; font-size: 12px; font-weight: 200;" fill="rgb(50, 49, 63)" stroke="none" stroke-width="1px">0</text><text x="148.41666666666666" y="0" dx="0em" dy="0.95em" style="text-anchor: middle; visibility: inherit; font-family: &quot;Helvetica Neue&quot;, sans-serif; font-size: 12px; font-weight: 200;" fill="rgb(50, 49, 63)" stroke="none" stroke-width="1px">5</text><text x="222.625" y="0" dx="0em" dy="0.95em" style="text-anchor: middle; visibility: inherit; font-family: &quot;Helvetica Neue&quot;, sans-serif; font-size: 12px; font-weight: 200;" fill="rgb(50, 49, 63)" stroke="none" stroke-width="1px">10</text><text x="296.8333333333333" y="0" dx="0em" dy="0.95em" style="text-anchor: middle; visibility: inherit; font-family: &quot;Helvetica Neue&quot;, sans-serif; font-size: 12px; font-weight: 200;" fill="rgb(50, 49, 63)" stroke="none" stroke-width="1px">15</text><text x="371.0416666666667" y="0" dx="0em" dy="0.95em" style="text-anchor: middle; visibility: inherit; font-family: &quot;Helvetica Neue&quot;, sans-serif; font-size: 12px; font-weight: 200;" fill="rgb(50, 49, 63)" stroke="none" stroke-width="1px">20</text><text x="445.25" y="0" dx="0em" dy="0.95em" style="text-anchor: middle; visibility: inherit; font-family: &quot;Helvetica Neue&quot;, sans-serif; font-size: 12px; font-weight: 200;" fill="rgb(50, 49, 63)" stroke="none" stroke-width="1px">25</text><text x="519.4583333333334" y="0" dx="0em" dy="0.95em" style="text-anchor: middle; visibility: inherit; font-family: &quot;Helvetica Neue&quot;, sans-serif; font-size: 12px; font-weight: 200;" fill="rgb(50, 49, 63)" stroke="none" stroke-width="1px">30</text><text x="593.6666666666666" y="0" dx="0em" dy="0.95em" style="text-anchor: middle; visibility: inherit; font-family: &quot;Helvetica Neue&quot;, sans-serif; font-size: 12px; font-weight: 200;" fill="rgb(50, 49, 63)" stroke="none" stroke-width="1px">35</text><text x="667.875" y="0" dx="0em" dy="0.95em" style="text-anchor: middle; visibility: inherit; font-family: &quot;Helvetica Neue&quot;, sans-serif; font-size: 12px; font-weight: 200;" fill="rgb(50, 49, 63)" stroke="none" stroke-width="1px">40</text><text x="742.0833333333334" y="0" dx="0em" dy="0.95em" style="text-anchor: middle; visibility: inherit; font-family: &quot;Helvetica Neue&quot;, sans-serif; font-size: 12px; font-weight: 200;" fill="rgb(50, 49, 63)" stroke="none" stroke-width="1px">45</text><text x="816.2916666666666" y="0" dx="0em" dy="0.95em" style="text-anchor: middle; visibility: inherit; font-family: &quot;Helvetica Neue&quot;, sans-serif; font-size: 12px; font-weight: 200;" fill="rgb(50, 49, 63)" stroke="none" stroke-width="1px">50</text><text x="890.5" y="0" dx="0em" dy="0.95em" style="text-anchor: middle; visibility: hidden; font-family: &quot;Helvetica Neue&quot;, sans-serif; font-size: 12px; font-weight: 200;" fill="rgb(50, 49, 63)" stroke="none" stroke-width="1px">55</text></g><line x1="0" y1="0" x2="890.5" y2="0" fill="rgb(0, 0, 0)" stroke="rgb(204, 204, 204)" stroke-width="1px"></line></g></g></g></g></svg>