<svg viewBox="0 0 950.5 400" xmlns="http://www.w3.org/2000/svg"><g><g><g><g><g><line x1="40" y1="19.48128818797943" x2="35" y2="19.48128818797943" style="visibility: inherit;" fill="rgb(0, 0, 0)" stroke="rgb(204, 204, 204)" stroke-width="1px"></line></g><g transform="translate(30, 0)"><text x="0" y="19.48128818797943" dx="0em" dy="0.3em" style="text-anchor: end; visibility: inherit; font-family: &quot;Helvetica Neue&quot;, sans-serif; font-size: 12px; font-weight: 200;" fill="rgb(50, 49, 63)" stroke="none" stroke-width="1px">0.9</text></g><line x1="40" y1="0" x2="40" y2="378" fill="rgb(0, 0, 0)" stroke="rgb(204, 204, 204)" stroke-width="1px"></line></g></g><g transform="translate(40, 0)" clip-path="url(#clip_0)"><clipPath id="clip_0"><rect width="910" height="378"></rect></clipPath><g><g><g><line x1="0" y1="0" x2="0" y2="378" fill="rgb(0, 0, 0)" stroke="rgb(60, 60, 60)" stroke-width="1px" opacity="0.25"></line><line x1="75.875" y1="0" x2="75.875" y2="378" fill="rgb(0, 0, 0)" stroke="rgb(60, 60, 60)" stroke-width="1px" opacity="0.25"></line><line x1="151.75" y1="0" x2="151.75" y2="378" fill="rgb(0, 0, 0)" stroke="rgb(60, 60, 60)" stroke-width="1px" opacity="0.25"></line><line x1="227.625" y1="0" x2="227.625" y2="378" fill="rgb(0, 0, 0)" stroke="rgb(60, 60, 60)" stroke-width="1px" opacity="0.25"></line><line x1="303.5" y1="0" x2="303.5" y2="378" fill="rgb(0, 0, 0)" stroke="rgb(60, 60, 60)" stroke-width="1px" opacity="0.25"></line><line x1="379.375" y1="0" x2="379.375" y2="378" fill="rgb(0, 0, 0)" stroke="rgb(60, 60, 60)" stroke-width="1px" opacity="0.25"></line><line x1="455.25" y1="0" x2="455.25" y2="378" fill="rgb(0, 0, 0)" stroke="rgb(60, 60, 60)" stroke-width="1px" opacity="0.25"></line><line x1="531.125" y1="0" x2="531.125" y2="378" fill="rgb(0, 0, 0)" stroke="rgb(60, 60, 60)" stroke-width="1px" opacity="0.25"></line><line x1="607" y1="0" x2="607" y2="378" fill="rgb(0, 0, 0)" stroke="rgb(60, 60, 60)" stroke-width="1px" opacity="0.25"></line><line x1="682.875" y1="0" x2="682.875" y2="378" fill="rgb(0, 0, 0)" stroke="rgb(60, 60, 60)" stroke-width="1px" opacity="0.25"></line><line x1="758.75" y1="0" x2="758.75" y2="378" fill="rgb(0, 0, 0)" stroke="rgb(60, 60, 60)" stroke-width="1px" opacity="0.25"></line><line x1="834.625" y1="0" x2="834.625" y2="378" fill="rgb(0, 0, 0)" stroke="rgb(60, 60, 60)" stroke-width="1px" opacity="0.25"></line><line x1="910.5" y1="0" x2="910.5" y2="378" fill="rgb(0, 0, 0)" stroke="rgb(60, 60, 60)" stroke-width="1px" opacity="0.25"></line></g><g><line x1="0" y1="19.48128818797943" x2="910.5" y2="19.48128818797943" fill="rgb(0, 0, 0)" stroke="rgb(60, 60, 60)" stroke-width="1px" opacity="0.25"></line></g></g></g><g><g><line x1="75.875" y1="0" x2="75.875" y2="378" fill="rgb(0, 0, 0)" stroke="rgb(153, 153, 153)" stroke-width="1.5px"></line></g></g><g><g><g><g><g><path stroke="rgb(51, 187, 238)" stroke-width="2px" d="M91.05000000000001,412.55894901418003L106.22500000000001,338.36861384009393L121.39999999999999,284.6659229880615L136.575,243.8215182768996L151.75,226.15104604292387L166.92499999999998,182.20319177996305L182.10000000000002,168.20885386651904L197.275,152.50454038298528L212.45000000000002,147.27901926824237L227.625,133.36655263489726L242.79999999999998,152.50454038298528L257.97499999999997,136.84180315570896L273.15,138.57979446492018L288.325,119.48712424940368L303.5,136.84180315570896L318.67499999999995,93.55038626324836L333.84999999999997,109.09878017322234L349.02500000000003,97.00192293673263L364.20000000000005,95.27570446143676L379.375,97.00192293673263L394.55,100.4554744334452L409.725,98.72864523361136L424.90000000000003,97.00192293673263L440.075,86.6529517046913L455.25,88.37665570673346L470.42500000000007,97.00192293673263L485.59999999999997,64.29196031798966L500.77500000000003,66.00916070533117L515.9499999999999,86.6529517046913L531.125,81.4852468426106L546.3,66.00916070533117L561.475,76.32205196198123L576.65,86.6529517046913L591.825,57.428533024594856L607,71.16335919772877L622.1750000000001,69.44466234478966L637.3499999999999,57.428533024594856L652.525,71.16335919772877L667.6999999999999,64.29196031798966L682.875,69.44466234478966L698.0500000000001,66.00916070533117L713.225,66.00916070533117L728.4000000000001,79.76354922018214L743.5749999999999,54.000000000000114L758.75,67.72646464168048L773.925,66.00916070533117L789.1,78.04274820267824L804.275,69.44466234478966L819.45,60.85944866075113" style="fill: none;" fill="none"></path></g><g><path stroke="rgb(0, 119, 187)" stroke-width="2px" d="M91.05000000000001,390.7481954007256L106.22500000000001,322.2062713894725L121.39999999999999,270.42739922179646L136.575,238.51475136848575L151.75,208.53279037313067L166.92499999999998,196.23111457732068L182.10000000000002,145.5380706407696L197.275,173.45290239659312L212.45000000000002,168.20885386651904L227.625,142.05810956974625L242.79999999999998,112.55940246260297L257.97499999999997,122.95383023656936L273.15,131.63009191583674L288.325,97.00192293673263L303.5,112.55940246260297L318.67499999999995,109.09878017322234L333.84999999999997,100.4554744334452L349.02500000000003,110.82863933012186L364.20000000000005,79.76354922018214L379.375,90.10046554526315L394.55,81.4852468426106L409.725,81.4852468426106L424.90000000000003,64.29196031798966L440.075,78.04274820267824L455.25,84.92974976467758L470.42500000000007,102.18320514027585L485.59999999999997,50.57345272090191L500.77500000000003,79.76354922018214L515.9499999999999,52.28628129011258L531.125,69.44466234478966L546.3,66.00916070533117L561.475,69.44466234478966L576.65,72.88216012475277L591.825,72.88216012475277L607,69.44466234478966L622.1750000000001,55.71421526036852L637.3499999999999,67.72646464168048L652.525,95.27570446143676L667.6999999999999,83.20744565074307L682.875,76.32205196198123L698.0500000000001,76.32205196198123L713.225,95.27570446143676L728.4000000000001,86.6529517046913L743.5749999999999,76.32205196198123L758.75,91.82517443392976L773.925,72.88216012475277L789.1,78.04274820267824L804.275,90.10046554526315L819.45,59.143742135338016" style="fill: none;" fill="none"></path></g><g><path stroke="rgb(187, 187, 187)" stroke-width="2px" d="M91.05000000000001,423.49497266375914L106.22500000000001,323.9999999999996L121.39999999999999,288.23081224575367L136.575,254.44935385897642L151.75,229.68083955652324L166.92499999999998,182.20319177996305L182.10000000000002,187.46006806033188L197.275,145.5380706407696L212.45000000000002,145.5380706407696L227.625,133.36655263489726L242.79999999999998,140.31869639054594L257.97499999999997,128.15790058366267L273.15,121.22042262439624L288.325,122.95383023656936L303.5,98.72864523361136L318.67499999999995,102.18320514027585L333.84999999999997,98.72864523361136L349.02500000000003,97.00192293673263L364.20000000000005,102.18320514027585L379.375,76.32205196198123L394.55,90.10046554526315L409.725,62.57525821176637L424.90000000000003,62.57525821176637L440.075,64.29196031798966L455.25,90.10046554526315L470.42500000000007,72.88216012475277L485.59999999999997,72.88216012475277L500.77500000000003,76.32205196198123L515.9499999999999,69.44466234478966L531.125,67.72646464168048L546.3,76.32205196198123L561.475,74.60185603295872L576.65,67.72646464168048L591.825,60.85944866075113L607,64.29196031798966L622.1750000000001,59.143742135338016L637.3499999999999,62.57525821176637L652.525,47.148495238561566L667.6999999999999,57.428533024594856L682.875,48.86072613546014L698.0500000000001,50.57345272090191L713.225,40.30530919288344L728.4000000000001,86.6529517046913L743.5749999999999,57.428533024594856L758.75,52.28628129011258L773.925,67.72646464168048L789.1,59.143742135338016L804.275,52.28628129011258L819.45,64.29196031798966" style="fill: none;" fill="none"></path></g><g><path stroke="rgb(238, 51, 119)" stroke-width="2px" d="M91.05000000000001,438.1071536668217L106.22500000000001,350.96932329845987L121.39999999999999,286.4483040561855L136.575,252.67699328630727L151.75,203.25756888551817L166.92499999999998,189.21299545945155L182.10000000000002,185.70725691068276L197.275,173.45290239659312L212.45000000000002,166.46173624188592L227.625,138.57979446492018L242.79999999999998,126.42296776124692L257.97499999999997,122.95383023656936L273.15,121.22042262439624L288.325,116.02244845900992L303.5,122.95383023656936L318.67499999999995,102.18320514027585L333.84999999999997,110.82863933012186L349.02500000000003,107.36902899258456L364.20000000000005,90.10046554526315L379.375,98.72864523361136L394.55,86.6529517046913L409.725,88.37665570673346L424.90000000000003,69.44466234478966L440.075,72.88216012475277L455.25,72.88216012475277L470.42500000000007,62.57525821176637L485.59999999999997,74.60185603295872L500.77500000000003,69.44466234478966L515.9499999999999,67.72646464168048L531.125,72.88216012475277L546.3,69.44466234478966L561.475,74.60185603295872L576.65,71.16335919772877L591.825,45.437153279341715L607,59.143742135338016L622.1750000000001,64.29196031798966L637.3499999999999,60.85944866075113L652.525,60.85944866075113L667.6999999999999,54.000000000000114L682.875,71.16335919772877L698.0500000000001,66.00916070533117L713.225,69.44466234478966L728.4000000000001,55.71421526036852L743.5749999999999,98.72864523361136L758.75,93.55038626324836L773.925,74.60185603295872L789.1,54.000000000000114L804.275,71.16335919772877L819.45,79.76354922018214" style="fill: none;" fill="none"></path></g><g><path stroke="rgb(204, 51, 17)" stroke-width="2px" d="M91.05000000000001,396.1933501766685L106.22500000000001,332.9759834781713L121.39999999999999,257.99648454759074L136.575,226.15104604292387L151.75,187.46006806033188L166.92499999999998,187.46006806033188L182.10000000000002,159.4792230106314L197.275,138.57979446492018L212.45000000000002,142.05810956974625L227.625,155.9906533965223L242.79999999999998,129.8937415222619L257.97499999999997,114.29067207339483L273.15,152.50454038298528L288.325,126.42296776124692L303.5,126.42296776124692L318.67499999999995,102.18320514027585L333.84999999999997,86.6529517046913L349.02500000000003,91.82517443392976L364.20000000000005,90.10046554526315L379.375,102.18320514027585L394.55,72.88216012475277L409.725,72.88216012475277L424.90000000000003,83.20744565074307L440.075,67.72646464168048L455.25,64.29196031798966L470.42500000000007,79.76354922018214L485.59999999999997,76.32205196198123L500.77500000000003,74.60185603295872L515.9499999999999,52.28628129011258L531.125,83.20744565074307L546.3,59.143742135338016L561.475,72.88216012475277L576.65,69.44466234478966L591.825,52.28628129011258L607,54.000000000000114L622.1750000000001,66.00916070533117L637.3499999999999,54.000000000000114L652.525,69.44466234478966L667.6999999999999,81.4852468426106L682.875,66.00916070533117L698.0500000000001,76.32205196198123L713.225,62.57525821176637L728.4000000000001,79.76354922018214L743.5749999999999,67.72646464168048L758.75,59.143742135338016L773.925,78.04274820267824L789.1,60.85944866075113L804.275,88.37665570673346L819.45,83.20744565074307" style="fill: none;" fill="none"></path></g></g></g></g></g></g><g transform="translate(40, 378)" clip-path="url(#clip_1)"><clipPath id="clip_1"><rect width="910" height="22"></rect></clipPath><g><g><line x1="0" y1="0" x2="0" y2="5" style="visibility: inherit;" fill="rgb(0, 0, 0)" stroke="rgb(204, 204, 204)" stroke-width="1px"></line><line x1="75.875" y1="0" x2="75.875" y2="5" style="visibility: inherit;" fill="rgb(0, 0, 0)" stroke="rgb(204, 204, 204)" stroke-width="1px"></line><line x1="151.75" y1="0" x2="151.75" y2="5" style="visibility: inherit;" fill="rgb(0, 0, 0)" stroke="rgb(204, 204, 204)" stroke-width="1px"></line><line x1="227.625" y1="0" x2="227.625" y2="5" style="visibility: inherit;" fill="rgb(0, 0, 0)" stroke="rgb(204, 204, 204)" stroke-width="1px"></line><line x1="303.5" y1="0" x2="303.5" y2="5" style="visibility: inherit;" fill="rgb(0, 0, 0)" stroke="rgb(204, 204, 204)" stroke-width="1px"></line><line x1="379.375" y1="0" x2="379.375" y2="5" style="visibility: inherit;" fill="rgb(0, 0, 0)" stroke="rgb(204, 204, 204)" stroke-width="1px"></line><line x1="455.25" y1="0" x2="455.25" y2="5" style="visibility: inherit;" fill="rgb(0, 0, 0)" stroke="rgb(204, 204, 204)" stroke-width="1px"></line><line x1="531.125" y1="0" x2="531.125" y2="5" style="visibility: inherit;" fill="rgb(0, 0, 0)" stroke="rgb(204, 204, 204)" stroke-width="1px"></line><line x1="607" y1="0" x2="607" y2="5" style="visibility: inherit;" fill="rgb(0, 0, 0)" stroke="rgb(204, 204, 204)" stroke-width="1px"></line><line x1="682.875" y1="0" x2="682.875" y2="5" style="visibility: inherit;" fill="rgb(0, 0, 0)" stroke="rgb(204, 204, 204)" stroke-width="1px"></line><line x1="758.75" y1="0" x2="758.75" y2="5" style="visibility: inherit;" fill="rgb(0, 0, 0)" stroke="rgb(204, 204, 204)" stroke-width="1px"></line><line x1="834.625" y1="0" x2="834.625" y2="5" style="visibility: inherit;" fill="rgb(0, 0, 0)" stroke="rgb(204, 204, 204)" stroke-width="1px"></line><line x1="910.5" y1="0" x2="910.5" y2="5" style="visibility: inherit;" fill="rgb(0, 0, 0)" stroke="rgb(204, 204, 204)" stroke-width="1px"></line></g><g transform="translate(0, 8)"><text x="0" y="0" dx="0em" dy="0.95em" style="text-anchor: middle; visibility: hidden; font-family: &quot;Helvetica Neue&quot;, sans-serif; font-size: 12px; font-weight: 200;" fill="rgb(50, 49, 63)" stroke="none" stroke-width="1px">-5</text><text x="75.875" y="0" dx="0em" dy="0.95em" style="text-anchor: middle; visibility: inherit; font-family: &quot;Helvetica Neue&quot;, sans-serif; font-size: 12px; font-weight: 200;" fill="rgb(50, 49, 63)" stroke="none" stroke-width="1px">0</text><text x="151.75" y="0" dx="0em" dy="0.95em" style="text-anchor: middle; visibility: inherit; font-family: &quot;Helvetica Neue&quot;, sans-serif; font-size: 12px; font-weight: 200;" fill="rgb(50, 49, 63)" stroke="none" stroke-width="1px">5</text><text x="227.625" y="0" dx="0em" dy="0.95em" style="text-anchor: middle; visibility: inherit; font-family: &quot;Helvetica Neue&quot;, sans-serif; font-size: 12px; font-weight: 200;" fill="rgb(50, 49, 63)" stroke="none" stroke-width="1px">10</text><text x="303.5" y="0" dx="0em" dy="0.95em" style="text-anchor: middle; visibility: inherit; font-family: &quot;Helvetica Neue&quot;, sans-serif; font-size: 12px; font-weight: 200;" fill="rgb(50, 49, 63)" stroke="none" stroke-width="1px">15</text><text x="379.375" y="0" dx="0em" dy="0.95em" style="text-anchor: middle; visibility: inherit; font-family: &quot;Helvetica Neue&quot;, sans-serif; font-size: 12px; font-weight: 200;" fill="rgb(50, 49, 63)" stroke="none" stroke-width="1px">20</text><text x="455.25" y="0" dx="0em" dy="0.95em" style="text-anchor: middle; visibility: inherit; font-family: &quot;Helvetica Neue&quot;, sans-serif; font-size: 12px; font-weight: 200;" fill="rgb(50, 49, 63)" stroke="none" stroke-width="1px">25</text><text x="531.125" y="0" dx="0em" dy="0.95em" style="text-anchor: middle; visibility: inherit; font-family: &quot;Helvetica Neue&quot;, sans-serif; font-size: 12px; font-weight: 200;" fill="rgb(50, 49, 63)" stroke="none" stroke-width="1px">30</text><text x="607" y="0" dx="0em" dy="0.95em" style="text-anchor: middle; visibility: inherit; font-family: &quot;Helvetica Neue&quot;, sans-serif; font-size: 12px; font-weight: 200;" fill="rgb(50, 49, 63)" stroke="none" stroke-width="1px">35</text><text x="682.875" y="0" dx="0em" dy="0.95em" style="text-anchor: middle; visibility: inherit; font-family: &quot;Helvetica Neue&quot;, sans-serif; font-size: 12px; font-weight: 200;" fill="rgb(50, 49, 63)" stroke="none" stroke-width="1px">40</text><text x="758.75" y="0" dx="0em" dy="0.95em" style="text-anchor: middle; visibility: inherit; font-family: &quot;Helvetica Neue&quot;, sans-serif; font-size: 12px; font-weight: 200;" fill="rgb(50, 49, 63)" stroke="none" stroke-width="1px">45</text><text x="834.625" y="0" dx="0em" dy="0.95em" style="text-anchor: middle; visibility: inherit; font-family: &quot;Helvetica Neue&quot;, sans-serif; font-size: 12px; font-weight: 200;" fill="rgb(50, 49, 63)" stroke="none" stroke-width="1px">50</text><text x="910.5" y="0" dx="0em" dy="0.95em" style="text-anchor: middle; visibility: hidden; font-family: &quot;Helvetica Neue&quot;, sans-serif; font-size: 12px; font-weight: 200;" fill="rgb(50, 49, 63)" stroke="none" stroke-width="1px">55</text></g><line x1="0" y1="0" x2="910.5" y2="0" fill="rgb(0, 0, 0)" stroke="rgb(204, 204, 204)" stroke-width="1px"></line></g></g></g></g></svg>