<svg viewBox="0 0 330 200" xmlns="http://www.w3.org/2000/svg"><g><g><g><g><g><line x1="50" y1="178" x2="45" y2="178" style="visibility: inherit;" fill="rgb(0, 0, 0)" stroke="rgb(204, 204, 204)" stroke-width="1px"></line><line x1="50" y1="165.28571428571428" x2="45" y2="165.28571428571428" style="visibility: inherit;" fill="rgb(0, 0, 0)" stroke="rgb(204, 204, 204)" stroke-width="1px"></line><line x1="50" y1="152.57142857142856" x2="45" y2="152.57142857142856" style="visibility: inherit;" fill="rgb(0, 0, 0)" stroke="rgb(204, 204, 204)" stroke-width="1px"></line><line x1="50" y1="139.85714285714283" x2="45" y2="139.85714285714283" style="visibility: inherit;" fill="rgb(0, 0, 0)" stroke="rgb(204, 204, 204)" stroke-width="1px"></line><line x1="50" y1="127.14285714285711" x2="45" y2="127.14285714285711" style="visibility: inherit;" fill="rgb(0, 0, 0)" stroke="rgb(204, 204, 204)" stroke-width="1px"></line><line x1="50" y1="114.42857142857137" x2="45" y2="114.42857142857137" style="visibility: inherit;" fill="rgb(0, 0, 0)" stroke="rgb(204, 204, 204)" stroke-width="1px"></line><line x1="50" y1="101.71428571428565" x2="45" y2="101.71428571428565" style="visibility: inherit;" fill="rgb(0, 0, 0)" stroke="rgb(204, 204, 204)" stroke-width="1px"></line><line x1="50" y1="88.99999999999991" x2="45" y2="88.99999999999991" style="visibility: inherit;" fill="rgb(0, 0, 0)" stroke="rgb(204, 204, 204)" stroke-width="1px"></line><line x1="50" y1="76.2857142857142" x2="45" y2="76.2857142857142" style="visibility: inherit;" fill="rgb(0, 0, 0)" stroke="rgb(204, 204, 204)" stroke-width="1px"></line><line x1="50" y1="63.571428571428484" x2="45" y2="63.571428571428484" style="visibility: inherit;" fill="rgb(0, 0, 0)" stroke="rgb(204, 204, 204)" stroke-width="1px"></line><line x1="50" y1="50.857142857142755" x2="45" y2="50.857142857142755" style="visibility: inherit;" fill="rgb(0, 0, 0)" stroke="rgb(204, 204, 204)" stroke-width="1px"></line><line x1="50" y1="38.142857142857025" x2="45" y2="38.142857142857025" style="visibility: inherit;" fill="rgb(0, 0, 0)" stroke="rgb(204, 204, 204)" stroke-width="1px"></line><line x1="50" y1="25.428571428571455" x2="45" y2="25.428571428571455" style="visibility: inherit;" fill="rgb(0, 0, 0)" stroke="rgb(204, 204, 204)" stroke-width="1px"></line><line x1="50" y1="12.714285714285728" x2="45" y2="12.714285714285728" style="visibility: inherit;" fill="rgb(0, 0, 0)" stroke="rgb(204, 204, 204)" stroke-width="1px"></line><line x1="50" y1="0" x2="45" y2="0" style="visibility: inherit;" fill="rgb(0, 0, 0)" stroke="rgb(204, 204, 204)" stroke-width="1px"></line></g><g transform="translate(40, 0)"><text x="0" y="178" dx="0em" dy="0.3em" style="text-anchor: end; visibility: hidden; font-family: Roboto, sans-serif; font-size: 12px; font-weight: 200;" fill="rgb(50, 49, 63)" stroke="none" stroke-width="1px">0.82</text><text x="0" y="165.28571428571428" dx="0em" dy="0.3em" style="text-anchor: end; visibility: inherit; font-family: Roboto, sans-serif; font-size: 12px; font-weight: 200;" fill="rgb(50, 49, 63)" stroke="none" stroke-width="1px">0.83</text><text x="0" y="152.57142857142856" dx="0em" dy="0.3em" style="text-anchor: end; visibility: hidden; font-family: Roboto, sans-serif; font-size: 12px; font-weight: 200;" fill="rgb(50, 49, 63)" stroke="none" stroke-width="1px">0.84</text><text x="0" y="139.85714285714283" dx="0em" dy="0.3em" style="text-anchor: end; visibility: inherit; font-family: Roboto, sans-serif; font-size: 12px; font-weight: 200;" fill="rgb(50, 49, 63)" stroke="none" stroke-width="1px">0.85</text><text x="0" y="127.14285714285711" dx="0em" dy="0.3em" style="text-anchor: end; visibility: hidden; font-family: Roboto, sans-serif; font-size: 12px; font-weight: 200;" fill="rgb(50, 49, 63)" stroke="none" stroke-width="1px">0.86</text><text x="0" y="114.42857142857137" dx="0em" dy="0.3em" style="text-anchor: end; visibility: inherit; font-family: Roboto, sans-serif; font-size: 12px; font-weight: 200;" fill="rgb(50, 49, 63)" stroke="none" stroke-width="1px">0.87</text><text x="0" y="101.71428571428565" dx="0em" dy="0.3em" style="text-anchor: end; visibility: hidden; font-family: Roboto, sans-serif; font-size: 12px; font-weight: 200;" fill="rgb(50, 49, 63)" stroke="none" stroke-width="1px">0.88</text><text x="0" y="88.99999999999991" dx="0em" dy="0.3em" style="text-anchor: end; visibility: inherit; font-family: Roboto, sans-serif; font-size: 12px; font-weight: 200;" fill="rgb(50, 49, 63)" stroke="none" stroke-width="1px">0.89</text><text x="0" y="76.2857142857142" dx="0em" dy="0.3em" style="text-anchor: end; visibility: hidden; font-family: Roboto, sans-serif; font-size: 12px; font-weight: 200;" fill="rgb(50, 49, 63)" stroke="none" stroke-width="1px">0.9</text><text x="0" y="63.571428571428484" dx="0em" dy="0.3em" style="text-anchor: end; visibility: inherit; font-family: Roboto, sans-serif; font-size: 12px; font-weight: 200;" fill="rgb(50, 49, 63)" stroke="none" stroke-width="1px">0.91</text><text x="0" y="50.857142857142755" dx="0em" dy="0.3em" style="text-anchor: end; visibility: hidden; font-family: Roboto, sans-serif; font-size: 12px; font-weight: 200;" fill="rgb(50, 49, 63)" stroke="none" stroke-width="1px">0.92</text><text x="0" y="38.142857142857025" dx="0em" dy="0.3em" style="text-anchor: end; visibility: inherit; font-family: Roboto, sans-serif; font-size: 12px; font-weight: 200;" fill="rgb(50, 49, 63)" stroke="none" stroke-width="1px">0.93</text><text x="0" y="25.428571428571455" dx="0em" dy="0.3em" style="text-anchor: end; visibility: hidden; font-family: Roboto, sans-serif; font-size: 12px; font-weight: 200;" fill="rgb(50, 49, 63)" stroke="none" stroke-width="1px">0.94</text><text x="0" y="12.714285714285728" dx="0em" dy="0.3em" style="text-anchor: end; visibility: inherit; font-family: Roboto, sans-serif; font-size: 12px; font-weight: 200;" fill="rgb(50, 49, 63)" stroke="none" stroke-width="1px">0.95</text><text x="0" y="0" dx="0em" dy="0.3em" style="text-anchor: end; visibility: hidden; font-family: Roboto, sans-serif; font-size: 12px; font-weight: 200;" fill="rgb(50, 49, 63)" stroke="none" stroke-width="1px">0.96</text></g><line x1="50" y1="0" x2="50" y2="178" fill="rgb(0, 0, 0)" stroke="rgb(204, 204, 204)" stroke-width="1px"></line></g></g><g transform="translate(50, 0)" clip-path="url(#clip_0)"><clipPath id="clip_0"><rect width="280" height="178"></rect></clipPath><g><g><g><line x1="0" y1="0" x2="0" y2="178" fill="rgb(0, 0, 0)" stroke="rgb(60, 60, 60)" stroke-width="1px" opacity="0.25"></line><line x1="23.333333333333332" y1="0" x2="23.333333333333332" y2="178" fill="rgb(0, 0, 0)" stroke="rgb(60, 60, 60)" stroke-width="1px" opacity="0.25"></line><line x1="46.666666666666664" y1="0" x2="46.666666666666664" y2="178" fill="rgb(0, 0, 0)" stroke="rgb(60, 60, 60)" stroke-width="1px" opacity="0.25"></line><line x1="70" y1="0" x2="70" y2="178" fill="rgb(0, 0, 0)" stroke="rgb(60, 60, 60)" stroke-width="1px" opacity="0.25"></line><line x1="93.33333333333333" y1="0" x2="93.33333333333333" y2="178" fill="rgb(0, 0, 0)" stroke="rgb(60, 60, 60)" stroke-width="1px" opacity="0.25"></line><line x1="116.66666666666667" y1="0" x2="116.66666666666667" y2="178" fill="rgb(0, 0, 0)" stroke="rgb(60, 60, 60)" stroke-width="1px" opacity="0.25"></line><line x1="140" y1="0" x2="140" y2="178" fill="rgb(0, 0, 0)" stroke="rgb(60, 60, 60)" stroke-width="1px" opacity="0.25"></line><line x1="163.33333333333334" y1="0" x2="163.33333333333334" y2="178" fill="rgb(0, 0, 0)" stroke="rgb(60, 60, 60)" stroke-width="1px" opacity="0.25"></line><line x1="186.66666666666666" y1="0" x2="186.66666666666666" y2="178" fill="rgb(0, 0, 0)" stroke="rgb(60, 60, 60)" stroke-width="1px" opacity="0.25"></line><line x1="210" y1="0" x2="210" y2="178" fill="rgb(0, 0, 0)" stroke="rgb(60, 60, 60)" stroke-width="1px" opacity="0.25"></line><line x1="233.33333333333334" y1="0" x2="233.33333333333334" y2="178" fill="rgb(0, 0, 0)" stroke="rgb(60, 60, 60)" stroke-width="1px" opacity="0.25"></line><line x1="256.66666666666663" y1="0" x2="256.66666666666663" y2="178" fill="rgb(0, 0, 0)" stroke="rgb(60, 60, 60)" stroke-width="1px" opacity="0.25"></line><line x1="280" y1="0" x2="280" y2="178" fill="rgb(0, 0, 0)" stroke="rgb(60, 60, 60)" stroke-width="1px" opacity="0.25"></line></g><g><line x1="0" y1="178" x2="280" y2="178" fill="rgb(0, 0, 0)" stroke="rgb(60, 60, 60)" stroke-width="1px" opacity="0.25"></line><line x1="0" y1="165.28571428571428" x2="280" y2="165.28571428571428" fill="rgb(0, 0, 0)" stroke="rgb(60, 60, 60)" stroke-width="1px" opacity="0.25"></line><line x1="0" y1="152.57142857142856" x2="280" y2="152.57142857142856" fill="rgb(0, 0, 0)" stroke="rgb(60, 60, 60)" stroke-width="1px" opacity="0.25"></line><line x1="0" y1="139.85714285714283" x2="280" y2="139.85714285714283" fill="rgb(0, 0, 0)" stroke="rgb(60, 60, 60)" stroke-width="1px" opacity="0.25"></line><line x1="0" y1="127.14285714285711" x2="280" y2="127.14285714285711" fill="rgb(0, 0, 0)" stroke="rgb(60, 60, 60)" stroke-width="1px" opacity="0.25"></line><line x1="0" y1="114.42857142857137" x2="280" y2="114.42857142857137" fill="rgb(0, 0, 0)" stroke="rgb(60, 60, 60)" stroke-width="1px" opacity="0.25"></line><line x1="0" y1="101.71428571428565" x2="280" y2="101.71428571428565" fill="rgb(0, 0, 0)" stroke="rgb(60, 60, 60)" stroke-width="1px" opacity="0.25"></line><line x1="0" y1="88.99999999999991" x2="280" y2="88.99999999999991" fill="rgb(0, 0, 0)" stroke="rgb(60, 60, 60)" stroke-width="1px" opacity="0.25"></line><line x1="0" y1="76.2857142857142" x2="280" y2="76.2857142857142" fill="rgb(0, 0, 0)" stroke="rgb(60, 60, 60)" stroke-width="1px" opacity="0.25"></line><line x1="0" y1="63.571428571428484" x2="280" y2="63.571428571428484" fill="rgb(0, 0, 0)" stroke="rgb(60, 60, 60)" stroke-width="1px" opacity="0.25"></line><line x1="0" y1="50.857142857142755" x2="280" y2="50.857142857142755" fill="rgb(0, 0, 0)" stroke="rgb(60, 60, 60)" stroke-width="1px" opacity="0.25"></line><line x1="0" y1="38.142857142857025" x2="280" y2="38.142857142857025" fill="rgb(0, 0, 0)" stroke="rgb(60, 60, 60)" stroke-width="1px" opacity="0.25"></line><line x1="0" y1="25.428571428571455" x2="280" y2="25.428571428571455" fill="rgb(0, 0, 0)" stroke="rgb(60, 60, 60)" stroke-width="1px" opacity="0.25"></line><line x1="0" y1="12.714285714285728" x2="280" y2="12.714285714285728" fill="rgb(0, 0, 0)" stroke="rgb(60, 60, 60)" stroke-width="1px" opacity="0.25"></line><line x1="0" y1="0" x2="280" y2="0" fill="rgb(0, 0, 0)" stroke="rgb(60, 60, 60)" stroke-width="1px" opacity="0.25"></line></g></g></g><g><g><line x1="0" y1="1220.5714285714284" x2="280" y2="1220.5714285714284" fill="rgb(0, 0, 0)" stroke="rgb(153, 153, 153)" stroke-width="1.5px"></line></g></g><g><g><line x1="23.333333333333332" y1="0" x2="23.333333333333332" y2="178" fill="rgb(0, 0, 0)" stroke="rgb(153, 153, 153)" stroke-width="1.5px"></line></g></g><g><g><g><g><g><path stroke="rgb(238, 51, 119)" stroke-width="2px" d="M23.333333333333332,192.64265813146312L28,160.93866828509732L32.666666666666664,150.47962243216372L37.333333333333336,137.73261056627538L42,129.88838301386147L46.666666666666664,127.60041700090676L51.33333333333333,120.40981824057437L56,113.21921948024197L60.66666666666667,112.89236719267703L65.33333333333333,110.27762467520571L70,106.02862071990961L74.66666666666667,104.39443506513318L79.33333333333333,100.47228339740201L84,101.12598797253195L88.66666666666666,97.53068859236575L93.33333333333333,98.51116967201227L98,92.95483234950467L102.66666666666666,94.91587029184609L107.33333333333334,94.91587029184609L112,95.56957486697598L116.66666666666667,90.01323754446841L121.33333333333334,92.95483234950467L126,98.83802195957723L130.66666666666666,90.99379440716329L135.33333333333334,91.3205709116799L140,88.05212381907867L144.66666666666669,85.7642335891723L149.33333333333334,90.99379440716329L154,86.09108587673727L158.66666666666666,85.43738130160736L163.33333333333334,86.41793816430221L168,88.05212381907867L172.66666666666669,83.149491071701L177.33333333333331,80.86152505874628L182,84.1299721513475L186.66666666666666,86.74479045186719L191.33333333333334,82.82263878413605L196,85.43738130160736L200.66666666666666,82.49578649657107L205.33333333333331,83.47634335926595L210,84.45682443891248L214.66666666666669,81.51522963387619L219.33333333333334,81.51522963387619L224,82.49578649657107L228.66666666666666,81.18837734631124L233.33333333333334,82.16893420900612L238,81.84208192144116L242.66666666666669,85.7642335891723L247.33333333333331,81.18837734631124L252,85.43738130160736" style="fill: none;" fill="none"></path></g><g><path stroke="rgb(51, 187, 238)" stroke-width="2px" d="M23.333333333333332,320.4525879791804L28,177.10243466922208L32.666666666666664,147.0889372825622L37.333333333333336,120.6485348428998L42,107.2138675962175L46.666666666666664,94.63683710779458L51.33333333333333,87.63364982604975L56,78.91549215997964L60.66666666666667,72.48401219504214L65.33333333333333,67.48172473907465L70,61.19324738638736L74.66666666666667,62.33658623695368L79.33333333333333,57.90600609779352L84,54.33298693384438L88.66666666666666,52.76086759567255L93.33333333333333,49.330775260925236L98,48.473214285714235L102.66666666666666,45.18604878016876L107.33333333333334,42.184661149978595L112,44.47141463415958L116.66666666666667,38.89749564443311L121.33333333333334,37.03952264785762L126,38.039934669222106L130.66666666666666,38.18286149842394L135.33333333333334,39.75498083659576L140,35.75318118504111L144.66666666666669,36.46781533105028L149.33333333333334,32.894796167101134L154,34.752769163676625L158.66666666666666,35.46740330968579L163.33333333333334,33.89520818846561L168,34.46691550527295L172.66666666666669,33.180649825504794L177.33333333333331,30.893896341323813L182,30.608042682920132L186.66666666666666,31.60845470428463L191.33333333333334,31.60845470428463L196,31.036823170525633L200.66666666666666,28.464216027940974L205.33333333333331,28.750069686344634L210,31.179749999727473L214.66666666666669,28.321289198739134L219.33333333333334,30.03633536611279L224,29.89340853691097L228.66666666666666,29.321777003151976L233.33333333333334,28.607142857142815L238,28.892996515546475L242.66666666666669,28.464216027940974L247.33333333333331,29.89340853691097L252,25.748682056154475" style="fill: none;" fill="none"></path></g><g><path stroke="rgb(204, 51, 17)" stroke-width="2px" d="M23.333333333333332,191.33532476425162L28,173.03197557585574L32.666666666666664,149.1722132819039L37.333333333333336,148.84536099433893L42,134.79101576123912L46.666666666666664,121.06352281570429L51.33333333333333,120.73667052813931L56,116.81451886040817L60.66666666666667,112.89236719267703L65.33333333333333,108.64343902042928L70,102.10646905217847L74.66666666666667,107.33602987016945L79.33333333333333,102.10646905217847L84,97.2038363048008L88.66666666666666,97.2038363048008L93.33333333333333,97.2038363048008L98,95.24272257941104L102.66666666666666,97.8575408799307L107.33333333333334,99.16487424714218L112,99.16487424714218L116.66666666666667,93.28168463706966L121.33333333333334,93.28168463706966L126,92.30112777437478L130.66666666666666,93.93538921219955L135.33333333333334,95.24272257941104L140,90.99379440716329L144.66666666666669,88.37897610664362L149.33333333333334,88.70582839420858L154,90.34008983203336L158.66666666666666,91.97427548680982L163.33333333333334,89.03268068177353L168,85.7642335891723L172.66666666666669,89.3595329693385L177.33333333333331,85.43738130160736L182,90.99379440716329L186.66666666666666,88.05212381907867L191.33333333333334,84.45682443891248L196,83.8031956468309L200.66666666666666,82.49578649657107L205.33333333333331,88.05212381907867L210,84.78367672647744L214.66666666666669,84.45682443891248L219.33333333333334,82.82263878413605L224,86.09108587673727L228.66666666666666,84.1299721513475L233.33333333333334,84.45682443891248L238,81.51522963387619L242.66666666666669,83.149491071701L247.33333333333331,83.149491071701L252,83.47634335926595" style="fill: none;" fill="none"></path></g><g><path stroke="rgb(0, 119, 187)" stroke-width="2px" d="M23.333333333333332,333.6013257844107L28,177.6741419860294L32.666666666666664,146.8031594072069L37.333333333333336,122.22065418107162L42,109.5006210803985L46.666666666666664,93.4934224741799L51.33333333333333,88.06243031365524L56,79.63005052294045L60.66666666666667,74.05613153321399L65.33333333333333,68.62513937268933L70,67.33887369292117L74.66666666666667,59.76397909436902L79.33333333333333,54.19006010464255L84,51.04582142829889L88.66666666666666,51.90330662046155L93.33333333333333,48.75906794411791L98,45.614753484725895L102.66666666666666,44.75726829256325L107.33333333333334,43.18514895439144L112,40.46961498260494L116.66666666666667,42.184661149978595L121.33333333333334,39.46920296124045L126,39.32627613203861L130.66666666666666,40.04083449499942L135.33333333333334,34.60984233447479L140,36.32488850184845L144.66666666666669,35.46740330968579L149.33333333333334,32.46601567949563L154,34.323988676071124L158.66666666666666,31.322676828929314L163.33333333333334,32.32308885029379L168,31.465603658131133L172.66666666666669,32.32308885029379L177.33333333333331,31.465603658131133L182,31.322676828929314L186.66666666666666,32.18016202109195L191.33333333333334,32.46601567949563L196,31.465603658131133L200.66666666666666,32.037235191890126L205.33333333333331,29.75048170770913L210,28.035435540335474L214.66666666666669,29.60755487850729L219.33333333333334,27.32087717737466L224,30.893896341323813L228.66666666666666,28.892996515546475L233.33333333333334,29.75048170770913L238,29.75048170770913L242.66666666666669,28.607142857142815L247.33333333333331,27.892508711133633L252,29.178850173950156" style="fill: none;" fill="none"></path></g><g><path stroke="rgb(238, 51, 119)" stroke-width="2px" d="M23.333333333333332,187.08632080895555L28,162.8997062274387L32.666666666666664,146.5574707644326L37.333333333333336,134.46416347367418L42,128.58097386360163L46.666666666666664,122.69778425352908L51.33333333333333,114.8534809180668L56,114.8534809180668L60.66666666666667,109.95077238764077L65.33333333333333,105.37499192782803L70,107.98973444529935L74.66666666666667,104.39443506513318L79.33333333333333,98.51116967201227L84,94.91587029184609L88.66666666666666,98.18439316749567L93.33333333333333,92.62798006193972L98,93.6085369246346L102.66666666666666,90.99379440716329L107.33333333333334,93.6085369246346L112,90.66694211959835L116.66666666666667,91.3205709116799L121.33333333333334,89.68638525690346L126,91.64742319924484L130.66666666666666,91.3205709116799L135.33333333333334,87.3984950269971L140,88.05212381907867L144.66666666666669,88.70582839420858L149.33333333333334,89.03268068177353L154,91.97427548680982L158.66666666666666,84.1299721513475L163.33333333333334,90.01323754446841L168,86.09108587673727L172.66666666666669,87.07164273943215L177.33333333333331,85.43738130160736L182,84.45682443891248L186.66666666666666,83.47634335926595L191.33333333333334,81.51522963387619L196,82.49578649657107L200.66666666666666,85.43738130160736L205.33333333333331,87.07164273943215L210,80.20789626666473L214.66666666666669,86.41793816430221L219.33333333333334,83.47634335926595L224,78.90048711640488L228.66666666666666,80.53467277118133L233.33333333333334,82.82263878413605L238,80.20789626666473L242.66666666666669,79.55419169153481L247.33333333333331,80.20789626666473L252,83.47634335926595" style="fill: none;" fill="none"></path></g><g><path stroke="rgb(51, 187, 238)" stroke-width="2px" d="M23.333333333333332,321.7388536589485L28,172.9577081884656L32.666666666666664,142.9442108018057L37.333333333333336,127.3657926831926L42,107.78557491302485L46.666666666666664,96.6377369335719L51.33333333333333,88.49121080126076L56,83.06021864073611L60.66666666666667,73.62735104560846L65.33333333333333,63.622851916721835L70,64.90919337953835L74.66666666666667,59.47812543596535L79.33333333333333,55.762179442814364L84,51.61745296205788L88.66666666666666,51.188748257500734L93.33333333333333,48.901994773319736L98,47.47280226434975L102.66666666666666,44.32848780495775L107.33333333333334,43.61385365894858L112,40.183761324201264L116.66666666666667,42.47051480838226L121.33333333333334,39.8979076657976L126,36.89659581865578L130.66666666666666,36.18196167264661L135.33333333333334,37.32537630626129L140,38.75456881523128L144.66666666666669,36.89659581865578L149.33333333333334,35.46740330968579L154,32.60894250869747L158.66666666666666,34.89569599287845L163.33333333333334,31.179749999727473L168,33.60935453006195L172.66666666666669,30.750969512121973L177.33333333333331,33.180649825504794L182,33.180649825504794L186.66666666666666,33.180649825504794L191.33333333333334,29.464703832353816L196,28.035435540335474L200.66666666666666,29.178850173950156L205.33333333333331,31.036823170525633L210,29.89340853691097L214.66666666666669,30.17926219531463L219.33333333333334,26.606243031365477L224,30.03633536611279L228.66666666666666,30.17926219531463L233.33333333333334,28.892996515546475L238,28.750069686344634L242.66666666666669,28.321289198739134L247.33333333333331,27.035023518970977L252,28.321289198739134" style="fill: none;" fill="none"></path></g><g><path stroke="rgb(204, 51, 17)" stroke-width="2px" d="M23.333333333333332,188.06680188860207L28,161.2655205726623L32.666666666666664,147.8648799146924L37.333333333333336,131.84942095620286L42,125.63937905856534L46.666666666666664,125.31252677100039L51.33333333333333,117.79507572310305L56,116.16081428527826L60.66666666666667,107.33602987016945L65.33333333333333,103.08702591487332L70,105.04813964026309L74.66666666666667,102.76017362730838L79.33333333333333,98.18439316749567L84,98.18439316749567L88.66666666666666,95.89642715454097L93.33333333333333,94.91587029184609L98,96.22327944210592L102.66666666666666,94.91587029184609L107.33333333333334,93.93538921219955L112,94.58909378732949L116.66666666666667,92.30112777437478L121.33333333333334,93.6085369246346L126,89.3595329693385L130.66666666666666,87.3984950269971L135.33333333333334,90.66694211959835L140,90.34008983203336L144.66666666666669,85.11052901404238L149.33333333333334,88.70582839420858L154,88.70582839420858L158.66666666666666,86.74479045186719L163.33333333333334,87.07164273943215L168,84.78367672647744L172.66666666666669,84.45682443891248L177.33333333333331,87.7252715315137L182,85.43738130160736L186.66666666666666,83.149491071701L191.33333333333334,87.07164273943215L196,87.7252715315137L200.66666666666666,82.82263878413605L205.33333333333331,84.78367672647744L210,82.82263878413605L214.66666666666669,83.149491071701L219.33333333333334,81.51522963387619L224,83.8031956468309L228.66666666666666,77.91993025371002L233.33333333333334,79.22733940396985L238,81.18837734631124L242.66666666666669,80.20789626666473L247.33333333333331,82.16893420900612L252,81.51522963387619" style="fill: none;" fill="none"></path></g><g><path stroke="rgb(0, 119, 187)" stroke-width="2px" d="M23.333333333333332,321.5960026127951L28,173.3864886760711L32.666666666666664,146.8031594072069L37.333333333333336,125.07903919901162L42,110.07232839720584L46.666666666666664,96.35188327516823L51.33333333333333,87.34779616764608L56,80.05883101054596L60.66666666666667,73.19864634105133L65.33333333333333,68.91099303109301L70,65.48082491329733L74.66666666666667,59.62105226516718L79.33333333333333,56.61974041802538L84,50.75996776989523L88.66666666666666,49.61655313628055L93.33333333333333,46.75816811834058L98,46.47231445993691L102.66666666666666,42.32758797918042L107.33333333333334,42.89929529598776L112,42.041734320776754L116.66666666666667,41.75588066237308L121.33333333333334,40.89839547021044L126,39.46920296124045L130.66666666666666,38.46871515682761L135.33333333333334,37.18244947705945L140,36.03903484344478L144.66666666666669,35.75318118504111L149.33333333333334,35.324476480483966L154,35.324476480483966L158.66666666666666,32.894796167101134L163.33333333333334,31.465603658131133L168,32.46601567949563L172.66666666666669,32.894796167101134L177.33333333333331,31.179749999727473L182,29.60755487850729L186.66666666666666,31.322676828929314L191.33333333333334,30.46511585371829L196,30.893896341323813L200.66666666666666,30.322189024516472L205.33333333333331,32.32308885029379L210,27.60673083577832L214.66666666666669,29.464703832353816L219.33333333333334,27.892508711133633L224,27.892508711133633L228.66666666666666,30.608042682920132L233.33333333333334,26.606243031365477L238,29.178850173950156L242.66666666666669,28.321289198739134L247.33333333333331,29.75048170770913L252,28.607142857142815" style="fill: none;" fill="none"></path></g></g></g></g></g></g><g transform="translate(50, 178)" clip-path="url(#clip_1)"><clipPath id="clip_1"><rect width="280" height="22"></rect></clipPath><g><g><line x1="0" y1="0" x2="0" y2="5" style="visibility: inherit;" fill="rgb(0, 0, 0)" stroke="rgb(204, 204, 204)" stroke-width="1px"></line><line x1="23.333333333333332" y1="0" x2="23.333333333333332" y2="5" style="visibility: inherit;" fill="rgb(0, 0, 0)" stroke="rgb(204, 204, 204)" stroke-width="1px"></line><line x1="46.666666666666664" y1="0" x2="46.666666666666664" y2="5" style="visibility: inherit;" fill="rgb(0, 0, 0)" stroke="rgb(204, 204, 204)" stroke-width="1px"></line><line x1="70" y1="0" x2="70" y2="5" style="visibility: inherit;" fill="rgb(0, 0, 0)" stroke="rgb(204, 204, 204)" stroke-width="1px"></line><line x1="93.33333333333333" y1="0" x2="93.33333333333333" y2="5" style="visibility: inherit;" fill="rgb(0, 0, 0)" stroke="rgb(204, 204, 204)" stroke-width="1px"></line><line x1="116.66666666666667" y1="0" x2="116.66666666666667" y2="5" style="visibility: inherit;" fill="rgb(0, 0, 0)" stroke="rgb(204, 204, 204)" stroke-width="1px"></line><line x1="140" y1="0" x2="140" y2="5" style="visibility: inherit;" fill="rgb(0, 0, 0)" stroke="rgb(204, 204, 204)" stroke-width="1px"></line><line x1="163.33333333333334" y1="0" x2="163.33333333333334" y2="5" style="visibility: inherit;" fill="rgb(0, 0, 0)" stroke="rgb(204, 204, 204)" stroke-width="1px"></line><line x1="186.66666666666666" y1="0" x2="186.66666666666666" y2="5" style="visibility: inherit;" fill="rgb(0, 0, 0)" stroke="rgb(204, 204, 204)" stroke-width="1px"></line><line x1="210" y1="0" x2="210" y2="5" style="visibility: inherit;" fill="rgb(0, 0, 0)" stroke="rgb(204, 204, 204)" stroke-width="1px"></line><line x1="233.33333333333334" y1="0" x2="233.33333333333334" y2="5" style="visibility: inherit;" fill="rgb(0, 0, 0)" stroke="rgb(204, 204, 204)" stroke-width="1px"></line><line x1="256.66666666666663" y1="0" x2="256.66666666666663" y2="5" style="visibility: inherit;" fill="rgb(0, 0, 0)" stroke="rgb(204, 204, 204)" stroke-width="1px"></line><line x1="280" y1="0" x2="280" y2="5" style="visibility: inherit;" fill="rgb(0, 0, 0)" stroke="rgb(204, 204, 204)" stroke-width="1px"></line></g><g transform="translate(0, 8)"><text x="0" y="0" dx="0em" dy="0.95em" style="text-anchor: middle; visibility: hidden; font-family: Roboto, sans-serif; font-size: 12px; font-weight: 200;" fill="rgb(50, 49, 63)" stroke="none" stroke-width="1px">-5</text><text x="23.333333333333332" y="0" dx="0em" dy="0.95em" style="text-anchor: middle; visibility: inherit; font-family: Roboto, sans-serif; font-size: 12px; font-weight: 200;" fill="rgb(50, 49, 63)" stroke="none" stroke-width="1px">0</text><text x="46.666666666666664" y="0" dx="0em" dy="0.95em" style="text-anchor: middle; visibility: inherit; font-family: Roboto, sans-serif; font-size: 12px; font-weight: 200;" fill="rgb(50, 49, 63)" stroke="none" stroke-width="1px">5</text><text x="70" y="0" dx="0em" dy="0.95em" style="text-anchor: middle; visibility: inherit; font-family: Roboto, sans-serif; font-size: 12px; font-weight: 200;" fill="rgb(50, 49, 63)" stroke="none" stroke-width="1px">10</text><text x="93.33333333333333" y="0" dx="0em" dy="0.95em" style="text-anchor: middle; visibility: inherit; font-family: Roboto, sans-serif; font-size: 12px; font-weight: 200;" fill="rgb(50, 49, 63)" stroke="none" stroke-width="1px">15</text><text x="116.66666666666667" y="0" dx="0em" dy="0.95em" style="text-anchor: middle; visibility: inherit; font-family: Roboto, sans-serif; font-size: 12px; font-weight: 200;" fill="rgb(50, 49, 63)" stroke="none" stroke-width="1px">20</text><text x="140" y="0" dx="0em" dy="0.95em" style="text-anchor: middle; visibility: inherit; font-family: Roboto, sans-serif; font-size: 12px; font-weight: 200;" fill="rgb(50, 49, 63)" stroke="none" stroke-width="1px">25</text><text x="163.33333333333334" y="0" dx="0em" dy="0.95em" style="text-anchor: middle; visibility: inherit; font-family: Roboto, sans-serif; font-size: 12px; font-weight: 200;" fill="rgb(50, 49, 63)" stroke="none" stroke-width="1px">30</text><text x="186.66666666666666" y="0" dx="0em" dy="0.95em" style="text-anchor: middle; visibility: inherit; font-family: Roboto, sans-serif; font-size: 12px; font-weight: 200;" fill="rgb(50, 49, 63)" stroke="none" stroke-width="1px">35</text><text x="210" y="0" dx="0em" dy="0.95em" style="text-anchor: middle; visibility: inherit; font-family: Roboto, sans-serif; font-size: 12px; font-weight: 200;" fill="rgb(50, 49, 63)" stroke="none" stroke-width="1px">40</text><text x="233.33333333333334" y="0" dx="0em" dy="0.95em" style="text-anchor: middle; visibility: inherit; font-family: Roboto, sans-serif; font-size: 12px; font-weight: 200;" fill="rgb(50, 49, 63)" stroke="none" stroke-width="1px">45</text><text x="256.66666666666663" y="0" dx="0em" dy="0.95em" style="text-anchor: middle; visibility: inherit; font-family: Roboto, sans-serif; font-size: 12px; font-weight: 200;" fill="rgb(50, 49, 63)" stroke="none" stroke-width="1px">50</text><text x="280" y="0" dx="0em" dy="0.95em" style="text-anchor: middle; visibility: hidden; font-family: Roboto, sans-serif; font-size: 12px; font-weight: 200;" fill="rgb(50, 49, 63)" stroke="none" stroke-width="1px">55</text></g><line x1="0" y1="0" x2="280" y2="0" fill="rgb(0, 0, 0)" stroke="rgb(204, 204, 204)" stroke-width="1px"></line></g></g></g></g></svg>