<svg viewBox="0 0 950.5 400" xmlns="http://www.w3.org/2000/svg"><g><g><g><g><g><line x1="40" y1="325.07326183146336" x2="35" y2="325.07326183146336" style="visibility: inherit;" fill="rgb(0, 0, 0)" stroke="rgb(204, 204, 204)" stroke-width="1px"></line><line x1="40" y1="37.249942612370944" x2="35" y2="37.249942612370944" style="visibility: inherit;" fill="rgb(0, 0, 0)" stroke="rgb(204, 204, 204)" stroke-width="1px"></line></g><g transform="translate(30, 0)"><text x="0" y="325.07326183146336" dx="0em" dy="0.3em" style="text-anchor: end; visibility: inherit; font-family: &quot;Helvetica Neue&quot;, sans-serif; font-size: 12px; font-weight: 200;" fill="rgb(50, 49, 63)" stroke="none" stroke-width="1px">0.2</text><text x="0" y="37.249942612370944" dx="0em" dy="0.3em" style="text-anchor: end; visibility: inherit; font-family: &quot;Helvetica Neue&quot;, sans-serif; font-size: 12px; font-weight: 200;" fill="rgb(50, 49, 63)" stroke="none" stroke-width="1px">0.3</text></g><line x1="40" y1="0" x2="40" y2="378" fill="rgb(0, 0, 0)" stroke="rgb(204, 204, 204)" stroke-width="1px"></line></g></g><g transform="translate(40, 0)" clip-path="url(#clip_0)"><clipPath id="clip_0"><rect width="910" height="378"></rect></clipPath><g><g><g><line x1="0" y1="0" x2="0" y2="378" fill="rgb(0, 0, 0)" stroke="rgb(60, 60, 60)" stroke-width="1px" opacity="0.25"></line><line x1="75.875" y1="0" x2="75.875" y2="378" fill="rgb(0, 0, 0)" stroke="rgb(60, 60, 60)" stroke-width="1px" opacity="0.25"></line><line x1="151.75" y1="0" x2="151.75" y2="378" fill="rgb(0, 0, 0)" stroke="rgb(60, 60, 60)" stroke-width="1px" opacity="0.25"></line><line x1="227.625" y1="0" x2="227.625" y2="378" fill="rgb(0, 0, 0)" stroke="rgb(60, 60, 60)" stroke-width="1px" opacity="0.25"></line><line x1="303.5" y1="0" x2="303.5" y2="378" fill="rgb(0, 0, 0)" stroke="rgb(60, 60, 60)" stroke-width="1px" opacity="0.25"></line><line x1="379.375" y1="0" x2="379.375" y2="378" fill="rgb(0, 0, 0)" stroke="rgb(60, 60, 60)" stroke-width="1px" opacity="0.25"></line><line x1="455.25" y1="0" x2="455.25" y2="378" fill="rgb(0, 0, 0)" stroke="rgb(60, 60, 60)" stroke-width="1px" opacity="0.25"></line><line x1="531.125" y1="0" x2="531.125" y2="378" fill="rgb(0, 0, 0)" stroke="rgb(60, 60, 60)" stroke-width="1px" opacity="0.25"></line><line x1="607" y1="0" x2="607" y2="378" fill="rgb(0, 0, 0)" stroke="rgb(60, 60, 60)" stroke-width="1px" opacity="0.25"></line><line x1="682.875" y1="0" x2="682.875" y2="378" fill="rgb(0, 0, 0)" stroke="rgb(60, 60, 60)" stroke-width="1px" opacity="0.25"></line><line x1="758.75" y1="0" x2="758.75" y2="378" fill="rgb(0, 0, 0)" stroke="rgb(60, 60, 60)" stroke-width="1px" opacity="0.25"></line><line x1="834.625" y1="0" x2="834.625" y2="378" fill="rgb(0, 0, 0)" stroke="rgb(60, 60, 60)" stroke-width="1px" opacity="0.25"></line><line x1="910.5" y1="0" x2="910.5" y2="378" fill="rgb(0, 0, 0)" stroke="rgb(60, 60, 60)" stroke-width="1px" opacity="0.25"></line></g><g><line x1="0" y1="325.07326183146336" x2="910.5" y2="325.07326183146336" fill="rgb(0, 0, 0)" stroke="rgb(60, 60, 60)" stroke-width="1px" opacity="0.25"></line><line x1="0" y1="37.249942612370944" x2="910.5" y2="37.249942612370944" fill="rgb(0, 0, 0)" stroke="rgb(60, 60, 60)" stroke-width="1px" opacity="0.25"></line></g></g></g><g><g><line x1="75.875" y1="0" x2="75.875" y2="378" fill="rgb(0, 0, 0)" stroke="rgb(153, 153, 153)" stroke-width="1.5px"></line></g></g><g><g><g><g><g><path stroke="rgb(51, 187, 238)" stroke-width="2px" d="M91.05000000000001,-39.32799743140589L106.22500000000001,41.03021892578056L121.39999999999999,112.63949638580311L136.575,157.4921652623866L151.75,194.48923938810532L166.92499999999998,224.1316393381264L182.10000000000002,248.57211715092103L197.275,262.1457645320437L212.45000000000002,277.0168890477707L227.625,283.9724206578696L242.79999999999998,291.92926748823595L257.97499999999997,306.6973571809469L273.15,313.96139658619745L288.325,318.00916564106564L303.5,316.27538628194765L318.67499999999995,324.8548017966622L333.84999999999997,322.2383750477835L349.02500000000003,324.3193007641868L364.20000000000005,321.14762264719496L379.375,313.52577977042915L394.55,322.62476701693913L409.725,310.208126626447L424.90000000000003,299.67206239684685L440.075,310.5675549593906L455.25,299.7293709383671L470.42500000000007,291.88379006171897L485.59999999999997,296.90751554142116L500.77500000000003,289.31136733934113L515.9499999999999,281.51117116074937L531.125,273.61471197077753L546.3,272.3357346423687L561.475,258.6532113671785L576.65,255.5102725771265L591.825,248.1290279134644L607,245.47609574676287L622.1750000000001,231.30461391660322L637.3499999999999,232.03931657075108L652.525,226.26763463130138L667.6999999999999,218.20945268084623L682.875,210.62364585224546L698.0500000000001,208.04743716850686L713.225,193.0480589108941L728.4000000000001,196.58642599364228L743.5749999999999,180.80557525094375L758.75,169.9117466252661L773.925,168.3484134516832L789.1,155.98396584472783L804.275,154.11514181391905L819.45,147.30490434176858" style="fill: none;" fill="none"></path></g><g><path stroke="rgb(0, 119, 187)" stroke-width="2px" d="M91.05000000000001,-37.03169303322312L106.22500000000001,37.158176132192295L121.39999999999999,109.52726550984153L136.575,149.49972173158181L151.75,191.43864363207024L166.92499999999998,220.11409962250866L182.10000000000002,250.2879803059173L197.275,260.39408091406347L212.45000000000002,280.87974622545033L227.625,284.21244476177145L242.79999999999998,311.69234516498994L257.97499999999997,309.2606948470287L273.15,312.80249386741434L288.325,324.2070405350367L303.5,332.439005828424L318.67499999999995,317.89213960412206L333.84999999999997,318.1014386960997L349.02500000000003,308.81720042345944L364.20000000000005,328.57963592324535L379.375,320.56582284658293L394.55,305.62341481625765L409.725,305.37223539076456L424.90000000000003,294.08159368909116L440.075,291.7028682230203L455.25,287.0053885848622L470.42500000000007,280.18180543193125L485.59999999999997,269.7474409553006L500.77500000000003,272.33917177827504L515.9499999999999,262.08565178664986L531.125,260.85175541636204L546.3,243.06162151378956L561.475,229.30642884521552L576.65,228.56646878561804L591.825,227.92353332611532L607,224.13742001244046L622.1750000000001,231.0254454968511L637.3499999999999,203.30411508760764L652.525,190.70125707663163L667.6999999999999,191.88879122082753L682.875,182.77059883561824L698.0500000000001,181.63122177778172L713.225,169.28886242202432L728.4000000000001,169.53241088003583L743.5749999999999,163.4055764031709L758.75,155.8546905717502L773.925,150.90232026402822L789.1,153.19755843843265L804.275,153.49885759890637L819.45,144.33553132251868" style="fill: none;" fill="none"></path></g><g><path stroke="rgb(187, 187, 187)" stroke-width="2px" d="M91.05000000000001,-49.405292513384495L106.22500000000001,61.669055774635865L121.39999999999999,110.85815671454083L136.575,154.43097039443117L151.75,187.77939701892177L166.92499999999998,215.5687641211523L182.10000000000002,245.9659766961005L197.275,249.56886773722312L212.45000000000002,268.8900432483864L227.625,291.5047398005005L242.79999999999998,288.1311830229064L257.97499999999997,302.2230681677543L273.15,324.00000000000006L288.325,325.04611988735627L303.5,325.6126031474044L318.67499999999995,336.021960776352L333.84999999999997,319.4707614738218L349.02500000000003,325.1507902705348L364.20000000000005,312.640951328774L379.375,320.07067508008646L394.55,314.51341949339775L409.725,314.0526242050049L424.90000000000003,305.4916914573848L440.075,293.3295903367955L455.25,288.83598242497015L470.42500000000007,288.88015929151845L485.59999999999997,276.79850608426085L500.77500000000003,272.39809669633667L515.9499999999999,274.8310014941504L531.125,271.2901942613014L546.3,257.40675078458025L561.475,252.3951284264486L576.65,249.55327085325112L591.825,248.24672766739565L607,243.2387133582794L622.1750000000001,240.11865677935867L637.3499999999999,219.96567006691606L652.525,220.1570286450048L667.6999999999999,216.47073125315228L682.875,210.91309609572787L698.0500000000001,209.98033564636495L713.225,204.94207380076165L728.4000000000001,195.80911291712636L743.5749999999999,197.32955695650605L758.75,192.7708488892772L773.925,185.71111691516188L789.1,173.69663816404375L804.275,170.56329855002713L819.45,163.7157911602771" style="fill: none;" fill="none"></path></g><g><path stroke="rgb(238, 51, 119)" stroke-width="2px" d="M91.05000000000001,-33.8941372001687L106.22500000000001,51.10756911101322L121.39999999999999,107.63479343359558L136.575,156.70153390622073L151.75,185.36963853603652L166.92499999999998,223.17631880330995L182.10000000000002,237.18569318114587L197.275,253.64763822525936L212.45000000000002,270.9938724600664L227.625,282.3801740439691L242.79999999999998,294.883660127079L257.97499999999997,301.2126322060636L273.15,299.7568276046559L288.325,318.55355098597573L303.5,319.37505737541625L318.67499999999995,320.7624016446818L333.84999999999997,311.98575050993315L349.02500000000003,321.14667590201356L364.20000000000005,318.7245171158326L379.375,308.0273840362989L394.55,304.04044325188505L409.725,306.15348817720064L424.90000000000003,289.8176180990688L440.075,273.6731033423565L455.25,285.8298794567051L470.42500000000007,280.73817532003926L485.59999999999997,266.03280725853233L500.77500000000003,267.4975138931722L515.9499999999999,269.3368990816623L531.125,256.13295828687615L546.3,262.1328413142361L561.475,249.953144322137L576.65,248.19475702317823L591.825,248.87974592250836L607,240.7468132084387L622.1750000000001,225.2360977350034L637.3499999999999,224.2726828770064L652.525,218.30472983953536L667.6999999999999,219.62513834817113L682.875,200.43828634575664L698.0500000000001,197.68117042180762L713.225,195.8847646356805L728.4000000000001,192.33764517147975L743.5749999999999,172.6271013738535L758.75,178.92664294932948L773.925,170.74140785418163L789.1,166.99687695764496L804.275,156.56078201209044L819.45,159.47302369314863" style="fill: none;" fill="none"></path></g><g><path stroke="rgb(204, 51, 17)" stroke-width="2px" d="M91.05000000000001,-39.30799218483031L106.22500000000001,53.99999999999994L121.39999999999999,110.85620113942241L136.575,166.2042621815216L151.75,196.43348084462045L166.92499999999998,223.09325838470133L182.10000000000002,241.03706732509755L197.275,258.9021207118318L212.45000000000002,281.286677513569L227.625,288.9443940432958L242.79999999999998,303.9283668680736L257.97499999999997,323.23141505040707L273.15,317.11455062878167L288.325,326.83042886092835L303.5,326.70494221300646L318.67499999999995,322.7696721184595L333.84999999999997,334.71348501981385L349.02500000000003,331.18336117359183L364.20000000000005,318.12128787309246L379.375,303.92800751280197L394.55,316.3743827122383L409.725,308.42605708058204L424.90000000000003,313.86039337919306L440.075,300.4453265327869L455.25,302.0049842155856L470.42500000000007,295.44361220405835L485.59999999999997,281.4640186211009L500.77500000000003,291.2718696031177L515.9499999999999,279.9615037713034L531.125,266.7879972938328L546.3,268.56429246595803L561.475,269.86246851395236L576.65,258.5402265608907L591.825,239.36533019512143L607,240.88687571376397L622.1750000000001,229.5453484334731L637.3499999999999,208.95776508900786L652.525,218.47456783427896L667.6999999999999,209.80761675371414L682.875,192.41577958166502L698.0500000000001,196.74372998764048L713.225,180.00671227438733L728.4000000000001,176.17285108862043L743.5749999999999,187.85249766075947L758.75,173.99171895096092L773.925,162.24065976640074L789.1,162.8395859094614L804.275,162.15665365764838L819.45,148.45090818906678" style="fill: none;" fill="none"></path></g></g></g></g></g></g><g transform="translate(40, 378)" clip-path="url(#clip_1)"><clipPath id="clip_1"><rect width="910" height="22"></rect></clipPath><g><g><line x1="0" y1="0" x2="0" y2="5" style="visibility: inherit;" fill="rgb(0, 0, 0)" stroke="rgb(204, 204, 204)" stroke-width="1px"></line><line x1="75.875" y1="0" x2="75.875" y2="5" style="visibility: inherit;" fill="rgb(0, 0, 0)" stroke="rgb(204, 204, 204)" stroke-width="1px"></line><line x1="151.75" y1="0" x2="151.75" y2="5" style="visibility: inherit;" fill="rgb(0, 0, 0)" stroke="rgb(204, 204, 204)" stroke-width="1px"></line><line x1="227.625" y1="0" x2="227.625" y2="5" style="visibility: inherit;" fill="rgb(0, 0, 0)" stroke="rgb(204, 204, 204)" stroke-width="1px"></line><line x1="303.5" y1="0" x2="303.5" y2="5" style="visibility: inherit;" fill="rgb(0, 0, 0)" stroke="rgb(204, 204, 204)" stroke-width="1px"></line><line x1="379.375" y1="0" x2="379.375" y2="5" style="visibility: inherit;" fill="rgb(0, 0, 0)" stroke="rgb(204, 204, 204)" stroke-width="1px"></line><line x1="455.25" y1="0" x2="455.25" y2="5" style="visibility: inherit;" fill="rgb(0, 0, 0)" stroke="rgb(204, 204, 204)" stroke-width="1px"></line><line x1="531.125" y1="0" x2="531.125" y2="5" style="visibility: inherit;" fill="rgb(0, 0, 0)" stroke="rgb(204, 204, 204)" stroke-width="1px"></line><line x1="607" y1="0" x2="607" y2="5" style="visibility: inherit;" fill="rgb(0, 0, 0)" stroke="rgb(204, 204, 204)" stroke-width="1px"></line><line x1="682.875" y1="0" x2="682.875" y2="5" style="visibility: inherit;" fill="rgb(0, 0, 0)" stroke="rgb(204, 204, 204)" stroke-width="1px"></line><line x1="758.75" y1="0" x2="758.75" y2="5" style="visibility: inherit;" fill="rgb(0, 0, 0)" stroke="rgb(204, 204, 204)" stroke-width="1px"></line><line x1="834.625" y1="0" x2="834.625" y2="5" style="visibility: inherit;" fill="rgb(0, 0, 0)" stroke="rgb(204, 204, 204)" stroke-width="1px"></line><line x1="910.5" y1="0" x2="910.5" y2="5" style="visibility: inherit;" fill="rgb(0, 0, 0)" stroke="rgb(204, 204, 204)" stroke-width="1px"></line></g><g transform="translate(0, 8)"><text x="0" y="0" dx="0em" dy="0.95em" style="text-anchor: middle; visibility: hidden; font-family: &quot;Helvetica Neue&quot;, sans-serif; font-size: 12px; font-weight: 200;" fill="rgb(50, 49, 63)" stroke="none" stroke-width="1px">-5</text><text x="75.875" y="0" dx="0em" dy="0.95em" style="text-anchor: middle; visibility: inherit; font-family: &quot;Helvetica Neue&quot;, sans-serif; font-size: 12px; font-weight: 200;" fill="rgb(50, 49, 63)" stroke="none" stroke-width="1px">0</text><text x="151.75" y="0" dx="0em" dy="0.95em" style="text-anchor: middle; visibility: inherit; font-family: &quot;Helvetica Neue&quot;, sans-serif; font-size: 12px; font-weight: 200;" fill="rgb(50, 49, 63)" stroke="none" stroke-width="1px">5</text><text x="227.625" y="0" dx="0em" dy="0.95em" style="text-anchor: middle; visibility: inherit; font-family: &quot;Helvetica Neue&quot;, sans-serif; font-size: 12px; font-weight: 200;" fill="rgb(50, 49, 63)" stroke="none" stroke-width="1px">10</text><text x="303.5" y="0" dx="0em" dy="0.95em" style="text-anchor: middle; visibility: inherit; font-family: &quot;Helvetica Neue&quot;, sans-serif; font-size: 12px; font-weight: 200;" fill="rgb(50, 49, 63)" stroke="none" stroke-width="1px">15</text><text x="379.375" y="0" dx="0em" dy="0.95em" style="text-anchor: middle; visibility: inherit; font-family: &quot;Helvetica Neue&quot;, sans-serif; font-size: 12px; font-weight: 200;" fill="rgb(50, 49, 63)" stroke="none" stroke-width="1px">20</text><text x="455.25" y="0" dx="0em" dy="0.95em" style="text-anchor: middle; visibility: inherit; font-family: &quot;Helvetica Neue&quot;, sans-serif; font-size: 12px; font-weight: 200;" fill="rgb(50, 49, 63)" stroke="none" stroke-width="1px">25</text><text x="531.125" y="0" dx="0em" dy="0.95em" style="text-anchor: middle; visibility: inherit; font-family: &quot;Helvetica Neue&quot;, sans-serif; font-size: 12px; font-weight: 200;" fill="rgb(50, 49, 63)" stroke="none" stroke-width="1px">30</text><text x="607" y="0" dx="0em" dy="0.95em" style="text-anchor: middle; visibility: inherit; font-family: &quot;Helvetica Neue&quot;, sans-serif; font-size: 12px; font-weight: 200;" fill="rgb(50, 49, 63)" stroke="none" stroke-width="1px">35</text><text x="682.875" y="0" dx="0em" dy="0.95em" style="text-anchor: middle; visibility: inherit; font-family: &quot;Helvetica Neue&quot;, sans-serif; font-size: 12px; font-weight: 200;" fill="rgb(50, 49, 63)" stroke="none" stroke-width="1px">40</text><text x="758.75" y="0" dx="0em" dy="0.95em" style="text-anchor: middle; visibility: inherit; font-family: &quot;Helvetica Neue&quot;, sans-serif; font-size: 12px; font-weight: 200;" fill="rgb(50, 49, 63)" stroke="none" stroke-width="1px">45</text><text x="834.625" y="0" dx="0em" dy="0.95em" style="text-anchor: middle; visibility: inherit; font-family: &quot;Helvetica Neue&quot;, sans-serif; font-size: 12px; font-weight: 200;" fill="rgb(50, 49, 63)" stroke="none" stroke-width="1px">50</text><text x="910.5" y="0" dx="0em" dy="0.95em" style="text-anchor: middle; visibility: hidden; font-family: &quot;Helvetica Neue&quot;, sans-serif; font-size: 12px; font-weight: 200;" fill="rgb(50, 49, 63)" stroke="none" stroke-width="1px">55</text></g><line x1="0" y1="0" x2="910.5" y2="0" fill="rgb(0, 0, 0)" stroke="rgb(204, 204, 204)" stroke-width="1px"></line></g></g></g></g></svg>