<svg viewBox="0 0 330 200" xmlns="http://www.w3.org/2000/svg"><g><g><g><g><g><line x1="60" y1="178" x2="55" y2="178" style="visibility: inherit;" fill="rgb(0, 0, 0)" stroke="rgb(204, 204, 204)" stroke-width="1px"></line><line x1="60" y1="158.2222222222222" x2="55" y2="158.2222222222222" style="visibility: inherit;" fill="rgb(0, 0, 0)" stroke="rgb(204, 204, 204)" stroke-width="1px"></line><line x1="60" y1="138.44444444444446" x2="55" y2="138.44444444444446" style="visibility: inherit;" fill="rgb(0, 0, 0)" stroke="rgb(204, 204, 204)" stroke-width="1px"></line><line x1="60" y1="118.66666666666666" x2="55" y2="118.66666666666666" style="visibility: inherit;" fill="rgb(0, 0, 0)" stroke="rgb(204, 204, 204)" stroke-width="1px"></line><line x1="60" y1="98.8888888888889" x2="55" y2="98.8888888888889" style="visibility: inherit;" fill="rgb(0, 0, 0)" stroke="rgb(204, 204, 204)" stroke-width="1px"></line><line x1="60" y1="79.1111111111111" x2="55" y2="79.1111111111111" style="visibility: inherit;" fill="rgb(0, 0, 0)" stroke="rgb(204, 204, 204)" stroke-width="1px"></line><line x1="60" y1="59.33333333333334" x2="55" y2="59.33333333333334" style="visibility: inherit;" fill="rgb(0, 0, 0)" stroke="rgb(204, 204, 204)" stroke-width="1px"></line><line x1="60" y1="39.55555555555557" x2="55" y2="39.55555555555557" style="visibility: inherit;" fill="rgb(0, 0, 0)" stroke="rgb(204, 204, 204)" stroke-width="1px"></line><line x1="60" y1="19.777777777777786" x2="55" y2="19.777777777777786" style="visibility: inherit;" fill="rgb(0, 0, 0)" stroke="rgb(204, 204, 204)" stroke-width="1px"></line><line x1="60" y1="0" x2="55" y2="0" style="visibility: inherit;" fill="rgb(0, 0, 0)" stroke="rgb(204, 204, 204)" stroke-width="1px"></line></g><g transform="translate(50, 0)"><text x="0" y="178" dx="0em" dy="0.3em" style="text-anchor: end; visibility: hidden; font-family: Roboto, sans-serif; font-size: 12px; font-weight: 200;" fill="rgb(50, 49, 63)" stroke="none" stroke-width="1px">-0.05</text><text x="0" y="158.2222222222222" dx="0em" dy="0.3em" style="text-anchor: end; visibility: inherit; font-family: Roboto, sans-serif; font-size: 12px; font-weight: 200;" fill="rgb(50, 49, 63)" stroke="none" stroke-width="1px">0</text><text x="0" y="138.44444444444446" dx="0em" dy="0.3em" style="text-anchor: end; visibility: hidden; font-family: Roboto, sans-serif; font-size: 12px; font-weight: 200;" fill="rgb(50, 49, 63)" stroke="none" stroke-width="1px">0.05</text><text x="0" y="118.66666666666666" dx="0em" dy="0.3em" style="text-anchor: end; visibility: inherit; font-family: Roboto, sans-serif; font-size: 12px; font-weight: 200;" fill="rgb(50, 49, 63)" stroke="none" stroke-width="1px">0.1</text><text x="0" y="98.8888888888889" dx="0em" dy="0.3em" style="text-anchor: end; visibility: hidden; font-family: Roboto, sans-serif; font-size: 12px; font-weight: 200;" fill="rgb(50, 49, 63)" stroke="none" stroke-width="1px">0.15</text><text x="0" y="79.1111111111111" dx="0em" dy="0.3em" style="text-anchor: end; visibility: inherit; font-family: Roboto, sans-serif; font-size: 12px; font-weight: 200;" fill="rgb(50, 49, 63)" stroke="none" stroke-width="1px">0.2</text><text x="0" y="59.33333333333334" dx="0em" dy="0.3em" style="text-anchor: end; visibility: hidden; font-family: Roboto, sans-serif; font-size: 12px; font-weight: 200;" fill="rgb(50, 49, 63)" stroke="none" stroke-width="1px">0.25</text><text x="0" y="39.55555555555557" dx="0em" dy="0.3em" style="text-anchor: end; visibility: inherit; font-family: Roboto, sans-serif; font-size: 12px; font-weight: 200;" fill="rgb(50, 49, 63)" stroke="none" stroke-width="1px">0.3</text><text x="0" y="19.777777777777786" dx="0em" dy="0.3em" style="text-anchor: end; visibility: hidden; font-family: Roboto, sans-serif; font-size: 12px; font-weight: 200;" fill="rgb(50, 49, 63)" stroke="none" stroke-width="1px">0.35</text><text x="0" y="0" dx="0em" dy="0.3em" style="text-anchor: end; visibility: hidden; font-family: Roboto, sans-serif; font-size: 12px; font-weight: 200;" fill="rgb(50, 49, 63)" stroke="none" stroke-width="1px">0.4</text></g><line x1="60" y1="0" x2="60" y2="178" fill="rgb(0, 0, 0)" stroke="rgb(204, 204, 204)" stroke-width="1px"></line></g></g><g transform="translate(60, 0)" clip-path="url(#clip_0)"><clipPath id="clip_0"><rect width="270" height="178"></rect></clipPath><g><g><g><line x1="0" y1="0" x2="0" y2="178" fill="rgb(0, 0, 0)" stroke="rgb(60, 60, 60)" stroke-width="1px" opacity="0.25"></line><line x1="22.5" y1="0" x2="22.5" y2="178" fill="rgb(0, 0, 0)" stroke="rgb(60, 60, 60)" stroke-width="1px" opacity="0.25"></line><line x1="45" y1="0" x2="45" y2="178" fill="rgb(0, 0, 0)" stroke="rgb(60, 60, 60)" stroke-width="1px" opacity="0.25"></line><line x1="67.5" y1="0" x2="67.5" y2="178" fill="rgb(0, 0, 0)" stroke="rgb(60, 60, 60)" stroke-width="1px" opacity="0.25"></line><line x1="90" y1="0" x2="90" y2="178" fill="rgb(0, 0, 0)" stroke="rgb(60, 60, 60)" stroke-width="1px" opacity="0.25"></line><line x1="112.5" y1="0" x2="112.5" y2="178" fill="rgb(0, 0, 0)" stroke="rgb(60, 60, 60)" stroke-width="1px" opacity="0.25"></line><line x1="135" y1="0" x2="135" y2="178" fill="rgb(0, 0, 0)" stroke="rgb(60, 60, 60)" stroke-width="1px" opacity="0.25"></line><line x1="157.5" y1="0" x2="157.5" y2="178" fill="rgb(0, 0, 0)" stroke="rgb(60, 60, 60)" stroke-width="1px" opacity="0.25"></line><line x1="180" y1="0" x2="180" y2="178" fill="rgb(0, 0, 0)" stroke="rgb(60, 60, 60)" stroke-width="1px" opacity="0.25"></line><line x1="202.5" y1="0" x2="202.5" y2="178" fill="rgb(0, 0, 0)" stroke="rgb(60, 60, 60)" stroke-width="1px" opacity="0.25"></line><line x1="225" y1="0" x2="225" y2="178" fill="rgb(0, 0, 0)" stroke="rgb(60, 60, 60)" stroke-width="1px" opacity="0.25"></line><line x1="247.5" y1="0" x2="247.5" y2="178" fill="rgb(0, 0, 0)" stroke="rgb(60, 60, 60)" stroke-width="1px" opacity="0.25"></line><line x1="270" y1="0" x2="270" y2="178" fill="rgb(0, 0, 0)" stroke="rgb(60, 60, 60)" stroke-width="1px" opacity="0.25"></line></g><g><line x1="0" y1="178" x2="270" y2="178" fill="rgb(0, 0, 0)" stroke="rgb(60, 60, 60)" stroke-width="1px" opacity="0.25"></line><line x1="0" y1="158.2222222222222" x2="270" y2="158.2222222222222" fill="rgb(0, 0, 0)" stroke="rgb(60, 60, 60)" stroke-width="1px" opacity="0.25"></line><line x1="0" y1="138.44444444444446" x2="270" y2="138.44444444444446" fill="rgb(0, 0, 0)" stroke="rgb(60, 60, 60)" stroke-width="1px" opacity="0.25"></line><line x1="0" y1="118.66666666666666" x2="270" y2="118.66666666666666" fill="rgb(0, 0, 0)" stroke="rgb(60, 60, 60)" stroke-width="1px" opacity="0.25"></line><line x1="0" y1="98.8888888888889" x2="270" y2="98.8888888888889" fill="rgb(0, 0, 0)" stroke="rgb(60, 60, 60)" stroke-width="1px" opacity="0.25"></line><line x1="0" y1="79.1111111111111" x2="270" y2="79.1111111111111" fill="rgb(0, 0, 0)" stroke="rgb(60, 60, 60)" stroke-width="1px" opacity="0.25"></line><line x1="0" y1="59.33333333333334" x2="270" y2="59.33333333333334" fill="rgb(0, 0, 0)" stroke="rgb(60, 60, 60)" stroke-width="1px" opacity="0.25"></line><line x1="0" y1="39.55555555555557" x2="270" y2="39.55555555555557" fill="rgb(0, 0, 0)" stroke="rgb(60, 60, 60)" stroke-width="1px" opacity="0.25"></line><line x1="0" y1="19.777777777777786" x2="270" y2="19.777777777777786" fill="rgb(0, 0, 0)" stroke="rgb(60, 60, 60)" stroke-width="1px" opacity="0.25"></line><line x1="0" y1="0" x2="270" y2="0" fill="rgb(0, 0, 0)" stroke="rgb(60, 60, 60)" stroke-width="1px" opacity="0.25"></line></g></g></g><g><g><line x1="0" y1="158.2222222222222" x2="270" y2="158.2222222222222" fill="rgb(0, 0, 0)" stroke="rgb(153, 153, 153)" stroke-width="1.5px"></line></g></g><g><g><line x1="22.5" y1="0" x2="22.5" y2="178" fill="rgb(0, 0, 0)" stroke="rgb(153, 153, 153)" stroke-width="1.5px"></line></g></g><g><g><g><g><g><path stroke="rgb(238, 51, 119)" stroke-width="2px" d="M22.5,-35.164879401524885L27,8.680145899454766L31.5,25.247938659456043L36,36.86688280105591L40.5,44.18879842758179L45,52.13928728633457L49.5,57.60440034336516L54,62.240312125947746L58.5,64.56995039516026L63,66.35704771677655L67.5,69.78436386585236L72,70.69474057356518L76.5,73.32131871912215L81,75.39797633224065L85.5,77.01859092712402L90,77.52235368887585L94.5,78.40254011419084L99,78.20861971378326L103.5,79.85611202981737L108,80.92369982931349L112.5,81.51424344380698L117,80.77451668845283L121.5,81.10965122116937L126,82.73635456297133L130.5,81.02896500958337L135,83.09933936595917L139.5,82.43811795446608L144,82.89887636237675L148.5,82.06315016746521L153,82.83546026547751L157.5,82.72052853637273L162,82.40104909737906L166.5,82.71248879697588L171,82.09871009985608L175.5,80.48814517921873L180,82.44064658217961L184.5,81.6514612833659L189,79.68868622514937L193.5,80.2480257484648L198,80.54922126399147L202.5,81.4034612576167L207,78.75169114271802L211.5,79.00249093108708L216,79.56276763810052L220.5,78.05145577589673L225,77.72356526056927L229.5,77.3859079943763L234,77.09911799430847L238.5,76.29530909326341L243,75.0916528304418" style="fill: none;" fill="none"></path></g><g><path stroke="rgb(51, 187, 238)" stroke-width="2px" d="M27,-18.20955234103733L31.5,16.380530489815616L36,38.361496289571136L40.5,54.08200425571867L45,64.22054591443803L49.5,72.30651381280687L54,79.33340519004399L58.5,86.91220345762041L63,90.3939941459232L67.5,95.80976064999899L72,97.81740264097851L76.5,102.37162619166905L81,104.83022447427115L85.5,106.24458792474535L90,109.20966621239981L94.5,110.71821662452486L99,112.17600586679247L103.5,116.29756294356453L108,116.68311678038704L112.5,119.36374213298163L117,120.73198907242882L121.5,122.38938665390015L126,121.44193224774467L130.5,123.12373786502415L135,124.67901484171551L139.5,124.95703421698677L144,126.89294334252676L148.5,127.10025544961294L153,128.01319615046185L157.5,127.27631631162431L162,127.40652295615938L166.5,129.28500747680664L171,129.69166268242728L175.5,130.75327077839108L180,130.7782829735014L184.5,131.56079304880566L189,130.94063678714963L193.5,133.20265636841458L198,132.9230720731947L202.5,130.88367193275027L207,133.23781254556445L211.5,133.84702615605462L216,132.95393135150272L220.5,134.23029450244374L225,134.73814639117984L229.5,134.12582357062232L234,134.0436991651853L238.5,134.9803906944063L243,135.85769189066357" style="fill: none;" fill="none"></path></g><g><path stroke="rgb(204, 51, 17)" stroke-width="2px" d="M22.5,-33.542808930079154L27,6.0079699357350735L31.5,26.99474297629463L36,35.28070823351543L40.5,45.96422515975105L45,53.6589866479238L49.5,57.27144667837354L54,62.002131899197906L58.5,63.49132268958622L63,66.71992642349669L67.5,69.69353956646391L72,71.69232841332754L76.5,73.76549074384901L81,75.51121052106222L85.5,75.83622464868758L90,77.966107222769L94.5,77.93192654185826L99,78.41007294919756L103.5,77.85678680737814L108,79.46746371852028L112.5,80.4928546746572L117,79.78142615159354L121.5,80.36645865440369L126,79.94595199161107L130.5,80.07151692443425L135,80.3918451335695L139.5,82.1975328789817L144,82.045102013482L148.5,82.21953017181822L153,82.3183942106035L157.5,80.91100364261204L162,81.12617276774513L166.5,79.73032311598462L171,80.47092811266583L175.5,80.63758177227446L180,81.18147250016531L184.5,80.28735209835901L189,79.80411896440718L193.5,80.14798875649771L198,78.361362973849L202.5,78.77450773451064L207,78.21747875213623L211.5,79.02941580613455L216,77.6983320315679L220.5,77.81631697548761L225,76.36068797111511L229.5,76.73551429642572L234,75.52424857351515L238.5,74.6412388086319L243,74.49100649356842" style="fill: none;" fill="none"></path></g><g><path stroke="rgb(0, 119, 187)" stroke-width="2px" d="M27,-17.54533076286316L31.5,18.344938251707305L36,40.8966783947415L40.5,51.95133185386658L45,64.6190199189716L49.5,71.99441395865547L54,79.43409644232857L58.5,85.00222897529602L63,90.23215018378365L67.5,94.87066132492488L72,98.62517246935104L76.5,102.65322336885666L81,104.94304606649612L85.5,107.27874950567883L90,110.45325887865489L94.5,111.86955269177756L99,113.61050992541844L103.5,115.61002965768179L108,117.0311832692888L112.5,118.09694090816711L117,120.31542270713383L121.5,121.57033820284737L126,121.57319396071965L130.5,123.06128842300838L135,123.80852148930234L139.5,124.66636580891078L144,126.1427012681961L148.5,126.62940610779656L153,128.3632961511612L157.5,128.5851375526852L162,129.27064911524457L166.5,129.70628039042157L171,129.81763137049145L175.5,130.20095718569226L180,130.3190246489313L184.5,131.1957776811388L189,131.33443960878583L193.5,131.71609146065182L198,132.55087163050968L202.5,132.91046135293115L207,134.0548009607527L211.5,134.0420561465952L216,133.9632074634234L220.5,133.95504689216614L225,133.8110285765595L229.5,133.7782684067885L234,133.82803050345845L238.5,135.9990415904257L243,133.9490686621931" style="fill: none;" fill="none"></path></g><g><path stroke="rgb(238, 51, 119)" stroke-width="2px" d="M22.5,-31.956469323900034L27,9.89672822422453L31.5,26.901849799686012L36,40.06831410196093L40.5,47.09439796871611L45,53.10681451691523L49.5,56.350189208984375L54,62.24327103296917L58.5,64.92222536934747L63,68.39994313981798L67.5,70.21255661381616L72,71.13598905669319L76.5,73.99946837955052L81,74.83041434817845L85.5,76.38442995813158L90,78.09621661239201L94.5,77.84414956304762L99,79.08732079135048L103.5,80.23020746972826L108,79.51552532778847L112.5,80.96523651811812L117,81.44772697819604L121.5,82.26212192906274L126,82.13845494058397L130.5,83.87591099739075L135,81.986318786939L139.5,83.33380622333952L144,83.169905172454L148.5,81.24731112851038L153,82.35619984732735L157.5,81.37009398142499L162,80.83733746740553L166.5,80.61046828163995L171,81.31561944219801L175.5,81.88359402285683L180,82.0142633650038L184.5,81.49929565853544L189,80.9459034204483L193.5,80.86489302582213L198,79.2862041393916L202.5,81.7884846131007L207,79.84038620524937L211.5,79.39821822113463L216,79.54920499854619L220.5,78.71320766872832L225,78.52110858758292L229.5,77.26615477932825L234,78.91212048795488L238.5,77.97852048608992L243,77.69357538223267" style="fill: none;" fill="none"></path></g><g><path stroke="rgb(51, 187, 238)" stroke-width="2px" d="M27,-15.140906413396186L31.5,17.28784219423931L36,38.03006333774992L40.5,52.65816876623365L45,63.568820118904114L49.5,72.16494602627226L54,79.63761266072592L58.5,84.45662302441069L63,90.8095083898968L67.5,95.06995726956262L72,98.43173539638519L76.5,102.55587414900464L81,106.26213506857556L85.5,106.47666172186536L90,110.65945108069315L94.5,111.9723069270452L99,113.43254227770699L103.5,115.6282074848811L108,117.45666172107062L112.5,118.32650081316632L117,119.47712073061203L121.5,121.47577401002249L126,122.53792437579897L130.5,122.98209050628876L135,124.36374388800728L139.5,125.13778689172533L144,125.89936063687009L148.5,127.22955438163545L153,127.62256442838246L157.5,128.24909530745614L162,128.4981916613049L166.5,130.01625242498187L171,129.139911989371L175.5,129.27566805813046L180,129.8357502553198L184.5,131.42322450213962L189,132.7787988318337L193.5,132.55025273561478L198,132.58362295892505L202.5,132.59059584140778L207,132.1838964290089L211.5,133.71097242832184L216,132.38447437021466L220.5,133.75266678796876L225,135.16008093290858L229.5,134.56465541654163L234,134.92825764086513L238.5,135.77289150158563L243,134.97654470470218" style="fill: none;" fill="none"></path></g><g><path stroke="rgb(204, 51, 17)" stroke-width="2px" d="M22.5,-31.489256726370925L27,9.240452077653675L31.5,26.185947550667667L36,41.290213028589896L40.5,47.83729582362705L45,52.02090742852953L49.5,57.93677637312147L54,60.64775999387106L58.5,64.34569235642752L63,68.30051914850873L67.5,69.52257132530212L72,71.08458541499245L76.5,73.81405336327025L81,73.4960415893131L85.5,76.10531425476074L90,77.39915823936462L94.5,77.49632473786673L99,78.97539512316388L103.5,78.6062744193607L108,78.41250726911757L112.5,78.99165732330748L117,79.39680949846905L121.5,79.63792505529192L126,80.09548289246031L130.5,81.13919313748679L135,80.73188956578574L139.5,82.18236700693768L144,80.98485843340558L148.5,80.63299016157788L153,80.56340869267783L157.5,81.27984731727177L162,81.13118876351251L166.5,80.97491485542723L171,79.67722782823775L175.5,80.67687275674608L180,81.20209054152173L184.5,80.1158887412813L189,81.53911712434557L193.5,81.57909184032017L198,79.89260325166914L202.5,80.08874577946135L207,80.48548098405203L211.5,79.23847850163779L216,79.88515293598175L220.5,78.92271832625073L225,79.41021888785893L229.5,76.59379325972664L234,78.02579226758745L238.5,76.81794520219168L243,76.90088890658485" style="fill: none;" fill="none"></path></g><g><path stroke="rgb(0, 119, 187)" stroke-width="2px" d="M27,-17.414207564459915L31.5,16.97209970156353L36,37.0540012518565L40.5,52.13667024506464L45,63.18202259805468L49.5,72.47796538141039L54,79.91405827469298L58.5,86.70779720942181L63,90.43130466673111L67.5,94.17985673745474L72,98.95503755410513L76.5,102.8121791548199L81,105.40045654773712L85.5,108.01889475186667L90,109.36248609754776L94.5,111.84697481658723L99,113.97321180502576L103.5,116.22346943616867L108,117.04830897516673L112.5,117.781552069717L117,119.92322017086876L121.5,120.6373482545217L126,122.74580822388333L130.5,122.53341823154027L135,123.37843963834976L139.5,125.15656887822682L144,125.77189481258392L148.5,126.09819388389587L153,127.36110785934662L157.5,127.80118633641136L162,128.13988098833298L166.5,129.4648789630996L171,130.34857540660434L175.5,131.15572634008197L180,130.73290029499265L184.5,132.05415248208575L189,130.69569881757099L193.5,132.3821343580882L198,131.9172057774332L202.5,134.14090544978777L207,133.35771016942132L211.5,133.4805932243665L216,134.95775977108212L220.5,132.79669078853397L225,134.86971313092442L229.5,134.26136155260932L234,134.82046972711882L238.5,135.52662143442365L243,135.01585042476654" style="fill: none;" fill="none"></path></g></g></g></g></g></g><g transform="translate(60, 178)" clip-path="url(#clip_1)"><clipPath id="clip_1"><rect width="270" height="22"></rect></clipPath><g><g><line x1="0" y1="0" x2="0" y2="5" style="visibility: inherit;" fill="rgb(0, 0, 0)" stroke="rgb(204, 204, 204)" stroke-width="1px"></line><line x1="22.5" y1="0" x2="22.5" y2="5" style="visibility: inherit;" fill="rgb(0, 0, 0)" stroke="rgb(204, 204, 204)" stroke-width="1px"></line><line x1="45" y1="0" x2="45" y2="5" style="visibility: inherit;" fill="rgb(0, 0, 0)" stroke="rgb(204, 204, 204)" stroke-width="1px"></line><line x1="67.5" y1="0" x2="67.5" y2="5" style="visibility: inherit;" fill="rgb(0, 0, 0)" stroke="rgb(204, 204, 204)" stroke-width="1px"></line><line x1="90" y1="0" x2="90" y2="5" style="visibility: inherit;" fill="rgb(0, 0, 0)" stroke="rgb(204, 204, 204)" stroke-width="1px"></line><line x1="112.5" y1="0" x2="112.5" y2="5" style="visibility: inherit;" fill="rgb(0, 0, 0)" stroke="rgb(204, 204, 204)" stroke-width="1px"></line><line x1="135" y1="0" x2="135" y2="5" style="visibility: inherit;" fill="rgb(0, 0, 0)" stroke="rgb(204, 204, 204)" stroke-width="1px"></line><line x1="157.5" y1="0" x2="157.5" y2="5" style="visibility: inherit;" fill="rgb(0, 0, 0)" stroke="rgb(204, 204, 204)" stroke-width="1px"></line><line x1="180" y1="0" x2="180" y2="5" style="visibility: inherit;" fill="rgb(0, 0, 0)" stroke="rgb(204, 204, 204)" stroke-width="1px"></line><line x1="202.5" y1="0" x2="202.5" y2="5" style="visibility: inherit;" fill="rgb(0, 0, 0)" stroke="rgb(204, 204, 204)" stroke-width="1px"></line><line x1="225" y1="0" x2="225" y2="5" style="visibility: inherit;" fill="rgb(0, 0, 0)" stroke="rgb(204, 204, 204)" stroke-width="1px"></line><line x1="247.5" y1="0" x2="247.5" y2="5" style="visibility: inherit;" fill="rgb(0, 0, 0)" stroke="rgb(204, 204, 204)" stroke-width="1px"></line><line x1="270" y1="0" x2="270" y2="5" style="visibility: inherit;" fill="rgb(0, 0, 0)" stroke="rgb(204, 204, 204)" stroke-width="1px"></line></g><g transform="translate(0, 8)"><text x="0" y="0" dx="0em" dy="0.95em" style="text-anchor: middle; visibility: hidden; font-family: Roboto, sans-serif; font-size: 12px; font-weight: 200;" fill="rgb(50, 49, 63)" stroke="none" stroke-width="1px">-5</text><text x="22.5" y="0" dx="0em" dy="0.95em" style="text-anchor: middle; visibility: inherit; font-family: Roboto, sans-serif; font-size: 12px; font-weight: 200;" fill="rgb(50, 49, 63)" stroke="none" stroke-width="1px">0</text><text x="45" y="0" dx="0em" dy="0.95em" style="text-anchor: middle; visibility: inherit; font-family: Roboto, sans-serif; font-size: 12px; font-weight: 200;" fill="rgb(50, 49, 63)" stroke="none" stroke-width="1px">5</text><text x="67.5" y="0" dx="0em" dy="0.95em" style="text-anchor: middle; visibility: inherit; font-family: Roboto, sans-serif; font-size: 12px; font-weight: 200;" fill="rgb(50, 49, 63)" stroke="none" stroke-width="1px">10</text><text x="90" y="0" dx="0em" dy="0.95em" style="text-anchor: middle; visibility: inherit; font-family: Roboto, sans-serif; font-size: 12px; font-weight: 200;" fill="rgb(50, 49, 63)" stroke="none" stroke-width="1px">15</text><text x="112.5" y="0" dx="0em" dy="0.95em" style="text-anchor: middle; visibility: inherit; font-family: Roboto, sans-serif; font-size: 12px; font-weight: 200;" fill="rgb(50, 49, 63)" stroke="none" stroke-width="1px">20</text><text x="135" y="0" dx="0em" dy="0.95em" style="text-anchor: middle; visibility: inherit; font-family: Roboto, sans-serif; font-size: 12px; font-weight: 200;" fill="rgb(50, 49, 63)" stroke="none" stroke-width="1px">25</text><text x="157.5" y="0" dx="0em" dy="0.95em" style="text-anchor: middle; visibility: inherit; font-family: Roboto, sans-serif; font-size: 12px; font-weight: 200;" fill="rgb(50, 49, 63)" stroke="none" stroke-width="1px">30</text><text x="180" y="0" dx="0em" dy="0.95em" style="text-anchor: middle; visibility: inherit; font-family: Roboto, sans-serif; font-size: 12px; font-weight: 200;" fill="rgb(50, 49, 63)" stroke="none" stroke-width="1px">35</text><text x="202.5" y="0" dx="0em" dy="0.95em" style="text-anchor: middle; visibility: inherit; font-family: Roboto, sans-serif; font-size: 12px; font-weight: 200;" fill="rgb(50, 49, 63)" stroke="none" stroke-width="1px">40</text><text x="225" y="0" dx="0em" dy="0.95em" style="text-anchor: middle; visibility: inherit; font-family: Roboto, sans-serif; font-size: 12px; font-weight: 200;" fill="rgb(50, 49, 63)" stroke="none" stroke-width="1px">45</text><text x="247.5" y="0" dx="0em" dy="0.95em" style="text-anchor: middle; visibility: inherit; font-family: Roboto, sans-serif; font-size: 12px; font-weight: 200;" fill="rgb(50, 49, 63)" stroke="none" stroke-width="1px">50</text><text x="270" y="0" dx="0em" dy="0.95em" style="text-anchor: middle; visibility: hidden; font-family: Roboto, sans-serif; font-size: 12px; font-weight: 200;" fill="rgb(50, 49, 63)" stroke="none" stroke-width="1px">55</text></g><line x1="0" y1="0" x2="270" y2="0" fill="rgb(0, 0, 0)" stroke="rgb(204, 204, 204)" stroke-width="1px"></line></g></g></g></g></svg>